M48
; DRILL file {KiCad 5.1.4-e60b266~84~ubuntu19.04.1} date Wed 15 Jan 2020 22:14:08 AEDT
; FORMAT={-:-/ absolute / inch / decimal}
; #@! TF.CreationDate,2020-01-15T22:14:08+11:00
; #@! TF.GenerationSoftware,Kicad,Pcbnew,5.1.4-e60b266~84~ubuntu19.04.1
; #@! TF.FileFunction,Plated,1,2,PTH
FMAT,2
INCH
T1C0.0157
T2C0.0300
T3C0.0315
T4C0.0394
%
G90
G05
T1
X2.835Y-4.44
X2.925Y-4.35
X2.965Y-4.2575
X2.965Y-4.3875
X3.065Y-4.515
X3.1Y-4.55
X3.15Y-4.6
X3.6Y-3.25
X3.65Y-3.25
X3.7Y-3.025
T2
X2.525Y-3.36
X2.525Y-4.06
X4.06Y-3.36
X4.06Y-4.06
T3
X2.6Y-4.2625
X2.6Y-4.5625
X3.15Y-2.9081
X3.15Y-3.105
X3.425Y-2.9081
X3.425Y-3.105
T4
X2.65Y-2.555
X2.65Y-2.655
X2.75Y-2.555
X2.75Y-2.655
X2.85Y-2.555
X2.85Y-2.655
X2.95Y-2.555
X2.95Y-2.655
X3.05Y-2.555
X3.05Y-2.655
X3.15Y-2.555
X3.15Y-2.655
X3.645Y-4.775
X3.645Y-4.875
X3.3Y-4.775
X3.3Y-4.875
X4.02Y-4.56
X4.02Y-4.66
X4.02Y-4.76
X4.02Y-4.86
X3.195Y-4.43
X3.295Y-4.43
X3.395Y-4.43
X3.495Y-4.43
X3.595Y-4.43
X3.45Y-2.555
X3.45Y-2.655
X3.55Y-2.555
X3.55Y-2.655
X3.65Y-2.555
X3.65Y-2.655
X3.75Y-2.555
X3.75Y-2.655
X3.85Y-2.555
X3.85Y-2.655
X3.95Y-2.555
X3.95Y-2.655
T0
M30
