M48
; DRILL file {KiCad 5.1.5+dfsg1-2build2} date Tue 18 Aug 2020 23:14:57
; FORMAT={-:-/ absolute / inch / decimal}
; #@! TF.CreationDate,2020-08-18T23:14:57+10:00
; #@! TF.GenerationSoftware,Kicad,Pcbnew,5.1.5+dfsg1-2build2
; #@! TF.FileFunction,Plated,1,2,PTH
FMAT,2
INCH
T1C0.0157
T2C0.0236
T3C0.0315
T4C0.0335
T5C0.0394
T6C0.0512
%
G90
G05
T1
X4.6763Y-4.1387
X4.765Y-4.385
X4.9011Y-3.6239
X4.9698Y-3.6198
X5.075Y-4.035
X5.075Y-4.265
X5.0751Y-4.4499
X5.0754Y-4.6396
X5.12Y-4.265
X5.16Y-2.89
X5.195Y-4.05
X5.25Y-3.15
X5.254Y-3.5007
X5.255Y-4.05
X5.31Y-4.05
X5.3207Y-3.5293
X5.325Y-3.15
X5.34Y-4.345
X5.345Y-3.65
X5.36Y-4.05
X5.395Y-3.65
X5.555Y-4.55
X5.5634Y-3.4961
X5.58Y-3.15
X5.63Y-3.15
X5.6454Y-3.5246
X5.705Y-4.075
X5.775Y-4.105
X5.81Y-3.56
X5.8696Y-3.5004
X5.88Y-3.15
X5.91Y-4.51
X5.93Y-3.15
X5.9504Y-3.5296
X5.9594Y-3.8994
X5.97Y-4.27
X5.97Y-4.13
X5.97Y-4.1746
X5.97Y-4.22
X6.06Y-3.43
X6.095Y-3.905
X6.19Y-4.36
X6.19Y-4.42
X6.195Y-3.68
X6.195Y-3.745
X6.22Y-3.46
X6.22Y-3.5147
X6.22Y-4.47
X6.26Y-3.42
X6.28Y-4.63
X6.29Y-4.48
X6.31Y-3.97
X6.31Y-3.1
X6.31Y-3.31
X6.3183Y-4.5817
X6.33Y-3.885
X6.365Y-3.97
X6.3722Y-3.1878
X6.412Y-3.9685
X6.4296Y-3.4996
X6.43Y-3.55
X6.4648Y-3.4041
X6.4929Y-3.4517
X6.5219Y-3.3974
X6.55Y-3.4487
T3
X6.6663Y-3.035
X6.6663Y-3.1138
X6.6663Y-3.1925
X6.6663Y-3.2713
X6.6663Y-3.35
X6.745Y-3.035
X6.745Y-3.1138
X6.745Y-3.1925
X6.745Y-3.2713
X6.745Y-3.35
T4
X6.6424Y-3.5716
X6.6424Y-3.7684
T5
X5.11Y-4.785
X5.21Y-4.785
X5.31Y-4.785
X5.41Y-4.785
X5.51Y-4.785
X5.61Y-4.785
X5.71Y-4.785
X5.81Y-4.785
X6.0Y-2.725
X6.0Y-2.825
X6.1Y-2.725
X6.1Y-2.825
X6.2Y-2.725
X6.2Y-2.825
X6.3Y-2.725
X6.3Y-2.825
X6.4Y-2.725
X6.4Y-2.825
X6.5Y-2.725
X6.5Y-2.825
X5.26Y-2.725
X5.26Y-2.825
X5.36Y-2.725
X5.36Y-2.825
X5.46Y-2.725
X5.46Y-2.825
X5.56Y-2.725
X5.56Y-2.825
X5.66Y-2.725
X5.66Y-2.825
X5.76Y-2.725
X5.76Y-2.825
T6
X4.77Y-2.86
X4.97Y-2.86
T2
G00X6.7349Y-3.5322
M15
G01X6.7625Y-3.5322
M16
G05
G00X6.7625Y-3.8078
M15
G01X6.7349Y-3.8078
M16
G05
T0
M30
