G04 #@! TF.GenerationSoftware,KiCad,Pcbnew,5.1.5+dfsg1-2build2*
G04 #@! TF.CreationDate,2020-08-18T23:14:54+10:00*
G04 #@! TF.ProjectId,sid-board-v3,7369642d-626f-4617-9264-2d76332e6b69,rev?*
G04 #@! TF.SameCoordinates,Original*
G04 #@! TF.FileFunction,Legend,Bot*
G04 #@! TF.FilePolarity,Positive*
%FSLAX46Y46*%
G04 Gerber Fmt 4.6, Leading zero omitted, Abs format (unit mm)*
G04 Created by KiCad (PCBNEW 5.1.5+dfsg1-2build2) date 2020-08-18 23:14:54*
%MOMM*%
%LPD*%
G04 APERTURE LIST*
%ADD10C,0.150000*%
%ADD11C,0.200000*%
%ADD12C,0.120000*%
G04 APERTURE END LIST*
D10*
X131064000Y-97028000D02*
X131064000Y-78105000D01*
X113919000Y-97028000D02*
X131064000Y-97028000D01*
X113919000Y-78105000D02*
X113919000Y-97028000D01*
X131064000Y-78105000D02*
X113919000Y-78105000D01*
X131318000Y-93853000D02*
X131318000Y-78105000D01*
X153416000Y-93853000D02*
X131318000Y-93853000D01*
X153416000Y-78105000D02*
X153416000Y-93853000D01*
X131318000Y-78105000D02*
X153416000Y-78105000D01*
D11*
X120329523Y-92117904D02*
X120329523Y-91317904D01*
X120062857Y-91889333D01*
X119796190Y-91317904D01*
X119796190Y-92117904D01*
X118958095Y-92041714D02*
X118996190Y-92079809D01*
X119110476Y-92117904D01*
X119186666Y-92117904D01*
X119300952Y-92079809D01*
X119377142Y-92003619D01*
X119415238Y-91927428D01*
X119453333Y-91775047D01*
X119453333Y-91660761D01*
X119415238Y-91508380D01*
X119377142Y-91432190D01*
X119300952Y-91356000D01*
X119186666Y-91317904D01*
X119110476Y-91317904D01*
X118996190Y-91356000D01*
X118958095Y-91394095D01*
X118615238Y-92117904D02*
X118615238Y-91317904D01*
X118310476Y-91317904D01*
X118234285Y-91356000D01*
X118196190Y-91394095D01*
X118158095Y-91470285D01*
X118158095Y-91584571D01*
X118196190Y-91660761D01*
X118234285Y-91698857D01*
X118310476Y-91736952D01*
X118615238Y-91736952D01*
X117396190Y-92117904D02*
X117853333Y-92117904D01*
X117624761Y-92117904D02*
X117624761Y-91317904D01*
X117700952Y-91432190D01*
X117777142Y-91508380D01*
X117853333Y-91546476D01*
X117129523Y-91317904D02*
X116596190Y-91317904D01*
X116939047Y-92117904D01*
X116139047Y-91317904D02*
X116062857Y-91317904D01*
X115986666Y-91356000D01*
X115948571Y-91394095D01*
X115910476Y-91470285D01*
X115872380Y-91622666D01*
X115872380Y-91813142D01*
X115910476Y-91965523D01*
X115948571Y-92041714D01*
X115986666Y-92079809D01*
X116062857Y-92117904D01*
X116139047Y-92117904D01*
X116215238Y-92079809D01*
X116253333Y-92041714D01*
X116291428Y-91965523D01*
X116329523Y-91813142D01*
X116329523Y-91622666D01*
X116291428Y-91470285D01*
X116253333Y-91394095D01*
X116215238Y-91356000D01*
X116139047Y-91317904D01*
X115605714Y-91317904D02*
X115110476Y-91317904D01*
X115377142Y-91622666D01*
X115262857Y-91622666D01*
X115186666Y-91660761D01*
X115148571Y-91698857D01*
X115110476Y-91775047D01*
X115110476Y-91965523D01*
X115148571Y-92041714D01*
X115186666Y-92079809D01*
X115262857Y-92117904D01*
X115491428Y-92117904D01*
X115567619Y-92079809D01*
X115605714Y-92041714D01*
X114805714Y-91889333D02*
X114424761Y-91889333D01*
X114881904Y-92117904D02*
X114615238Y-91317904D01*
X114348571Y-92117904D01*
X120405714Y-92717904D02*
X119910476Y-92717904D01*
X120177142Y-93022666D01*
X120062857Y-93022666D01*
X119986666Y-93060761D01*
X119948571Y-93098857D01*
X119910476Y-93175047D01*
X119910476Y-93365523D01*
X119948571Y-93441714D01*
X119986666Y-93479809D01*
X120062857Y-93517904D01*
X120291428Y-93517904D01*
X120367619Y-93479809D01*
X120405714Y-93441714D01*
X119643809Y-92717904D02*
X119148571Y-92717904D01*
X119415238Y-93022666D01*
X119300952Y-93022666D01*
X119224761Y-93060761D01*
X119186666Y-93098857D01*
X119148571Y-93175047D01*
X119148571Y-93365523D01*
X119186666Y-93441714D01*
X119224761Y-93479809D01*
X119300952Y-93517904D01*
X119529523Y-93517904D01*
X119605714Y-93479809D01*
X119643809Y-93441714D01*
X118653333Y-92717904D02*
X118577142Y-92717904D01*
X118500952Y-92756000D01*
X118462857Y-92794095D01*
X118424761Y-92870285D01*
X118386666Y-93022666D01*
X118386666Y-93213142D01*
X118424761Y-93365523D01*
X118462857Y-93441714D01*
X118500952Y-93479809D01*
X118577142Y-93517904D01*
X118653333Y-93517904D01*
X118729523Y-93479809D01*
X118767619Y-93441714D01*
X118805714Y-93365523D01*
X118843809Y-93213142D01*
X118843809Y-93022666D01*
X118805714Y-92870285D01*
X118767619Y-92794095D01*
X118729523Y-92756000D01*
X118653333Y-92717904D01*
X118081904Y-92794095D02*
X118043809Y-92756000D01*
X117967619Y-92717904D01*
X117777142Y-92717904D01*
X117700952Y-92756000D01*
X117662857Y-92794095D01*
X117624761Y-92870285D01*
X117624761Y-92946476D01*
X117662857Y-93060761D01*
X118120000Y-93517904D01*
X117624761Y-93517904D01*
D10*
X126238000Y-82042000D02*
X125603000Y-81661000D01*
X126238000Y-81280000D02*
X126238000Y-82042000D01*
X125603000Y-81661000D02*
X126238000Y-81280000D01*
X125603000Y-81026000D02*
X125603000Y-82296000D01*
X120523000Y-84582000D02*
X121158000Y-84201000D01*
X120523000Y-83820000D02*
X120523000Y-84582000D01*
X121158000Y-84201000D02*
X120523000Y-83820000D01*
X121158000Y-83566000D02*
X121158000Y-84836000D01*
X136652000Y-85598000D02*
G75*
G03X136652000Y-85598000I-254000J0D01*
G01*
X144526000Y-85598000D02*
G75*
G03X144526000Y-85598000I-254000J0D01*
G01*
X152146000Y-85598000D02*
G75*
G03X152146000Y-85598000I-254000J0D01*
G01*
D11*
X130194000Y-119402476D02*
X130232095Y-119478666D01*
X130232095Y-119592952D01*
X130194000Y-119707238D01*
X130117809Y-119783428D01*
X130041619Y-119821523D01*
X129889238Y-119859619D01*
X129774952Y-119859619D01*
X129622571Y-119821523D01*
X129546380Y-119783428D01*
X129470190Y-119707238D01*
X129432095Y-119592952D01*
X129432095Y-119516761D01*
X129470190Y-119402476D01*
X129508285Y-119364380D01*
X129774952Y-119364380D01*
X129774952Y-119516761D01*
X129432095Y-119021523D02*
X130232095Y-119021523D01*
X129432095Y-118564380D01*
X130232095Y-118564380D01*
X129432095Y-118183428D02*
X130232095Y-118183428D01*
X130232095Y-117992952D01*
X130194000Y-117878666D01*
X130117809Y-117802476D01*
X130041619Y-117764380D01*
X129889238Y-117726285D01*
X129774952Y-117726285D01*
X129622571Y-117764380D01*
X129546380Y-117802476D01*
X129470190Y-117878666D01*
X129432095Y-117992952D01*
X129432095Y-118183428D01*
X132772095Y-119897714D02*
X132772095Y-119402476D01*
X132467333Y-119669142D01*
X132467333Y-119554857D01*
X132429238Y-119478666D01*
X132391142Y-119440571D01*
X132314952Y-119402476D01*
X132124476Y-119402476D01*
X132048285Y-119440571D01*
X132010190Y-119478666D01*
X131972095Y-119554857D01*
X131972095Y-119783428D01*
X132010190Y-119859619D01*
X132048285Y-119897714D01*
X132048285Y-119059619D02*
X132010190Y-119021523D01*
X131972095Y-119059619D01*
X132010190Y-119097714D01*
X132048285Y-119059619D01*
X131972095Y-119059619D01*
X132772095Y-118754857D02*
X132772095Y-118259619D01*
X132467333Y-118526285D01*
X132467333Y-118412000D01*
X132429238Y-118335809D01*
X132391142Y-118297714D01*
X132314952Y-118259619D01*
X132124476Y-118259619D01*
X132048285Y-118297714D01*
X132010190Y-118335809D01*
X131972095Y-118412000D01*
X131972095Y-118640571D01*
X132010190Y-118716761D01*
X132048285Y-118754857D01*
X132772095Y-118031047D02*
X131972095Y-117764380D01*
X132772095Y-117497714D01*
X134512095Y-119821523D02*
X135312095Y-119821523D01*
X135312095Y-119288190D02*
X135312095Y-119135809D01*
X135274000Y-119059619D01*
X135197809Y-118983428D01*
X135045428Y-118945333D01*
X134778761Y-118945333D01*
X134626380Y-118983428D01*
X134550190Y-119059619D01*
X134512095Y-119135809D01*
X134512095Y-119288190D01*
X134550190Y-119364380D01*
X134626380Y-119440571D01*
X134778761Y-119478666D01*
X135045428Y-119478666D01*
X135197809Y-119440571D01*
X135274000Y-119364380D01*
X135312095Y-119288190D01*
X135312095Y-118678666D02*
X135312095Y-118183428D01*
X135007333Y-118450095D01*
X135007333Y-118335809D01*
X134969238Y-118259619D01*
X134931142Y-118221523D01*
X134854952Y-118183428D01*
X134664476Y-118183428D01*
X134588285Y-118221523D01*
X134550190Y-118259619D01*
X134512095Y-118335809D01*
X134512095Y-118564380D01*
X134550190Y-118640571D01*
X134588285Y-118678666D01*
X135235904Y-117878666D02*
X135274000Y-117840571D01*
X135312095Y-117764380D01*
X135312095Y-117573904D01*
X135274000Y-117497714D01*
X135235904Y-117459619D01*
X135159714Y-117421523D01*
X135083523Y-117421523D01*
X134969238Y-117459619D01*
X134512095Y-117916761D01*
X134512095Y-117421523D01*
X137052095Y-119821523D02*
X137852095Y-119821523D01*
X137852095Y-119288190D02*
X137852095Y-119135809D01*
X137814000Y-119059619D01*
X137737809Y-118983428D01*
X137585428Y-118945333D01*
X137318761Y-118945333D01*
X137166380Y-118983428D01*
X137090190Y-119059619D01*
X137052095Y-119135809D01*
X137052095Y-119288190D01*
X137090190Y-119364380D01*
X137166380Y-119440571D01*
X137318761Y-119478666D01*
X137585428Y-119478666D01*
X137737809Y-119440571D01*
X137814000Y-119364380D01*
X137852095Y-119288190D01*
X137852095Y-118678666D02*
X137852095Y-118183428D01*
X137547333Y-118450095D01*
X137547333Y-118335809D01*
X137509238Y-118259619D01*
X137471142Y-118221523D01*
X137394952Y-118183428D01*
X137204476Y-118183428D01*
X137128285Y-118221523D01*
X137090190Y-118259619D01*
X137052095Y-118335809D01*
X137052095Y-118564380D01*
X137090190Y-118640571D01*
X137128285Y-118678666D01*
X137852095Y-117916761D02*
X137852095Y-117421523D01*
X137547333Y-117688190D01*
X137547333Y-117573904D01*
X137509238Y-117497714D01*
X137471142Y-117459619D01*
X137394952Y-117421523D01*
X137204476Y-117421523D01*
X137128285Y-117459619D01*
X137090190Y-117497714D01*
X137052095Y-117573904D01*
X137052095Y-117802476D01*
X137090190Y-117878666D01*
X137128285Y-117916761D01*
X139592095Y-119821523D02*
X140392095Y-119821523D01*
X140392095Y-119288190D02*
X140392095Y-119135809D01*
X140354000Y-119059619D01*
X140277809Y-118983428D01*
X140125428Y-118945333D01*
X139858761Y-118945333D01*
X139706380Y-118983428D01*
X139630190Y-119059619D01*
X139592095Y-119135809D01*
X139592095Y-119288190D01*
X139630190Y-119364380D01*
X139706380Y-119440571D01*
X139858761Y-119478666D01*
X140125428Y-119478666D01*
X140277809Y-119440571D01*
X140354000Y-119364380D01*
X140392095Y-119288190D01*
X140315904Y-118640571D02*
X140354000Y-118602476D01*
X140392095Y-118526285D01*
X140392095Y-118335809D01*
X140354000Y-118259619D01*
X140315904Y-118221523D01*
X140239714Y-118183428D01*
X140163523Y-118183428D01*
X140049238Y-118221523D01*
X139592095Y-118678666D01*
X139592095Y-118183428D01*
X140392095Y-117916761D02*
X140392095Y-117383428D01*
X139592095Y-117726285D01*
X142132095Y-119821523D02*
X142932095Y-119821523D01*
X142932095Y-119288190D02*
X142932095Y-119135809D01*
X142894000Y-119059619D01*
X142817809Y-118983428D01*
X142665428Y-118945333D01*
X142398761Y-118945333D01*
X142246380Y-118983428D01*
X142170190Y-119059619D01*
X142132095Y-119135809D01*
X142132095Y-119288190D01*
X142170190Y-119364380D01*
X142246380Y-119440571D01*
X142398761Y-119478666D01*
X142665428Y-119478666D01*
X142817809Y-119440571D01*
X142894000Y-119364380D01*
X142932095Y-119288190D01*
X142855904Y-118640571D02*
X142894000Y-118602476D01*
X142932095Y-118526285D01*
X142932095Y-118335809D01*
X142894000Y-118259619D01*
X142855904Y-118221523D01*
X142779714Y-118183428D01*
X142703523Y-118183428D01*
X142589238Y-118221523D01*
X142132095Y-118678666D01*
X142132095Y-118183428D01*
X142855904Y-117878666D02*
X142894000Y-117840571D01*
X142932095Y-117764380D01*
X142932095Y-117573904D01*
X142894000Y-117497714D01*
X142855904Y-117459619D01*
X142779714Y-117421523D01*
X142703523Y-117421523D01*
X142589238Y-117459619D01*
X142132095Y-117916761D01*
X142132095Y-117421523D01*
X141827333Y-116240571D02*
X141865428Y-116278666D01*
X141979714Y-116354857D01*
X142055904Y-116392952D01*
X142170190Y-116431047D01*
X142360666Y-116469142D01*
X142513047Y-116469142D01*
X142703523Y-116431047D01*
X142817809Y-116392952D01*
X142894000Y-116354857D01*
X143008285Y-116278666D01*
X143046380Y-116240571D01*
X142132095Y-115935809D02*
X142932095Y-115935809D01*
X142932095Y-115745333D01*
X142894000Y-115631047D01*
X142817809Y-115554857D01*
X142741619Y-115516761D01*
X142589238Y-115478666D01*
X142474952Y-115478666D01*
X142322571Y-115516761D01*
X142246380Y-115554857D01*
X142170190Y-115631047D01*
X142132095Y-115745333D01*
X142132095Y-115935809D01*
X142132095Y-115135809D02*
X142932095Y-115135809D01*
X142132095Y-114754857D02*
X142932095Y-114754857D01*
X142132095Y-114297714D01*
X142932095Y-114297714D01*
X141827333Y-113992952D02*
X141865428Y-113954857D01*
X141979714Y-113878666D01*
X142055904Y-113840571D01*
X142170190Y-113802476D01*
X142360666Y-113764380D01*
X142513047Y-113764380D01*
X142703523Y-113802476D01*
X142817809Y-113840571D01*
X142894000Y-113878666D01*
X143008285Y-113954857D01*
X143046380Y-113992952D01*
X144672095Y-119821523D02*
X145472095Y-119821523D01*
X145472095Y-119288190D02*
X145472095Y-119135809D01*
X145434000Y-119059619D01*
X145357809Y-118983428D01*
X145205428Y-118945333D01*
X144938761Y-118945333D01*
X144786380Y-118983428D01*
X144710190Y-119059619D01*
X144672095Y-119135809D01*
X144672095Y-119288190D01*
X144710190Y-119364380D01*
X144786380Y-119440571D01*
X144938761Y-119478666D01*
X145205428Y-119478666D01*
X145357809Y-119440571D01*
X145434000Y-119364380D01*
X145472095Y-119288190D01*
X145395904Y-118640571D02*
X145434000Y-118602476D01*
X145472095Y-118526285D01*
X145472095Y-118335809D01*
X145434000Y-118259619D01*
X145395904Y-118221523D01*
X145319714Y-118183428D01*
X145243523Y-118183428D01*
X145129238Y-118221523D01*
X144672095Y-118678666D01*
X144672095Y-118183428D01*
X145472095Y-117459619D02*
X145472095Y-117840571D01*
X145091142Y-117878666D01*
X145129238Y-117840571D01*
X145167333Y-117764380D01*
X145167333Y-117573904D01*
X145129238Y-117497714D01*
X145091142Y-117459619D01*
X145014952Y-117421523D01*
X144824476Y-117421523D01*
X144748285Y-117459619D01*
X144710190Y-117497714D01*
X144672095Y-117573904D01*
X144672095Y-117764380D01*
X144710190Y-117840571D01*
X144748285Y-117878666D01*
X144367333Y-116240571D02*
X144405428Y-116278666D01*
X144519714Y-116354857D01*
X144595904Y-116392952D01*
X144710190Y-116431047D01*
X144900666Y-116469142D01*
X145053047Y-116469142D01*
X145243523Y-116431047D01*
X145357809Y-116392952D01*
X145434000Y-116354857D01*
X145548285Y-116278666D01*
X145586380Y-116240571D01*
X145472095Y-116012000D02*
X144672095Y-115821523D01*
X145243523Y-115669142D01*
X144672095Y-115516761D01*
X145472095Y-115326285D01*
X144710190Y-115059619D02*
X144672095Y-114945333D01*
X144672095Y-114754857D01*
X144710190Y-114678666D01*
X144748285Y-114640571D01*
X144824476Y-114602476D01*
X144900666Y-114602476D01*
X144976857Y-114640571D01*
X145014952Y-114678666D01*
X145053047Y-114754857D01*
X145091142Y-114907238D01*
X145129238Y-114983428D01*
X145167333Y-115021523D01*
X145243523Y-115059619D01*
X145319714Y-115059619D01*
X145395904Y-115021523D01*
X145434000Y-114983428D01*
X145472095Y-114907238D01*
X145472095Y-114716761D01*
X145434000Y-114602476D01*
X145091142Y-114259619D02*
X145091142Y-113992952D01*
X144672095Y-113878666D02*
X144672095Y-114259619D01*
X145472095Y-114259619D01*
X145472095Y-113878666D01*
X144672095Y-113154857D02*
X144672095Y-113535809D01*
X145472095Y-113535809D01*
X144367333Y-112964380D02*
X144405428Y-112926285D01*
X144519714Y-112850095D01*
X144595904Y-112812000D01*
X144710190Y-112773904D01*
X144900666Y-112735809D01*
X145053047Y-112735809D01*
X145243523Y-112773904D01*
X145357809Y-112812000D01*
X145434000Y-112850095D01*
X145548285Y-112926285D01*
X145586380Y-112964380D01*
X147212095Y-119821523D02*
X148012095Y-119821523D01*
X148012095Y-119288190D02*
X148012095Y-119135809D01*
X147974000Y-119059619D01*
X147897809Y-118983428D01*
X147745428Y-118945333D01*
X147478761Y-118945333D01*
X147326380Y-118983428D01*
X147250190Y-119059619D01*
X147212095Y-119135809D01*
X147212095Y-119288190D01*
X147250190Y-119364380D01*
X147326380Y-119440571D01*
X147478761Y-119478666D01*
X147745428Y-119478666D01*
X147897809Y-119440571D01*
X147974000Y-119364380D01*
X148012095Y-119288190D01*
X147935904Y-118640571D02*
X147974000Y-118602476D01*
X148012095Y-118526285D01*
X148012095Y-118335809D01*
X147974000Y-118259619D01*
X147935904Y-118221523D01*
X147859714Y-118183428D01*
X147783523Y-118183428D01*
X147669238Y-118221523D01*
X147212095Y-118678666D01*
X147212095Y-118183428D01*
X148012095Y-117916761D02*
X148012095Y-117383428D01*
X147212095Y-117726285D01*
X146907333Y-116240571D02*
X146945428Y-116278666D01*
X147059714Y-116354857D01*
X147135904Y-116392952D01*
X147250190Y-116431047D01*
X147440666Y-116469142D01*
X147593047Y-116469142D01*
X147783523Y-116431047D01*
X147897809Y-116392952D01*
X147974000Y-116354857D01*
X148088285Y-116278666D01*
X148126380Y-116240571D01*
X147631142Y-115669142D02*
X147593047Y-115554857D01*
X147554952Y-115516761D01*
X147478761Y-115478666D01*
X147364476Y-115478666D01*
X147288285Y-115516761D01*
X147250190Y-115554857D01*
X147212095Y-115631047D01*
X147212095Y-115935809D01*
X148012095Y-115935809D01*
X148012095Y-115669142D01*
X147974000Y-115592952D01*
X147935904Y-115554857D01*
X147859714Y-115516761D01*
X147783523Y-115516761D01*
X147707333Y-115554857D01*
X147669238Y-115592952D01*
X147631142Y-115669142D01*
X147631142Y-115935809D01*
X147288285Y-114678666D02*
X147250190Y-114716761D01*
X147212095Y-114831047D01*
X147212095Y-114907238D01*
X147250190Y-115021523D01*
X147326380Y-115097714D01*
X147402571Y-115135809D01*
X147554952Y-115173904D01*
X147669238Y-115173904D01*
X147821619Y-115135809D01*
X147897809Y-115097714D01*
X147974000Y-115021523D01*
X148012095Y-114907238D01*
X148012095Y-114831047D01*
X147974000Y-114716761D01*
X147935904Y-114678666D01*
X147212095Y-113954857D02*
X147212095Y-114335809D01*
X148012095Y-114335809D01*
X147212095Y-113688190D02*
X148012095Y-113688190D01*
X147212095Y-113231047D02*
X147669238Y-113573904D01*
X148012095Y-113231047D02*
X147554952Y-113688190D01*
X146907333Y-112964380D02*
X146945428Y-112926285D01*
X147059714Y-112850095D01*
X147135904Y-112812000D01*
X147250190Y-112773904D01*
X147440666Y-112735809D01*
X147593047Y-112735809D01*
X147783523Y-112773904D01*
X147897809Y-112812000D01*
X147974000Y-112850095D01*
X148088285Y-112926285D01*
X148126380Y-112964380D01*
D12*
X134231748Y-90222000D02*
X134754252Y-90222000D01*
X134231748Y-91642000D02*
X134754252Y-91642000D01*
X123734000Y-82661000D02*
X127634000Y-82661000D01*
X123734000Y-80661000D02*
X127634000Y-80661000D01*
X123734000Y-82661000D02*
X123734000Y-80661000D01*
X147506420Y-84861825D02*
X147506420Y-82911825D01*
X147506420Y-84861825D02*
X147506420Y-86811825D01*
X152626420Y-84861825D02*
X152626420Y-82911825D01*
X152626420Y-84861825D02*
X152626420Y-88311825D01*
X121079000Y-88363252D02*
X121079000Y-94373252D01*
X127899000Y-90613252D02*
X127899000Y-94373252D01*
X121079000Y-94373252D02*
X122339000Y-94373252D01*
X127899000Y-94373252D02*
X126639000Y-94373252D01*
X142105748Y-91642000D02*
X142628252Y-91642000D01*
X142105748Y-90222000D02*
X142628252Y-90222000D01*
X149852748Y-90222000D02*
X150375252Y-90222000D01*
X149852748Y-91642000D02*
X150375252Y-91642000D01*
X144911877Y-84907159D02*
X144911877Y-88357159D01*
X144911877Y-84907159D02*
X144911877Y-82957159D01*
X139791877Y-84907159D02*
X139791877Y-86857159D01*
X139791877Y-84907159D02*
X139791877Y-82957159D01*
X123027000Y-83201000D02*
X119127000Y-83201000D01*
X123027000Y-85201000D02*
X119127000Y-85201000D01*
X123027000Y-83201000D02*
X123027000Y-85201000D01*
X123055748Y-87451000D02*
X123578252Y-87451000D01*
X123055748Y-86031000D02*
X123578252Y-86031000D01*
X137071485Y-84836000D02*
X137071485Y-88286000D01*
X137071485Y-84836000D02*
X137071485Y-82886000D01*
X131951485Y-84836000D02*
X131951485Y-86786000D01*
X131951485Y-84836000D02*
X131951485Y-82886000D01*
X126626252Y-84911000D02*
X126103748Y-84911000D01*
X126626252Y-83491000D02*
X126103748Y-83491000D01*
D11*
X135088238Y-93162380D02*
X135659666Y-93162380D01*
X135373952Y-93162380D02*
X135373952Y-92162380D01*
X135469190Y-92305238D01*
X135564428Y-92400476D01*
X135659666Y-92448095D01*
X134231095Y-92495714D02*
X134231095Y-93162380D01*
X134659666Y-92495714D02*
X134659666Y-93019523D01*
X134612047Y-93114761D01*
X134516809Y-93162380D01*
X134373952Y-93162380D01*
X134278714Y-93114761D01*
X134231095Y-93067142D01*
X133421571Y-92638571D02*
X133754904Y-92638571D01*
X133754904Y-93162380D02*
X133754904Y-92162380D01*
X133278714Y-92162380D01*
D10*
X127698285Y-80244904D02*
X128155428Y-80244904D01*
X127926857Y-80244904D02*
X127926857Y-79444904D01*
X128003047Y-79559190D01*
X128079238Y-79635380D01*
X128155428Y-79673476D01*
X127355428Y-80244904D02*
X127355428Y-79444904D01*
X126898285Y-80244904D01*
X126898285Y-79444904D01*
X126136380Y-79444904D02*
X126517333Y-79444904D01*
X126555428Y-79825857D01*
X126517333Y-79787761D01*
X126441142Y-79749666D01*
X126250666Y-79749666D01*
X126174476Y-79787761D01*
X126136380Y-79825857D01*
X126098285Y-79902047D01*
X126098285Y-80092523D01*
X126136380Y-80168714D01*
X126174476Y-80206809D01*
X126250666Y-80244904D01*
X126441142Y-80244904D01*
X126517333Y-80206809D01*
X126555428Y-80168714D01*
X125641142Y-79787761D02*
X125717333Y-79749666D01*
X125755428Y-79711571D01*
X125793523Y-79635380D01*
X125793523Y-79597285D01*
X125755428Y-79521095D01*
X125717333Y-79483000D01*
X125641142Y-79444904D01*
X125488761Y-79444904D01*
X125412571Y-79483000D01*
X125374476Y-79521095D01*
X125336380Y-79597285D01*
X125336380Y-79635380D01*
X125374476Y-79711571D01*
X125412571Y-79749666D01*
X125488761Y-79787761D01*
X125641142Y-79787761D01*
X125717333Y-79825857D01*
X125755428Y-79863952D01*
X125793523Y-79940142D01*
X125793523Y-80092523D01*
X125755428Y-80168714D01*
X125717333Y-80206809D01*
X125641142Y-80244904D01*
X125488761Y-80244904D01*
X125412571Y-80206809D01*
X125374476Y-80168714D01*
X125336380Y-80092523D01*
X125336380Y-79940142D01*
X125374476Y-79863952D01*
X125412571Y-79825857D01*
X125488761Y-79787761D01*
X124574476Y-80244904D02*
X125031619Y-80244904D01*
X124803047Y-80244904D02*
X124803047Y-79444904D01*
X124879238Y-79559190D01*
X124955428Y-79635380D01*
X125031619Y-79673476D01*
X124193523Y-80244904D02*
X124041142Y-80244904D01*
X123964952Y-80206809D01*
X123926857Y-80168714D01*
X123850666Y-80054428D01*
X123812571Y-79902047D01*
X123812571Y-79597285D01*
X123850666Y-79521095D01*
X123888761Y-79483000D01*
X123964952Y-79444904D01*
X124117333Y-79444904D01*
X124193523Y-79483000D01*
X124231619Y-79521095D01*
X124269714Y-79597285D01*
X124269714Y-79787761D01*
X124231619Y-79863952D01*
X124193523Y-79902047D01*
X124117333Y-79940142D01*
X123964952Y-79940142D01*
X123888761Y-79902047D01*
X123850666Y-79863952D01*
X123812571Y-79787761D01*
D11*
X142962238Y-93162380D02*
X143533666Y-93162380D01*
X143247952Y-93162380D02*
X143247952Y-92162380D01*
X143343190Y-92305238D01*
X143438428Y-92400476D01*
X143533666Y-92448095D01*
X142105095Y-92495714D02*
X142105095Y-93162380D01*
X142533666Y-92495714D02*
X142533666Y-93019523D01*
X142486047Y-93114761D01*
X142390809Y-93162380D01*
X142247952Y-93162380D01*
X142152714Y-93114761D01*
X142105095Y-93067142D01*
X141295571Y-92638571D02*
X141628904Y-92638571D01*
X141628904Y-93162380D02*
X141628904Y-92162380D01*
X141152714Y-92162380D01*
X150709238Y-93162380D02*
X151280666Y-93162380D01*
X150994952Y-93162380D02*
X150994952Y-92162380D01*
X151090190Y-92305238D01*
X151185428Y-92400476D01*
X151280666Y-92448095D01*
X149852095Y-92495714D02*
X149852095Y-93162380D01*
X150280666Y-92495714D02*
X150280666Y-93019523D01*
X150233047Y-93114761D01*
X150137809Y-93162380D01*
X149994952Y-93162380D01*
X149899714Y-93114761D01*
X149852095Y-93067142D01*
X149042571Y-92638571D02*
X149375904Y-92638571D01*
X149375904Y-93162380D02*
X149375904Y-92162380D01*
X148899714Y-92162380D01*
X148144761Y-79525761D02*
X148001904Y-79573380D01*
X147763809Y-79573380D01*
X147668571Y-79525761D01*
X147620952Y-79478142D01*
X147573333Y-79382904D01*
X147573333Y-79287666D01*
X147620952Y-79192428D01*
X147668571Y-79144809D01*
X147763809Y-79097190D01*
X147954285Y-79049571D01*
X148049523Y-79001952D01*
X148097142Y-78954333D01*
X148144761Y-78859095D01*
X148144761Y-78763857D01*
X148097142Y-78668619D01*
X148049523Y-78621000D01*
X147954285Y-78573380D01*
X147716190Y-78573380D01*
X147573333Y-78621000D01*
X147144761Y-79573380D02*
X147144761Y-78573380D01*
X146573333Y-79573380D01*
X146573333Y-78573380D01*
X145668571Y-78573380D02*
X145859047Y-78573380D01*
X145954285Y-78621000D01*
X146001904Y-78668619D01*
X146097142Y-78811476D01*
X146144761Y-79001952D01*
X146144761Y-79382904D01*
X146097142Y-79478142D01*
X146049523Y-79525761D01*
X145954285Y-79573380D01*
X145763809Y-79573380D01*
X145668571Y-79525761D01*
X145620952Y-79478142D01*
X145573333Y-79382904D01*
X145573333Y-79144809D01*
X145620952Y-79049571D01*
X145668571Y-79001952D01*
X145763809Y-78954333D01*
X145954285Y-78954333D01*
X146049523Y-79001952D01*
X146097142Y-79049571D01*
X146144761Y-79144809D01*
X144668571Y-78573380D02*
X145144761Y-78573380D01*
X145192380Y-79049571D01*
X145144761Y-79001952D01*
X145049523Y-78954333D01*
X144811428Y-78954333D01*
X144716190Y-79001952D01*
X144668571Y-79049571D01*
X144620952Y-79144809D01*
X144620952Y-79382904D01*
X144668571Y-79478142D01*
X144716190Y-79525761D01*
X144811428Y-79573380D01*
X145049523Y-79573380D01*
X145144761Y-79525761D01*
X145192380Y-79478142D01*
X144192380Y-79573380D02*
X144192380Y-78573380D01*
X144192380Y-79049571D02*
X143620952Y-79049571D01*
X143620952Y-79573380D02*
X143620952Y-78573380D01*
X143287619Y-78573380D02*
X142954285Y-79573380D01*
X142620952Y-78573380D01*
X142287619Y-79573380D02*
X142287619Y-78573380D01*
X142049523Y-78573380D01*
X141906666Y-78621000D01*
X141811428Y-78716238D01*
X141763809Y-78811476D01*
X141716190Y-79001952D01*
X141716190Y-79144809D01*
X141763809Y-79335285D01*
X141811428Y-79430523D01*
X141906666Y-79525761D01*
X142049523Y-79573380D01*
X142287619Y-79573380D01*
X141335238Y-78668619D02*
X141287619Y-78621000D01*
X141192380Y-78573380D01*
X140954285Y-78573380D01*
X140859047Y-78621000D01*
X140811428Y-78668619D01*
X140763809Y-78763857D01*
X140763809Y-78859095D01*
X140811428Y-79001952D01*
X141382857Y-79573380D01*
X140763809Y-79573380D01*
X140430476Y-78573380D02*
X139811428Y-78573380D01*
X140144761Y-78954333D01*
X140001904Y-78954333D01*
X139906666Y-79001952D01*
X139859047Y-79049571D01*
X139811428Y-79144809D01*
X139811428Y-79382904D01*
X139859047Y-79478142D01*
X139906666Y-79525761D01*
X140001904Y-79573380D01*
X140287619Y-79573380D01*
X140382857Y-79525761D01*
X140430476Y-79478142D01*
X139430476Y-78668619D02*
X139382857Y-78621000D01*
X139287619Y-78573380D01*
X139049523Y-78573380D01*
X138954285Y-78621000D01*
X138906666Y-78668619D01*
X138859047Y-78763857D01*
X138859047Y-78859095D01*
X138906666Y-79001952D01*
X139478095Y-79573380D01*
X138859047Y-79573380D01*
X137763809Y-79573380D02*
X137240000Y-78906714D01*
X137763809Y-78906714D02*
X137240000Y-79573380D01*
X136954285Y-78573380D02*
X136335238Y-78573380D01*
X136668571Y-78954333D01*
X136525714Y-78954333D01*
X136430476Y-79001952D01*
X136382857Y-79049571D01*
X136335238Y-79144809D01*
X136335238Y-79382904D01*
X136382857Y-79478142D01*
X136430476Y-79525761D01*
X136525714Y-79573380D01*
X136811428Y-79573380D01*
X136906666Y-79525761D01*
X136954285Y-79478142D01*
D10*
X122491285Y-82784904D02*
X122948428Y-82784904D01*
X122719857Y-82784904D02*
X122719857Y-81984904D01*
X122796047Y-82099190D01*
X122872238Y-82175380D01*
X122948428Y-82213476D01*
X122148428Y-82784904D02*
X122148428Y-81984904D01*
X121691285Y-82784904D01*
X121691285Y-81984904D01*
X120929380Y-81984904D02*
X121310333Y-81984904D01*
X121348428Y-82365857D01*
X121310333Y-82327761D01*
X121234142Y-82289666D01*
X121043666Y-82289666D01*
X120967476Y-82327761D01*
X120929380Y-82365857D01*
X120891285Y-82442047D01*
X120891285Y-82632523D01*
X120929380Y-82708714D01*
X120967476Y-82746809D01*
X121043666Y-82784904D01*
X121234142Y-82784904D01*
X121310333Y-82746809D01*
X121348428Y-82708714D01*
X120434142Y-82327761D02*
X120510333Y-82289666D01*
X120548428Y-82251571D01*
X120586523Y-82175380D01*
X120586523Y-82137285D01*
X120548428Y-82061095D01*
X120510333Y-82023000D01*
X120434142Y-81984904D01*
X120281761Y-81984904D01*
X120205571Y-82023000D01*
X120167476Y-82061095D01*
X120129380Y-82137285D01*
X120129380Y-82175380D01*
X120167476Y-82251571D01*
X120205571Y-82289666D01*
X120281761Y-82327761D01*
X120434142Y-82327761D01*
X120510333Y-82365857D01*
X120548428Y-82403952D01*
X120586523Y-82480142D01*
X120586523Y-82632523D01*
X120548428Y-82708714D01*
X120510333Y-82746809D01*
X120434142Y-82784904D01*
X120281761Y-82784904D01*
X120205571Y-82746809D01*
X120167476Y-82708714D01*
X120129380Y-82632523D01*
X120129380Y-82480142D01*
X120167476Y-82403952D01*
X120205571Y-82365857D01*
X120281761Y-82327761D01*
X119367476Y-82784904D02*
X119824619Y-82784904D01*
X119596047Y-82784904D02*
X119596047Y-81984904D01*
X119672238Y-82099190D01*
X119748428Y-82175380D01*
X119824619Y-82213476D01*
X118986523Y-82784904D02*
X118834142Y-82784904D01*
X118757952Y-82746809D01*
X118719857Y-82708714D01*
X118643666Y-82594428D01*
X118605571Y-82442047D01*
X118605571Y-82137285D01*
X118643666Y-82061095D01*
X118681761Y-82023000D01*
X118757952Y-81984904D01*
X118910333Y-81984904D01*
X118986523Y-82023000D01*
X119024619Y-82061095D01*
X119062714Y-82137285D01*
X119062714Y-82327761D01*
X119024619Y-82403952D01*
X118986523Y-82442047D01*
X118910333Y-82480142D01*
X118757952Y-82480142D01*
X118681761Y-82442047D01*
X118643666Y-82403952D01*
X118605571Y-82327761D01*
D11*
X127177380Y-87193380D02*
X127748809Y-87193380D01*
X127463095Y-87193380D02*
X127463095Y-86193380D01*
X127558333Y-86336238D01*
X127653571Y-86431476D01*
X127748809Y-86479095D01*
X126320238Y-86526714D02*
X126320238Y-87193380D01*
X126748809Y-86526714D02*
X126748809Y-87050523D01*
X126701190Y-87145761D01*
X126605952Y-87193380D01*
X126463095Y-87193380D01*
X126367857Y-87145761D01*
X126320238Y-87098142D01*
X125510714Y-86669571D02*
X125844047Y-86669571D01*
X125844047Y-87193380D02*
X125844047Y-86193380D01*
X125367857Y-86193380D01*
X130225380Y-84653380D02*
X130796809Y-84653380D01*
X130511095Y-84653380D02*
X130511095Y-83653380D01*
X130606333Y-83796238D01*
X130701571Y-83891476D01*
X130796809Y-83939095D01*
X129368238Y-83986714D02*
X129368238Y-84653380D01*
X129796809Y-83986714D02*
X129796809Y-84510523D01*
X129749190Y-84605761D01*
X129653952Y-84653380D01*
X129511095Y-84653380D01*
X129415857Y-84605761D01*
X129368238Y-84558142D01*
X128558714Y-84129571D02*
X128892047Y-84129571D01*
X128892047Y-84653380D02*
X128892047Y-83653380D01*
X128415857Y-83653380D01*
M02*
