G04 #@! TF.GenerationSoftware,KiCad,Pcbnew,5.1.4-e60b266~84~ubuntu19.04.1*
G04 #@! TF.CreationDate,2020-01-15T22:36:37+11:00*
G04 #@! TF.ProjectId,sid-board,7369642d-626f-4617-9264-2e6b69636164,rev?*
G04 #@! TF.SameCoordinates,Original*
G04 #@! TF.FileFunction,Legend,Bot*
G04 #@! TF.FilePolarity,Positive*
%FSLAX46Y46*%
G04 Gerber Fmt 4.6, Leading zero omitted, Abs format (unit mm)*
G04 Created by KiCad (PCBNEW 5.1.4-e60b266~84~ubuntu19.04.1) date 2020-01-15 22:36:37*
%MOMM*%
%LPD*%
G04 APERTURE LIST*
%ADD10C,0.125000*%
G04 APERTURE END LIST*
D10*
X65693571Y-73185535D02*
X66657857Y-72542678D01*
X65693571Y-73971250D02*
X66657857Y-73328392D01*
X65693571Y-74756964D02*
X66657857Y-74114107D01*
X66479285Y-75578392D02*
X65729285Y-75578392D01*
X65729285Y-75756964D01*
X65765000Y-75864107D01*
X65836428Y-75935535D01*
X65907857Y-75971250D01*
X66050714Y-76006964D01*
X66157857Y-76006964D01*
X66300714Y-75971250D01*
X66372142Y-75935535D01*
X66443571Y-75864107D01*
X66479285Y-75756964D01*
X66479285Y-75578392D01*
X66086428Y-76328392D02*
X66086428Y-76578392D01*
X66479285Y-76685535D02*
X66479285Y-76328392D01*
X65729285Y-76328392D01*
X65729285Y-76685535D01*
X66443571Y-76971250D02*
X66479285Y-77078392D01*
X66479285Y-77256964D01*
X66443571Y-77328392D01*
X66407857Y-77364107D01*
X66336428Y-77399821D01*
X66265000Y-77399821D01*
X66193571Y-77364107D01*
X66157857Y-77328392D01*
X66122142Y-77256964D01*
X66086428Y-77114107D01*
X66050714Y-77042678D01*
X66015000Y-77006964D01*
X65943571Y-76971250D01*
X65872142Y-76971250D01*
X65800714Y-77006964D01*
X65765000Y-77042678D01*
X65729285Y-77114107D01*
X65729285Y-77292678D01*
X65765000Y-77399821D01*
X66407857Y-78149821D02*
X66443571Y-78114107D01*
X66479285Y-78006964D01*
X66479285Y-77935535D01*
X66443571Y-77828392D01*
X66372142Y-77756964D01*
X66300714Y-77721250D01*
X66157857Y-77685535D01*
X66050714Y-77685535D01*
X65907857Y-77721250D01*
X65836428Y-77756964D01*
X65765000Y-77828392D01*
X65729285Y-77935535D01*
X65729285Y-78006964D01*
X65765000Y-78114107D01*
X65800714Y-78149821D01*
X66479285Y-78899821D02*
X66122142Y-78649821D01*
X66479285Y-78471250D02*
X65729285Y-78471250D01*
X65729285Y-78756964D01*
X65765000Y-78828392D01*
X65800714Y-78864107D01*
X65872142Y-78899821D01*
X65979285Y-78899821D01*
X66050714Y-78864107D01*
X66086428Y-78828392D01*
X66122142Y-78756964D01*
X66122142Y-78471250D01*
X66479285Y-79221250D02*
X65729285Y-79221250D01*
X66479285Y-79578392D02*
X65729285Y-79578392D01*
X65729285Y-79864107D01*
X65765000Y-79935535D01*
X65800714Y-79971250D01*
X65872142Y-80006964D01*
X65979285Y-80006964D01*
X66050714Y-79971250D01*
X66086428Y-79935535D01*
X66122142Y-79864107D01*
X66122142Y-79578392D01*
X65729285Y-80221250D02*
X65729285Y-80649821D01*
X66479285Y-80435535D02*
X65729285Y-80435535D01*
X66479285Y-80899821D02*
X65729285Y-80899821D01*
X65729285Y-81399821D02*
X65729285Y-81542678D01*
X65765000Y-81614107D01*
X65836428Y-81685535D01*
X65979285Y-81721250D01*
X66229285Y-81721250D01*
X66372142Y-81685535D01*
X66443571Y-81614107D01*
X66479285Y-81542678D01*
X66479285Y-81399821D01*
X66443571Y-81328392D01*
X66372142Y-81256964D01*
X66229285Y-81221250D01*
X65979285Y-81221250D01*
X65836428Y-81256964D01*
X65765000Y-81328392D01*
X65729285Y-81399821D01*
X66479285Y-82042678D02*
X65729285Y-82042678D01*
X66479285Y-82471250D01*
X65729285Y-82471250D01*
X67729285Y-72649821D02*
X66979285Y-72649821D01*
X66979285Y-72935535D01*
X67015000Y-73006964D01*
X67050714Y-73042678D01*
X67122142Y-73078392D01*
X67229285Y-73078392D01*
X67300714Y-73042678D01*
X67336428Y-73006964D01*
X67372142Y-72935535D01*
X67372142Y-72649821D01*
X67729285Y-73399821D02*
X67229285Y-73399821D01*
X67372142Y-73399821D02*
X67300714Y-73435535D01*
X67265000Y-73471250D01*
X67229285Y-73542678D01*
X67229285Y-73614107D01*
X67729285Y-73971250D02*
X67693571Y-73899821D01*
X67657857Y-73864107D01*
X67586428Y-73828392D01*
X67372142Y-73828392D01*
X67300714Y-73864107D01*
X67265000Y-73899821D01*
X67229285Y-73971250D01*
X67229285Y-74078392D01*
X67265000Y-74149821D01*
X67300714Y-74185535D01*
X67372142Y-74221250D01*
X67586428Y-74221250D01*
X67657857Y-74185535D01*
X67693571Y-74149821D01*
X67729285Y-74078392D01*
X67729285Y-73971250D01*
X67229285Y-74471250D02*
X67729285Y-74649821D01*
X67229285Y-74828392D01*
X67729285Y-75114107D02*
X67229285Y-75114107D01*
X66979285Y-75114107D02*
X67015000Y-75078392D01*
X67050714Y-75114107D01*
X67015000Y-75149821D01*
X66979285Y-75114107D01*
X67050714Y-75114107D01*
X67729285Y-75792678D02*
X66979285Y-75792678D01*
X67693571Y-75792678D02*
X67729285Y-75721250D01*
X67729285Y-75578392D01*
X67693571Y-75506964D01*
X67657857Y-75471250D01*
X67586428Y-75435535D01*
X67372142Y-75435535D01*
X67300714Y-75471250D01*
X67265000Y-75506964D01*
X67229285Y-75578392D01*
X67229285Y-75721250D01*
X67265000Y-75792678D01*
X67693571Y-76435535D02*
X67729285Y-76364107D01*
X67729285Y-76221250D01*
X67693571Y-76149821D01*
X67622142Y-76114107D01*
X67336428Y-76114107D01*
X67265000Y-76149821D01*
X67229285Y-76221250D01*
X67229285Y-76364107D01*
X67265000Y-76435535D01*
X67336428Y-76471250D01*
X67407857Y-76471250D01*
X67479285Y-76114107D01*
X67693571Y-76756964D02*
X67729285Y-76828392D01*
X67729285Y-76971250D01*
X67693571Y-77042678D01*
X67622142Y-77078392D01*
X67586428Y-77078392D01*
X67515000Y-77042678D01*
X67479285Y-76971250D01*
X67479285Y-76864107D01*
X67443571Y-76792678D01*
X67372142Y-76756964D01*
X67336428Y-76756964D01*
X67265000Y-76792678D01*
X67229285Y-76864107D01*
X67229285Y-76971250D01*
X67265000Y-77042678D01*
X67729285Y-78292678D02*
X67336428Y-78292678D01*
X67265000Y-78256964D01*
X67229285Y-78185535D01*
X67229285Y-78042678D01*
X67265000Y-77971250D01*
X67693571Y-78292678D02*
X67729285Y-78221250D01*
X67729285Y-78042678D01*
X67693571Y-77971250D01*
X67622142Y-77935535D01*
X67550714Y-77935535D01*
X67479285Y-77971250D01*
X67443571Y-78042678D01*
X67443571Y-78221250D01*
X67407857Y-78292678D01*
X67229285Y-78649821D02*
X67729285Y-78649821D01*
X67300714Y-78649821D02*
X67265000Y-78685535D01*
X67229285Y-78756964D01*
X67229285Y-78864107D01*
X67265000Y-78935535D01*
X67336428Y-78971250D01*
X67729285Y-78971250D01*
X67693571Y-79864107D02*
X67729285Y-79971250D01*
X67729285Y-80149821D01*
X67693571Y-80221250D01*
X67657857Y-80256964D01*
X67586428Y-80292678D01*
X67515000Y-80292678D01*
X67443571Y-80256964D01*
X67407857Y-80221250D01*
X67372142Y-80149821D01*
X67336428Y-80006964D01*
X67300714Y-79935535D01*
X67265000Y-79899821D01*
X67193571Y-79864107D01*
X67122142Y-79864107D01*
X67050714Y-79899821D01*
X67015000Y-79935535D01*
X66979285Y-80006964D01*
X66979285Y-80185535D01*
X67015000Y-80292678D01*
X67729285Y-80614107D02*
X66979285Y-80614107D01*
X66979285Y-80899821D01*
X67015000Y-80971250D01*
X67050714Y-81006964D01*
X67122142Y-81042678D01*
X67229285Y-81042678D01*
X67300714Y-81006964D01*
X67336428Y-80971250D01*
X67372142Y-80899821D01*
X67372142Y-80614107D01*
X67729285Y-81364107D02*
X66979285Y-81364107D01*
X67729285Y-82292678D02*
X66979285Y-82292678D01*
X67265000Y-82292678D02*
X67229285Y-82364107D01*
X67229285Y-82506964D01*
X67265000Y-82578392D01*
X67300714Y-82614107D01*
X67372142Y-82649821D01*
X67586428Y-82649821D01*
X67657857Y-82614107D01*
X67693571Y-82578392D01*
X67729285Y-82506964D01*
X67729285Y-82364107D01*
X67693571Y-82292678D01*
X67729285Y-82971250D02*
X67229285Y-82971250D01*
X67372142Y-82971250D02*
X67300714Y-83006964D01*
X67265000Y-83042678D01*
X67229285Y-83114107D01*
X67229285Y-83185535D01*
X67693571Y-83721250D02*
X67729285Y-83649821D01*
X67729285Y-83506964D01*
X67693571Y-83435535D01*
X67622142Y-83399821D01*
X67336428Y-83399821D01*
X67265000Y-83435535D01*
X67229285Y-83506964D01*
X67229285Y-83649821D01*
X67265000Y-83721250D01*
X67336428Y-83756964D01*
X67407857Y-83756964D01*
X67479285Y-83399821D01*
X67729285Y-84399821D02*
X67336428Y-84399821D01*
X67265000Y-84364107D01*
X67229285Y-84292678D01*
X67229285Y-84149821D01*
X67265000Y-84078392D01*
X67693571Y-84399821D02*
X67729285Y-84328392D01*
X67729285Y-84149821D01*
X67693571Y-84078392D01*
X67622142Y-84042678D01*
X67550714Y-84042678D01*
X67479285Y-84078392D01*
X67443571Y-84149821D01*
X67443571Y-84328392D01*
X67407857Y-84399821D01*
X67729285Y-84756964D02*
X66979285Y-84756964D01*
X67443571Y-84828392D02*
X67729285Y-85042678D01*
X67229285Y-85042678D02*
X67515000Y-84756964D01*
X67729285Y-85471250D02*
X67693571Y-85399821D01*
X67657857Y-85364107D01*
X67586428Y-85328392D01*
X67372142Y-85328392D01*
X67300714Y-85364107D01*
X67265000Y-85399821D01*
X67229285Y-85471250D01*
X67229285Y-85578392D01*
X67265000Y-85649821D01*
X67300714Y-85685535D01*
X67372142Y-85721250D01*
X67586428Y-85721250D01*
X67657857Y-85685535D01*
X67693571Y-85649821D01*
X67729285Y-85578392D01*
X67729285Y-85471250D01*
X67229285Y-86364107D02*
X67729285Y-86364107D01*
X67229285Y-86042678D02*
X67622142Y-86042678D01*
X67693571Y-86078392D01*
X67729285Y-86149821D01*
X67729285Y-86256964D01*
X67693571Y-86328392D01*
X67657857Y-86364107D01*
X67229285Y-86614107D02*
X67229285Y-86899821D01*
X66979285Y-86721250D02*
X67622142Y-86721250D01*
X67693571Y-86756964D01*
X67729285Y-86828392D01*
X67729285Y-86899821D01*
X67229285Y-87614107D02*
X67229285Y-87899821D01*
X66979285Y-87721250D02*
X67622142Y-87721250D01*
X67693571Y-87756964D01*
X67729285Y-87828392D01*
X67729285Y-87899821D01*
X67729285Y-88256964D02*
X67693571Y-88185535D01*
X67657857Y-88149821D01*
X67586428Y-88114107D01*
X67372142Y-88114107D01*
X67300714Y-88149821D01*
X67265000Y-88185535D01*
X67229285Y-88256964D01*
X67229285Y-88364107D01*
X67265000Y-88435535D01*
X67300714Y-88471250D01*
X67372142Y-88506964D01*
X67586428Y-88506964D01*
X67657857Y-88471250D01*
X67693571Y-88435535D01*
X67729285Y-88364107D01*
X67729285Y-88256964D01*
X67729285Y-89721250D02*
X67336428Y-89721250D01*
X67265000Y-89685535D01*
X67229285Y-89614107D01*
X67229285Y-89471250D01*
X67265000Y-89399821D01*
X67693571Y-89721250D02*
X67729285Y-89649821D01*
X67729285Y-89471250D01*
X67693571Y-89399821D01*
X67622142Y-89364107D01*
X67550714Y-89364107D01*
X67479285Y-89399821D01*
X67443571Y-89471250D01*
X67443571Y-89649821D01*
X67407857Y-89721250D01*
X67729285Y-90649821D02*
X66979285Y-90649821D01*
X66979285Y-90828392D01*
X67015000Y-90935535D01*
X67086428Y-91006964D01*
X67157857Y-91042678D01*
X67300714Y-91078392D01*
X67407857Y-91078392D01*
X67550714Y-91042678D01*
X67622142Y-91006964D01*
X67693571Y-90935535D01*
X67729285Y-90828392D01*
X67729285Y-90649821D01*
X66979285Y-91399821D02*
X67586428Y-91399821D01*
X67657857Y-91435535D01*
X67693571Y-91471250D01*
X67729285Y-91542678D01*
X67729285Y-91685535D01*
X67693571Y-91756964D01*
X67657857Y-91792678D01*
X67586428Y-91828392D01*
X66979285Y-91828392D01*
X67515000Y-92149821D02*
X67515000Y-92506964D01*
X67729285Y-92078392D02*
X66979285Y-92328392D01*
X67729285Y-92578392D01*
X67729285Y-93185535D02*
X67729285Y-92828392D01*
X66979285Y-92828392D01*
X67443571Y-93435535D02*
X67443571Y-94006964D01*
X66979285Y-94364107D02*
X67586428Y-94364107D01*
X67657857Y-94399821D01*
X67693571Y-94435535D01*
X67729285Y-94506964D01*
X67729285Y-94649821D01*
X67693571Y-94721250D01*
X67657857Y-94756964D01*
X67586428Y-94792678D01*
X66979285Y-94792678D01*
X67515000Y-95114107D02*
X67515000Y-95471250D01*
X67729285Y-95042678D02*
X66979285Y-95292678D01*
X67729285Y-95542678D01*
X67729285Y-96221250D02*
X67372142Y-95971250D01*
X67729285Y-95792678D02*
X66979285Y-95792678D01*
X66979285Y-96078392D01*
X67015000Y-96149821D01*
X67050714Y-96185535D01*
X67122142Y-96221250D01*
X67229285Y-96221250D01*
X67300714Y-96185535D01*
X67336428Y-96149821D01*
X67372142Y-96078392D01*
X67372142Y-95792678D01*
X66979285Y-96435535D02*
X66979285Y-96864107D01*
X67729285Y-96649821D02*
X66979285Y-96649821D01*
X67729285Y-97685535D02*
X67229285Y-97685535D01*
X66979285Y-97685535D02*
X67015000Y-97649821D01*
X67050714Y-97685535D01*
X67015000Y-97721250D01*
X66979285Y-97685535D01*
X67050714Y-97685535D01*
X67229285Y-98042678D02*
X67729285Y-98042678D01*
X67300714Y-98042678D02*
X67265000Y-98078392D01*
X67229285Y-98149821D01*
X67229285Y-98256964D01*
X67265000Y-98328392D01*
X67336428Y-98364107D01*
X67729285Y-98364107D01*
X67229285Y-98614107D02*
X67229285Y-98899821D01*
X66979285Y-98721250D02*
X67622142Y-98721250D01*
X67693571Y-98756964D01*
X67729285Y-98828392D01*
X67729285Y-98899821D01*
X67693571Y-99435535D02*
X67729285Y-99364107D01*
X67729285Y-99221250D01*
X67693571Y-99149821D01*
X67622142Y-99114107D01*
X67336428Y-99114107D01*
X67265000Y-99149821D01*
X67229285Y-99221250D01*
X67229285Y-99364107D01*
X67265000Y-99435535D01*
X67336428Y-99471250D01*
X67407857Y-99471250D01*
X67479285Y-99114107D01*
X67729285Y-99792678D02*
X67229285Y-99792678D01*
X67372142Y-99792678D02*
X67300714Y-99828392D01*
X67265000Y-99864107D01*
X67229285Y-99935535D01*
X67229285Y-100006964D01*
X67229285Y-100149821D02*
X67229285Y-100435535D01*
X67729285Y-100256964D02*
X67086428Y-100256964D01*
X67015000Y-100292678D01*
X66979285Y-100364107D01*
X66979285Y-100435535D01*
X67729285Y-101006964D02*
X67336428Y-101006964D01*
X67265000Y-100971250D01*
X67229285Y-100899821D01*
X67229285Y-100756964D01*
X67265000Y-100685535D01*
X67693571Y-101006964D02*
X67729285Y-100935535D01*
X67729285Y-100756964D01*
X67693571Y-100685535D01*
X67622142Y-100649821D01*
X67550714Y-100649821D01*
X67479285Y-100685535D01*
X67443571Y-100756964D01*
X67443571Y-100935535D01*
X67407857Y-101006964D01*
X67693571Y-101685535D02*
X67729285Y-101614107D01*
X67729285Y-101471250D01*
X67693571Y-101399821D01*
X67657857Y-101364107D01*
X67586428Y-101328392D01*
X67372142Y-101328392D01*
X67300714Y-101364107D01*
X67265000Y-101399821D01*
X67229285Y-101471250D01*
X67229285Y-101614107D01*
X67265000Y-101685535D01*
X67693571Y-102292678D02*
X67729285Y-102221250D01*
X67729285Y-102078392D01*
X67693571Y-102006964D01*
X67622142Y-101971250D01*
X67336428Y-101971250D01*
X67265000Y-102006964D01*
X67229285Y-102078392D01*
X67229285Y-102221250D01*
X67265000Y-102292678D01*
X67336428Y-102328392D01*
X67407857Y-102328392D01*
X67479285Y-101971250D01*
X67693571Y-102685535D02*
X67729285Y-102685535D01*
X67800714Y-102649821D01*
X67836428Y-102614107D01*
X68979285Y-72971250D02*
X68586428Y-72971250D01*
X68515000Y-72935535D01*
X68479285Y-72864107D01*
X68479285Y-72721250D01*
X68515000Y-72649821D01*
X68943571Y-72971250D02*
X68979285Y-72899821D01*
X68979285Y-72721250D01*
X68943571Y-72649821D01*
X68872142Y-72614107D01*
X68800714Y-72614107D01*
X68729285Y-72649821D01*
X68693571Y-72721250D01*
X68693571Y-72899821D01*
X68657857Y-72971250D01*
X68979285Y-73435535D02*
X68943571Y-73364107D01*
X68872142Y-73328392D01*
X68229285Y-73328392D01*
X68979285Y-73828392D02*
X68943571Y-73756964D01*
X68872142Y-73721250D01*
X68229285Y-73721250D01*
X68979285Y-74221250D02*
X68943571Y-74149821D01*
X68907857Y-74114107D01*
X68836428Y-74078392D01*
X68622142Y-74078392D01*
X68550714Y-74114107D01*
X68515000Y-74149821D01*
X68479285Y-74221250D01*
X68479285Y-74328392D01*
X68515000Y-74399821D01*
X68550714Y-74435535D01*
X68622142Y-74471250D01*
X68836428Y-74471250D01*
X68907857Y-74435535D01*
X68943571Y-74399821D01*
X68979285Y-74328392D01*
X68979285Y-74221250D01*
X68479285Y-74721250D02*
X68979285Y-74864107D01*
X68622142Y-75006964D01*
X68979285Y-75149821D01*
X68479285Y-75292678D01*
X68979285Y-75578392D02*
X68479285Y-75578392D01*
X68229285Y-75578392D02*
X68265000Y-75542678D01*
X68300714Y-75578392D01*
X68265000Y-75614107D01*
X68229285Y-75578392D01*
X68300714Y-75578392D01*
X68479285Y-75935535D02*
X68979285Y-75935535D01*
X68550714Y-75935535D02*
X68515000Y-75971250D01*
X68479285Y-76042678D01*
X68479285Y-76149821D01*
X68515000Y-76221250D01*
X68586428Y-76256964D01*
X68979285Y-76256964D01*
X68479285Y-76935535D02*
X69086428Y-76935535D01*
X69157857Y-76899821D01*
X69193571Y-76864107D01*
X69229285Y-76792678D01*
X69229285Y-76685535D01*
X69193571Y-76614107D01*
X68943571Y-76935535D02*
X68979285Y-76864107D01*
X68979285Y-76721250D01*
X68943571Y-76649821D01*
X68907857Y-76614107D01*
X68836428Y-76578392D01*
X68622142Y-76578392D01*
X68550714Y-76614107D01*
X68515000Y-76649821D01*
X68479285Y-76721250D01*
X68479285Y-76864107D01*
X68515000Y-76935535D01*
X68479285Y-77756964D02*
X68479285Y-78042678D01*
X68979285Y-77864107D02*
X68336428Y-77864107D01*
X68265000Y-77899821D01*
X68229285Y-77971250D01*
X68229285Y-78042678D01*
X68979285Y-78399821D02*
X68943571Y-78328392D01*
X68907857Y-78292678D01*
X68836428Y-78256964D01*
X68622142Y-78256964D01*
X68550714Y-78292678D01*
X68515000Y-78328392D01*
X68479285Y-78399821D01*
X68479285Y-78506964D01*
X68515000Y-78578392D01*
X68550714Y-78614107D01*
X68622142Y-78649821D01*
X68836428Y-78649821D01*
X68907857Y-78614107D01*
X68943571Y-78578392D01*
X68979285Y-78506964D01*
X68979285Y-78399821D01*
X68979285Y-78971250D02*
X68479285Y-78971250D01*
X68622142Y-78971250D02*
X68550714Y-79006964D01*
X68515000Y-79042678D01*
X68479285Y-79114107D01*
X68479285Y-79185535D01*
X68979285Y-80435535D02*
X68622142Y-80185535D01*
X68979285Y-80006964D02*
X68229285Y-80006964D01*
X68229285Y-80292678D01*
X68265000Y-80364107D01*
X68300714Y-80399821D01*
X68372142Y-80435535D01*
X68479285Y-80435535D01*
X68550714Y-80399821D01*
X68586428Y-80364107D01*
X68622142Y-80292678D01*
X68622142Y-80006964D01*
X68586428Y-80756964D02*
X68586428Y-81006964D01*
X68979285Y-81114107D02*
X68979285Y-80756964D01*
X68229285Y-80756964D01*
X68229285Y-81114107D01*
X68229285Y-81328392D02*
X68979285Y-81578392D01*
X68229285Y-81828392D01*
X68586428Y-82078392D02*
X68586428Y-82328392D01*
X68979285Y-82435535D02*
X68979285Y-82078392D01*
X68229285Y-82078392D01*
X68229285Y-82435535D01*
X68979285Y-83185535D02*
X68622142Y-82935535D01*
X68979285Y-82756964D02*
X68229285Y-82756964D01*
X68229285Y-83042678D01*
X68265000Y-83114107D01*
X68300714Y-83149821D01*
X68372142Y-83185535D01*
X68479285Y-83185535D01*
X68550714Y-83149821D01*
X68586428Y-83114107D01*
X68622142Y-83042678D01*
X68622142Y-82756964D01*
X68943571Y-83471250D02*
X68979285Y-83578392D01*
X68979285Y-83756964D01*
X68943571Y-83828392D01*
X68907857Y-83864107D01*
X68836428Y-83899821D01*
X68765000Y-83899821D01*
X68693571Y-83864107D01*
X68657857Y-83828392D01*
X68622142Y-83756964D01*
X68586428Y-83614107D01*
X68550714Y-83542678D01*
X68515000Y-83506964D01*
X68443571Y-83471250D01*
X68372142Y-83471250D01*
X68300714Y-83506964D01*
X68265000Y-83542678D01*
X68229285Y-83614107D01*
X68229285Y-83792678D01*
X68265000Y-83899821D01*
X68586428Y-84221250D02*
X68586428Y-84471250D01*
X68979285Y-84578392D02*
X68979285Y-84221250D01*
X68229285Y-84221250D01*
X68229285Y-84578392D01*
X68693571Y-84899821D02*
X68693571Y-85471250D01*
X68586428Y-85828392D02*
X68586428Y-86078392D01*
X68979285Y-86185535D02*
X68979285Y-85828392D01*
X68229285Y-85828392D01*
X68229285Y-86185535D01*
X68979285Y-86506964D02*
X68229285Y-86506964D01*
X68979285Y-86935535D01*
X68229285Y-86935535D01*
X68265000Y-87685535D02*
X68229285Y-87614107D01*
X68229285Y-87506964D01*
X68265000Y-87399821D01*
X68336428Y-87328392D01*
X68407857Y-87292678D01*
X68550714Y-87256964D01*
X68657857Y-87256964D01*
X68800714Y-87292678D01*
X68872142Y-87328392D01*
X68943571Y-87399821D01*
X68979285Y-87506964D01*
X68979285Y-87578392D01*
X68943571Y-87685535D01*
X68907857Y-87721250D01*
X68657857Y-87721250D01*
X68657857Y-87578392D01*
X68979285Y-88042678D02*
X68229285Y-88042678D01*
X68979285Y-88399821D02*
X68229285Y-88399821D01*
X68979285Y-88828392D01*
X68229285Y-88828392D01*
X68586428Y-89185535D02*
X68586428Y-89435535D01*
X68979285Y-89542678D02*
X68979285Y-89185535D01*
X68229285Y-89185535D01*
X68229285Y-89542678D01*
X68586428Y-89864107D02*
X68586428Y-90114107D01*
X68979285Y-90221250D02*
X68979285Y-89864107D01*
X68229285Y-89864107D01*
X68229285Y-90221250D01*
X68979285Y-90971250D02*
X68622142Y-90721250D01*
X68979285Y-90542678D02*
X68229285Y-90542678D01*
X68229285Y-90828392D01*
X68265000Y-90899821D01*
X68300714Y-90935535D01*
X68372142Y-90971250D01*
X68479285Y-90971250D01*
X68550714Y-90935535D01*
X68586428Y-90899821D01*
X68622142Y-90828392D01*
X68622142Y-90542678D01*
X68979285Y-91292678D02*
X68229285Y-91292678D01*
X68979285Y-91649821D02*
X68229285Y-91649821D01*
X68979285Y-92078392D01*
X68229285Y-92078392D01*
X68265000Y-92828392D02*
X68229285Y-92756964D01*
X68229285Y-92649821D01*
X68265000Y-92542678D01*
X68336428Y-92471250D01*
X68407857Y-92435535D01*
X68550714Y-92399821D01*
X68657857Y-92399821D01*
X68800714Y-92435535D01*
X68872142Y-92471250D01*
X68943571Y-92542678D01*
X68979285Y-92649821D01*
X68979285Y-92721250D01*
X68943571Y-92828392D01*
X68907857Y-92864107D01*
X68657857Y-92864107D01*
X68657857Y-92721250D01*
X68979285Y-93864107D02*
X68943571Y-93792678D01*
X68907857Y-93756964D01*
X68836428Y-93721250D01*
X68622142Y-93721250D01*
X68550714Y-93756964D01*
X68515000Y-93792678D01*
X68479285Y-93864107D01*
X68479285Y-93971250D01*
X68515000Y-94042678D01*
X68550714Y-94078392D01*
X68622142Y-94114107D01*
X68836428Y-94114107D01*
X68907857Y-94078392D01*
X68943571Y-94042678D01*
X68979285Y-93971250D01*
X68979285Y-93864107D01*
X68479285Y-94328392D02*
X68479285Y-94614107D01*
X68979285Y-94435535D02*
X68336428Y-94435535D01*
X68265000Y-94471250D01*
X68229285Y-94542678D01*
X68229285Y-94614107D01*
X68479285Y-95328392D02*
X68479285Y-95614107D01*
X68229285Y-95435535D02*
X68872142Y-95435535D01*
X68943571Y-95471250D01*
X68979285Y-95542678D01*
X68979285Y-95614107D01*
X68979285Y-95864107D02*
X68229285Y-95864107D01*
X68979285Y-96185535D02*
X68586428Y-96185535D01*
X68515000Y-96149821D01*
X68479285Y-96078392D01*
X68479285Y-95971250D01*
X68515000Y-95899821D01*
X68550714Y-95864107D01*
X68943571Y-96828392D02*
X68979285Y-96756964D01*
X68979285Y-96614107D01*
X68943571Y-96542678D01*
X68872142Y-96506964D01*
X68586428Y-96506964D01*
X68515000Y-96542678D01*
X68479285Y-96614107D01*
X68479285Y-96756964D01*
X68515000Y-96828392D01*
X68586428Y-96864107D01*
X68657857Y-96864107D01*
X68729285Y-96506964D01*
X68943571Y-97721250D02*
X68979285Y-97828392D01*
X68979285Y-98006964D01*
X68943571Y-98078392D01*
X68907857Y-98114107D01*
X68836428Y-98149821D01*
X68765000Y-98149821D01*
X68693571Y-98114107D01*
X68657857Y-98078392D01*
X68622142Y-98006964D01*
X68586428Y-97864107D01*
X68550714Y-97792678D01*
X68515000Y-97756964D01*
X68443571Y-97721250D01*
X68372142Y-97721250D01*
X68300714Y-97756964D01*
X68265000Y-97792678D01*
X68229285Y-97864107D01*
X68229285Y-98042678D01*
X68265000Y-98149821D01*
X68765000Y-98435535D02*
X68765000Y-98792678D01*
X68979285Y-98364107D02*
X68229285Y-98614107D01*
X68979285Y-98864107D01*
X68765000Y-99078392D02*
X68765000Y-99435535D01*
X68979285Y-99006964D02*
X68229285Y-99256964D01*
X68979285Y-99506964D01*
X68586428Y-100006964D02*
X68622142Y-100114107D01*
X68657857Y-100149821D01*
X68729285Y-100185535D01*
X68836428Y-100185535D01*
X68907857Y-100149821D01*
X68943571Y-100114107D01*
X68979285Y-100042678D01*
X68979285Y-99756964D01*
X68229285Y-99756964D01*
X68229285Y-100006964D01*
X68265000Y-100078392D01*
X68300714Y-100114107D01*
X68372142Y-100149821D01*
X68443571Y-100149821D01*
X68515000Y-100114107D01*
X68550714Y-100078392D01*
X68586428Y-100006964D01*
X68586428Y-99756964D01*
X68943571Y-101042678D02*
X68979285Y-101149821D01*
X68979285Y-101328392D01*
X68943571Y-101399821D01*
X68907857Y-101435535D01*
X68836428Y-101471250D01*
X68765000Y-101471250D01*
X68693571Y-101435535D01*
X68657857Y-101399821D01*
X68622142Y-101328392D01*
X68586428Y-101185535D01*
X68550714Y-101114107D01*
X68515000Y-101078392D01*
X68443571Y-101042678D01*
X68372142Y-101042678D01*
X68300714Y-101078392D01*
X68265000Y-101114107D01*
X68229285Y-101185535D01*
X68229285Y-101364107D01*
X68265000Y-101471250D01*
X68979285Y-101792678D02*
X68229285Y-101792678D01*
X68979285Y-102149821D02*
X68229285Y-102149821D01*
X68229285Y-102328392D01*
X68265000Y-102435535D01*
X68336428Y-102506964D01*
X68407857Y-102542678D01*
X68550714Y-102578392D01*
X68657857Y-102578392D01*
X68800714Y-102542678D01*
X68872142Y-102506964D01*
X68943571Y-102435535D01*
X68979285Y-102328392D01*
X68979285Y-102149821D01*
X68193571Y-103435535D02*
X69157857Y-102792678D01*
X68979285Y-103685535D02*
X68229285Y-103685535D01*
X68586428Y-103685535D02*
X68586428Y-104114107D01*
X68979285Y-104114107D02*
X68229285Y-104114107D01*
X68979285Y-104471250D02*
X68229285Y-104471250D01*
X68229285Y-104756964D01*
X68265000Y-104828392D01*
X68300714Y-104864107D01*
X68372142Y-104899821D01*
X68479285Y-104899821D01*
X68550714Y-104864107D01*
X68586428Y-104828392D01*
X68622142Y-104756964D01*
X68622142Y-104471250D01*
X68979285Y-105221250D02*
X68229285Y-105221250D01*
X68229285Y-105399821D01*
X68265000Y-105506964D01*
X68336428Y-105578392D01*
X68407857Y-105614107D01*
X68550714Y-105649821D01*
X68657857Y-105649821D01*
X68800714Y-105614107D01*
X68872142Y-105578392D01*
X68943571Y-105506964D01*
X68979285Y-105399821D01*
X68979285Y-105221250D01*
X68907857Y-105971250D02*
X68943571Y-106006964D01*
X68979285Y-105971250D01*
X68943571Y-105935535D01*
X68907857Y-105971250D01*
X68979285Y-105971250D01*
X70229285Y-72649821D02*
X69479285Y-72649821D01*
X69479285Y-72828392D01*
X69515000Y-72935535D01*
X69586428Y-73006964D01*
X69657857Y-73042678D01*
X69800714Y-73078392D01*
X69907857Y-73078392D01*
X70050714Y-73042678D01*
X70122142Y-73006964D01*
X70193571Y-72935535D01*
X70229285Y-72828392D01*
X70229285Y-72649821D01*
X70193571Y-73685535D02*
X70229285Y-73614107D01*
X70229285Y-73471250D01*
X70193571Y-73399821D01*
X70122142Y-73364107D01*
X69836428Y-73364107D01*
X69765000Y-73399821D01*
X69729285Y-73471250D01*
X69729285Y-73614107D01*
X69765000Y-73685535D01*
X69836428Y-73721250D01*
X69907857Y-73721250D01*
X69979285Y-73364107D01*
X70193571Y-74006964D02*
X70229285Y-74078392D01*
X70229285Y-74221250D01*
X70193571Y-74292678D01*
X70122142Y-74328392D01*
X70086428Y-74328392D01*
X70015000Y-74292678D01*
X69979285Y-74221250D01*
X69979285Y-74114107D01*
X69943571Y-74042678D01*
X69872142Y-74006964D01*
X69836428Y-74006964D01*
X69765000Y-74042678D01*
X69729285Y-74114107D01*
X69729285Y-74221250D01*
X69765000Y-74292678D01*
X70229285Y-74649821D02*
X69729285Y-74649821D01*
X69479285Y-74649821D02*
X69515000Y-74614107D01*
X69550714Y-74649821D01*
X69515000Y-74685535D01*
X69479285Y-74649821D01*
X69550714Y-74649821D01*
X69729285Y-75328392D02*
X70336428Y-75328392D01*
X70407857Y-75292678D01*
X70443571Y-75256964D01*
X70479285Y-75185535D01*
X70479285Y-75078392D01*
X70443571Y-75006964D01*
X70193571Y-75328392D02*
X70229285Y-75256964D01*
X70229285Y-75114107D01*
X70193571Y-75042678D01*
X70157857Y-75006964D01*
X70086428Y-74971250D01*
X69872142Y-74971250D01*
X69800714Y-75006964D01*
X69765000Y-75042678D01*
X69729285Y-75114107D01*
X69729285Y-75256964D01*
X69765000Y-75328392D01*
X69729285Y-75685535D02*
X70229285Y-75685535D01*
X69800714Y-75685535D02*
X69765000Y-75721250D01*
X69729285Y-75792678D01*
X69729285Y-75899821D01*
X69765000Y-75971250D01*
X69836428Y-76006964D01*
X70229285Y-76006964D01*
X70193571Y-76649821D02*
X70229285Y-76578392D01*
X70229285Y-76435535D01*
X70193571Y-76364107D01*
X70122142Y-76328392D01*
X69836428Y-76328392D01*
X69765000Y-76364107D01*
X69729285Y-76435535D01*
X69729285Y-76578392D01*
X69765000Y-76649821D01*
X69836428Y-76685535D01*
X69907857Y-76685535D01*
X69979285Y-76328392D01*
X70229285Y-77328392D02*
X69479285Y-77328392D01*
X70193571Y-77328392D02*
X70229285Y-77256964D01*
X70229285Y-77114107D01*
X70193571Y-77042678D01*
X70157857Y-77006964D01*
X70086428Y-76971250D01*
X69872142Y-76971250D01*
X69800714Y-77006964D01*
X69765000Y-77042678D01*
X69729285Y-77114107D01*
X69729285Y-77256964D01*
X69765000Y-77328392D01*
X69729285Y-78149821D02*
X69729285Y-78435535D01*
X70229285Y-78256964D02*
X69586428Y-78256964D01*
X69515000Y-78292678D01*
X69479285Y-78364107D01*
X69479285Y-78435535D01*
X70229285Y-78792678D02*
X70193571Y-78721250D01*
X70157857Y-78685535D01*
X70086428Y-78649821D01*
X69872142Y-78649821D01*
X69800714Y-78685535D01*
X69765000Y-78721250D01*
X69729285Y-78792678D01*
X69729285Y-78899821D01*
X69765000Y-78971250D01*
X69800714Y-79006964D01*
X69872142Y-79042678D01*
X70086428Y-79042678D01*
X70157857Y-79006964D01*
X70193571Y-78971250D01*
X70229285Y-78899821D01*
X70229285Y-78792678D01*
X70229285Y-79364107D02*
X69729285Y-79364107D01*
X69872142Y-79364107D02*
X69800714Y-79399821D01*
X69765000Y-79435535D01*
X69729285Y-79506964D01*
X69729285Y-79578392D01*
X70193571Y-80364107D02*
X70229285Y-80471250D01*
X70229285Y-80649821D01*
X70193571Y-80721250D01*
X70157857Y-80756964D01*
X70086428Y-80792678D01*
X70015000Y-80792678D01*
X69943571Y-80756964D01*
X69907857Y-80721250D01*
X69872142Y-80649821D01*
X69836428Y-80506964D01*
X69800714Y-80435535D01*
X69765000Y-80399821D01*
X69693571Y-80364107D01*
X69622142Y-80364107D01*
X69550714Y-80399821D01*
X69515000Y-80435535D01*
X69479285Y-80506964D01*
X69479285Y-80685535D01*
X69515000Y-80792678D01*
X70015000Y-81078392D02*
X70015000Y-81435535D01*
X70229285Y-81006964D02*
X69479285Y-81256964D01*
X70229285Y-81506964D01*
X70015000Y-81721250D02*
X70015000Y-82078392D01*
X70229285Y-81649821D02*
X69479285Y-81899821D01*
X70229285Y-82149821D01*
X69836428Y-82649821D02*
X69872142Y-82756964D01*
X69907857Y-82792678D01*
X69979285Y-82828392D01*
X70086428Y-82828392D01*
X70157857Y-82792678D01*
X70193571Y-82756964D01*
X70229285Y-82685535D01*
X70229285Y-82399821D01*
X69479285Y-82399821D01*
X69479285Y-82649821D01*
X69515000Y-82721250D01*
X69550714Y-82756964D01*
X69622142Y-82792678D01*
X69693571Y-82792678D01*
X69765000Y-82756964D01*
X69800714Y-82721250D01*
X69836428Y-82649821D01*
X69836428Y-82399821D01*
X70229285Y-83756964D02*
X70229285Y-83899821D01*
X70193571Y-83971250D01*
X70157857Y-84006964D01*
X70050714Y-84078392D01*
X69907857Y-84114107D01*
X69622142Y-84114107D01*
X69550714Y-84078392D01*
X69515000Y-84042678D01*
X69479285Y-83971250D01*
X69479285Y-83828392D01*
X69515000Y-83756964D01*
X69550714Y-83721250D01*
X69622142Y-83685535D01*
X69800714Y-83685535D01*
X69872142Y-83721250D01*
X69907857Y-83756964D01*
X69943571Y-83828392D01*
X69943571Y-83971250D01*
X69907857Y-84042678D01*
X69872142Y-84078392D01*
X69800714Y-84114107D01*
X69943571Y-84435535D02*
X69943571Y-85006964D01*
X69479285Y-85292678D02*
X69479285Y-85756964D01*
X69765000Y-85506964D01*
X69765000Y-85614107D01*
X69800714Y-85685535D01*
X69836428Y-85721250D01*
X69907857Y-85756964D01*
X70086428Y-85756964D01*
X70157857Y-85721250D01*
X70193571Y-85685535D01*
X70229285Y-85614107D01*
X70229285Y-85399821D01*
X70193571Y-85328392D01*
X70157857Y-85292678D01*
X70193571Y-86614107D02*
X70229285Y-86721250D01*
X70229285Y-86899821D01*
X70193571Y-86971250D01*
X70157857Y-87006964D01*
X70086428Y-87042678D01*
X70015000Y-87042678D01*
X69943571Y-87006964D01*
X69907857Y-86971250D01*
X69872142Y-86899821D01*
X69836428Y-86756964D01*
X69800714Y-86685535D01*
X69765000Y-86649821D01*
X69693571Y-86614107D01*
X69622142Y-86614107D01*
X69550714Y-86649821D01*
X69515000Y-86685535D01*
X69479285Y-86756964D01*
X69479285Y-86935535D01*
X69515000Y-87042678D01*
X70193571Y-87649821D02*
X70229285Y-87578392D01*
X70229285Y-87435535D01*
X70193571Y-87364107D01*
X70122142Y-87328392D01*
X69836428Y-87328392D01*
X69765000Y-87364107D01*
X69729285Y-87435535D01*
X69729285Y-87578392D01*
X69765000Y-87649821D01*
X69836428Y-87685535D01*
X69907857Y-87685535D01*
X69979285Y-87328392D01*
X70193571Y-88328392D02*
X70229285Y-88256964D01*
X70229285Y-88114107D01*
X70193571Y-88042678D01*
X70157857Y-88006964D01*
X70086428Y-87971249D01*
X69872142Y-87971249D01*
X69800714Y-88006964D01*
X69765000Y-88042678D01*
X69729285Y-88114107D01*
X69729285Y-88256964D01*
X69765000Y-88328392D01*
X70229285Y-88756964D02*
X70193571Y-88685535D01*
X70157857Y-88649821D01*
X70086428Y-88614107D01*
X69872142Y-88614107D01*
X69800714Y-88649821D01*
X69765000Y-88685535D01*
X69729285Y-88756964D01*
X69729285Y-88864107D01*
X69765000Y-88935535D01*
X69800714Y-88971249D01*
X69872142Y-89006964D01*
X70086428Y-89006964D01*
X70157857Y-88971249D01*
X70193571Y-88935535D01*
X70229285Y-88864107D01*
X70229285Y-88756964D01*
X69729285Y-89328392D02*
X70229285Y-89328392D01*
X69800714Y-89328392D02*
X69765000Y-89364107D01*
X69729285Y-89435535D01*
X69729285Y-89542678D01*
X69765000Y-89614107D01*
X69836428Y-89649821D01*
X70229285Y-89649821D01*
X70229285Y-90328392D02*
X69479285Y-90328392D01*
X70193571Y-90328392D02*
X70229285Y-90256964D01*
X70229285Y-90114107D01*
X70193571Y-90042678D01*
X70157857Y-90006964D01*
X70086428Y-89971249D01*
X69872142Y-89971249D01*
X69800714Y-90006964D01*
X69765000Y-90042678D01*
X69729285Y-90114107D01*
X69729285Y-90256964D01*
X69765000Y-90328392D01*
X69515000Y-91649821D02*
X69479285Y-91578392D01*
X69479285Y-91471250D01*
X69515000Y-91364107D01*
X69586428Y-91292678D01*
X69657857Y-91256964D01*
X69800714Y-91221250D01*
X69907857Y-91221250D01*
X70050714Y-91256964D01*
X70122142Y-91292678D01*
X70193571Y-91364107D01*
X70229285Y-91471250D01*
X70229285Y-91542678D01*
X70193571Y-91649821D01*
X70157857Y-91685535D01*
X69907857Y-91685535D01*
X69907857Y-91542678D01*
X70193571Y-92292678D02*
X70229285Y-92221250D01*
X70229285Y-92078392D01*
X70193571Y-92006964D01*
X70122142Y-91971250D01*
X69836428Y-91971250D01*
X69765000Y-92006964D01*
X69729285Y-92078392D01*
X69729285Y-92221250D01*
X69765000Y-92292678D01*
X69836428Y-92328392D01*
X69907857Y-92328392D01*
X69979285Y-91971250D01*
X69729285Y-92649821D02*
X70229285Y-92649821D01*
X69800714Y-92649821D02*
X69765000Y-92685535D01*
X69729285Y-92756964D01*
X69729285Y-92864107D01*
X69765000Y-92935535D01*
X69836428Y-92971250D01*
X70229285Y-92971250D01*
X70193571Y-93614107D02*
X70229285Y-93542678D01*
X70229285Y-93399821D01*
X70193571Y-93328392D01*
X70122142Y-93292678D01*
X69836428Y-93292678D01*
X69765000Y-93328392D01*
X69729285Y-93399821D01*
X69729285Y-93542678D01*
X69765000Y-93614107D01*
X69836428Y-93649821D01*
X69907857Y-93649821D01*
X69979285Y-93292678D01*
X70229285Y-93971250D02*
X69729285Y-93971250D01*
X69872142Y-93971250D02*
X69800714Y-94006964D01*
X69765000Y-94042678D01*
X69729285Y-94114107D01*
X69729285Y-94185535D01*
X70229285Y-94756964D02*
X69836428Y-94756964D01*
X69765000Y-94721250D01*
X69729285Y-94649821D01*
X69729285Y-94506964D01*
X69765000Y-94435535D01*
X70193571Y-94756964D02*
X70229285Y-94685535D01*
X70229285Y-94506964D01*
X70193571Y-94435535D01*
X70122142Y-94399821D01*
X70050714Y-94399821D01*
X69979285Y-94435535D01*
X69943571Y-94506964D01*
X69943571Y-94685535D01*
X69907857Y-94756964D01*
X69729285Y-95006964D02*
X69729285Y-95292678D01*
X69479285Y-95114107D02*
X70122142Y-95114107D01*
X70193571Y-95149821D01*
X70229285Y-95221250D01*
X70229285Y-95292678D01*
X70229285Y-95542678D02*
X69729285Y-95542678D01*
X69479285Y-95542678D02*
X69515000Y-95506964D01*
X69550714Y-95542678D01*
X69515000Y-95578392D01*
X69479285Y-95542678D01*
X69550714Y-95542678D01*
X70229285Y-96006964D02*
X70193571Y-95935535D01*
X70157857Y-95899821D01*
X70086428Y-95864107D01*
X69872142Y-95864107D01*
X69800714Y-95899821D01*
X69765000Y-95935535D01*
X69729285Y-96006964D01*
X69729285Y-96114107D01*
X69765000Y-96185535D01*
X69800714Y-96221250D01*
X69872142Y-96256964D01*
X70086428Y-96256964D01*
X70157857Y-96221250D01*
X70193571Y-96185535D01*
X70229285Y-96114107D01*
X70229285Y-96006964D01*
X69729285Y-96578392D02*
X70229285Y-96578392D01*
X69800714Y-96578392D02*
X69765000Y-96614107D01*
X69729285Y-96685535D01*
X69729285Y-96792678D01*
X69765000Y-96864107D01*
X69836428Y-96899821D01*
X70229285Y-96899821D01*
X70229285Y-97828392D02*
X69729285Y-97828392D01*
X69800714Y-97828392D02*
X69765000Y-97864107D01*
X69729285Y-97935535D01*
X69729285Y-98042678D01*
X69765000Y-98114107D01*
X69836428Y-98149821D01*
X70229285Y-98149821D01*
X69836428Y-98149821D02*
X69765000Y-98185535D01*
X69729285Y-98256964D01*
X69729285Y-98364107D01*
X69765000Y-98435535D01*
X69836428Y-98471250D01*
X70229285Y-98471250D01*
X70229285Y-98935535D02*
X70193571Y-98864107D01*
X70157857Y-98828392D01*
X70086428Y-98792678D01*
X69872142Y-98792678D01*
X69800714Y-98828392D01*
X69765000Y-98864107D01*
X69729285Y-98935535D01*
X69729285Y-99042678D01*
X69765000Y-99114107D01*
X69800714Y-99149821D01*
X69872142Y-99185535D01*
X70086428Y-99185535D01*
X70157857Y-99149821D01*
X70193571Y-99114107D01*
X70229285Y-99042678D01*
X70229285Y-98935535D01*
X70229285Y-99828392D02*
X69479285Y-99828392D01*
X70193571Y-99828392D02*
X70229285Y-99756964D01*
X70229285Y-99614107D01*
X70193571Y-99542678D01*
X70157857Y-99506964D01*
X70086428Y-99471250D01*
X69872142Y-99471250D01*
X69800714Y-99506964D01*
X69765000Y-99542678D01*
X69729285Y-99614107D01*
X69729285Y-99756964D01*
X69765000Y-99828392D01*
X70193571Y-100471250D02*
X70229285Y-100399821D01*
X70229285Y-100256964D01*
X70193571Y-100185535D01*
X70122142Y-100149821D01*
X69836428Y-100149821D01*
X69765000Y-100185535D01*
X69729285Y-100256964D01*
X69729285Y-100399821D01*
X69765000Y-100471250D01*
X69836428Y-100506964D01*
X69907857Y-100506964D01*
X69979285Y-100149821D01*
X70229285Y-100935535D02*
X70193571Y-100864107D01*
X70122142Y-100828392D01*
X69479285Y-100828392D01*
X70193571Y-101185535D02*
X70229285Y-101256964D01*
X70229285Y-101399821D01*
X70193571Y-101471250D01*
X70122142Y-101506964D01*
X70086428Y-101506964D01*
X70015000Y-101471250D01*
X69979285Y-101399821D01*
X69979285Y-101292678D01*
X69943571Y-101221250D01*
X69872142Y-101185535D01*
X69836428Y-101185535D01*
X69765000Y-101221250D01*
X69729285Y-101292678D01*
X69729285Y-101399821D01*
X69765000Y-101471250D01*
X70515000Y-102614107D02*
X70479285Y-102578392D01*
X70372142Y-102506964D01*
X70300714Y-102471250D01*
X70193571Y-102435535D01*
X70015000Y-102399821D01*
X69872142Y-102399821D01*
X69693571Y-102435535D01*
X69586428Y-102471250D01*
X69515000Y-102506964D01*
X69407857Y-102578392D01*
X69372142Y-102614107D01*
X69550714Y-102864107D02*
X69515000Y-102899821D01*
X69479285Y-102971250D01*
X69479285Y-103149821D01*
X69515000Y-103221250D01*
X69550714Y-103256964D01*
X69622142Y-103292678D01*
X69693571Y-103292678D01*
X69800714Y-103256964D01*
X70229285Y-102828392D01*
X70229285Y-103292678D01*
X69479285Y-103756964D02*
X69479285Y-103828392D01*
X69515000Y-103899821D01*
X69550714Y-103935535D01*
X69622142Y-103971250D01*
X69765000Y-104006964D01*
X69943571Y-104006964D01*
X70086428Y-103971250D01*
X70157857Y-103935535D01*
X70193571Y-103899821D01*
X70229285Y-103828392D01*
X70229285Y-103756964D01*
X70193571Y-103685535D01*
X70157857Y-103649821D01*
X70086428Y-103614107D01*
X69943571Y-103578392D01*
X69765000Y-103578392D01*
X69622142Y-103614107D01*
X69550714Y-103649821D01*
X69515000Y-103685535D01*
X69479285Y-103756964D01*
X69479285Y-104471250D02*
X69479285Y-104542678D01*
X69515000Y-104614107D01*
X69550714Y-104649821D01*
X69622142Y-104685535D01*
X69765000Y-104721250D01*
X69943571Y-104721250D01*
X70086428Y-104685535D01*
X70157857Y-104649821D01*
X70193571Y-104614107D01*
X70229285Y-104542678D01*
X70229285Y-104471250D01*
X70193571Y-104399821D01*
X70157857Y-104364107D01*
X70086428Y-104328392D01*
X69943571Y-104292678D01*
X69765000Y-104292678D01*
X69622142Y-104328392D01*
X69550714Y-104364107D01*
X69515000Y-104399821D01*
X69479285Y-104471250D01*
X69479285Y-104971250D02*
X69479285Y-105435535D01*
X69765000Y-105185535D01*
X69765000Y-105292678D01*
X69800714Y-105364107D01*
X69836428Y-105399821D01*
X69907857Y-105435535D01*
X70086428Y-105435535D01*
X70157857Y-105399821D01*
X70193571Y-105364107D01*
X70229285Y-105292678D01*
X70229285Y-105078392D01*
X70193571Y-105006964D01*
X70157857Y-104971250D01*
X69943571Y-105756964D02*
X69943571Y-106328392D01*
X70229285Y-106042678D02*
X69657857Y-106042678D01*
X70515000Y-106614107D02*
X70479285Y-106649821D01*
X70372142Y-106721250D01*
X70300714Y-106756964D01*
X70193571Y-106792678D01*
X70015000Y-106828392D01*
X69872142Y-106828392D01*
X69693571Y-106792678D01*
X69586428Y-106756964D01*
X69515000Y-106721250D01*
X69407857Y-106649821D01*
X69372142Y-106614107D01*
X70193571Y-107221250D02*
X70229285Y-107221250D01*
X70300714Y-107185535D01*
X70336428Y-107149821D01*
X70979285Y-72578392D02*
X71479285Y-72721250D01*
X71122142Y-72864107D01*
X71479285Y-73006964D01*
X70979285Y-73149821D01*
X71479285Y-73435535D02*
X70979285Y-73435535D01*
X70729285Y-73435535D02*
X70765000Y-73399821D01*
X70800714Y-73435535D01*
X70765000Y-73471250D01*
X70729285Y-73435535D01*
X70800714Y-73435535D01*
X70979285Y-73685535D02*
X70979285Y-73971250D01*
X70729285Y-73792678D02*
X71372142Y-73792678D01*
X71443571Y-73828392D01*
X71479285Y-73899821D01*
X71479285Y-73971250D01*
X71479285Y-74221250D02*
X70729285Y-74221250D01*
X71479285Y-74542678D02*
X71086428Y-74542678D01*
X71015000Y-74506964D01*
X70979285Y-74435535D01*
X70979285Y-74328392D01*
X71015000Y-74256964D01*
X71050714Y-74221250D01*
X71479285Y-75471250D02*
X70729285Y-75471250D01*
X71479285Y-75792678D02*
X71086428Y-75792678D01*
X71015000Y-75756964D01*
X70979285Y-75685535D01*
X70979285Y-75578392D01*
X71015000Y-75506964D01*
X71050714Y-75471250D01*
X71479285Y-76149821D02*
X70979285Y-76149821D01*
X70729285Y-76149821D02*
X70765000Y-76114107D01*
X70800714Y-76149821D01*
X70765000Y-76185535D01*
X70729285Y-76149821D01*
X70800714Y-76149821D01*
X70979285Y-76828392D02*
X71586428Y-76828392D01*
X71657857Y-76792678D01*
X71693571Y-76756964D01*
X71729285Y-76685535D01*
X71729285Y-76578392D01*
X71693571Y-76506964D01*
X71443571Y-76828392D02*
X71479285Y-76756964D01*
X71479285Y-76614107D01*
X71443571Y-76542678D01*
X71407857Y-76506964D01*
X71336428Y-76471250D01*
X71122142Y-76471250D01*
X71050714Y-76506964D01*
X71015000Y-76542678D01*
X70979285Y-76614107D01*
X70979285Y-76756964D01*
X71015000Y-76828392D01*
X71479285Y-77185535D02*
X70729285Y-77185535D01*
X71479285Y-77506964D02*
X71086428Y-77506964D01*
X71015000Y-77471250D01*
X70979285Y-77399821D01*
X70979285Y-77292678D01*
X71015000Y-77221250D01*
X71050714Y-77185535D01*
X70979285Y-78435535D02*
X71729285Y-78435535D01*
X71015000Y-78435535D02*
X70979285Y-78506964D01*
X70979285Y-78649821D01*
X71015000Y-78721250D01*
X71050714Y-78756964D01*
X71122142Y-78792678D01*
X71336428Y-78792678D01*
X71407857Y-78756964D01*
X71443571Y-78721250D01*
X71479285Y-78649821D01*
X71479285Y-78506964D01*
X71443571Y-78435535D01*
X71479285Y-79221250D02*
X71443571Y-79149821D01*
X71407857Y-79114107D01*
X71336428Y-79078392D01*
X71122142Y-79078392D01*
X71050714Y-79114107D01*
X71015000Y-79149821D01*
X70979285Y-79221250D01*
X70979285Y-79328392D01*
X71015000Y-79399821D01*
X71050714Y-79435535D01*
X71122142Y-79471250D01*
X71336428Y-79471250D01*
X71407857Y-79435535D01*
X71443571Y-79399821D01*
X71479285Y-79328392D01*
X71479285Y-79221250D01*
X71443571Y-79756964D02*
X71479285Y-79828392D01*
X71479285Y-79971250D01*
X71443571Y-80042678D01*
X71372142Y-80078392D01*
X71336428Y-80078392D01*
X71265000Y-80042678D01*
X71229285Y-79971250D01*
X71229285Y-79864107D01*
X71193571Y-79792678D01*
X71122142Y-79756964D01*
X71086428Y-79756964D01*
X71015000Y-79792678D01*
X70979285Y-79864107D01*
X70979285Y-79971250D01*
X71015000Y-80042678D01*
X71479285Y-80399821D02*
X70979285Y-80399821D01*
X70729285Y-80399821D02*
X70765000Y-80364107D01*
X70800714Y-80399821D01*
X70765000Y-80435535D01*
X70729285Y-80399821D01*
X70800714Y-80399821D01*
X70979285Y-80649821D02*
X70979285Y-80935535D01*
X70729285Y-80756964D02*
X71372142Y-80756964D01*
X71443571Y-80792678D01*
X71479285Y-80864107D01*
X71479285Y-80935535D01*
X71479285Y-81185535D02*
X70979285Y-81185535D01*
X70729285Y-81185535D02*
X70765000Y-81149821D01*
X70800714Y-81185535D01*
X70765000Y-81221250D01*
X70729285Y-81185535D01*
X70800714Y-81185535D01*
X71479285Y-81649821D02*
X71443571Y-81578392D01*
X71407857Y-81542678D01*
X71336428Y-81506964D01*
X71122142Y-81506964D01*
X71050714Y-81542678D01*
X71015000Y-81578392D01*
X70979285Y-81649821D01*
X70979285Y-81756964D01*
X71015000Y-81828392D01*
X71050714Y-81864107D01*
X71122142Y-81899821D01*
X71336428Y-81899821D01*
X71407857Y-81864107D01*
X71443571Y-81828392D01*
X71479285Y-81756964D01*
X71479285Y-81649821D01*
X70979285Y-82221250D02*
X71479285Y-82221250D01*
X71050714Y-82221250D02*
X71015000Y-82256964D01*
X70979285Y-82328392D01*
X70979285Y-82435535D01*
X71015000Y-82506964D01*
X71086428Y-82542678D01*
X71479285Y-82542678D01*
X71443571Y-83435535D02*
X71479285Y-83542678D01*
X71479285Y-83721250D01*
X71443571Y-83792678D01*
X71407857Y-83828392D01*
X71336428Y-83864107D01*
X71265000Y-83864107D01*
X71193571Y-83828392D01*
X71157857Y-83792678D01*
X71122142Y-83721250D01*
X71086428Y-83578392D01*
X71050714Y-83506964D01*
X71015000Y-83471250D01*
X70943571Y-83435535D01*
X70872142Y-83435535D01*
X70800714Y-83471250D01*
X70765000Y-83506964D01*
X70729285Y-83578392D01*
X70729285Y-83756964D01*
X70765000Y-83864107D01*
X71479285Y-84185535D02*
X70729285Y-84185535D01*
X71479285Y-84542678D02*
X70729285Y-84542678D01*
X70729285Y-84721250D01*
X70765000Y-84828392D01*
X70836428Y-84899821D01*
X70907857Y-84935535D01*
X71050714Y-84971250D01*
X71157857Y-84971250D01*
X71300714Y-84935535D01*
X71372142Y-84899821D01*
X71443571Y-84828392D01*
X71479285Y-84721250D01*
X71479285Y-84542678D01*
X71407857Y-85292678D02*
X71443571Y-85328392D01*
X71479285Y-85292678D01*
X71443571Y-85256964D01*
X71407857Y-85292678D01*
X71479285Y-85292678D01*
X73193571Y-73185535D02*
X74157857Y-72542678D01*
X73193571Y-73971250D02*
X74157857Y-73328392D01*
X73193571Y-74756964D02*
X74157857Y-74114107D01*
X73765000Y-75542678D02*
X73765000Y-75899821D01*
X73979285Y-75471250D02*
X73229285Y-75721250D01*
X73979285Y-75971250D01*
X73979285Y-76221250D02*
X73229285Y-76221250D01*
X73229285Y-76506964D01*
X73265000Y-76578392D01*
X73300714Y-76614107D01*
X73372142Y-76649821D01*
X73479285Y-76649821D01*
X73550714Y-76614107D01*
X73586428Y-76578392D01*
X73622142Y-76506964D01*
X73622142Y-76221250D01*
X73979285Y-76971250D02*
X73229285Y-76971250D01*
X73229285Y-77256964D01*
X73265000Y-77328392D01*
X73300714Y-77364107D01*
X73372142Y-77399821D01*
X73479285Y-77399821D01*
X73550714Y-77364107D01*
X73586428Y-77328392D01*
X73622142Y-77256964D01*
X73622142Y-76971250D01*
X73979285Y-78078392D02*
X73979285Y-77721250D01*
X73229285Y-77721250D01*
X73979285Y-78328392D02*
X73229285Y-78328392D01*
X73907857Y-79114107D02*
X73943571Y-79078392D01*
X73979285Y-78971250D01*
X73979285Y-78899821D01*
X73943571Y-78792678D01*
X73872142Y-78721250D01*
X73800714Y-78685535D01*
X73657857Y-78649821D01*
X73550714Y-78649821D01*
X73407857Y-78685535D01*
X73336428Y-78721250D01*
X73265000Y-78792678D01*
X73229285Y-78899821D01*
X73229285Y-78971250D01*
X73265000Y-79078392D01*
X73300714Y-79114107D01*
X73765000Y-79399821D02*
X73765000Y-79756964D01*
X73979285Y-79328392D02*
X73229285Y-79578392D01*
X73979285Y-79828392D01*
X73229285Y-79971250D02*
X73229285Y-80399821D01*
X73979285Y-80185535D02*
X73229285Y-80185535D01*
X73979285Y-80649821D02*
X73229285Y-80649821D01*
X73229285Y-81149821D02*
X73229285Y-81292678D01*
X73265000Y-81364107D01*
X73336428Y-81435535D01*
X73479285Y-81471250D01*
X73729285Y-81471250D01*
X73872142Y-81435535D01*
X73943571Y-81364107D01*
X73979285Y-81292678D01*
X73979285Y-81149821D01*
X73943571Y-81078392D01*
X73872142Y-81006964D01*
X73729285Y-80971250D01*
X73479285Y-80971250D01*
X73336428Y-81006964D01*
X73265000Y-81078392D01*
X73229285Y-81149821D01*
X73979285Y-81792678D02*
X73229285Y-81792678D01*
X73979285Y-82221250D01*
X73229285Y-82221250D01*
X75229285Y-73042678D02*
X75229285Y-72614107D01*
X75229285Y-72828392D02*
X74479285Y-72828392D01*
X74586428Y-72756964D01*
X74657857Y-72685535D01*
X74693571Y-72614107D01*
X75157857Y-73364107D02*
X75193571Y-73399821D01*
X75229285Y-73364107D01*
X75193571Y-73328392D01*
X75157857Y-73364107D01*
X75229285Y-73364107D01*
X74479285Y-74292678D02*
X75086428Y-74292678D01*
X75157857Y-74328392D01*
X75193571Y-74364107D01*
X75229285Y-74435535D01*
X75229285Y-74578392D01*
X75193571Y-74649821D01*
X75157857Y-74685535D01*
X75086428Y-74721250D01*
X74479285Y-74721250D01*
X74729285Y-75078392D02*
X75229285Y-75078392D01*
X74800714Y-75078392D02*
X74765000Y-75114107D01*
X74729285Y-75185535D01*
X74729285Y-75292678D01*
X74765000Y-75364107D01*
X74836428Y-75399821D01*
X75229285Y-75399821D01*
X74729285Y-75756964D02*
X75479285Y-75756964D01*
X74765000Y-75756964D02*
X74729285Y-75828392D01*
X74729285Y-75971250D01*
X74765000Y-76042678D01*
X74800714Y-76078392D01*
X74872142Y-76114107D01*
X75086428Y-76114107D01*
X75157857Y-76078392D01*
X75193571Y-76042678D01*
X75229285Y-75971250D01*
X75229285Y-75828392D01*
X75193571Y-75756964D01*
X75229285Y-76542678D02*
X75193571Y-76471250D01*
X75122142Y-76435535D01*
X74479285Y-76435535D01*
X74729285Y-77149821D02*
X75229285Y-77149821D01*
X74729285Y-76828392D02*
X75122142Y-76828392D01*
X75193571Y-76864107D01*
X75229285Y-76935535D01*
X75229285Y-77042678D01*
X75193571Y-77114107D01*
X75157857Y-77149821D01*
X74729285Y-77828392D02*
X75336428Y-77828392D01*
X75407857Y-77792678D01*
X75443571Y-77756964D01*
X75479285Y-77685535D01*
X75479285Y-77578392D01*
X75443571Y-77506964D01*
X75193571Y-77828392D02*
X75229285Y-77756964D01*
X75229285Y-77614107D01*
X75193571Y-77542678D01*
X75157857Y-77506964D01*
X75086428Y-77471250D01*
X74872142Y-77471250D01*
X74800714Y-77506964D01*
X74765000Y-77542678D01*
X74729285Y-77614107D01*
X74729285Y-77756964D01*
X74765000Y-77828392D01*
X75193571Y-78721250D02*
X75229285Y-78828392D01*
X75229285Y-79006964D01*
X75193571Y-79078392D01*
X75157857Y-79114107D01*
X75086428Y-79149821D01*
X75015000Y-79149821D01*
X74943571Y-79114107D01*
X74907857Y-79078392D01*
X74872142Y-79006964D01*
X74836428Y-78864107D01*
X74800714Y-78792678D01*
X74765000Y-78756964D01*
X74693571Y-78721250D01*
X74622142Y-78721250D01*
X74550714Y-78756964D01*
X74515000Y-78792678D01*
X74479285Y-78864107D01*
X74479285Y-79042678D01*
X74515000Y-79149821D01*
X75229285Y-79471250D02*
X74479285Y-79471250D01*
X75229285Y-79828392D02*
X74479285Y-79828392D01*
X74479285Y-80006964D01*
X74515000Y-80114107D01*
X74586428Y-80185535D01*
X74657857Y-80221250D01*
X74800714Y-80256964D01*
X74907857Y-80256964D01*
X75050714Y-80221250D01*
X75122142Y-80185535D01*
X75193571Y-80114107D01*
X75229285Y-80006964D01*
X75229285Y-79828392D01*
X75157857Y-80578392D02*
X75193571Y-80614107D01*
X75229285Y-80578392D01*
X75193571Y-80542678D01*
X75157857Y-80578392D01*
X75229285Y-80578392D01*
X75800714Y-72614107D02*
X75765000Y-72649821D01*
X75729285Y-72721250D01*
X75729285Y-72899821D01*
X75765000Y-72971250D01*
X75800714Y-73006964D01*
X75872142Y-73042678D01*
X75943571Y-73042678D01*
X76050714Y-73006964D01*
X76479285Y-72578392D01*
X76479285Y-73042678D01*
X76407857Y-73364107D02*
X76443571Y-73399821D01*
X76479285Y-73364107D01*
X76443571Y-73328392D01*
X76407857Y-73364107D01*
X76479285Y-73364107D01*
X76479285Y-74292678D02*
X75729285Y-74292678D01*
X75729285Y-74578392D01*
X75765000Y-74649821D01*
X75800714Y-74685535D01*
X75872142Y-74721250D01*
X75979285Y-74721250D01*
X76050714Y-74685535D01*
X76086428Y-74649821D01*
X76122142Y-74578392D01*
X76122142Y-74292678D01*
X76479285Y-75149821D02*
X76443571Y-75078392D01*
X76372142Y-75042678D01*
X75729285Y-75042678D01*
X75979285Y-75756964D02*
X76479285Y-75756964D01*
X75979285Y-75435535D02*
X76372142Y-75435535D01*
X76443571Y-75471250D01*
X76479285Y-75542678D01*
X76479285Y-75649821D01*
X76443571Y-75721250D01*
X76407857Y-75756964D01*
X75979285Y-76435535D02*
X76586428Y-76435535D01*
X76657857Y-76399821D01*
X76693571Y-76364107D01*
X76729285Y-76292678D01*
X76729285Y-76185535D01*
X76693571Y-76114107D01*
X76443571Y-76435535D02*
X76479285Y-76364107D01*
X76479285Y-76221250D01*
X76443571Y-76149821D01*
X76407857Y-76114107D01*
X76336428Y-76078392D01*
X76122142Y-76078392D01*
X76050714Y-76114107D01*
X76015000Y-76149821D01*
X75979285Y-76221250D01*
X75979285Y-76364107D01*
X76015000Y-76435535D01*
X76443571Y-77328392D02*
X76479285Y-77435535D01*
X76479285Y-77614107D01*
X76443571Y-77685535D01*
X76407857Y-77721250D01*
X76336428Y-77756964D01*
X76265000Y-77756964D01*
X76193571Y-77721250D01*
X76157857Y-77685535D01*
X76122142Y-77614107D01*
X76086428Y-77471250D01*
X76050714Y-77399821D01*
X76015000Y-77364107D01*
X75943571Y-77328392D01*
X75872142Y-77328392D01*
X75800714Y-77364107D01*
X75765000Y-77399821D01*
X75729285Y-77471250D01*
X75729285Y-77649821D01*
X75765000Y-77756964D01*
X76479285Y-78078392D02*
X75729285Y-78078392D01*
X76479285Y-78435535D02*
X75729285Y-78435535D01*
X75729285Y-78614107D01*
X75765000Y-78721250D01*
X75836428Y-78792678D01*
X75907857Y-78828392D01*
X76050714Y-78864107D01*
X76157857Y-78864107D01*
X76300714Y-78828392D01*
X76372142Y-78792678D01*
X76443571Y-78721250D01*
X76479285Y-78614107D01*
X76479285Y-78435535D01*
X76443571Y-80078392D02*
X76479285Y-80006964D01*
X76479285Y-79864107D01*
X76443571Y-79792678D01*
X76407857Y-79756964D01*
X76336428Y-79721250D01*
X76122142Y-79721250D01*
X76050714Y-79756964D01*
X76015000Y-79792678D01*
X75979285Y-79864107D01*
X75979285Y-80006964D01*
X76015000Y-80078392D01*
X76479285Y-80721250D02*
X76086428Y-80721250D01*
X76015000Y-80685535D01*
X75979285Y-80614107D01*
X75979285Y-80471250D01*
X76015000Y-80399821D01*
X76443571Y-80721250D02*
X76479285Y-80649821D01*
X76479285Y-80471250D01*
X76443571Y-80399821D01*
X76372142Y-80364107D01*
X76300714Y-80364107D01*
X76229285Y-80399821D01*
X76193571Y-80471250D01*
X76193571Y-80649821D01*
X76157857Y-80721250D01*
X76479285Y-81078392D02*
X75729285Y-81078392D01*
X76015000Y-81078392D02*
X75979285Y-81149821D01*
X75979285Y-81292678D01*
X76015000Y-81364107D01*
X76050714Y-81399821D01*
X76122142Y-81435535D01*
X76336428Y-81435535D01*
X76407857Y-81399821D01*
X76443571Y-81364107D01*
X76479285Y-81292678D01*
X76479285Y-81149821D01*
X76443571Y-81078392D01*
X76479285Y-81864107D02*
X76443571Y-81792678D01*
X76372142Y-81756964D01*
X75729285Y-81756964D01*
X76443571Y-82435535D02*
X76479285Y-82364107D01*
X76479285Y-82221250D01*
X76443571Y-82149821D01*
X76372142Y-82114107D01*
X76086428Y-82114107D01*
X76015000Y-82149821D01*
X75979285Y-82221250D01*
X75979285Y-82364107D01*
X76015000Y-82435535D01*
X76086428Y-82471250D01*
X76157857Y-82471250D01*
X76229285Y-82114107D01*
X76479285Y-83364107D02*
X75979285Y-83364107D01*
X75729285Y-83364107D02*
X75765000Y-83328392D01*
X75800714Y-83364107D01*
X75765000Y-83399821D01*
X75729285Y-83364107D01*
X75800714Y-83364107D01*
X75979285Y-83721250D02*
X76479285Y-83721250D01*
X76050714Y-83721250D02*
X76015000Y-83756964D01*
X75979285Y-83828392D01*
X75979285Y-83935535D01*
X76015000Y-84006964D01*
X76086428Y-84042678D01*
X76479285Y-84042678D01*
X75979285Y-84292678D02*
X75979285Y-84578392D01*
X75729285Y-84399821D02*
X76372142Y-84399821D01*
X76443571Y-84435535D01*
X76479285Y-84506964D01*
X76479285Y-84578392D01*
X76479285Y-84935535D02*
X76443571Y-84864107D01*
X76407857Y-84828392D01*
X76336428Y-84792678D01*
X76122142Y-84792678D01*
X76050714Y-84828392D01*
X76015000Y-84864107D01*
X75979285Y-84935535D01*
X75979285Y-85042678D01*
X76015000Y-85114107D01*
X76050714Y-85149821D01*
X76122142Y-85185535D01*
X76336428Y-85185535D01*
X76407857Y-85149821D01*
X76443571Y-85114107D01*
X76479285Y-85042678D01*
X76479285Y-84935535D01*
X76479285Y-86078392D02*
X75729285Y-86078392D01*
X76407857Y-86864107D02*
X76443571Y-86828392D01*
X76479285Y-86721250D01*
X76479285Y-86649821D01*
X76443571Y-86542678D01*
X76372142Y-86471250D01*
X76300714Y-86435535D01*
X76157857Y-86399821D01*
X76050714Y-86399821D01*
X75907857Y-86435535D01*
X75836428Y-86471250D01*
X75765000Y-86542678D01*
X75729285Y-86649821D01*
X75729285Y-86721250D01*
X75765000Y-86828392D01*
X75800714Y-86864107D01*
X76479285Y-87185535D02*
X75729285Y-87185535D01*
X76265000Y-87435535D01*
X75729285Y-87685535D01*
X76479285Y-87685535D01*
X75979285Y-88614107D02*
X76729285Y-88614107D01*
X76015000Y-88614107D02*
X75979285Y-88685535D01*
X75979285Y-88828392D01*
X76015000Y-88899821D01*
X76050714Y-88935535D01*
X76122142Y-88971250D01*
X76336428Y-88971250D01*
X76407857Y-88935535D01*
X76443571Y-88899821D01*
X76479285Y-88828392D01*
X76479285Y-88685535D01*
X76443571Y-88614107D01*
X76479285Y-89399821D02*
X76443571Y-89328392D01*
X76407857Y-89292678D01*
X76336428Y-89256964D01*
X76122142Y-89256964D01*
X76050714Y-89292678D01*
X76015000Y-89328392D01*
X75979285Y-89399821D01*
X75979285Y-89506964D01*
X76015000Y-89578392D01*
X76050714Y-89614107D01*
X76122142Y-89649821D01*
X76336428Y-89649821D01*
X76407857Y-89614107D01*
X76443571Y-89578392D01*
X76479285Y-89506964D01*
X76479285Y-89399821D01*
X76479285Y-89971250D02*
X75979285Y-89971250D01*
X76122142Y-89971250D02*
X76050714Y-90006964D01*
X76015000Y-90042678D01*
X75979285Y-90114107D01*
X75979285Y-90185535D01*
X75979285Y-90328392D02*
X75979285Y-90614107D01*
X75729285Y-90435535D02*
X76372142Y-90435535D01*
X76443571Y-90471250D01*
X76479285Y-90542678D01*
X76479285Y-90614107D01*
X76765000Y-91649821D02*
X76729285Y-91614107D01*
X76622142Y-91542678D01*
X76550714Y-91506964D01*
X76443571Y-91471250D01*
X76265000Y-91435535D01*
X76122142Y-91435535D01*
X75943571Y-91471250D01*
X75836428Y-91506964D01*
X75765000Y-91542678D01*
X75657857Y-91614107D01*
X75622142Y-91649821D01*
X75729285Y-92149821D02*
X76265000Y-92149821D01*
X76372142Y-92114107D01*
X76443571Y-92042678D01*
X76479285Y-91935535D01*
X76479285Y-91864107D01*
X76479285Y-92899821D02*
X76479285Y-92471250D01*
X76479285Y-92685535D02*
X75729285Y-92685535D01*
X75836428Y-92614107D01*
X75907857Y-92542678D01*
X75943571Y-92471250D01*
X76765000Y-93149821D02*
X76729285Y-93185535D01*
X76622142Y-93256964D01*
X76550714Y-93292678D01*
X76443571Y-93328392D01*
X76265000Y-93364107D01*
X76122142Y-93364107D01*
X75943571Y-93328392D01*
X75836428Y-93292678D01*
X75765000Y-93256964D01*
X75657857Y-93185535D01*
X75622142Y-93149821D01*
X76407857Y-93721250D02*
X76443571Y-93756964D01*
X76479285Y-93721250D01*
X76443571Y-93685535D01*
X76407857Y-93721250D01*
X76479285Y-93721250D01*
X76979285Y-72578392D02*
X76979285Y-73042678D01*
X77265000Y-72792678D01*
X77265000Y-72899821D01*
X77300714Y-72971250D01*
X77336428Y-73006964D01*
X77407857Y-73042678D01*
X77586428Y-73042678D01*
X77657857Y-73006964D01*
X77693571Y-72971250D01*
X77729285Y-72899821D01*
X77729285Y-72685535D01*
X77693571Y-72614107D01*
X77657857Y-72578392D01*
X77657857Y-73364107D02*
X77693571Y-73399821D01*
X77729285Y-73364107D01*
X77693571Y-73328392D01*
X77657857Y-73364107D01*
X77729285Y-73364107D01*
X77657857Y-74721250D02*
X77693571Y-74685535D01*
X77729285Y-74578392D01*
X77729285Y-74506964D01*
X77693571Y-74399821D01*
X77622142Y-74328392D01*
X77550714Y-74292678D01*
X77407857Y-74256964D01*
X77300714Y-74256964D01*
X77157857Y-74292678D01*
X77086428Y-74328392D01*
X77015000Y-74399821D01*
X76979285Y-74506964D01*
X76979285Y-74578392D01*
X77015000Y-74685535D01*
X77050714Y-74721250D01*
X77729285Y-75149821D02*
X77693571Y-75078392D01*
X77657857Y-75042678D01*
X77586428Y-75006964D01*
X77372142Y-75006964D01*
X77300714Y-75042678D01*
X77265000Y-75078392D01*
X77229285Y-75149821D01*
X77229285Y-75256964D01*
X77265000Y-75328392D01*
X77300714Y-75364107D01*
X77372142Y-75399821D01*
X77586428Y-75399821D01*
X77657857Y-75364107D01*
X77693571Y-75328392D01*
X77729285Y-75256964D01*
X77729285Y-75149821D01*
X77229285Y-75721250D02*
X77729285Y-75721250D01*
X77300714Y-75721250D02*
X77265000Y-75756964D01*
X77229285Y-75828392D01*
X77229285Y-75935535D01*
X77265000Y-76006964D01*
X77336428Y-76042678D01*
X77729285Y-76042678D01*
X77229285Y-76399821D02*
X77729285Y-76399821D01*
X77300714Y-76399821D02*
X77265000Y-76435535D01*
X77229285Y-76506964D01*
X77229285Y-76614107D01*
X77265000Y-76685535D01*
X77336428Y-76721250D01*
X77729285Y-76721250D01*
X77693571Y-77364107D02*
X77729285Y-77292678D01*
X77729285Y-77149821D01*
X77693571Y-77078392D01*
X77622142Y-77042678D01*
X77336428Y-77042678D01*
X77265000Y-77078392D01*
X77229285Y-77149821D01*
X77229285Y-77292678D01*
X77265000Y-77364107D01*
X77336428Y-77399821D01*
X77407857Y-77399821D01*
X77479285Y-77042678D01*
X77693571Y-78042678D02*
X77729285Y-77971250D01*
X77729285Y-77828392D01*
X77693571Y-77756964D01*
X77657857Y-77721250D01*
X77586428Y-77685535D01*
X77372142Y-77685535D01*
X77300714Y-77721250D01*
X77265000Y-77756964D01*
X77229285Y-77828392D01*
X77229285Y-77971250D01*
X77265000Y-78042678D01*
X77229285Y-78256964D02*
X77229285Y-78542678D01*
X76979285Y-78364107D02*
X77622142Y-78364107D01*
X77693571Y-78399821D01*
X77729285Y-78471250D01*
X77729285Y-78542678D01*
X77693571Y-79328392D02*
X77729285Y-79435535D01*
X77729285Y-79614107D01*
X77693571Y-79685535D01*
X77657857Y-79721250D01*
X77586428Y-79756964D01*
X77515000Y-79756964D01*
X77443571Y-79721250D01*
X77407857Y-79685535D01*
X77372142Y-79614107D01*
X77336428Y-79471250D01*
X77300714Y-79399821D01*
X77265000Y-79364107D01*
X77193571Y-79328392D01*
X77122142Y-79328392D01*
X77050714Y-79364107D01*
X77015000Y-79399821D01*
X76979285Y-79471250D01*
X76979285Y-79649821D01*
X77015000Y-79756964D01*
X77729285Y-80078392D02*
X76979285Y-80078392D01*
X77729285Y-80435535D02*
X76979285Y-80435535D01*
X76979285Y-80614107D01*
X77015000Y-80721250D01*
X77086428Y-80792678D01*
X77157857Y-80828392D01*
X77300714Y-80864107D01*
X77407857Y-80864107D01*
X77550714Y-80828392D01*
X77622142Y-80792678D01*
X77693571Y-80721250D01*
X77729285Y-80614107D01*
X77729285Y-80435535D01*
X77229285Y-81649821D02*
X77229285Y-81935535D01*
X76979285Y-81756964D02*
X77622142Y-81756964D01*
X77693571Y-81792678D01*
X77729285Y-81864107D01*
X77729285Y-81935535D01*
X77729285Y-82292678D02*
X77693571Y-82221250D01*
X77657857Y-82185535D01*
X77586428Y-82149821D01*
X77372142Y-82149821D01*
X77300714Y-82185535D01*
X77265000Y-82221250D01*
X77229285Y-82292678D01*
X77229285Y-82399821D01*
X77265000Y-82471250D01*
X77300714Y-82506964D01*
X77372142Y-82542678D01*
X77586428Y-82542678D01*
X77657857Y-82506964D01*
X77693571Y-82471250D01*
X77729285Y-82399821D01*
X77729285Y-82292678D01*
X77693571Y-83399821D02*
X77729285Y-83506964D01*
X77729285Y-83685535D01*
X77693571Y-83756964D01*
X77657857Y-83792678D01*
X77586428Y-83828392D01*
X77515000Y-83828392D01*
X77443571Y-83792678D01*
X77407857Y-83756964D01*
X77372142Y-83685535D01*
X77336428Y-83542678D01*
X77300714Y-83471250D01*
X77265000Y-83435535D01*
X77193571Y-83399821D01*
X77122142Y-83399821D01*
X77050714Y-83435535D01*
X77015000Y-83471250D01*
X76979285Y-83542678D01*
X76979285Y-83721250D01*
X77015000Y-83828392D01*
X77729285Y-84149821D02*
X76979285Y-84149821D01*
X77729285Y-84506964D02*
X76979285Y-84506964D01*
X76979285Y-84685535D01*
X77015000Y-84792678D01*
X77086428Y-84864107D01*
X77157857Y-84899821D01*
X77300714Y-84935535D01*
X77407857Y-84935535D01*
X77550714Y-84899821D01*
X77622142Y-84864107D01*
X77693571Y-84792678D01*
X77729285Y-84685535D01*
X77729285Y-84506964D01*
X77229285Y-85828392D02*
X77979285Y-85828392D01*
X77265000Y-85828392D02*
X77229285Y-85899821D01*
X77229285Y-86042678D01*
X77265000Y-86114107D01*
X77300714Y-86149821D01*
X77372142Y-86185535D01*
X77586428Y-86185535D01*
X77657857Y-86149821D01*
X77693571Y-86114107D01*
X77729285Y-86042678D01*
X77729285Y-85899821D01*
X77693571Y-85828392D01*
X77729285Y-86614107D02*
X77693571Y-86542678D01*
X77657857Y-86506964D01*
X77586428Y-86471250D01*
X77372142Y-86471250D01*
X77300714Y-86506964D01*
X77265000Y-86542678D01*
X77229285Y-86614107D01*
X77229285Y-86721250D01*
X77265000Y-86792678D01*
X77300714Y-86828392D01*
X77372142Y-86864107D01*
X77586428Y-86864107D01*
X77657857Y-86828392D01*
X77693571Y-86792678D01*
X77729285Y-86721250D01*
X77729285Y-86614107D01*
X77729285Y-87185535D02*
X77229285Y-87185535D01*
X77372142Y-87185535D02*
X77300714Y-87221250D01*
X77265000Y-87256964D01*
X77229285Y-87328392D01*
X77229285Y-87399821D01*
X77229285Y-87542678D02*
X77229285Y-87828392D01*
X76979285Y-87649821D02*
X77622142Y-87649821D01*
X77693571Y-87685535D01*
X77729285Y-87756964D01*
X77729285Y-87828392D01*
X78015000Y-88864107D02*
X77979285Y-88828392D01*
X77872142Y-88756964D01*
X77800714Y-88721250D01*
X77693571Y-88685535D01*
X77515000Y-88649821D01*
X77372142Y-88649821D01*
X77193571Y-88685535D01*
X77086428Y-88721250D01*
X77015000Y-88756964D01*
X76907857Y-88828392D01*
X76872142Y-88864107D01*
X76979285Y-89364107D02*
X77515000Y-89364107D01*
X77622142Y-89328392D01*
X77693571Y-89256964D01*
X77729285Y-89149821D01*
X77729285Y-89078392D01*
X77050714Y-89685535D02*
X77015000Y-89721250D01*
X76979285Y-89792678D01*
X76979285Y-89971250D01*
X77015000Y-90042678D01*
X77050714Y-90078392D01*
X77122142Y-90114107D01*
X77193571Y-90114107D01*
X77300714Y-90078392D01*
X77729285Y-89649821D01*
X77729285Y-90114107D01*
X78015000Y-90364107D02*
X77979285Y-90399821D01*
X77872142Y-90471250D01*
X77800714Y-90506964D01*
X77693571Y-90542678D01*
X77515000Y-90578392D01*
X77372142Y-90578392D01*
X77193571Y-90542678D01*
X77086428Y-90506964D01*
X77015000Y-90471250D01*
X76907857Y-90399821D01*
X76872142Y-90364107D01*
X77229285Y-91435535D02*
X77729285Y-91614107D01*
X77229285Y-91792678D01*
X77729285Y-92078392D02*
X77229285Y-92078392D01*
X76979285Y-92078392D02*
X77015000Y-92042678D01*
X77050714Y-92078392D01*
X77015000Y-92114107D01*
X76979285Y-92078392D01*
X77050714Y-92078392D01*
X77729285Y-92756964D02*
X77336428Y-92756964D01*
X77265000Y-92721250D01*
X77229285Y-92649821D01*
X77229285Y-92506964D01*
X77265000Y-92435535D01*
X77693571Y-92756964D02*
X77729285Y-92685535D01*
X77729285Y-92506964D01*
X77693571Y-92435535D01*
X77622142Y-92399821D01*
X77550714Y-92399821D01*
X77479285Y-92435535D01*
X77443571Y-92506964D01*
X77443571Y-92685535D01*
X77407857Y-92756964D01*
X77729285Y-94006964D02*
X77336428Y-94006964D01*
X77265000Y-93971250D01*
X77229285Y-93899821D01*
X77229285Y-93756964D01*
X77265000Y-93685535D01*
X77693571Y-94006964D02*
X77729285Y-93935535D01*
X77729285Y-93756964D01*
X77693571Y-93685535D01*
X77622142Y-93649821D01*
X77550714Y-93649821D01*
X77479285Y-93685535D01*
X77443571Y-93756964D01*
X77443571Y-93935535D01*
X77407857Y-94006964D01*
X77229285Y-94364107D02*
X77979285Y-94364107D01*
X77265000Y-94364107D02*
X77229285Y-94435535D01*
X77229285Y-94578392D01*
X77265000Y-94649821D01*
X77300714Y-94685535D01*
X77372142Y-94721250D01*
X77586428Y-94721250D01*
X77657857Y-94685535D01*
X77693571Y-94649821D01*
X77729285Y-94578392D01*
X77729285Y-94435535D01*
X77693571Y-94364107D01*
X77229285Y-95042678D02*
X77979285Y-95042678D01*
X77265000Y-95042678D02*
X77229285Y-95114107D01*
X77229285Y-95256964D01*
X77265000Y-95328392D01*
X77300714Y-95364107D01*
X77372142Y-95399821D01*
X77586428Y-95399821D01*
X77657857Y-95364107D01*
X77693571Y-95328392D01*
X77729285Y-95256964D01*
X77729285Y-95114107D01*
X77693571Y-95042678D01*
X77729285Y-95721250D02*
X77229285Y-95721250D01*
X77372142Y-95721250D02*
X77300714Y-95756964D01*
X77265000Y-95792678D01*
X77229285Y-95864107D01*
X77229285Y-95935535D01*
X77729285Y-96292678D02*
X77693571Y-96221250D01*
X77657857Y-96185535D01*
X77586428Y-96149821D01*
X77372142Y-96149821D01*
X77300714Y-96185535D01*
X77265000Y-96221250D01*
X77229285Y-96292678D01*
X77229285Y-96399821D01*
X77265000Y-96471250D01*
X77300714Y-96506964D01*
X77372142Y-96542678D01*
X77586428Y-96542678D01*
X77657857Y-96506964D01*
X77693571Y-96471250D01*
X77729285Y-96399821D01*
X77729285Y-96292678D01*
X77229285Y-96864107D02*
X77979285Y-96864107D01*
X77265000Y-96864107D02*
X77229285Y-96935535D01*
X77229285Y-97078392D01*
X77265000Y-97149821D01*
X77300714Y-97185535D01*
X77372142Y-97221250D01*
X77586428Y-97221250D01*
X77657857Y-97185535D01*
X77693571Y-97149821D01*
X77729285Y-97078392D01*
X77729285Y-96935535D01*
X77693571Y-96864107D01*
X77729285Y-97542678D02*
X77229285Y-97542678D01*
X77372142Y-97542678D02*
X77300714Y-97578392D01*
X77265000Y-97614107D01*
X77229285Y-97685535D01*
X77229285Y-97756964D01*
X77729285Y-98006964D02*
X77229285Y-98006964D01*
X76979285Y-98006964D02*
X77015000Y-97971250D01*
X77050714Y-98006964D01*
X77015000Y-98042678D01*
X76979285Y-98006964D01*
X77050714Y-98006964D01*
X77729285Y-98685535D02*
X77336428Y-98685535D01*
X77265000Y-98649821D01*
X77229285Y-98578392D01*
X77229285Y-98435535D01*
X77265000Y-98364107D01*
X77693571Y-98685535D02*
X77729285Y-98614107D01*
X77729285Y-98435535D01*
X77693571Y-98364107D01*
X77622142Y-98328392D01*
X77550714Y-98328392D01*
X77479285Y-98364107D01*
X77443571Y-98435535D01*
X77443571Y-98614107D01*
X77407857Y-98685535D01*
X77229285Y-98935535D02*
X77229285Y-99221250D01*
X76979285Y-99042678D02*
X77622142Y-99042678D01*
X77693571Y-99078392D01*
X77729285Y-99149821D01*
X77729285Y-99221250D01*
X77693571Y-99756964D02*
X77729285Y-99685535D01*
X77729285Y-99542678D01*
X77693571Y-99471250D01*
X77622142Y-99435535D01*
X77336428Y-99435535D01*
X77265000Y-99471250D01*
X77229285Y-99542678D01*
X77229285Y-99685535D01*
X77265000Y-99756964D01*
X77336428Y-99792678D01*
X77407857Y-99792678D01*
X77479285Y-99435535D01*
X77729285Y-101078392D02*
X77729285Y-100649821D01*
X77729285Y-100864107D02*
X76979285Y-100864107D01*
X77086428Y-100792678D01*
X77157857Y-100721250D01*
X77193571Y-100649821D01*
X77050714Y-101364107D02*
X77015000Y-101399821D01*
X76979285Y-101471250D01*
X76979285Y-101649821D01*
X77015000Y-101721250D01*
X77050714Y-101756964D01*
X77122142Y-101792678D01*
X77193571Y-101792678D01*
X77300714Y-101756964D01*
X77729285Y-101328392D01*
X77729285Y-101792678D01*
X77443571Y-102114107D02*
X77443571Y-102685535D01*
X77693571Y-103364107D02*
X77729285Y-103292678D01*
X77729285Y-103149821D01*
X77693571Y-103078392D01*
X77657857Y-103042678D01*
X77586428Y-103006964D01*
X77372142Y-103006964D01*
X77300714Y-103042678D01*
X77265000Y-103078392D01*
X77229285Y-103149821D01*
X77229285Y-103292678D01*
X77265000Y-103364107D01*
X77729285Y-103792678D02*
X77693571Y-103721250D01*
X77657857Y-103685535D01*
X77586428Y-103649821D01*
X77372142Y-103649821D01*
X77300714Y-103685535D01*
X77265000Y-103721250D01*
X77229285Y-103792678D01*
X77229285Y-103899821D01*
X77265000Y-103971250D01*
X77300714Y-104006964D01*
X77372142Y-104042678D01*
X77586428Y-104042678D01*
X77657857Y-104006964D01*
X77693571Y-103971250D01*
X77729285Y-103899821D01*
X77729285Y-103792678D01*
X77729285Y-104364107D02*
X77229285Y-104364107D01*
X77372142Y-104364107D02*
X77300714Y-104399821D01*
X77265000Y-104435535D01*
X77229285Y-104506964D01*
X77229285Y-104578392D01*
X77693571Y-105114107D02*
X77729285Y-105042678D01*
X77729285Y-104899821D01*
X77693571Y-104828392D01*
X77622142Y-104792678D01*
X77336428Y-104792678D01*
X77265000Y-104828392D01*
X77229285Y-104899821D01*
X77229285Y-105042678D01*
X77265000Y-105114107D01*
X77336428Y-105149821D01*
X77407857Y-105149821D01*
X77479285Y-104792678D01*
X77693571Y-106364107D02*
X77729285Y-106292678D01*
X77729285Y-106149821D01*
X77693571Y-106078392D01*
X77657857Y-106042678D01*
X77586428Y-106006964D01*
X77372142Y-106006964D01*
X77300714Y-106042678D01*
X77265000Y-106078392D01*
X77229285Y-106149821D01*
X77229285Y-106292678D01*
X77265000Y-106364107D01*
X77729285Y-107006964D02*
X77336428Y-107006964D01*
X77265000Y-106971250D01*
X77229285Y-106899821D01*
X77229285Y-106756964D01*
X77265000Y-106685535D01*
X77693571Y-107006964D02*
X77729285Y-106935535D01*
X77729285Y-106756964D01*
X77693571Y-106685535D01*
X77622142Y-106649821D01*
X77550714Y-106649821D01*
X77479285Y-106685535D01*
X77443571Y-106756964D01*
X77443571Y-106935535D01*
X77407857Y-107006964D01*
X77729285Y-107364107D02*
X76979285Y-107364107D01*
X77265000Y-107364107D02*
X77229285Y-107435535D01*
X77229285Y-107578392D01*
X77265000Y-107649821D01*
X77300714Y-107685535D01*
X77372142Y-107721250D01*
X77586428Y-107721250D01*
X77657857Y-107685535D01*
X77693571Y-107649821D01*
X77729285Y-107578392D01*
X77729285Y-107435535D01*
X77693571Y-107364107D01*
X77729285Y-108149821D02*
X77693571Y-108078392D01*
X77622142Y-108042678D01*
X76979285Y-108042678D01*
X77693571Y-108721250D02*
X77729285Y-108649821D01*
X77729285Y-108506964D01*
X77693571Y-108435535D01*
X77622142Y-108399821D01*
X77336428Y-108399821D01*
X77265000Y-108435535D01*
X77229285Y-108506964D01*
X77229285Y-108649821D01*
X77265000Y-108721250D01*
X77336428Y-108756964D01*
X77407857Y-108756964D01*
X77479285Y-108399821D01*
X77657857Y-109078392D02*
X77693571Y-109114107D01*
X77729285Y-109078392D01*
X77693571Y-109042678D01*
X77657857Y-109078392D01*
X77729285Y-109078392D01*
X78479285Y-72971250D02*
X78979285Y-72971250D01*
X78193571Y-72792678D02*
X78729285Y-72614107D01*
X78729285Y-73078392D01*
X78907857Y-73364107D02*
X78943571Y-73399821D01*
X78979285Y-73364107D01*
X78943571Y-73328392D01*
X78907857Y-73364107D01*
X78979285Y-73364107D01*
X78979285Y-74292678D02*
X78229285Y-74292678D01*
X78479285Y-74649821D02*
X78979285Y-74649821D01*
X78550714Y-74649821D02*
X78515000Y-74685535D01*
X78479285Y-74756964D01*
X78479285Y-74864107D01*
X78515000Y-74935535D01*
X78586428Y-74971250D01*
X78979285Y-74971250D01*
X78479285Y-75221250D02*
X78479285Y-75506964D01*
X78229285Y-75328392D02*
X78872142Y-75328392D01*
X78943571Y-75364107D01*
X78979285Y-75435535D01*
X78979285Y-75506964D01*
X78943571Y-76042678D02*
X78979285Y-75971250D01*
X78979285Y-75828392D01*
X78943571Y-75756964D01*
X78872142Y-75721250D01*
X78586428Y-75721250D01*
X78515000Y-75756964D01*
X78479285Y-75828392D01*
X78479285Y-75971250D01*
X78515000Y-76042678D01*
X78586428Y-76078392D01*
X78657857Y-76078392D01*
X78729285Y-75721250D01*
X78979285Y-76399821D02*
X78479285Y-76399821D01*
X78622142Y-76399821D02*
X78550714Y-76435535D01*
X78515000Y-76471250D01*
X78479285Y-76542678D01*
X78479285Y-76614107D01*
X78479285Y-76756964D02*
X78479285Y-77042678D01*
X78979285Y-76864107D02*
X78336428Y-76864107D01*
X78265000Y-76899821D01*
X78229285Y-76971250D01*
X78229285Y-77042678D01*
X78979285Y-77614107D02*
X78586428Y-77614107D01*
X78515000Y-77578392D01*
X78479285Y-77506964D01*
X78479285Y-77364107D01*
X78515000Y-77292678D01*
X78943571Y-77614107D02*
X78979285Y-77542678D01*
X78979285Y-77364107D01*
X78943571Y-77292678D01*
X78872142Y-77256964D01*
X78800714Y-77256964D01*
X78729285Y-77292678D01*
X78693571Y-77364107D01*
X78693571Y-77542678D01*
X78657857Y-77614107D01*
X78943571Y-78292678D02*
X78979285Y-78221250D01*
X78979285Y-78078392D01*
X78943571Y-78006964D01*
X78907857Y-77971250D01*
X78836428Y-77935535D01*
X78622142Y-77935535D01*
X78550714Y-77971250D01*
X78515000Y-78006964D01*
X78479285Y-78078392D01*
X78479285Y-78221250D01*
X78515000Y-78292678D01*
X78943571Y-78899821D02*
X78979285Y-78828392D01*
X78979285Y-78685535D01*
X78943571Y-78614107D01*
X78872142Y-78578392D01*
X78586428Y-78578392D01*
X78515000Y-78614107D01*
X78479285Y-78685535D01*
X78479285Y-78828392D01*
X78515000Y-78899821D01*
X78586428Y-78935535D01*
X78657857Y-78935535D01*
X78729285Y-78578392D01*
X78479285Y-79721250D02*
X78479285Y-80006964D01*
X78229285Y-79828392D02*
X78872142Y-79828392D01*
X78943571Y-79864107D01*
X78979285Y-79935535D01*
X78979285Y-80006964D01*
X78979285Y-80364107D02*
X78943571Y-80292678D01*
X78907857Y-80256964D01*
X78836428Y-80221250D01*
X78622142Y-80221250D01*
X78550714Y-80256964D01*
X78515000Y-80292678D01*
X78479285Y-80364107D01*
X78479285Y-80471250D01*
X78515000Y-80542678D01*
X78550714Y-80578392D01*
X78622142Y-80614107D01*
X78836428Y-80614107D01*
X78907857Y-80578392D01*
X78943571Y-80542678D01*
X78979285Y-80471250D01*
X78979285Y-80364107D01*
X78943571Y-81471250D02*
X78979285Y-81578392D01*
X78979285Y-81756964D01*
X78943571Y-81828392D01*
X78907857Y-81864107D01*
X78836428Y-81899821D01*
X78765000Y-81899821D01*
X78693571Y-81864107D01*
X78657857Y-81828392D01*
X78622142Y-81756964D01*
X78586428Y-81614107D01*
X78550714Y-81542678D01*
X78515000Y-81506964D01*
X78443571Y-81471250D01*
X78372142Y-81471250D01*
X78300714Y-81506964D01*
X78265000Y-81542678D01*
X78229285Y-81614107D01*
X78229285Y-81792678D01*
X78265000Y-81899821D01*
X78979285Y-82221250D02*
X78229285Y-82221250D01*
X78229285Y-82506964D01*
X78265000Y-82578392D01*
X78300714Y-82614107D01*
X78372142Y-82649821D01*
X78479285Y-82649821D01*
X78550714Y-82614107D01*
X78586428Y-82578392D01*
X78622142Y-82506964D01*
X78622142Y-82221250D01*
X78979285Y-82971250D02*
X78229285Y-82971250D01*
X78979285Y-83899821D02*
X78229285Y-83899821D01*
X78515000Y-83899821D02*
X78479285Y-83971250D01*
X78479285Y-84114107D01*
X78515000Y-84185535D01*
X78550714Y-84221250D01*
X78622142Y-84256964D01*
X78836428Y-84256964D01*
X78907857Y-84221250D01*
X78943571Y-84185535D01*
X78979285Y-84114107D01*
X78979285Y-83971250D01*
X78943571Y-83899821D01*
X78479285Y-84899821D02*
X78979285Y-84899821D01*
X78479285Y-84578392D02*
X78872142Y-84578392D01*
X78943571Y-84614107D01*
X78979285Y-84685535D01*
X78979285Y-84792678D01*
X78943571Y-84864107D01*
X78907857Y-84899821D01*
X78943571Y-85221250D02*
X78979285Y-85292678D01*
X78979285Y-85435535D01*
X78943571Y-85506964D01*
X78872142Y-85542678D01*
X78836428Y-85542678D01*
X78765000Y-85506964D01*
X78729285Y-85435535D01*
X78729285Y-85328392D01*
X78693571Y-85256964D01*
X78622142Y-85221250D01*
X78586428Y-85221250D01*
X78515000Y-85256964D01*
X78479285Y-85328392D01*
X78479285Y-85435535D01*
X78515000Y-85506964D01*
X78479285Y-86364107D02*
X78979285Y-86506964D01*
X78622142Y-86649821D01*
X78979285Y-86792678D01*
X78479285Y-86935535D01*
X78979285Y-87221250D02*
X78479285Y-87221250D01*
X78229285Y-87221250D02*
X78265000Y-87185535D01*
X78300714Y-87221250D01*
X78265000Y-87256964D01*
X78229285Y-87221250D01*
X78300714Y-87221250D01*
X78479285Y-87471250D02*
X78479285Y-87756964D01*
X78229285Y-87578392D02*
X78872142Y-87578392D01*
X78943571Y-87614107D01*
X78979285Y-87685535D01*
X78979285Y-87756964D01*
X78979285Y-88006964D02*
X78229285Y-88006964D01*
X78979285Y-88328392D02*
X78586428Y-88328392D01*
X78515000Y-88292678D01*
X78479285Y-88221250D01*
X78479285Y-88114107D01*
X78515000Y-88042678D01*
X78550714Y-88006964D01*
X78979285Y-89578392D02*
X78586428Y-89578392D01*
X78515000Y-89542678D01*
X78479285Y-89471250D01*
X78479285Y-89328392D01*
X78515000Y-89256964D01*
X78943571Y-89578392D02*
X78979285Y-89506964D01*
X78979285Y-89328392D01*
X78943571Y-89256964D01*
X78872142Y-89221250D01*
X78800714Y-89221250D01*
X78729285Y-89256964D01*
X78693571Y-89328392D01*
X78693571Y-89506964D01*
X78657857Y-89578392D01*
X78479285Y-89935535D02*
X79229285Y-89935535D01*
X78515000Y-89935535D02*
X78479285Y-90006964D01*
X78479285Y-90149821D01*
X78515000Y-90221250D01*
X78550714Y-90256964D01*
X78622142Y-90292678D01*
X78836428Y-90292678D01*
X78907857Y-90256964D01*
X78943571Y-90221250D01*
X78979285Y-90149821D01*
X78979285Y-90006964D01*
X78943571Y-89935535D01*
X78479285Y-90614107D02*
X79229285Y-90614107D01*
X78515000Y-90614107D02*
X78479285Y-90685535D01*
X78479285Y-90828392D01*
X78515000Y-90899821D01*
X78550714Y-90935535D01*
X78622142Y-90971250D01*
X78836428Y-90971250D01*
X78907857Y-90935535D01*
X78943571Y-90899821D01*
X78979285Y-90828392D01*
X78979285Y-90685535D01*
X78943571Y-90614107D01*
X78979285Y-91292678D02*
X78479285Y-91292678D01*
X78622142Y-91292678D02*
X78550714Y-91328392D01*
X78515000Y-91364107D01*
X78479285Y-91435535D01*
X78479285Y-91506964D01*
X78979285Y-91864107D02*
X78943571Y-91792678D01*
X78907857Y-91756964D01*
X78836428Y-91721250D01*
X78622142Y-91721250D01*
X78550714Y-91756964D01*
X78515000Y-91792678D01*
X78479285Y-91864107D01*
X78479285Y-91971250D01*
X78515000Y-92042678D01*
X78550714Y-92078392D01*
X78622142Y-92114107D01*
X78836428Y-92114107D01*
X78907857Y-92078392D01*
X78943571Y-92042678D01*
X78979285Y-91971250D01*
X78979285Y-91864107D01*
X78479285Y-92435535D02*
X79229285Y-92435535D01*
X78515000Y-92435535D02*
X78479285Y-92506964D01*
X78479285Y-92649821D01*
X78515000Y-92721250D01*
X78550714Y-92756964D01*
X78622142Y-92792678D01*
X78836428Y-92792678D01*
X78907857Y-92756964D01*
X78943571Y-92721250D01*
X78979285Y-92649821D01*
X78979285Y-92506964D01*
X78943571Y-92435535D01*
X78979285Y-93114107D02*
X78479285Y-93114107D01*
X78622142Y-93114107D02*
X78550714Y-93149821D01*
X78515000Y-93185535D01*
X78479285Y-93256964D01*
X78479285Y-93328392D01*
X78979285Y-93578392D02*
X78479285Y-93578392D01*
X78229285Y-93578392D02*
X78265000Y-93542678D01*
X78300714Y-93578392D01*
X78265000Y-93614107D01*
X78229285Y-93578392D01*
X78300714Y-93578392D01*
X78979285Y-94256964D02*
X78586428Y-94256964D01*
X78515000Y-94221250D01*
X78479285Y-94149821D01*
X78479285Y-94006964D01*
X78515000Y-93935535D01*
X78943571Y-94256964D02*
X78979285Y-94185535D01*
X78979285Y-94006964D01*
X78943571Y-93935535D01*
X78872142Y-93899821D01*
X78800714Y-93899821D01*
X78729285Y-93935535D01*
X78693571Y-94006964D01*
X78693571Y-94185535D01*
X78657857Y-94256964D01*
X78479285Y-94506964D02*
X78479285Y-94792678D01*
X78229285Y-94614107D02*
X78872142Y-94614107D01*
X78943571Y-94649821D01*
X78979285Y-94721250D01*
X78979285Y-94792678D01*
X78943571Y-95328392D02*
X78979285Y-95256964D01*
X78979285Y-95114107D01*
X78943571Y-95042678D01*
X78872142Y-95006964D01*
X78586428Y-95006964D01*
X78515000Y-95042678D01*
X78479285Y-95114107D01*
X78479285Y-95256964D01*
X78515000Y-95328392D01*
X78586428Y-95364107D01*
X78657857Y-95364107D01*
X78729285Y-95006964D01*
X78979285Y-96256964D02*
X78479285Y-96256964D01*
X78550714Y-96256964D02*
X78515000Y-96292678D01*
X78479285Y-96364107D01*
X78479285Y-96471250D01*
X78515000Y-96542678D01*
X78586428Y-96578392D01*
X78979285Y-96578392D01*
X78586428Y-96578392D02*
X78515000Y-96614107D01*
X78479285Y-96685535D01*
X78479285Y-96792678D01*
X78515000Y-96864107D01*
X78586428Y-96899821D01*
X78979285Y-96899821D01*
X78979285Y-97256964D02*
X78479285Y-97256964D01*
X78229285Y-97256964D02*
X78265000Y-97221250D01*
X78300714Y-97256964D01*
X78265000Y-97292678D01*
X78229285Y-97256964D01*
X78300714Y-97256964D01*
X78943571Y-97935535D02*
X78979285Y-97864107D01*
X78979285Y-97721250D01*
X78943571Y-97649821D01*
X78907857Y-97614107D01*
X78836428Y-97578392D01*
X78622142Y-97578392D01*
X78550714Y-97614107D01*
X78515000Y-97649821D01*
X78479285Y-97721250D01*
X78479285Y-97864107D01*
X78515000Y-97935535D01*
X78979285Y-98256964D02*
X78479285Y-98256964D01*
X78622142Y-98256964D02*
X78550714Y-98292678D01*
X78515000Y-98328392D01*
X78479285Y-98399821D01*
X78479285Y-98471250D01*
X78979285Y-98828392D02*
X78943571Y-98756964D01*
X78907857Y-98721250D01*
X78836428Y-98685535D01*
X78622142Y-98685535D01*
X78550714Y-98721250D01*
X78515000Y-98756964D01*
X78479285Y-98828392D01*
X78479285Y-98935535D01*
X78515000Y-99006964D01*
X78550714Y-99042678D01*
X78622142Y-99078392D01*
X78836428Y-99078392D01*
X78907857Y-99042678D01*
X78943571Y-99006964D01*
X78979285Y-98935535D01*
X78979285Y-98828392D01*
X78943571Y-99721250D02*
X78979285Y-99649821D01*
X78979285Y-99506964D01*
X78943571Y-99435535D01*
X78907857Y-99399821D01*
X78836428Y-99364107D01*
X78622142Y-99364107D01*
X78550714Y-99399821D01*
X78515000Y-99435535D01*
X78479285Y-99506964D01*
X78479285Y-99649821D01*
X78515000Y-99721250D01*
X78979285Y-100149821D02*
X78943571Y-100078392D01*
X78907857Y-100042678D01*
X78836428Y-100006964D01*
X78622142Y-100006964D01*
X78550714Y-100042678D01*
X78515000Y-100078392D01*
X78479285Y-100149821D01*
X78479285Y-100256964D01*
X78515000Y-100328392D01*
X78550714Y-100364107D01*
X78622142Y-100399821D01*
X78836428Y-100399821D01*
X78907857Y-100364107D01*
X78943571Y-100328392D01*
X78979285Y-100256964D01*
X78979285Y-100149821D01*
X78479285Y-100721250D02*
X78979285Y-100721250D01*
X78550714Y-100721250D02*
X78515000Y-100756964D01*
X78479285Y-100828392D01*
X78479285Y-100935535D01*
X78515000Y-101006964D01*
X78586428Y-101042678D01*
X78979285Y-101042678D01*
X78479285Y-101292678D02*
X78479285Y-101578392D01*
X78229285Y-101399821D02*
X78872142Y-101399821D01*
X78943571Y-101435535D01*
X78979285Y-101506964D01*
X78979285Y-101578392D01*
X78979285Y-101828392D02*
X78479285Y-101828392D01*
X78622142Y-101828392D02*
X78550714Y-101864107D01*
X78515000Y-101899821D01*
X78479285Y-101971250D01*
X78479285Y-102042678D01*
X78979285Y-102399821D02*
X78943571Y-102328392D01*
X78907857Y-102292678D01*
X78836428Y-102256964D01*
X78622142Y-102256964D01*
X78550714Y-102292678D01*
X78515000Y-102328392D01*
X78479285Y-102399821D01*
X78479285Y-102506964D01*
X78515000Y-102578392D01*
X78550714Y-102614107D01*
X78622142Y-102649821D01*
X78836428Y-102649821D01*
X78907857Y-102614107D01*
X78943571Y-102578392D01*
X78979285Y-102506964D01*
X78979285Y-102399821D01*
X78979285Y-103078392D02*
X78943571Y-103006964D01*
X78872142Y-102971250D01*
X78229285Y-102971250D01*
X78979285Y-103471250D02*
X78943571Y-103399821D01*
X78872142Y-103364107D01*
X78229285Y-103364107D01*
X78943571Y-104042678D02*
X78979285Y-103971250D01*
X78979285Y-103828392D01*
X78943571Y-103756964D01*
X78872142Y-103721250D01*
X78586428Y-103721250D01*
X78515000Y-103756964D01*
X78479285Y-103828392D01*
X78479285Y-103971250D01*
X78515000Y-104042678D01*
X78586428Y-104078392D01*
X78657857Y-104078392D01*
X78729285Y-103721250D01*
X78979285Y-104399821D02*
X78479285Y-104399821D01*
X78622142Y-104399821D02*
X78550714Y-104435535D01*
X78515000Y-104471250D01*
X78479285Y-104542678D01*
X78479285Y-104614107D01*
X78907857Y-104864107D02*
X78943571Y-104899821D01*
X78979285Y-104864107D01*
X78943571Y-104828392D01*
X78907857Y-104864107D01*
X78979285Y-104864107D01*
M02*
