G04 #@! TF.GenerationSoftware,KiCad,Pcbnew,5.1.4-e60b266~84~ubuntu19.04.1*
G04 #@! TF.CreationDate,2020-01-26T15:48:04+11:00*
G04 #@! TF.ProjectId,sid-board_ldo_supplies,7369642d-626f-4617-9264-5f6c646f5f73,rev?*
G04 #@! TF.SameCoordinates,Original*
G04 #@! TF.FileFunction,Copper,L2,Bot*
G04 #@! TF.FilePolarity,Positive*
%FSLAX46Y46*%
G04 Gerber Fmt 4.6, Leading zero omitted, Abs format (unit mm)*
G04 Created by KiCad (PCBNEW 5.1.4-e60b266~84~ubuntu19.04.1) date 2020-01-26 15:48:04*
%MOMM*%
%LPD*%
G04 APERTURE LIST*
%ADD10O,1.700000X1.700000*%
%ADD11R,1.700000X1.700000*%
%ADD12R,1.600000X1.600000*%
%ADD13O,1.600000X1.600000*%
%ADD14C,0.800000*%
%ADD15C,0.250000*%
G04 APERTURE END LIST*
D10*
X87630000Y-66802000D03*
X87630000Y-64262000D03*
X90170000Y-66802000D03*
X90170000Y-64262000D03*
X92710000Y-66802000D03*
X92710000Y-64262000D03*
X95250000Y-66802000D03*
X95250000Y-64262000D03*
X97790000Y-66802000D03*
X97790000Y-64262000D03*
X100330000Y-66802000D03*
D11*
X100330000Y-64262000D03*
D10*
X68580000Y-66802000D03*
X68580000Y-64262000D03*
X71120000Y-66802000D03*
X71120000Y-64262000D03*
X73660000Y-66802000D03*
X73660000Y-64262000D03*
X76200000Y-66802000D03*
X76200000Y-64262000D03*
X78740000Y-66802000D03*
X78740000Y-64262000D03*
X81280000Y-66802000D03*
D11*
X81280000Y-64262000D03*
D10*
X100076000Y-82042000D03*
D11*
X97536000Y-82042000D03*
D10*
X71120000Y-82042000D03*
D11*
X68580000Y-82042000D03*
D12*
X100330000Y-95885000D03*
D13*
X92710000Y-93345000D03*
X100330000Y-93345000D03*
X92710000Y-95885000D03*
D11*
X89916000Y-86995000D03*
D10*
X92456000Y-86995000D03*
X94996000Y-86995000D03*
X97536000Y-86995000D03*
X100076000Y-86995000D03*
D14*
X98361500Y-69913500D03*
X95913884Y-69186116D03*
X91440000Y-71755000D03*
X81915000Y-71755000D03*
X81915000Y-91567000D03*
X89535000Y-76200000D03*
X87630000Y-77470000D03*
X72889001Y-91101001D03*
X71300000Y-70030000D03*
X71300000Y-68760000D03*
X74930000Y-74295000D03*
X75184000Y-84328000D03*
X73025000Y-76708000D03*
X75184000Y-85344000D03*
X66675000Y-76708000D03*
X102102920Y-76761340D03*
X79629000Y-88519000D03*
X95498920Y-76761340D03*
X78486000Y-88519000D03*
X85725000Y-85725000D03*
X75565000Y-89535000D03*
D15*
X98761499Y-70313499D02*
X98361500Y-69913500D01*
X102827921Y-74379921D02*
X98761499Y-70313499D01*
X102827921Y-90847079D02*
X102827921Y-74379921D01*
X100330000Y-93345000D02*
X102827921Y-90847079D01*
X96479569Y-69186116D02*
X95913884Y-69186116D01*
X98707118Y-69186116D02*
X96479569Y-69186116D01*
X103277930Y-73756928D02*
X98707118Y-69186116D01*
X103277930Y-92062072D02*
X103277930Y-73756928D01*
X99455002Y-95885000D02*
X103277930Y-92062072D01*
X100330000Y-95885000D02*
X99455002Y-95885000D01*
X86780001Y-63412001D02*
X87630000Y-64262000D01*
X86454999Y-63086999D02*
X86780001Y-63412001D01*
X69755001Y-63086999D02*
X86454999Y-63086999D01*
X68580000Y-64262000D02*
X69755001Y-63086999D01*
X81515001Y-71355001D02*
X81915000Y-71755000D01*
X77564999Y-67404999D02*
X81515001Y-71355001D01*
X76764001Y-65626999D02*
X77564999Y-66427997D01*
X77564999Y-66427997D02*
X77564999Y-67404999D01*
X72484999Y-65626999D02*
X76764001Y-65626999D01*
X71120000Y-64262000D02*
X72484999Y-65626999D01*
X81915000Y-71755000D02*
X91440000Y-71755000D01*
X94074999Y-65437001D02*
X94400001Y-65111999D01*
X77375001Y-65437001D02*
X94074999Y-65437001D01*
X94400001Y-65111999D02*
X95250000Y-64262000D01*
X76200000Y-64262000D02*
X77375001Y-65437001D01*
X88900000Y-76200000D02*
X87630000Y-77470000D01*
X89535000Y-76200000D02*
X88900000Y-76200000D01*
X73355000Y-91567000D02*
X72889001Y-91101001D01*
X81915000Y-91567000D02*
X73355000Y-91567000D01*
X65774981Y-75555019D02*
X70900001Y-70429999D01*
X65774981Y-85059983D02*
X65774981Y-75555019D01*
X74059998Y-93345000D02*
X65774981Y-85059983D01*
X70900001Y-70429999D02*
X71300000Y-70030000D01*
X92710000Y-93345000D02*
X74059998Y-93345000D01*
X65324971Y-74735029D02*
X70900001Y-69159999D01*
X70900001Y-69159999D02*
X71300000Y-68760000D01*
X75963588Y-95885000D02*
X65324971Y-85246383D01*
X65324971Y-85246383D02*
X65324971Y-74735029D01*
X92710000Y-95885000D02*
X75963588Y-95885000D01*
X74930000Y-78232000D02*
X71120000Y-82042000D01*
X74930000Y-74295000D02*
X74930000Y-78232000D01*
X66675000Y-77724000D02*
X72009000Y-77724000D01*
X72009000Y-77724000D02*
X73025000Y-76708000D01*
X75184000Y-84328000D02*
X68580998Y-84328000D01*
X66675000Y-82422002D02*
X66675000Y-77724000D01*
X68580998Y-84328000D02*
X66675000Y-82422002D01*
X66224991Y-82608403D02*
X68960588Y-85344000D01*
X66675000Y-76708000D02*
X66224991Y-77158009D01*
X66224991Y-77158009D02*
X66224991Y-82608403D01*
X75184000Y-85344000D02*
X68960588Y-85344000D01*
X95252820Y-78105000D02*
X100759260Y-78105000D01*
X85462801Y-87895019D02*
X95252820Y-78105000D01*
X100759260Y-78105000D02*
X102102920Y-76761340D01*
X79629000Y-88519000D02*
X80252980Y-87895020D01*
X80252980Y-87895020D02*
X85462801Y-87895019D01*
X95098921Y-77622489D02*
X85276400Y-87445010D01*
X95498920Y-76761340D02*
X95098921Y-77161339D01*
X95098921Y-77161339D02*
X95098921Y-77622489D01*
X79559990Y-87445010D02*
X78486000Y-88519000D01*
X85276400Y-87445010D02*
X79559990Y-87445010D01*
X85725000Y-85725000D02*
X85725000Y-86360000D01*
X85725000Y-86360000D02*
X85090000Y-86995000D01*
X78105000Y-86995000D02*
X75565000Y-89535000D01*
X85090000Y-86995000D02*
X78105000Y-86995000D01*
M02*
