G04 #@! TF.GenerationSoftware,KiCad,Pcbnew,5.1.4-e60b266~84~ubuntu19.04.1*
G04 #@! TF.CreationDate,2020-01-15T22:36:37+11:00*
G04 #@! TF.ProjectId,sid-board,7369642d-626f-4617-9264-2e6b69636164,rev?*
G04 #@! TF.SameCoordinates,Original*
G04 #@! TF.FileFunction,Legend,Top*
G04 #@! TF.FilePolarity,Positive*
%FSLAX46Y46*%
G04 Gerber Fmt 4.6, Leading zero omitted, Abs format (unit mm)*
G04 Created by KiCad (PCBNEW 5.1.4-e60b266~84~ubuntu19.04.1) date 2020-01-15 22:36:37*
%MOMM*%
%LPD*%
G04 APERTURE LIST*
%ADD10C,0.750000*%
%ADD11C,0.120000*%
%ADD12C,0.187500*%
%ADD13C,0.150000*%
%ADD14C,0.250000*%
%ADD15C,0.125000*%
G04 APERTURE END LIST*
D10*
X68114642Y-89569285D02*
X65543214Y-93426428D01*
X71257500Y-89569285D02*
X68686071Y-93426428D01*
X74400357Y-89569285D02*
X71828928Y-93426428D01*
X77543214Y-92569285D02*
X77971785Y-92712142D01*
X78686071Y-92712142D01*
X78971785Y-92569285D01*
X79114642Y-92426428D01*
X79257500Y-92140714D01*
X79257500Y-91855000D01*
X79114642Y-91569285D01*
X78971785Y-91426428D01*
X78686071Y-91283571D01*
X78114642Y-91140714D01*
X77828928Y-90997857D01*
X77686071Y-90855000D01*
X77543214Y-90569285D01*
X77543214Y-90283571D01*
X77686071Y-89997857D01*
X77828928Y-89855000D01*
X78114642Y-89712142D01*
X78828928Y-89712142D01*
X79257500Y-89855000D01*
X80400357Y-91855000D02*
X81828928Y-91855000D01*
X80114642Y-92712142D02*
X81114642Y-89712142D01*
X82114642Y-92712142D01*
X82971785Y-91855000D02*
X84400357Y-91855000D01*
X82686071Y-92712142D02*
X83686071Y-89712142D01*
X84686071Y-92712142D01*
X86686071Y-91140714D02*
X87114642Y-91283571D01*
X87257500Y-91426428D01*
X87400357Y-91712142D01*
X87400357Y-92140714D01*
X87257500Y-92426428D01*
X87114642Y-92569285D01*
X86828928Y-92712142D01*
X85686071Y-92712142D01*
X85686071Y-89712142D01*
X86686071Y-89712142D01*
X86971785Y-89855000D01*
X87114642Y-89997857D01*
X87257500Y-90283571D01*
X87257500Y-90569285D01*
X87114642Y-90855000D01*
X86971785Y-90997857D01*
X86686071Y-91140714D01*
X85686071Y-91140714D01*
X90828928Y-92569285D02*
X91257500Y-92712142D01*
X91971785Y-92712142D01*
X92257500Y-92569285D01*
X92400357Y-92426428D01*
X92543214Y-92140714D01*
X92543214Y-91855000D01*
X92400357Y-91569285D01*
X92257500Y-91426428D01*
X91971785Y-91283571D01*
X91400357Y-91140714D01*
X91114642Y-90997857D01*
X90971785Y-90855000D01*
X90828928Y-90569285D01*
X90828928Y-90283571D01*
X90971785Y-89997857D01*
X91114642Y-89855000D01*
X91400357Y-89712142D01*
X92114642Y-89712142D01*
X92543214Y-89855000D01*
X93828928Y-92712142D02*
X93828928Y-89712142D01*
X95257500Y-92712142D02*
X95257500Y-89712142D01*
X95971785Y-89712142D01*
X96400357Y-89855000D01*
X96686071Y-90140714D01*
X96828928Y-90426428D01*
X96971785Y-90997857D01*
X96971785Y-91426428D01*
X96828928Y-91997857D01*
X96686071Y-92283571D01*
X96400357Y-92569285D01*
X95971785Y-92712142D01*
X95257500Y-92712142D01*
X68114642Y-94819285D02*
X65543214Y-98676428D01*
X71257500Y-94819285D02*
X68686071Y-98676428D01*
X74400357Y-94819285D02*
X71828928Y-98676428D01*
X77686071Y-97962142D02*
X77686071Y-94962142D01*
X79114642Y-97962142D02*
X79114642Y-94962142D01*
X80828928Y-97962142D01*
X80828928Y-94962142D01*
X81828928Y-94962142D02*
X83543214Y-94962142D01*
X82686071Y-97962142D02*
X82686071Y-94962142D01*
X84543214Y-96390714D02*
X85543214Y-96390714D01*
X85971785Y-97962142D02*
X84543214Y-97962142D01*
X84543214Y-94962142D01*
X85971785Y-94962142D01*
X88971785Y-97962142D02*
X87971785Y-96533571D01*
X87257500Y-97962142D02*
X87257500Y-94962142D01*
X88400357Y-94962142D01*
X88686071Y-95105000D01*
X88828928Y-95247857D01*
X88971785Y-95533571D01*
X88971785Y-95962142D01*
X88828928Y-96247857D01*
X88686071Y-96390714D01*
X88400357Y-96533571D01*
X87257500Y-96533571D01*
X91257500Y-96390714D02*
X90257500Y-96390714D01*
X90257500Y-97962142D02*
X90257500Y-94962142D01*
X91686071Y-94962142D01*
X92686071Y-97105000D02*
X94114642Y-97105000D01*
X92400357Y-97962142D02*
X93400357Y-94962142D01*
X94400357Y-97962142D01*
X97114642Y-97676428D02*
X96971785Y-97819285D01*
X96543214Y-97962142D01*
X96257500Y-97962142D01*
X95828928Y-97819285D01*
X95543214Y-97533571D01*
X95400357Y-97247857D01*
X95257500Y-96676428D01*
X95257500Y-96247857D01*
X95400357Y-95676428D01*
X95543214Y-95390714D01*
X95828928Y-95105000D01*
X96257500Y-94962142D01*
X96543214Y-94962142D01*
X96971785Y-95105000D01*
X97114642Y-95247857D01*
X98400357Y-96390714D02*
X99400357Y-96390714D01*
X99828928Y-97962142D02*
X98400357Y-97962142D01*
X98400357Y-94962142D01*
X99828928Y-94962142D01*
D11*
X94488000Y-118110000D02*
X100838000Y-111760000D01*
X76708000Y-120650000D02*
X76200000Y-120650000D01*
X79248000Y-118110000D02*
X76708000Y-120650000D01*
X100393500Y-71374000D02*
X98107500Y-73660000D01*
X100393500Y-72390000D02*
X98615500Y-74168000D01*
X99377500Y-71374000D02*
X98107500Y-72644000D01*
X98107500Y-74168000D02*
X99123500Y-74168000D01*
X98107500Y-74168000D02*
X100393500Y-71882000D01*
X98361500Y-71374000D02*
X98107500Y-71628000D01*
X98107500Y-73152000D02*
X99885500Y-71374000D01*
X100393500Y-72898000D02*
X99123500Y-74168000D01*
X98107500Y-71374000D02*
X98107500Y-74168000D01*
X100393500Y-72898000D02*
X100393500Y-71374000D01*
X98107500Y-72136000D02*
X98869500Y-71374000D01*
X100393500Y-71374000D02*
X98107500Y-71374000D01*
X68580000Y-71755000D02*
X68834000Y-72009000D01*
X68834000Y-72517000D02*
X68072000Y-71755000D01*
X67564000Y-71755000D02*
X68834000Y-73025000D01*
X68834000Y-73533000D02*
X67056000Y-71755000D01*
X66548000Y-71755000D02*
X68834000Y-74041000D01*
X68834000Y-74549000D02*
X66548000Y-72263000D01*
X66548000Y-72771000D02*
X68326000Y-74549000D01*
X68834000Y-74549000D02*
X67818000Y-74549000D01*
X68834000Y-71755000D02*
X68834000Y-74549000D01*
X66548000Y-71755000D02*
X68834000Y-71755000D01*
X66548000Y-73279000D02*
X66548000Y-71755000D01*
X66548000Y-73279000D02*
X67818000Y-74549000D01*
X104902000Y-59690000D02*
X104140000Y-59690000D01*
X104902000Y-83439000D02*
X104902000Y-59690000D01*
X62357000Y-59690000D02*
X104140000Y-59690000D01*
X62357000Y-83439000D02*
X62357000Y-59690000D01*
X104902000Y-105029000D02*
X104902000Y-111760000D01*
X62357000Y-120650000D02*
X62357000Y-105156000D01*
X62357000Y-120650000D02*
X76200000Y-120650000D01*
X62357000Y-128270000D02*
X62357000Y-120650000D01*
X104902000Y-128270000D02*
X62357000Y-128270000D01*
X104902000Y-111760000D02*
X104902000Y-128270000D01*
X104140000Y-111760000D02*
X104902000Y-111760000D01*
D12*
X64018732Y-122794821D02*
X64125875Y-122830535D01*
X64304446Y-122830535D01*
X64375875Y-122794821D01*
X64411589Y-122759107D01*
X64447303Y-122687678D01*
X64447303Y-122616250D01*
X64411589Y-122544821D01*
X64375875Y-122509107D01*
X64304446Y-122473392D01*
X64161589Y-122437678D01*
X64090160Y-122401964D01*
X64054446Y-122366250D01*
X64018732Y-122294821D01*
X64018732Y-122223392D01*
X64054446Y-122151964D01*
X64090160Y-122116250D01*
X64161589Y-122080535D01*
X64340160Y-122080535D01*
X64447303Y-122116250D01*
X64733017Y-122616250D02*
X65090160Y-122616250D01*
X64661589Y-122830535D02*
X64911589Y-122080535D01*
X65161589Y-122830535D01*
X65375875Y-122616250D02*
X65733017Y-122616250D01*
X65304446Y-122830535D02*
X65554446Y-122080535D01*
X65804446Y-122830535D01*
X66304446Y-122437678D02*
X66411589Y-122473392D01*
X66447303Y-122509107D01*
X66483017Y-122580535D01*
X66483017Y-122687678D01*
X66447303Y-122759107D01*
X66411589Y-122794821D01*
X66340160Y-122830535D01*
X66054446Y-122830535D01*
X66054446Y-122080535D01*
X66304446Y-122080535D01*
X66375875Y-122116250D01*
X66411589Y-122151964D01*
X66447303Y-122223392D01*
X66447303Y-122294821D01*
X66411589Y-122366250D01*
X66375875Y-122401964D01*
X66304446Y-122437678D01*
X66054446Y-122437678D01*
X67340160Y-122794821D02*
X67447303Y-122830535D01*
X67625875Y-122830535D01*
X67697303Y-122794821D01*
X67733017Y-122759107D01*
X67768732Y-122687678D01*
X67768732Y-122616250D01*
X67733017Y-122544821D01*
X67697303Y-122509107D01*
X67625875Y-122473392D01*
X67483017Y-122437678D01*
X67411589Y-122401964D01*
X67375875Y-122366250D01*
X67340160Y-122294821D01*
X67340160Y-122223392D01*
X67375875Y-122151964D01*
X67411589Y-122116250D01*
X67483017Y-122080535D01*
X67661589Y-122080535D01*
X67768732Y-122116250D01*
X68090160Y-122830535D02*
X68090160Y-122080535D01*
X68447303Y-122830535D02*
X68447303Y-122080535D01*
X68625875Y-122080535D01*
X68733017Y-122116250D01*
X68804446Y-122187678D01*
X68840160Y-122259107D01*
X68875875Y-122401964D01*
X68875875Y-122509107D01*
X68840160Y-122651964D01*
X68804446Y-122723392D01*
X68733017Y-122794821D01*
X68625875Y-122830535D01*
X68447303Y-122830535D01*
X69768732Y-122830535D02*
X69768732Y-122080535D01*
X70125875Y-122830535D02*
X70125875Y-122080535D01*
X70554446Y-122830535D01*
X70554446Y-122080535D01*
X70804446Y-122080535D02*
X71233017Y-122080535D01*
X71018732Y-122830535D02*
X71018732Y-122080535D01*
X71483017Y-122437678D02*
X71733017Y-122437678D01*
X71840160Y-122830535D02*
X71483017Y-122830535D01*
X71483017Y-122080535D01*
X71840160Y-122080535D01*
X72590160Y-122830535D02*
X72340160Y-122473392D01*
X72161589Y-122830535D02*
X72161589Y-122080535D01*
X72447303Y-122080535D01*
X72518732Y-122116250D01*
X72554446Y-122151964D01*
X72590160Y-122223392D01*
X72590160Y-122330535D01*
X72554446Y-122401964D01*
X72518732Y-122437678D01*
X72447303Y-122473392D01*
X72161589Y-122473392D01*
X73161589Y-122437678D02*
X72911589Y-122437678D01*
X72911589Y-122830535D02*
X72911589Y-122080535D01*
X73268732Y-122080535D01*
X73518732Y-122616250D02*
X73875875Y-122616250D01*
X73447303Y-122830535D02*
X73697303Y-122080535D01*
X73947303Y-122830535D01*
X74625875Y-122759107D02*
X74590160Y-122794821D01*
X74483017Y-122830535D01*
X74411589Y-122830535D01*
X74304446Y-122794821D01*
X74233017Y-122723392D01*
X74197303Y-122651964D01*
X74161589Y-122509107D01*
X74161589Y-122401964D01*
X74197303Y-122259107D01*
X74233017Y-122187678D01*
X74304446Y-122116250D01*
X74411589Y-122080535D01*
X74483017Y-122080535D01*
X74590160Y-122116250D01*
X74625875Y-122151964D01*
X74947303Y-122437678D02*
X75197303Y-122437678D01*
X75304446Y-122830535D02*
X74947303Y-122830535D01*
X74947303Y-122080535D01*
X75304446Y-122080535D01*
X64411589Y-125455535D02*
X64054446Y-125455535D01*
X64054446Y-124705535D01*
X64661589Y-125062678D02*
X64911589Y-125062678D01*
X65018732Y-125455535D02*
X64661589Y-125455535D01*
X64661589Y-124705535D01*
X65018732Y-124705535D01*
X65340160Y-125455535D02*
X65340160Y-124705535D01*
X66090160Y-124741250D02*
X66018732Y-124705535D01*
X65911589Y-124705535D01*
X65804446Y-124741250D01*
X65733017Y-124812678D01*
X65697303Y-124884107D01*
X65661589Y-125026964D01*
X65661589Y-125134107D01*
X65697303Y-125276964D01*
X65733017Y-125348392D01*
X65804446Y-125419821D01*
X65911589Y-125455535D01*
X65983017Y-125455535D01*
X66090160Y-125419821D01*
X66125875Y-125384107D01*
X66125875Y-125134107D01*
X65983017Y-125134107D01*
X66447303Y-125455535D02*
X66447303Y-124705535D01*
X66447303Y-125062678D02*
X66875875Y-125062678D01*
X66875875Y-125455535D02*
X66875875Y-124705535D01*
X67947303Y-124705535D02*
X68090160Y-124705535D01*
X68161589Y-124741250D01*
X68233017Y-124812678D01*
X68268732Y-124955535D01*
X68268732Y-125205535D01*
X68233017Y-125348392D01*
X68161589Y-125419821D01*
X68090160Y-125455535D01*
X67947303Y-125455535D01*
X67875875Y-125419821D01*
X67804446Y-125348392D01*
X67768732Y-125205535D01*
X67768732Y-124955535D01*
X67804446Y-124812678D01*
X67875875Y-124741250D01*
X67947303Y-124705535D01*
X68947303Y-125455535D02*
X68590160Y-125455535D01*
X68590160Y-124705535D01*
X69197303Y-125455535D02*
X69197303Y-124705535D01*
X69447303Y-124705535D02*
X69697303Y-125455535D01*
X69947303Y-124705535D01*
X70197303Y-125062678D02*
X70447303Y-125062678D01*
X70554446Y-125455535D02*
X70197303Y-125455535D01*
X70197303Y-124705535D01*
X70554446Y-124705535D01*
X71304446Y-125455535D02*
X71054446Y-125098392D01*
X70875875Y-125455535D02*
X70875875Y-124705535D01*
X71161589Y-124705535D01*
X71233017Y-124741250D01*
X71268732Y-124776964D01*
X71304446Y-124848392D01*
X71304446Y-124955535D01*
X71268732Y-125026964D01*
X71233017Y-125062678D01*
X71161589Y-125098392D01*
X70875875Y-125098392D01*
X64197303Y-126018035D02*
X64268732Y-126018035D01*
X64340160Y-126053750D01*
X64375875Y-126089464D01*
X64411589Y-126160892D01*
X64447303Y-126303750D01*
X64447303Y-126482321D01*
X64411589Y-126625178D01*
X64375875Y-126696607D01*
X64340160Y-126732321D01*
X64268732Y-126768035D01*
X64197303Y-126768035D01*
X64125875Y-126732321D01*
X64090160Y-126696607D01*
X64054446Y-126625178D01*
X64018732Y-126482321D01*
X64018732Y-126303750D01*
X64054446Y-126160892D01*
X64090160Y-126089464D01*
X64125875Y-126053750D01*
X64197303Y-126018035D01*
X65161589Y-126768035D02*
X64733017Y-126768035D01*
X64947303Y-126768035D02*
X64947303Y-126018035D01*
X64875875Y-126125178D01*
X64804446Y-126196607D01*
X64733017Y-126232321D01*
X66018732Y-125982321D02*
X65375875Y-126946607D01*
X66233017Y-126089464D02*
X66268732Y-126053750D01*
X66340160Y-126018035D01*
X66518732Y-126018035D01*
X66590160Y-126053750D01*
X66625875Y-126089464D01*
X66661589Y-126160892D01*
X66661589Y-126232321D01*
X66625875Y-126339464D01*
X66197303Y-126768035D01*
X66661589Y-126768035D01*
X67125875Y-126018035D02*
X67197303Y-126018035D01*
X67268732Y-126053750D01*
X67304446Y-126089464D01*
X67340160Y-126160892D01*
X67375875Y-126303750D01*
X67375875Y-126482321D01*
X67340160Y-126625178D01*
X67304446Y-126696607D01*
X67268732Y-126732321D01*
X67197303Y-126768035D01*
X67125875Y-126768035D01*
X67054446Y-126732321D01*
X67018732Y-126696607D01*
X66983017Y-126625178D01*
X66947303Y-126482321D01*
X66947303Y-126303750D01*
X66983017Y-126160892D01*
X67018732Y-126089464D01*
X67054446Y-126053750D01*
X67125875Y-126018035D01*
X67661589Y-126089464D02*
X67697303Y-126053750D01*
X67768732Y-126018035D01*
X67947303Y-126018035D01*
X68018732Y-126053750D01*
X68054446Y-126089464D01*
X68090160Y-126160892D01*
X68090160Y-126232321D01*
X68054446Y-126339464D01*
X67625875Y-126768035D01*
X68090160Y-126768035D01*
X68554446Y-126018035D02*
X68625875Y-126018035D01*
X68697303Y-126053750D01*
X68733017Y-126089464D01*
X68768732Y-126160892D01*
X68804446Y-126303750D01*
X68804446Y-126482321D01*
X68768732Y-126625178D01*
X68733017Y-126696607D01*
X68697303Y-126732321D01*
X68625875Y-126768035D01*
X68554446Y-126768035D01*
X68483017Y-126732321D01*
X68447303Y-126696607D01*
X68411589Y-126625178D01*
X68375875Y-126482321D01*
X68375875Y-126303750D01*
X68411589Y-126160892D01*
X68447303Y-126089464D01*
X68483017Y-126053750D01*
X68554446Y-126018035D01*
D13*
X80010000Y-118110000D02*
X79248000Y-118110000D01*
X94488000Y-118110000D02*
X80010000Y-118110000D01*
X104140000Y-111760000D02*
X100838000Y-111760000D01*
D14*
X63725976Y-72822761D02*
X63868833Y-72870380D01*
X64106928Y-72870380D01*
X64202166Y-72822761D01*
X64249785Y-72775142D01*
X64297404Y-72679904D01*
X64297404Y-72584666D01*
X64249785Y-72489428D01*
X64202166Y-72441809D01*
X64106928Y-72394190D01*
X63916452Y-72346571D01*
X63821214Y-72298952D01*
X63773595Y-72251333D01*
X63725976Y-72156095D01*
X63725976Y-72060857D01*
X63773595Y-71965619D01*
X63821214Y-71918000D01*
X63916452Y-71870380D01*
X64154547Y-71870380D01*
X64297404Y-71918000D01*
X64725976Y-72870380D02*
X64725976Y-71870380D01*
X65202166Y-72870380D02*
X65202166Y-71870380D01*
X65440261Y-71870380D01*
X65583119Y-71918000D01*
X65678357Y-72013238D01*
X65725976Y-72108476D01*
X65773595Y-72298952D01*
X65773595Y-72441809D01*
X65725976Y-72632285D01*
X65678357Y-72727523D01*
X65583119Y-72822761D01*
X65440261Y-72870380D01*
X65202166Y-72870380D01*
X63630738Y-73620380D02*
X64202166Y-73620380D01*
X63916452Y-74620380D02*
X63916452Y-73620380D01*
X64725976Y-73620380D02*
X64916452Y-73620380D01*
X65011690Y-73668000D01*
X65106928Y-73763238D01*
X65154547Y-73953714D01*
X65154547Y-74287047D01*
X65106928Y-74477523D01*
X65011690Y-74572761D01*
X64916452Y-74620380D01*
X64725976Y-74620380D01*
X64630738Y-74572761D01*
X64535500Y-74477523D01*
X64487880Y-74287047D01*
X64487880Y-73953714D01*
X64535500Y-73763238D01*
X64630738Y-73668000D01*
X64725976Y-73620380D01*
X63773595Y-75370380D02*
X63773595Y-76179904D01*
X63821214Y-76275142D01*
X63868833Y-76322761D01*
X63964071Y-76370380D01*
X64154547Y-76370380D01*
X64249785Y-76322761D01*
X64297404Y-76275142D01*
X64345023Y-76179904D01*
X64345023Y-75370380D01*
X64773595Y-76084666D02*
X65249785Y-76084666D01*
X64678357Y-76370380D02*
X65011690Y-75370380D01*
X65345023Y-76370380D01*
X66249785Y-76370380D02*
X65916452Y-75894190D01*
X65678357Y-76370380D02*
X65678357Y-75370380D01*
X66059309Y-75370380D01*
X66154547Y-75418000D01*
X66202166Y-75465619D01*
X66249785Y-75560857D01*
X66249785Y-75703714D01*
X66202166Y-75798952D01*
X66154547Y-75846571D01*
X66059309Y-75894190D01*
X65678357Y-75894190D01*
X66535500Y-75370380D02*
X67106928Y-75370380D01*
X66821214Y-76370380D02*
X66821214Y-75370380D01*
X67202166Y-76465619D02*
X67964071Y-76465619D01*
X68535500Y-75846571D02*
X68678357Y-75894190D01*
X68725976Y-75941809D01*
X68773595Y-76037047D01*
X68773595Y-76179904D01*
X68725976Y-76275142D01*
X68678357Y-76322761D01*
X68583119Y-76370380D01*
X68202166Y-76370380D01*
X68202166Y-75370380D01*
X68535500Y-75370380D01*
X68630738Y-75418000D01*
X68678357Y-75465619D01*
X68725976Y-75560857D01*
X68725976Y-75656095D01*
X68678357Y-75751333D01*
X68630738Y-75798952D01*
X68535500Y-75846571D01*
X68202166Y-75846571D01*
X100961547Y-72362380D02*
X100961547Y-71362380D01*
X102009166Y-72267142D02*
X101961547Y-72314761D01*
X101818690Y-72362380D01*
X101723452Y-72362380D01*
X101580595Y-72314761D01*
X101485357Y-72219523D01*
X101437738Y-72124285D01*
X101390119Y-71933809D01*
X101390119Y-71790952D01*
X101437738Y-71600476D01*
X101485357Y-71505238D01*
X101580595Y-71410000D01*
X101723452Y-71362380D01*
X101818690Y-71362380D01*
X101961547Y-71410000D01*
X102009166Y-71457619D01*
X102437738Y-72362380D02*
X102437738Y-71362380D01*
X102771071Y-72076666D01*
X103104404Y-71362380D01*
X103104404Y-72362380D01*
X101628214Y-73112380D02*
X102199642Y-73112380D01*
X101913928Y-74112380D02*
X101913928Y-73112380D01*
X102723452Y-73112380D02*
X102913928Y-73112380D01*
X103009166Y-73160000D01*
X103104404Y-73255238D01*
X103152023Y-73445714D01*
X103152023Y-73779047D01*
X103104404Y-73969523D01*
X103009166Y-74064761D01*
X102913928Y-74112380D01*
X102723452Y-74112380D01*
X102628214Y-74064761D01*
X102532976Y-73969523D01*
X102485357Y-73779047D01*
X102485357Y-73445714D01*
X102532976Y-73255238D01*
X102628214Y-73160000D01*
X102723452Y-73112380D01*
X98294880Y-74862380D02*
X98294880Y-75671904D01*
X98342500Y-75767142D01*
X98390119Y-75814761D01*
X98485357Y-75862380D01*
X98675833Y-75862380D01*
X98771071Y-75814761D01*
X98818690Y-75767142D01*
X98866309Y-75671904D01*
X98866309Y-74862380D01*
X99294880Y-75576666D02*
X99771071Y-75576666D01*
X99199642Y-75862380D02*
X99532976Y-74862380D01*
X99866309Y-75862380D01*
X100771071Y-75862380D02*
X100437738Y-75386190D01*
X100199642Y-75862380D02*
X100199642Y-74862380D01*
X100580595Y-74862380D01*
X100675833Y-74910000D01*
X100723452Y-74957619D01*
X100771071Y-75052857D01*
X100771071Y-75195714D01*
X100723452Y-75290952D01*
X100675833Y-75338571D01*
X100580595Y-75386190D01*
X100199642Y-75386190D01*
X101056785Y-74862380D02*
X101628214Y-74862380D01*
X101342500Y-75862380D02*
X101342500Y-74862380D01*
X101723452Y-75957619D02*
X102485357Y-75957619D01*
X102675833Y-75576666D02*
X103152023Y-75576666D01*
X102580595Y-75862380D02*
X102913928Y-74862380D01*
X103247261Y-75862380D01*
D12*
X98743839Y-122660250D02*
X99493839Y-122660250D01*
X99350982Y-123711857D02*
X99315267Y-123747571D01*
X99208125Y-123783285D01*
X99136696Y-123783285D01*
X99029553Y-123747571D01*
X98958125Y-123676142D01*
X98922410Y-123604714D01*
X98886696Y-123461857D01*
X98886696Y-123354714D01*
X98922410Y-123211857D01*
X98958125Y-123140428D01*
X99029553Y-123069000D01*
X99136696Y-123033285D01*
X99208125Y-123033285D01*
X99315267Y-123069000D01*
X99350982Y-123104714D01*
X99493839Y-122660250D02*
X100208125Y-122660250D01*
X99636696Y-123747571D02*
X99743839Y-123783285D01*
X99922410Y-123783285D01*
X99993839Y-123747571D01*
X100029553Y-123711857D01*
X100065267Y-123640428D01*
X100065267Y-123569000D01*
X100029553Y-123497571D01*
X99993839Y-123461857D01*
X99922410Y-123426142D01*
X99779553Y-123390428D01*
X99708125Y-123354714D01*
X99672410Y-123319000D01*
X99636696Y-123247571D01*
X99636696Y-123176142D01*
X99672410Y-123104714D01*
X99708125Y-123069000D01*
X99779553Y-123033285D01*
X99958125Y-123033285D01*
X100065267Y-123069000D01*
X97672410Y-121243285D02*
X97672410Y-120493285D01*
X97922410Y-121029000D01*
X98172410Y-120493285D01*
X98172410Y-121243285D01*
X98672410Y-120493285D02*
X98815267Y-120493285D01*
X98886696Y-120529000D01*
X98958125Y-120600428D01*
X98993839Y-120743285D01*
X98993839Y-120993285D01*
X98958125Y-121136142D01*
X98886696Y-121207571D01*
X98815267Y-121243285D01*
X98672410Y-121243285D01*
X98600982Y-121207571D01*
X98529553Y-121136142D01*
X98493839Y-120993285D01*
X98493839Y-120743285D01*
X98529553Y-120600428D01*
X98600982Y-120529000D01*
X98672410Y-120493285D01*
X99279553Y-121207571D02*
X99386696Y-121243285D01*
X99565267Y-121243285D01*
X99636696Y-121207571D01*
X99672410Y-121171857D01*
X99708125Y-121100428D01*
X99708125Y-121029000D01*
X99672410Y-120957571D01*
X99636696Y-120921857D01*
X99565267Y-120886142D01*
X99422410Y-120850428D01*
X99350982Y-120814714D01*
X99315267Y-120779000D01*
X99279553Y-120707571D01*
X99279553Y-120636142D01*
X99315267Y-120564714D01*
X99350982Y-120529000D01*
X99422410Y-120493285D01*
X99600982Y-120493285D01*
X99708125Y-120529000D01*
X100029553Y-121243285D02*
X100029553Y-120493285D01*
X97672410Y-118703285D02*
X97672410Y-117953285D01*
X97922410Y-118489000D01*
X98172410Y-117953285D01*
X98172410Y-118703285D01*
X98529553Y-118703285D02*
X98529553Y-117953285D01*
X98850982Y-118667571D02*
X98958125Y-118703285D01*
X99136696Y-118703285D01*
X99208125Y-118667571D01*
X99243839Y-118631857D01*
X99279553Y-118560428D01*
X99279553Y-118489000D01*
X99243839Y-118417571D01*
X99208125Y-118381857D01*
X99136696Y-118346142D01*
X98993839Y-118310428D01*
X98922410Y-118274714D01*
X98886696Y-118239000D01*
X98850982Y-118167571D01*
X98850982Y-118096142D01*
X98886696Y-118024714D01*
X98922410Y-117989000D01*
X98993839Y-117953285D01*
X99172410Y-117953285D01*
X99279553Y-117989000D01*
X99743839Y-117953285D02*
X99886696Y-117953285D01*
X99958125Y-117989000D01*
X100029553Y-118060428D01*
X100065267Y-118203285D01*
X100065267Y-118453285D01*
X100029553Y-118596142D01*
X99958125Y-118667571D01*
X99886696Y-118703285D01*
X99743839Y-118703285D01*
X99672410Y-118667571D01*
X99600982Y-118596142D01*
X99565267Y-118453285D01*
X99565267Y-118203285D01*
X99600982Y-118060428D01*
X99672410Y-117989000D01*
X99743839Y-117953285D01*
X98136696Y-116127571D02*
X98243839Y-116163285D01*
X98422410Y-116163285D01*
X98493839Y-116127571D01*
X98529553Y-116091857D01*
X98565267Y-116020428D01*
X98565267Y-115949000D01*
X98529553Y-115877571D01*
X98493839Y-115841857D01*
X98422410Y-115806142D01*
X98279553Y-115770428D01*
X98208125Y-115734714D01*
X98172410Y-115699000D01*
X98136696Y-115627571D01*
X98136696Y-115556142D01*
X98172410Y-115484714D01*
X98208125Y-115449000D01*
X98279553Y-115413285D01*
X98458125Y-115413285D01*
X98565267Y-115449000D01*
X99315267Y-116091857D02*
X99279553Y-116127571D01*
X99172410Y-116163285D01*
X99100982Y-116163285D01*
X98993839Y-116127571D01*
X98922410Y-116056142D01*
X98886696Y-115984714D01*
X98850982Y-115841857D01*
X98850982Y-115734714D01*
X98886696Y-115591857D01*
X98922410Y-115520428D01*
X98993839Y-115449000D01*
X99100982Y-115413285D01*
X99172410Y-115413285D01*
X99279553Y-115449000D01*
X99315267Y-115484714D01*
X99636696Y-116163285D02*
X99636696Y-115413285D01*
X100065267Y-116163285D02*
X99743839Y-115734714D01*
X100065267Y-115413285D02*
X99636696Y-115841857D01*
X90656250Y-110495125D02*
X90656250Y-110137982D01*
X91779285Y-110316553D02*
X91029285Y-110316553D01*
X90656250Y-110137982D02*
X90656250Y-109387982D01*
X91779285Y-109530839D02*
X91422142Y-109780839D01*
X91779285Y-109959410D02*
X91029285Y-109959410D01*
X91029285Y-109673696D01*
X91065000Y-109602267D01*
X91100714Y-109566553D01*
X91172142Y-109530839D01*
X91279285Y-109530839D01*
X91350714Y-109566553D01*
X91386428Y-109602267D01*
X91422142Y-109673696D01*
X91422142Y-109959410D01*
X90656250Y-109387982D02*
X90656250Y-108602267D01*
X91850714Y-108709410D02*
X91815000Y-108780839D01*
X91743571Y-108852267D01*
X91636428Y-108959410D01*
X91600714Y-109030839D01*
X91600714Y-109102267D01*
X91779285Y-109066553D02*
X91743571Y-109137982D01*
X91672142Y-109209410D01*
X91529285Y-109245125D01*
X91279285Y-109245125D01*
X91136428Y-109209410D01*
X91065000Y-109137982D01*
X91029285Y-109066553D01*
X91029285Y-108923696D01*
X91065000Y-108852267D01*
X91136428Y-108780839D01*
X91279285Y-108745125D01*
X91529285Y-108745125D01*
X91672142Y-108780839D01*
X91743571Y-108852267D01*
X91779285Y-108923696D01*
X91779285Y-109066553D01*
X88362285Y-110423696D02*
X88362285Y-109995125D01*
X89112285Y-110209410D02*
X88362285Y-110209410D01*
X88362285Y-109816553D02*
X89112285Y-109316553D01*
X88362285Y-109316553D02*
X89112285Y-109816553D01*
X88719428Y-108780839D02*
X88755142Y-108673696D01*
X88790857Y-108637982D01*
X88862285Y-108602267D01*
X88969428Y-108602267D01*
X89040857Y-108637982D01*
X89076571Y-108673696D01*
X89112285Y-108745125D01*
X89112285Y-109030839D01*
X88362285Y-109030839D01*
X88362285Y-108780839D01*
X88398000Y-108709410D01*
X88433714Y-108673696D01*
X88505142Y-108637982D01*
X88576571Y-108637982D01*
X88648000Y-108673696D01*
X88683714Y-108709410D01*
X88719428Y-108780839D01*
X88719428Y-109030839D01*
X86508785Y-110014982D02*
X86151642Y-110264982D01*
X86508785Y-110443553D02*
X85758785Y-110443553D01*
X85758785Y-110157839D01*
X85794500Y-110086410D01*
X85830214Y-110050696D01*
X85901642Y-110014982D01*
X86008785Y-110014982D01*
X86080214Y-110050696D01*
X86115928Y-110086410D01*
X86151642Y-110157839D01*
X86151642Y-110443553D01*
X85758785Y-109764982D02*
X86508785Y-109264982D01*
X85758785Y-109264982D02*
X86508785Y-109764982D01*
X86115928Y-108729267D02*
X86151642Y-108622125D01*
X86187357Y-108586410D01*
X86258785Y-108550696D01*
X86365928Y-108550696D01*
X86437357Y-108586410D01*
X86473071Y-108622125D01*
X86508785Y-108693553D01*
X86508785Y-108979267D01*
X85758785Y-108979267D01*
X85758785Y-108729267D01*
X85794500Y-108657839D01*
X85830214Y-108622125D01*
X85901642Y-108586410D01*
X85973071Y-108586410D01*
X86044500Y-108622125D01*
X86080214Y-108657839D01*
X86115928Y-108729267D01*
X86115928Y-108979267D01*
X83218785Y-110487196D02*
X83218785Y-110058625D01*
X83968785Y-110272910D02*
X83218785Y-110272910D01*
X83218785Y-109880053D02*
X83968785Y-109380053D01*
X83218785Y-109380053D02*
X83968785Y-109880053D01*
X83754500Y-109130053D02*
X83754500Y-108772910D01*
X83968785Y-109201482D02*
X83218785Y-108951482D01*
X83968785Y-108701482D01*
X81492285Y-110014982D02*
X81135142Y-110264982D01*
X81492285Y-110443553D02*
X80742285Y-110443553D01*
X80742285Y-110157839D01*
X80778000Y-110086410D01*
X80813714Y-110050696D01*
X80885142Y-110014982D01*
X80992285Y-110014982D01*
X81063714Y-110050696D01*
X81099428Y-110086410D01*
X81135142Y-110157839D01*
X81135142Y-110443553D01*
X80742285Y-109764982D02*
X81492285Y-109264982D01*
X80742285Y-109264982D02*
X81492285Y-109764982D01*
X81278000Y-109014982D02*
X81278000Y-108657839D01*
X81492285Y-109086410D02*
X80742285Y-108836410D01*
X81492285Y-108586410D01*
X88663267Y-121001285D02*
X88306125Y-121001285D01*
X88270410Y-121358428D01*
X88306125Y-121322714D01*
X88377553Y-121287000D01*
X88556125Y-121287000D01*
X88627553Y-121322714D01*
X88663267Y-121358428D01*
X88698982Y-121429857D01*
X88698982Y-121608428D01*
X88663267Y-121679857D01*
X88627553Y-121715571D01*
X88556125Y-121751285D01*
X88377553Y-121751285D01*
X88306125Y-121715571D01*
X88270410Y-121679857D01*
X89020410Y-121679857D02*
X89056125Y-121715571D01*
X89020410Y-121751285D01*
X88984696Y-121715571D01*
X89020410Y-121679857D01*
X89020410Y-121751285D01*
X89520410Y-121001285D02*
X89591839Y-121001285D01*
X89663267Y-121037000D01*
X89698982Y-121072714D01*
X89734696Y-121144142D01*
X89770410Y-121287000D01*
X89770410Y-121465571D01*
X89734696Y-121608428D01*
X89698982Y-121679857D01*
X89663267Y-121715571D01*
X89591839Y-121751285D01*
X89520410Y-121751285D01*
X89448982Y-121715571D01*
X89413267Y-121679857D01*
X89377553Y-121608428D01*
X89341839Y-121465571D01*
X89341839Y-121287000D01*
X89377553Y-121144142D01*
X89413267Y-121072714D01*
X89448982Y-121037000D01*
X89520410Y-121001285D01*
X89984696Y-121001285D02*
X90234696Y-121751285D01*
X90484696Y-121001285D01*
X88841839Y-123577000D02*
X88770410Y-123541285D01*
X88663267Y-123541285D01*
X88556125Y-123577000D01*
X88484696Y-123648428D01*
X88448982Y-123719857D01*
X88413267Y-123862714D01*
X88413267Y-123969857D01*
X88448982Y-124112714D01*
X88484696Y-124184142D01*
X88556125Y-124255571D01*
X88663267Y-124291285D01*
X88734696Y-124291285D01*
X88841839Y-124255571D01*
X88877553Y-124219857D01*
X88877553Y-123969857D01*
X88734696Y-123969857D01*
X89198982Y-124291285D02*
X89198982Y-123541285D01*
X89627553Y-124291285D01*
X89627553Y-123541285D01*
X89984696Y-124291285D02*
X89984696Y-123541285D01*
X90163267Y-123541285D01*
X90270410Y-123577000D01*
X90341839Y-123648428D01*
X90377553Y-123719857D01*
X90413267Y-123862714D01*
X90413267Y-123969857D01*
X90377553Y-124112714D01*
X90341839Y-124184142D01*
X90270410Y-124255571D01*
X90163267Y-124291285D01*
X89984696Y-124291285D01*
X80205839Y-123577000D02*
X80134410Y-123541285D01*
X80027267Y-123541285D01*
X79920125Y-123577000D01*
X79848696Y-123648428D01*
X79812982Y-123719857D01*
X79777267Y-123862714D01*
X79777267Y-123969857D01*
X79812982Y-124112714D01*
X79848696Y-124184142D01*
X79920125Y-124255571D01*
X80027267Y-124291285D01*
X80098696Y-124291285D01*
X80205839Y-124255571D01*
X80241553Y-124219857D01*
X80241553Y-123969857D01*
X80098696Y-123969857D01*
X80562982Y-124291285D02*
X80562982Y-123541285D01*
X80991553Y-124291285D01*
X80991553Y-123541285D01*
X81348696Y-124291285D02*
X81348696Y-123541285D01*
X81527267Y-123541285D01*
X81634410Y-123577000D01*
X81705839Y-123648428D01*
X81741553Y-123719857D01*
X81777267Y-123862714D01*
X81777267Y-123969857D01*
X81741553Y-124112714D01*
X81705839Y-124184142D01*
X81634410Y-124255571D01*
X81527267Y-124291285D01*
X81348696Y-124291285D01*
X79598696Y-121001285D02*
X80062982Y-121001285D01*
X79812982Y-121287000D01*
X79920125Y-121287000D01*
X79991553Y-121322714D01*
X80027267Y-121358428D01*
X80062982Y-121429857D01*
X80062982Y-121608428D01*
X80027267Y-121679857D01*
X79991553Y-121715571D01*
X79920125Y-121751285D01*
X79705839Y-121751285D01*
X79634410Y-121715571D01*
X79598696Y-121679857D01*
X80384410Y-121679857D02*
X80420125Y-121715571D01*
X80384410Y-121751285D01*
X80348696Y-121715571D01*
X80384410Y-121679857D01*
X80384410Y-121751285D01*
X80670125Y-121001285D02*
X81134410Y-121001285D01*
X80884410Y-121287000D01*
X80991553Y-121287000D01*
X81062982Y-121322714D01*
X81098696Y-121358428D01*
X81134410Y-121429857D01*
X81134410Y-121608428D01*
X81098696Y-121679857D01*
X81062982Y-121715571D01*
X80991553Y-121751285D01*
X80777267Y-121751285D01*
X80705839Y-121715571D01*
X80670125Y-121679857D01*
X81348696Y-121001285D02*
X81598696Y-121751285D01*
X81848696Y-121001285D01*
D11*
X62357000Y-105029000D02*
X62357000Y-83439000D01*
X104902000Y-105029000D02*
X62357000Y-105029000D01*
X104902000Y-83439000D02*
X104902000Y-105029000D01*
X62357000Y-83439000D02*
X104902000Y-83439000D01*
D13*
X75985000Y-117145000D02*
X77060000Y-117145000D01*
X75985000Y-107420000D02*
X71335000Y-107420000D01*
X75985000Y-117370000D02*
X71335000Y-117370000D01*
X75985000Y-107420000D02*
X75985000Y-107745000D01*
X71335000Y-107420000D02*
X71335000Y-107745000D01*
X71335000Y-117370000D02*
X71335000Y-117045000D01*
X75985000Y-117370000D02*
X75985000Y-117145000D01*
D11*
X92710000Y-68453000D02*
X92710000Y-69469000D01*
X95250000Y-68453000D02*
X95250000Y-69469000D01*
X87630000Y-64008000D02*
X87630000Y-62865000D01*
X90170000Y-64008000D02*
X90170000Y-62865000D01*
X95250000Y-64008000D02*
X95250000Y-62865000D01*
X97790000Y-64008000D02*
X97790000Y-62865000D01*
X102108000Y-70358000D02*
X102108000Y-68453000D01*
X101660000Y-70358000D02*
X102108000Y-70358000D01*
X101660000Y-68767000D02*
X101660000Y-70358000D01*
X102108000Y-61976000D02*
X102108000Y-68453000D01*
X101660000Y-61976000D02*
X102108000Y-61976000D01*
X101660000Y-63567000D02*
X101660000Y-61976000D01*
X101660000Y-63567000D02*
X101660000Y-64897000D01*
X100330000Y-63567000D02*
X101660000Y-63567000D01*
X101660000Y-66167000D02*
X101660000Y-68767000D01*
X99060000Y-66167000D02*
X101660000Y-66167000D01*
X99060000Y-63567000D02*
X99060000Y-66167000D01*
X101660000Y-68767000D02*
X86300000Y-68767000D01*
X99060000Y-63567000D02*
X86300000Y-63567000D01*
X86300000Y-63567000D02*
X86300000Y-68767000D01*
X72390000Y-68453000D02*
X72390000Y-69469000D01*
X74930000Y-68453000D02*
X74930000Y-69469000D01*
X67310000Y-64008000D02*
X67310000Y-62865000D01*
X69850000Y-64008000D02*
X69850000Y-62865000D01*
X74930000Y-64008000D02*
X74930000Y-62865000D01*
X77470000Y-64008000D02*
X77470000Y-62865000D01*
X81788000Y-70358000D02*
X81788000Y-68453000D01*
X81340000Y-70358000D02*
X81788000Y-70358000D01*
X81340000Y-68767000D02*
X81340000Y-70358000D01*
X81788000Y-61976000D02*
X81788000Y-68453000D01*
X81340000Y-61976000D02*
X81788000Y-61976000D01*
X81340000Y-63567000D02*
X81340000Y-61976000D01*
X81340000Y-63567000D02*
X81340000Y-64897000D01*
X80010000Y-63567000D02*
X81340000Y-63567000D01*
X81340000Y-66167000D02*
X81340000Y-68767000D01*
X78740000Y-66167000D02*
X81340000Y-66167000D01*
X78740000Y-63567000D02*
X78740000Y-66167000D01*
X81340000Y-68767000D02*
X65980000Y-68767000D01*
X78740000Y-63567000D02*
X65980000Y-63567000D01*
X65980000Y-63567000D02*
X65980000Y-68767000D01*
X64670000Y-115347500D02*
X65000000Y-115347500D01*
X64670000Y-108807500D02*
X64670000Y-115347500D01*
X65000000Y-108807500D02*
X64670000Y-108807500D01*
X67410000Y-115347500D02*
X67080000Y-115347500D01*
X67410000Y-108807500D02*
X67410000Y-115347500D01*
X67080000Y-108807500D02*
X67410000Y-108807500D01*
X79823000Y-113852000D02*
X79823000Y-112522000D01*
X81153000Y-113852000D02*
X79823000Y-113852000D01*
X82423000Y-113852000D02*
X82423000Y-111192000D01*
X82423000Y-111192000D02*
X92643000Y-111192000D01*
X82423000Y-113852000D02*
X92643000Y-113852000D01*
X92643000Y-113852000D02*
X92643000Y-111192000D01*
X103438000Y-124774000D02*
X102108000Y-124774000D01*
X103438000Y-123444000D02*
X103438000Y-124774000D01*
X103438000Y-122174000D02*
X100778000Y-122174000D01*
X100778000Y-122174000D02*
X100778000Y-114494000D01*
X103438000Y-122174000D02*
X103438000Y-114494000D01*
X103438000Y-114494000D02*
X100778000Y-114494000D01*
X85150000Y-125155000D02*
X83820000Y-125155000D01*
X85150000Y-123825000D02*
X85150000Y-125155000D01*
X85150000Y-122555000D02*
X82490000Y-122555000D01*
X82490000Y-122555000D02*
X82490000Y-119955000D01*
X85150000Y-122555000D02*
X85150000Y-119955000D01*
X85150000Y-119955000D02*
X82490000Y-119955000D01*
X93913000Y-125155000D02*
X92583000Y-125155000D01*
X93913000Y-123825000D02*
X93913000Y-125155000D01*
X93913000Y-122555000D02*
X91253000Y-122555000D01*
X91253000Y-122555000D02*
X91253000Y-119955000D01*
X93913000Y-122555000D02*
X93913000Y-119955000D01*
X93913000Y-119955000D02*
X91253000Y-119955000D01*
X85625000Y-72647000D02*
X88365000Y-72647000D01*
X85625000Y-80087000D02*
X88365000Y-80087000D01*
X88365000Y-80087000D02*
X88365000Y-72647000D01*
X85625000Y-80087000D02*
X85625000Y-72647000D01*
X78640000Y-72647000D02*
X81380000Y-72647000D01*
X78640000Y-80087000D02*
X81380000Y-80087000D01*
X81380000Y-80087000D02*
X81380000Y-72647000D01*
X78640000Y-80087000D02*
X78640000Y-72647000D01*
X71100000Y-76225400D02*
X71100000Y-79675400D01*
X71100000Y-76225400D02*
X71100000Y-74275400D01*
X76220000Y-76225400D02*
X76220000Y-78175400D01*
X76220000Y-76225400D02*
X76220000Y-74275400D01*
X95905000Y-76200000D02*
X95905000Y-74250000D01*
X95905000Y-76200000D02*
X95905000Y-78150000D01*
X90785000Y-76200000D02*
X90785000Y-74250000D01*
X90785000Y-76200000D02*
X90785000Y-79650000D01*
D15*
X68942279Y-102064287D02*
X68942279Y-102671430D01*
X68977993Y-102742859D01*
X69013708Y-102778573D01*
X69085136Y-102814287D01*
X69227993Y-102814287D01*
X69299422Y-102778573D01*
X69335136Y-102742859D01*
X69370850Y-102671430D01*
X69370850Y-102064287D01*
X69692279Y-102135716D02*
X69727993Y-102100002D01*
X69799422Y-102064287D01*
X69977993Y-102064287D01*
X70049422Y-102100002D01*
X70085136Y-102135716D01*
X70120850Y-102207144D01*
X70120850Y-102278573D01*
X70085136Y-102385716D01*
X69656565Y-102814287D01*
X70120850Y-102814287D01*
X69362922Y-103957287D02*
X69005779Y-103957287D01*
X69005779Y-103207287D01*
X69612922Y-103957287D02*
X69612922Y-103207287D01*
X69862922Y-103743002D01*
X70112922Y-103207287D01*
X70112922Y-103957287D01*
X70434350Y-103278716D02*
X70470065Y-103243002D01*
X70541493Y-103207287D01*
X70720065Y-103207287D01*
X70791493Y-103243002D01*
X70827208Y-103278716D01*
X70862922Y-103350144D01*
X70862922Y-103421573D01*
X70827208Y-103528716D01*
X70398636Y-103957287D01*
X70862922Y-103957287D01*
X71541493Y-103207287D02*
X71184350Y-103207287D01*
X71148636Y-103564430D01*
X71184350Y-103528716D01*
X71255779Y-103493002D01*
X71434350Y-103493002D01*
X71505779Y-103528716D01*
X71541493Y-103564430D01*
X71577208Y-103635859D01*
X71577208Y-103814430D01*
X71541493Y-103885859D01*
X71505779Y-103921573D01*
X71434350Y-103957287D01*
X71255779Y-103957287D01*
X71184350Y-103921573D01*
X71148636Y-103885859D01*
X71934350Y-103957287D02*
X72077208Y-103957287D01*
X72148636Y-103921573D01*
X72184350Y-103885859D01*
X72255779Y-103778716D01*
X72291493Y-103635859D01*
X72291493Y-103350144D01*
X72255779Y-103278716D01*
X72220065Y-103243002D01*
X72148636Y-103207287D01*
X72005779Y-103207287D01*
X71934350Y-103243002D01*
X71898636Y-103278716D01*
X71862922Y-103350144D01*
X71862922Y-103528716D01*
X71898636Y-103600144D01*
X71934350Y-103635859D01*
X72005779Y-103671573D01*
X72148636Y-103671573D01*
X72220065Y-103635859D01*
X72255779Y-103600144D01*
X72291493Y-103528716D01*
X72934350Y-103207287D02*
X72791493Y-103207287D01*
X72720065Y-103243002D01*
X72684350Y-103278716D01*
X72612922Y-103385859D01*
X72577208Y-103528716D01*
X72577208Y-103814430D01*
X72612922Y-103885859D01*
X72648636Y-103921573D01*
X72720065Y-103957287D01*
X72862922Y-103957287D01*
X72934350Y-103921573D01*
X72970065Y-103885859D01*
X73005779Y-103814430D01*
X73005779Y-103635859D01*
X72970065Y-103564430D01*
X72934350Y-103528716D01*
X72862922Y-103493002D01*
X72720065Y-103493002D01*
X72648636Y-103528716D01*
X72612922Y-103564430D01*
X72577208Y-103635859D01*
X73898636Y-103957287D02*
X73898636Y-103207287D01*
X74077208Y-103207287D01*
X74184350Y-103243002D01*
X74255779Y-103314430D01*
X74291493Y-103385859D01*
X74327208Y-103528716D01*
X74327208Y-103635859D01*
X74291493Y-103778716D01*
X74255779Y-103850144D01*
X74184350Y-103921573D01*
X74077208Y-103957287D01*
X73898636Y-103957287D01*
X75077208Y-103885859D02*
X75041493Y-103921573D01*
X74934350Y-103957287D01*
X74862922Y-103957287D01*
X74755779Y-103921573D01*
X74684350Y-103850144D01*
X74648636Y-103778716D01*
X74612922Y-103635859D01*
X74612922Y-103528716D01*
X74648636Y-103385859D01*
X74684350Y-103314430D01*
X74755779Y-103243002D01*
X74862922Y-103207287D01*
X74934350Y-103207287D01*
X75041493Y-103243002D01*
X75077208Y-103278716D01*
X75398636Y-103671573D02*
X75970065Y-103671573D01*
X76327208Y-103957287D02*
X76327208Y-103207287D01*
X76505779Y-103207287D01*
X76612922Y-103243002D01*
X76684350Y-103314430D01*
X76720065Y-103385859D01*
X76755779Y-103528716D01*
X76755779Y-103635859D01*
X76720065Y-103778716D01*
X76684350Y-103850144D01*
X76612922Y-103921573D01*
X76505779Y-103957287D01*
X76327208Y-103957287D01*
X77505779Y-103885859D02*
X77470065Y-103921573D01*
X77362922Y-103957287D01*
X77291493Y-103957287D01*
X77184350Y-103921573D01*
X77112922Y-103850144D01*
X77077208Y-103778716D01*
X77041493Y-103635859D01*
X77041493Y-103528716D01*
X77077208Y-103385859D01*
X77112922Y-103314430D01*
X77184350Y-103243002D01*
X77291493Y-103207287D01*
X77362922Y-103207287D01*
X77470065Y-103243002D01*
X77505779Y-103278716D01*
X78362922Y-103921573D02*
X78470065Y-103957287D01*
X78648636Y-103957287D01*
X78720065Y-103921573D01*
X78755779Y-103885859D01*
X78791493Y-103814430D01*
X78791493Y-103743002D01*
X78755779Y-103671573D01*
X78720065Y-103635859D01*
X78648636Y-103600144D01*
X78505779Y-103564430D01*
X78434350Y-103528716D01*
X78398636Y-103493002D01*
X78362922Y-103421573D01*
X78362922Y-103350144D01*
X78398636Y-103278716D01*
X78434350Y-103243002D01*
X78505779Y-103207287D01*
X78684350Y-103207287D01*
X78791493Y-103243002D01*
X79005779Y-103207287D02*
X79434350Y-103207287D01*
X79220065Y-103957287D02*
X79220065Y-103207287D01*
X79684350Y-103564430D02*
X79934350Y-103564430D01*
X80041493Y-103957287D02*
X79684350Y-103957287D01*
X79684350Y-103207287D01*
X80041493Y-103207287D01*
X80362922Y-103957287D02*
X80362922Y-103207287D01*
X80648636Y-103207287D01*
X80720065Y-103243002D01*
X80755779Y-103278716D01*
X80791493Y-103350144D01*
X80791493Y-103457287D01*
X80755779Y-103528716D01*
X80720065Y-103564430D01*
X80648636Y-103600144D01*
X80362922Y-103600144D01*
X81112922Y-103671573D02*
X81684350Y-103671573D01*
X82041493Y-103957287D02*
X82041493Y-103207287D01*
X82220065Y-103207287D01*
X82327208Y-103243002D01*
X82398636Y-103314430D01*
X82434350Y-103385859D01*
X82470065Y-103528716D01*
X82470065Y-103635859D01*
X82434350Y-103778716D01*
X82398636Y-103850144D01*
X82327208Y-103921573D01*
X82220065Y-103957287D01*
X82041493Y-103957287D01*
X82934350Y-103207287D02*
X83077208Y-103207287D01*
X83148636Y-103243002D01*
X83220065Y-103314430D01*
X83255779Y-103457287D01*
X83255779Y-103707287D01*
X83220065Y-103850144D01*
X83148636Y-103921573D01*
X83077208Y-103957287D01*
X82934350Y-103957287D01*
X82862922Y-103921573D01*
X82791493Y-103850144D01*
X82755779Y-103707287D01*
X82755779Y-103457287D01*
X82791493Y-103314430D01*
X82862922Y-103243002D01*
X82934350Y-103207287D01*
X83505779Y-103207287D02*
X83684350Y-103957287D01*
X83827208Y-103421573D01*
X83970065Y-103957287D01*
X84148636Y-103207287D01*
X84434350Y-103957287D02*
X84434350Y-103207287D01*
X84862922Y-103957287D01*
X84862922Y-103207287D01*
X85791493Y-103957287D02*
X85791493Y-103207287D01*
X86041493Y-103743002D01*
X86291493Y-103207287D01*
X86291493Y-103957287D01*
X86791493Y-103207287D02*
X86934350Y-103207287D01*
X87005779Y-103243002D01*
X87077208Y-103314430D01*
X87112922Y-103457287D01*
X87112922Y-103707287D01*
X87077208Y-103850144D01*
X87005779Y-103921573D01*
X86934350Y-103957287D01*
X86791493Y-103957287D01*
X86720065Y-103921573D01*
X86648636Y-103850144D01*
X86612922Y-103707287D01*
X86612922Y-103457287D01*
X86648636Y-103314430D01*
X86720065Y-103243002D01*
X86791493Y-103207287D01*
X87434350Y-103957287D02*
X87434350Y-103207287D01*
X87612922Y-103207287D01*
X87720065Y-103243002D01*
X87791493Y-103314430D01*
X87827208Y-103385859D01*
X87862922Y-103528716D01*
X87862922Y-103635859D01*
X87827208Y-103778716D01*
X87791493Y-103850144D01*
X87720065Y-103921573D01*
X87612922Y-103957287D01*
X87434350Y-103957287D01*
X88184350Y-103207287D02*
X88184350Y-103814430D01*
X88220065Y-103885859D01*
X88255779Y-103921573D01*
X88327208Y-103957287D01*
X88470065Y-103957287D01*
X88541493Y-103921573D01*
X88577208Y-103885859D01*
X88612922Y-103814430D01*
X88612922Y-103207287D01*
X89327208Y-103957287D02*
X88970065Y-103957287D01*
X88970065Y-103207287D01*
X89577208Y-103564430D02*
X89827208Y-103564430D01*
X89934350Y-103957287D02*
X89577208Y-103957287D01*
X89577208Y-103207287D01*
X89934350Y-103207287D01*
D13*
X99788214Y-102749000D02*
X99716785Y-102713285D01*
X99609642Y-102713285D01*
X99502500Y-102749000D01*
X99431071Y-102820428D01*
X99395357Y-102891857D01*
X99359642Y-103034714D01*
X99359642Y-103141857D01*
X99395357Y-103284714D01*
X99431071Y-103356142D01*
X99502500Y-103427571D01*
X99609642Y-103463285D01*
X99681071Y-103463285D01*
X99788214Y-103427571D01*
X99823928Y-103391857D01*
X99823928Y-103141857D01*
X99681071Y-103141857D01*
X100145357Y-103463285D02*
X100145357Y-102713285D01*
X100573928Y-103463285D01*
X100573928Y-102713285D01*
X100931071Y-103463285D02*
X100931071Y-102713285D01*
X101109642Y-102713285D01*
X101216785Y-102749000D01*
X101288214Y-102820428D01*
X101323928Y-102891857D01*
X101359642Y-103034714D01*
X101359642Y-103141857D01*
X101323928Y-103284714D01*
X101288214Y-103356142D01*
X101216785Y-103427571D01*
X101109642Y-103463285D01*
X100931071Y-103463285D01*
X97966785Y-84933285D02*
X97609642Y-84933285D01*
X97573928Y-85290428D01*
X97609642Y-85254714D01*
X97681071Y-85219000D01*
X97859642Y-85219000D01*
X97931071Y-85254714D01*
X97966785Y-85290428D01*
X98002500Y-85361857D01*
X98002500Y-85540428D01*
X97966785Y-85611857D01*
X97931071Y-85647571D01*
X97859642Y-85683285D01*
X97681071Y-85683285D01*
X97609642Y-85647571D01*
X97573928Y-85611857D01*
X98216785Y-84933285D02*
X98466785Y-85683285D01*
X98716785Y-84933285D01*
X99681071Y-84933285D02*
X99823928Y-84933285D01*
X99895357Y-84969000D01*
X99966785Y-85040428D01*
X100002500Y-85183285D01*
X100002500Y-85433285D01*
X99966785Y-85576142D01*
X99895357Y-85647571D01*
X99823928Y-85683285D01*
X99681071Y-85683285D01*
X99609642Y-85647571D01*
X99538214Y-85576142D01*
X99502500Y-85433285D01*
X99502500Y-85183285D01*
X99538214Y-85040428D01*
X99609642Y-84969000D01*
X99681071Y-84933285D01*
X100323928Y-84933285D02*
X100323928Y-85540428D01*
X100359642Y-85611857D01*
X100395357Y-85647571D01*
X100466785Y-85683285D01*
X100609642Y-85683285D01*
X100681071Y-85647571D01*
X100716785Y-85611857D01*
X100752500Y-85540428D01*
X100752500Y-84933285D01*
X101002500Y-84933285D02*
X101431071Y-84933285D01*
X101216785Y-85683285D02*
X101216785Y-84933285D01*
X66200928Y-102749000D02*
X66129500Y-102713285D01*
X66022357Y-102713285D01*
X65915214Y-102749000D01*
X65843785Y-102820428D01*
X65808071Y-102891857D01*
X65772357Y-103034714D01*
X65772357Y-103141857D01*
X65808071Y-103284714D01*
X65843785Y-103356142D01*
X65915214Y-103427571D01*
X66022357Y-103463285D01*
X66093785Y-103463285D01*
X66200928Y-103427571D01*
X66236642Y-103391857D01*
X66236642Y-103141857D01*
X66093785Y-103141857D01*
X66558071Y-103463285D02*
X66558071Y-102713285D01*
X66986642Y-103463285D01*
X66986642Y-102713285D01*
X67343785Y-103463285D02*
X67343785Y-102713285D01*
X67522357Y-102713285D01*
X67629500Y-102749000D01*
X67700928Y-102820428D01*
X67736642Y-102891857D01*
X67772357Y-103034714D01*
X67772357Y-103141857D01*
X67736642Y-103284714D01*
X67700928Y-103356142D01*
X67629500Y-103427571D01*
X67522357Y-103463285D01*
X67343785Y-103463285D01*
X66200928Y-85683285D02*
X65772357Y-85683285D01*
X65986642Y-85683285D02*
X65986642Y-84933285D01*
X65915214Y-85040428D01*
X65843785Y-85111857D01*
X65772357Y-85147571D01*
X66486642Y-85004714D02*
X66522357Y-84969000D01*
X66593785Y-84933285D01*
X66772357Y-84933285D01*
X66843785Y-84969000D01*
X66879500Y-85004714D01*
X66915214Y-85076142D01*
X66915214Y-85147571D01*
X66879500Y-85254714D01*
X66450928Y-85683285D01*
X66915214Y-85683285D01*
X67129500Y-84933285D02*
X67379500Y-85683285D01*
X67629500Y-84933285D01*
X68450928Y-85683285D02*
X68450928Y-84933285D01*
X68808071Y-85683285D02*
X68808071Y-84933285D01*
X69236642Y-85683285D01*
X69236642Y-84933285D01*
X72898095Y-117747380D02*
X72898095Y-118556904D01*
X72945714Y-118652142D01*
X72993333Y-118699761D01*
X73088571Y-118747380D01*
X73279047Y-118747380D01*
X73374285Y-118699761D01*
X73421904Y-118652142D01*
X73469523Y-118556904D01*
X73469523Y-117747380D01*
X74469523Y-118747380D02*
X73898095Y-118747380D01*
X74183809Y-118747380D02*
X74183809Y-117747380D01*
X74088571Y-117890238D01*
X73993333Y-117985476D01*
X73898095Y-118033095D01*
X74064761Y-116275952D02*
X74112380Y-116133095D01*
X74112380Y-115895000D01*
X74064761Y-115799761D01*
X74017142Y-115752142D01*
X73921904Y-115704523D01*
X73826666Y-115704523D01*
X73731428Y-115752142D01*
X73683809Y-115799761D01*
X73636190Y-115895000D01*
X73588571Y-116085476D01*
X73540952Y-116180714D01*
X73493333Y-116228333D01*
X73398095Y-116275952D01*
X73302857Y-116275952D01*
X73207619Y-116228333D01*
X73160000Y-116180714D01*
X73112380Y-116085476D01*
X73112380Y-115847380D01*
X73160000Y-115704523D01*
X74017142Y-114704523D02*
X74064761Y-114752142D01*
X74112380Y-114895000D01*
X74112380Y-114990238D01*
X74064761Y-115133095D01*
X73969523Y-115228333D01*
X73874285Y-115275952D01*
X73683809Y-115323571D01*
X73540952Y-115323571D01*
X73350476Y-115275952D01*
X73255238Y-115228333D01*
X73160000Y-115133095D01*
X73112380Y-114990238D01*
X73112380Y-114895000D01*
X73160000Y-114752142D01*
X73207619Y-114704523D01*
X74112380Y-113752142D02*
X74112380Y-114323571D01*
X74112380Y-114037857D02*
X73112380Y-114037857D01*
X73255238Y-114133095D01*
X73350476Y-114228333D01*
X73398095Y-114323571D01*
X73112380Y-112895000D02*
X73112380Y-113085476D01*
X73160000Y-113180714D01*
X73207619Y-113228333D01*
X73350476Y-113323571D01*
X73540952Y-113371190D01*
X73921904Y-113371190D01*
X74017142Y-113323571D01*
X74064761Y-113275952D01*
X74112380Y-113180714D01*
X74112380Y-112990238D01*
X74064761Y-112895000D01*
X74017142Y-112847380D01*
X73921904Y-112799761D01*
X73683809Y-112799761D01*
X73588571Y-112847380D01*
X73540952Y-112895000D01*
X73493333Y-112990238D01*
X73493333Y-113180714D01*
X73540952Y-113275952D01*
X73588571Y-113323571D01*
X73683809Y-113371190D01*
X74112380Y-112371190D02*
X73112380Y-112371190D01*
X74064761Y-111942619D02*
X74112380Y-111799761D01*
X74112380Y-111561666D01*
X74064761Y-111466428D01*
X74017142Y-111418809D01*
X73921904Y-111371190D01*
X73826666Y-111371190D01*
X73731428Y-111418809D01*
X73683809Y-111466428D01*
X73636190Y-111561666D01*
X73588571Y-111752142D01*
X73540952Y-111847380D01*
X73493333Y-111895000D01*
X73398095Y-111942619D01*
X73302857Y-111942619D01*
X73207619Y-111895000D01*
X73160000Y-111847380D01*
X73112380Y-111752142D01*
X73112380Y-111514047D01*
X73160000Y-111371190D01*
X73112380Y-111037857D02*
X73112380Y-110371190D01*
X74112380Y-110799761D01*
X73112380Y-109514047D02*
X73112380Y-109990238D01*
X73588571Y-110037857D01*
X73540952Y-109990238D01*
X73493333Y-109895000D01*
X73493333Y-109656904D01*
X73540952Y-109561666D01*
X73588571Y-109514047D01*
X73683809Y-109466428D01*
X73921904Y-109466428D01*
X74017142Y-109514047D01*
X74064761Y-109561666D01*
X74112380Y-109656904D01*
X74112380Y-109895000D01*
X74064761Y-109990238D01*
X74017142Y-110037857D01*
X73207619Y-109085476D02*
X73160000Y-109037857D01*
X73112380Y-108942619D01*
X73112380Y-108704523D01*
X73160000Y-108609285D01*
X73207619Y-108561666D01*
X73302857Y-108514047D01*
X73398095Y-108514047D01*
X73540952Y-108561666D01*
X74112380Y-109133095D01*
X74112380Y-108514047D01*
X102957380Y-66500333D02*
X103671666Y-66500333D01*
X103814523Y-66547952D01*
X103909761Y-66643190D01*
X103957380Y-66786047D01*
X103957380Y-66881285D01*
X103957380Y-65500333D02*
X103957380Y-66071761D01*
X103957380Y-65786047D02*
X102957380Y-65786047D01*
X103100238Y-65881285D01*
X103195476Y-65976523D01*
X103243095Y-66071761D01*
D15*
X92798358Y-70106184D02*
X92765834Y-70097469D01*
X92709500Y-70047515D01*
X92685690Y-70006275D01*
X92670596Y-69932512D01*
X92688025Y-69867463D01*
X92717360Y-69823034D01*
X92787934Y-69754795D01*
X92849793Y-69719081D01*
X92944176Y-69692081D01*
X92997320Y-69688892D01*
X93062369Y-69706321D01*
X93118703Y-69756275D01*
X93142512Y-69797515D01*
X93157607Y-69871279D01*
X93148892Y-69903803D01*
X92976075Y-70223522D02*
X93095122Y-70429719D01*
X92828547Y-70253711D02*
X93344893Y-70148049D01*
X92995214Y-70542386D01*
X93078547Y-70686724D02*
X93511560Y-70436724D01*
X93221404Y-70934160D01*
X93654417Y-70684160D01*
X93340452Y-71140356D02*
X93773465Y-70890356D01*
X93567268Y-71009404D02*
X93710125Y-71256840D01*
X93483309Y-71387792D02*
X93916322Y-71137792D01*
X95338358Y-70106184D02*
X95305834Y-70097469D01*
X95249500Y-70047515D01*
X95225690Y-70006275D01*
X95210596Y-69932512D01*
X95228025Y-69867463D01*
X95257360Y-69823034D01*
X95327934Y-69754795D01*
X95389793Y-69719081D01*
X95484176Y-69692081D01*
X95537320Y-69688892D01*
X95602369Y-69706321D01*
X95658703Y-69756275D01*
X95682512Y-69797515D01*
X95697607Y-69871279D01*
X95688892Y-69903803D01*
X95516075Y-70223522D02*
X95635122Y-70429719D01*
X95368547Y-70253711D02*
X95884893Y-70148049D01*
X95535214Y-70542386D01*
X95618547Y-70686724D02*
X96051560Y-70436724D01*
X95761404Y-70934160D01*
X96194417Y-70684160D01*
X95999500Y-71346553D02*
X95880452Y-71140356D01*
X96313465Y-70890356D01*
X86977447Y-61536317D02*
X86992541Y-61610080D01*
X86983827Y-61642605D01*
X86954492Y-61687034D01*
X86892633Y-61722748D01*
X86839489Y-61725938D01*
X86806965Y-61717223D01*
X86762535Y-61687889D01*
X86667297Y-61522931D01*
X87100310Y-61272931D01*
X87183643Y-61417269D01*
X87186833Y-61470413D01*
X87178118Y-61502937D01*
X87148784Y-61547367D01*
X87107544Y-61571176D01*
X87054400Y-61574366D01*
X87021876Y-61565651D01*
X86977447Y-61536317D01*
X86894114Y-61391979D01*
X87101394Y-62179570D02*
X87068869Y-62170855D01*
X87012535Y-62120901D01*
X86988726Y-62079662D01*
X86973631Y-62005898D01*
X86991061Y-61940849D01*
X87020396Y-61896420D01*
X87090969Y-61828182D01*
X87152828Y-61792467D01*
X87247212Y-61765468D01*
X87300356Y-61762278D01*
X87365405Y-61779708D01*
X87421739Y-61829662D01*
X87445548Y-61870901D01*
X87460643Y-61944665D01*
X87451928Y-61977189D01*
X87167297Y-62388957D02*
X87600310Y-62138957D01*
X87374349Y-62461866D01*
X87766977Y-62427632D01*
X87333964Y-62677632D01*
X89433488Y-61914705D02*
X89290631Y-61667269D01*
X89362059Y-61790987D02*
X89795072Y-61540987D01*
X89709403Y-61535462D01*
X89644355Y-61518032D01*
X89599925Y-61488698D01*
X89920499Y-61853472D02*
X89953024Y-61862186D01*
X89997453Y-61891521D01*
X90056977Y-61994619D01*
X90060167Y-62047763D01*
X90051452Y-62080288D01*
X90022117Y-62124717D01*
X89980878Y-62148526D01*
X89907114Y-62163621D01*
X89516821Y-62059042D01*
X89671583Y-62327098D01*
X90176024Y-62200816D02*
X89826345Y-62595153D01*
X90342691Y-62489491D01*
X94506024Y-60901778D02*
X94132535Y-61254876D01*
X94489449Y-61158783D01*
X94227774Y-61419833D01*
X94720310Y-61272931D01*
X94494349Y-61595840D02*
X94613396Y-61802037D01*
X94346821Y-61626030D02*
X94863167Y-61520367D01*
X94513488Y-61914705D01*
X94596821Y-62059042D02*
X95029834Y-61809042D01*
X94739678Y-62306478D02*
X94879971Y-61978044D01*
X95172691Y-62056478D02*
X94782398Y-61951899D01*
X95073637Y-62361103D02*
X95156971Y-62505440D01*
X94965869Y-62698252D02*
X94846821Y-62492055D01*
X95279834Y-62242055D01*
X95398881Y-62448252D01*
X97394452Y-61552892D02*
X97391262Y-61499748D01*
X97355548Y-61437889D01*
X97299214Y-61387934D01*
X97234165Y-61370505D01*
X97181021Y-61373694D01*
X97086638Y-61400694D01*
X97024779Y-61436408D01*
X96954205Y-61504647D01*
X96924871Y-61549076D01*
X96907441Y-61614125D01*
X96922535Y-61687889D01*
X96946345Y-61729128D01*
X97002679Y-61779082D01*
X97035203Y-61787797D01*
X97179541Y-61704464D01*
X97131922Y-61621985D01*
X97101107Y-61997183D02*
X97534120Y-61747183D01*
X97243964Y-62244619D01*
X97676977Y-61994619D01*
X97363012Y-62450816D02*
X97796024Y-62200816D01*
X97855548Y-62303914D01*
X97870643Y-62377678D01*
X97853213Y-62442727D01*
X97823878Y-62487156D01*
X97753305Y-62555394D01*
X97691446Y-62591109D01*
X97597062Y-62618108D01*
X97543918Y-62621298D01*
X97478869Y-62603868D01*
X97422535Y-62553914D01*
X97363012Y-62450816D01*
D13*
X63587380Y-66500333D02*
X64301666Y-66500333D01*
X64444523Y-66547952D01*
X64539761Y-66643190D01*
X64587380Y-66786047D01*
X64587380Y-66881285D01*
X63682619Y-66071761D02*
X63635000Y-66024142D01*
X63587380Y-65928904D01*
X63587380Y-65690809D01*
X63635000Y-65595571D01*
X63682619Y-65547952D01*
X63777857Y-65500333D01*
X63873095Y-65500333D01*
X64015952Y-65547952D01*
X64587380Y-66119380D01*
X64587380Y-65500333D01*
D15*
X72478358Y-70106184D02*
X72445834Y-70097469D01*
X72389500Y-70047515D01*
X72365690Y-70006275D01*
X72350596Y-69932512D01*
X72368025Y-69867463D01*
X72397360Y-69823034D01*
X72467934Y-69754795D01*
X72529793Y-69719081D01*
X72624176Y-69692081D01*
X72677320Y-69688892D01*
X72742369Y-69706321D01*
X72798703Y-69756275D01*
X72822512Y-69797515D01*
X72837607Y-69871279D01*
X72828892Y-69903803D01*
X72656075Y-70223522D02*
X72775122Y-70429719D01*
X72508547Y-70253711D02*
X73024893Y-70148049D01*
X72675214Y-70542386D01*
X72758547Y-70686724D02*
X73191560Y-70436724D01*
X72901404Y-70934160D01*
X73334417Y-70684160D01*
X73020452Y-71140356D02*
X73453465Y-70890356D01*
X73247268Y-71009404D02*
X73390125Y-71256840D01*
X73163309Y-71387792D02*
X73596322Y-71137792D01*
X75018358Y-70106184D02*
X74985834Y-70097469D01*
X74929500Y-70047515D01*
X74905690Y-70006275D01*
X74890596Y-69932512D01*
X74908025Y-69867463D01*
X74937360Y-69823034D01*
X75007934Y-69754795D01*
X75069793Y-69719081D01*
X75164176Y-69692081D01*
X75217320Y-69688892D01*
X75282369Y-69706321D01*
X75338703Y-69756275D01*
X75362512Y-69797515D01*
X75377607Y-69871279D01*
X75368892Y-69903803D01*
X75196075Y-70223522D02*
X75315122Y-70429719D01*
X75048547Y-70253711D02*
X75564893Y-70148049D01*
X75215214Y-70542386D01*
X75298547Y-70686724D02*
X75731560Y-70436724D01*
X75441404Y-70934160D01*
X75874417Y-70684160D01*
X75679500Y-71346553D02*
X75560452Y-71140356D01*
X75993465Y-70890356D01*
X66657447Y-61536317D02*
X66672541Y-61610080D01*
X66663827Y-61642605D01*
X66634492Y-61687034D01*
X66572633Y-61722748D01*
X66519489Y-61725938D01*
X66486965Y-61717223D01*
X66442535Y-61687889D01*
X66347297Y-61522931D01*
X66780310Y-61272931D01*
X66863643Y-61417269D01*
X66866833Y-61470413D01*
X66858118Y-61502937D01*
X66828784Y-61547367D01*
X66787544Y-61571176D01*
X66734400Y-61574366D01*
X66701876Y-61565651D01*
X66657447Y-61536317D01*
X66574114Y-61391979D01*
X66781394Y-62179570D02*
X66748869Y-62170855D01*
X66692535Y-62120901D01*
X66668726Y-62079662D01*
X66653631Y-62005898D01*
X66671061Y-61940849D01*
X66700396Y-61896420D01*
X66770969Y-61828182D01*
X66832828Y-61792467D01*
X66927212Y-61765468D01*
X66980356Y-61762278D01*
X67045405Y-61779708D01*
X67101739Y-61829662D01*
X67125548Y-61870901D01*
X67140643Y-61944665D01*
X67131928Y-61977189D01*
X66847297Y-62388957D02*
X67280310Y-62138957D01*
X67054349Y-62461866D01*
X67446977Y-62427632D01*
X67013964Y-62677632D01*
X69113488Y-61914705D02*
X68970631Y-61667269D01*
X69042059Y-61790987D02*
X69475072Y-61540987D01*
X69389403Y-61535462D01*
X69324355Y-61518032D01*
X69279925Y-61488698D01*
X69600499Y-61853472D02*
X69633024Y-61862186D01*
X69677453Y-61891521D01*
X69736977Y-61994619D01*
X69740167Y-62047763D01*
X69731452Y-62080288D01*
X69702117Y-62124717D01*
X69660878Y-62148526D01*
X69587114Y-62163621D01*
X69196821Y-62059042D01*
X69351583Y-62327098D01*
X69856024Y-62200816D02*
X69506345Y-62595153D01*
X70022691Y-62489491D01*
X74186024Y-60901778D02*
X73812535Y-61254876D01*
X74169449Y-61158783D01*
X73907774Y-61419833D01*
X74400310Y-61272931D01*
X74174349Y-61595840D02*
X74293396Y-61802037D01*
X74026821Y-61626030D02*
X74543167Y-61520367D01*
X74193488Y-61914705D01*
X74276821Y-62059042D02*
X74709834Y-61809042D01*
X74419678Y-62306478D02*
X74559971Y-61978044D01*
X74852691Y-62056478D02*
X74462398Y-61951899D01*
X74753637Y-62361103D02*
X74836971Y-62505440D01*
X74645869Y-62698252D02*
X74526821Y-62492055D01*
X74959834Y-62242055D01*
X75078881Y-62448252D01*
X77074452Y-61552892D02*
X77071262Y-61499748D01*
X77035548Y-61437889D01*
X76979214Y-61387934D01*
X76914165Y-61370505D01*
X76861021Y-61373694D01*
X76766638Y-61400694D01*
X76704779Y-61436408D01*
X76634205Y-61504647D01*
X76604871Y-61549076D01*
X76587441Y-61614125D01*
X76602535Y-61687889D01*
X76626345Y-61729128D01*
X76682679Y-61779082D01*
X76715203Y-61787797D01*
X76859541Y-61704464D01*
X76811922Y-61621985D01*
X76781107Y-61997183D02*
X77214120Y-61747183D01*
X76923964Y-62244619D01*
X77356977Y-61994619D01*
X77043012Y-62450816D02*
X77476024Y-62200816D01*
X77535548Y-62303914D01*
X77550643Y-62377678D01*
X77533213Y-62442727D01*
X77503878Y-62487156D01*
X77433305Y-62555394D01*
X77371446Y-62591109D01*
X77277062Y-62618108D01*
X77223918Y-62621298D01*
X77158869Y-62603868D01*
X77102535Y-62553914D01*
X77043012Y-62450816D01*
D13*
X65873333Y-118879880D02*
X65540000Y-118403690D01*
X65301904Y-118879880D02*
X65301904Y-117879880D01*
X65682857Y-117879880D01*
X65778095Y-117927500D01*
X65825714Y-117975119D01*
X65873333Y-118070357D01*
X65873333Y-118213214D01*
X65825714Y-118308452D01*
X65778095Y-118356071D01*
X65682857Y-118403690D01*
X65301904Y-118403690D01*
X66825714Y-118879880D02*
X66254285Y-118879880D01*
X66540000Y-118879880D02*
X66540000Y-117879880D01*
X66444761Y-118022738D01*
X66349523Y-118117976D01*
X66254285Y-118165595D01*
X65825714Y-112529880D02*
X65254285Y-112529880D01*
X65540000Y-112529880D02*
X65540000Y-111529880D01*
X65444761Y-111672738D01*
X65349523Y-111767976D01*
X65254285Y-111815595D01*
X66254285Y-112529880D02*
X66254285Y-111529880D01*
X66825714Y-112529880D02*
X66397142Y-111958452D01*
X66825714Y-111529880D02*
X66254285Y-112101309D01*
D12*
X81372667Y-114905285D02*
X81296774Y-115512428D01*
X81323560Y-115583857D01*
X81354810Y-115619571D01*
X81421774Y-115655285D01*
X81564631Y-115655285D01*
X81640524Y-115619571D01*
X81680703Y-115583857D01*
X81725345Y-115512428D01*
X81801238Y-114905285D01*
X82055703Y-115441000D02*
X82412845Y-115441000D01*
X81957488Y-115655285D02*
X82301238Y-114905285D01*
X82457488Y-115655285D01*
X83136060Y-115655285D02*
X82930703Y-115298142D01*
X82707488Y-115655285D02*
X82801238Y-114905285D01*
X83086953Y-114905285D01*
X83153917Y-114941000D01*
X83185167Y-114976714D01*
X83211953Y-115048142D01*
X83198560Y-115155285D01*
X83153917Y-115226714D01*
X83113738Y-115262428D01*
X83037845Y-115298142D01*
X82752131Y-115298142D01*
X83444095Y-114905285D02*
X83872667Y-114905285D01*
X83564631Y-115655285D02*
X83658381Y-114905285D01*
X84019988Y-115441000D02*
X84377131Y-115441000D01*
X83921774Y-115655285D02*
X84265524Y-114905285D01*
X84421774Y-115655285D01*
X85305703Y-114869571D02*
X84542310Y-115833857D01*
X85551238Y-114905285D02*
X85475345Y-115512428D01*
X85502131Y-115583857D01*
X85533381Y-115619571D01*
X85600345Y-115655285D01*
X85743203Y-115655285D01*
X85819095Y-115619571D01*
X85859274Y-115583857D01*
X85903917Y-115512428D01*
X85979810Y-114905285D01*
X86234274Y-115441000D02*
X86591417Y-115441000D01*
X86136060Y-115655285D02*
X86479810Y-114905285D01*
X86636060Y-115655285D01*
X87314631Y-115655285D02*
X87109274Y-115298142D01*
X86886060Y-115655285D02*
X86979810Y-114905285D01*
X87265524Y-114905285D01*
X87332488Y-114941000D01*
X87363738Y-114976714D01*
X87390524Y-115048142D01*
X87377131Y-115155285D01*
X87332488Y-115226714D01*
X87292310Y-115262428D01*
X87216417Y-115298142D01*
X86930703Y-115298142D01*
X87622667Y-114905285D02*
X88051238Y-114905285D01*
X87743203Y-115655285D02*
X87836953Y-114905285D01*
X88506595Y-115262428D02*
X88609274Y-115298142D01*
X88640524Y-115333857D01*
X88667310Y-115405285D01*
X88653917Y-115512428D01*
X88609274Y-115583857D01*
X88569095Y-115619571D01*
X88493203Y-115655285D01*
X88207488Y-115655285D01*
X88301238Y-114905285D01*
X88551238Y-114905285D01*
X88618203Y-114941000D01*
X88649453Y-114976714D01*
X88676238Y-115048142D01*
X88667310Y-115119571D01*
X88622667Y-115191000D01*
X88582488Y-115226714D01*
X88506595Y-115262428D01*
X88256595Y-115262428D01*
X89591417Y-114869571D02*
X88828024Y-115833857D01*
X89743203Y-115655285D02*
X89836953Y-114905285D01*
X90528917Y-115655285D02*
X90323560Y-115298142D01*
X90100345Y-115655285D02*
X90194095Y-114905285D01*
X90479810Y-114905285D01*
X90546774Y-114941000D01*
X90578024Y-114976714D01*
X90604810Y-115048142D01*
X90591417Y-115155285D01*
X90546774Y-115226714D01*
X90506595Y-115262428D01*
X90430703Y-115298142D01*
X90144988Y-115298142D01*
X91341417Y-115726714D02*
X91274453Y-115691000D01*
X91211953Y-115619571D01*
X91118203Y-115512428D01*
X91051238Y-115476714D01*
X90979810Y-115476714D01*
X90993203Y-115655285D02*
X90926238Y-115619571D01*
X90863738Y-115548142D01*
X90845881Y-115405285D01*
X90877131Y-115155285D01*
X90930703Y-115012428D01*
X91011060Y-114941000D01*
X91086953Y-114905285D01*
X91229810Y-114905285D01*
X91296774Y-114941000D01*
X91359274Y-115012428D01*
X91377131Y-115155285D01*
X91345881Y-115405285D01*
X91292310Y-115548142D01*
X91211953Y-115619571D01*
X91136060Y-115655285D01*
X90993203Y-115655285D01*
X101136524Y-127049571D02*
X101239203Y-127085285D01*
X101417774Y-127085285D01*
X101493667Y-127049571D01*
X101533845Y-127013857D01*
X101578488Y-126942428D01*
X101587417Y-126871000D01*
X101560631Y-126799571D01*
X101529381Y-126763857D01*
X101462417Y-126728142D01*
X101324024Y-126692428D01*
X101257060Y-126656714D01*
X101225810Y-126621000D01*
X101199024Y-126549571D01*
X101207953Y-126478142D01*
X101252595Y-126406714D01*
X101292774Y-126371000D01*
X101368667Y-126335285D01*
X101547238Y-126335285D01*
X101649917Y-126371000D01*
X101882060Y-127085285D02*
X101975810Y-126335285D01*
X102261524Y-126335285D01*
X102328488Y-126371000D01*
X102359738Y-126406714D01*
X102386524Y-126478142D01*
X102373131Y-126585285D01*
X102328488Y-126656714D01*
X102288310Y-126692428D01*
X102212417Y-126728142D01*
X101926703Y-126728142D01*
X102632060Y-127085285D02*
X102725810Y-126335285D01*
X81868381Y-126335285D02*
X82332667Y-126335285D01*
X82046953Y-126621000D01*
X82154095Y-126621000D01*
X82221060Y-126656714D01*
X82252310Y-126692428D01*
X82279095Y-126763857D01*
X82256774Y-126942428D01*
X82212131Y-127013857D01*
X82171953Y-127049571D01*
X82096060Y-127085285D01*
X81881774Y-127085285D01*
X81814810Y-127049571D01*
X81783560Y-127013857D01*
X82569274Y-127013857D02*
X82600524Y-127049571D01*
X82560345Y-127085285D01*
X82529095Y-127049571D01*
X82569274Y-127013857D01*
X82560345Y-127085285D01*
X82939810Y-126335285D02*
X83404095Y-126335285D01*
X83118381Y-126621000D01*
X83225524Y-126621000D01*
X83292488Y-126656714D01*
X83323738Y-126692428D01*
X83350524Y-126763857D01*
X83328203Y-126942428D01*
X83283560Y-127013857D01*
X83243381Y-127049571D01*
X83167488Y-127085285D01*
X82953203Y-127085285D01*
X82886238Y-127049571D01*
X82854988Y-127013857D01*
X83618381Y-126335285D02*
X83774631Y-127085285D01*
X84118381Y-126335285D01*
X84846060Y-127085285D02*
X84939810Y-126335285D01*
X85203203Y-127085285D02*
X85296953Y-126335285D01*
X85631774Y-127085285D01*
X85725524Y-126335285D01*
X91095667Y-126335285D02*
X90738524Y-126335285D01*
X90658167Y-126692428D01*
X90698345Y-126656714D01*
X90774238Y-126621000D01*
X90952810Y-126621000D01*
X91019774Y-126656714D01*
X91051024Y-126692428D01*
X91077810Y-126763857D01*
X91055488Y-126942428D01*
X91010845Y-127013857D01*
X90970667Y-127049571D01*
X90894774Y-127085285D01*
X90716203Y-127085285D01*
X90649238Y-127049571D01*
X90617988Y-127013857D01*
X91345667Y-126335285D02*
X91501917Y-127085285D01*
X91845667Y-126335285D01*
X92809953Y-126335285D02*
X92952810Y-126335285D01*
X93019774Y-126371000D01*
X93082274Y-126442428D01*
X93100131Y-126585285D01*
X93068881Y-126835285D01*
X93015310Y-126978142D01*
X92934953Y-127049571D01*
X92859060Y-127085285D01*
X92716203Y-127085285D01*
X92649238Y-127049571D01*
X92586738Y-126978142D01*
X92568881Y-126835285D01*
X92600131Y-126585285D01*
X92653703Y-126442428D01*
X92734060Y-126371000D01*
X92809953Y-126335285D01*
X93452810Y-126335285D02*
X93376917Y-126942428D01*
X93403703Y-127013857D01*
X93434953Y-127049571D01*
X93501917Y-127085285D01*
X93644774Y-127085285D01*
X93720667Y-127049571D01*
X93760845Y-127013857D01*
X93805488Y-126942428D01*
X93881381Y-126335285D01*
X94131381Y-126335285D02*
X94559953Y-126335285D01*
X94251917Y-127085285D02*
X94345667Y-126335285D01*
D13*
X86828333Y-81764142D02*
X86780714Y-81811761D01*
X86637857Y-81859380D01*
X86542619Y-81859380D01*
X86399761Y-81811761D01*
X86304523Y-81716523D01*
X86256904Y-81621285D01*
X86209285Y-81430809D01*
X86209285Y-81287952D01*
X86256904Y-81097476D01*
X86304523Y-81002238D01*
X86399761Y-80907000D01*
X86542619Y-80859380D01*
X86637857Y-80859380D01*
X86780714Y-80907000D01*
X86828333Y-80954619D01*
X87209285Y-80954619D02*
X87256904Y-80907000D01*
X87352142Y-80859380D01*
X87590238Y-80859380D01*
X87685476Y-80907000D01*
X87733095Y-80954619D01*
X87780714Y-81049857D01*
X87780714Y-81145095D01*
X87733095Y-81287952D01*
X87161666Y-81859380D01*
X87780714Y-81859380D01*
X79843333Y-81764142D02*
X79795714Y-81811761D01*
X79652857Y-81859380D01*
X79557619Y-81859380D01*
X79414761Y-81811761D01*
X79319523Y-81716523D01*
X79271904Y-81621285D01*
X79224285Y-81430809D01*
X79224285Y-81287952D01*
X79271904Y-81097476D01*
X79319523Y-81002238D01*
X79414761Y-80907000D01*
X79557619Y-80859380D01*
X79652857Y-80859380D01*
X79795714Y-80907000D01*
X79843333Y-80954619D01*
X80795714Y-81859380D02*
X80224285Y-81859380D01*
X80510000Y-81859380D02*
X80510000Y-80859380D01*
X80414761Y-81002238D01*
X80319523Y-81097476D01*
X80224285Y-81145095D01*
X72898095Y-80757780D02*
X72898095Y-81567304D01*
X72945714Y-81662542D01*
X72993333Y-81710161D01*
X73088571Y-81757780D01*
X73279047Y-81757780D01*
X73374285Y-81710161D01*
X73421904Y-81662542D01*
X73469523Y-81567304D01*
X73469523Y-80757780D01*
X74374285Y-81091114D02*
X74374285Y-81757780D01*
X74136190Y-80710161D02*
X73898095Y-81424447D01*
X74517142Y-81424447D01*
X92583095Y-80732380D02*
X92583095Y-81541904D01*
X92630714Y-81637142D01*
X92678333Y-81684761D01*
X92773571Y-81732380D01*
X92964047Y-81732380D01*
X93059285Y-81684761D01*
X93106904Y-81637142D01*
X93154523Y-81541904D01*
X93154523Y-80732380D01*
X93535476Y-80732380D02*
X94154523Y-80732380D01*
X93821190Y-81113333D01*
X93964047Y-81113333D01*
X94059285Y-81160952D01*
X94106904Y-81208571D01*
X94154523Y-81303809D01*
X94154523Y-81541904D01*
X94106904Y-81637142D01*
X94059285Y-81684761D01*
X93964047Y-81732380D01*
X93678333Y-81732380D01*
X93583095Y-81684761D01*
X93535476Y-81637142D01*
M02*
