G04 #@! TF.GenerationSoftware,KiCad,Pcbnew,5.1.4-e60b266~84~ubuntu19.04.1*
G04 #@! TF.CreationDate,2020-01-26T15:48:04+11:00*
G04 #@! TF.ProjectId,sid-board_ldo_supplies,7369642d-626f-4617-9264-5f6c646f5f73,rev?*
G04 #@! TF.SameCoordinates,Original*
G04 #@! TF.FileFunction,Soldermask,Bot*
G04 #@! TF.FilePolarity,Negative*
%FSLAX46Y46*%
G04 Gerber Fmt 4.6, Leading zero omitted, Abs format (unit mm)*
G04 Created by KiCad (PCBNEW 5.1.4-e60b266~84~ubuntu19.04.1) date 2020-01-26 15:48:04*
%MOMM*%
%LPD*%
G04 APERTURE LIST*
%ADD10C,0.100000*%
G04 APERTURE END LIST*
D10*
G36*
X101181000Y-96736000D02*
G01*
X99479000Y-96736000D01*
X99479000Y-95034000D01*
X101181000Y-95034000D01*
X101181000Y-96736000D01*
X101181000Y-96736000D01*
G37*
G36*
X92876823Y-95046313D02*
G01*
X93037242Y-95094976D01*
X93169906Y-95165886D01*
X93185078Y-95173996D01*
X93314659Y-95280341D01*
X93421004Y-95409922D01*
X93421005Y-95409924D01*
X93500024Y-95557758D01*
X93548687Y-95718177D01*
X93565117Y-95885000D01*
X93548687Y-96051823D01*
X93500024Y-96212242D01*
X93429114Y-96344906D01*
X93421004Y-96360078D01*
X93314659Y-96489659D01*
X93185078Y-96596004D01*
X93185076Y-96596005D01*
X93037242Y-96675024D01*
X92876823Y-96723687D01*
X92751804Y-96736000D01*
X92668196Y-96736000D01*
X92543177Y-96723687D01*
X92382758Y-96675024D01*
X92234924Y-96596005D01*
X92234922Y-96596004D01*
X92105341Y-96489659D01*
X91998996Y-96360078D01*
X91990886Y-96344906D01*
X91919976Y-96212242D01*
X91871313Y-96051823D01*
X91854883Y-95885000D01*
X91871313Y-95718177D01*
X91919976Y-95557758D01*
X91998995Y-95409924D01*
X91998996Y-95409922D01*
X92105341Y-95280341D01*
X92234922Y-95173996D01*
X92250094Y-95165886D01*
X92382758Y-95094976D01*
X92543177Y-95046313D01*
X92668196Y-95034000D01*
X92751804Y-95034000D01*
X92876823Y-95046313D01*
X92876823Y-95046313D01*
G37*
G36*
X92876823Y-92506313D02*
G01*
X93037242Y-92554976D01*
X93169906Y-92625886D01*
X93185078Y-92633996D01*
X93314659Y-92740341D01*
X93421004Y-92869922D01*
X93421005Y-92869924D01*
X93500024Y-93017758D01*
X93548687Y-93178177D01*
X93565117Y-93345000D01*
X93548687Y-93511823D01*
X93500024Y-93672242D01*
X93429114Y-93804906D01*
X93421004Y-93820078D01*
X93314659Y-93949659D01*
X93185078Y-94056004D01*
X93185076Y-94056005D01*
X93037242Y-94135024D01*
X92876823Y-94183687D01*
X92751804Y-94196000D01*
X92668196Y-94196000D01*
X92543177Y-94183687D01*
X92382758Y-94135024D01*
X92234924Y-94056005D01*
X92234922Y-94056004D01*
X92105341Y-93949659D01*
X91998996Y-93820078D01*
X91990886Y-93804906D01*
X91919976Y-93672242D01*
X91871313Y-93511823D01*
X91854883Y-93345000D01*
X91871313Y-93178177D01*
X91919976Y-93017758D01*
X91998995Y-92869924D01*
X91998996Y-92869922D01*
X92105341Y-92740341D01*
X92234922Y-92633996D01*
X92250094Y-92625886D01*
X92382758Y-92554976D01*
X92543177Y-92506313D01*
X92668196Y-92494000D01*
X92751804Y-92494000D01*
X92876823Y-92506313D01*
X92876823Y-92506313D01*
G37*
G36*
X100496823Y-92506313D02*
G01*
X100657242Y-92554976D01*
X100789906Y-92625886D01*
X100805078Y-92633996D01*
X100934659Y-92740341D01*
X101041004Y-92869922D01*
X101041005Y-92869924D01*
X101120024Y-93017758D01*
X101168687Y-93178177D01*
X101185117Y-93345000D01*
X101168687Y-93511823D01*
X101120024Y-93672242D01*
X101049114Y-93804906D01*
X101041004Y-93820078D01*
X100934659Y-93949659D01*
X100805078Y-94056004D01*
X100805076Y-94056005D01*
X100657242Y-94135024D01*
X100496823Y-94183687D01*
X100371804Y-94196000D01*
X100288196Y-94196000D01*
X100163177Y-94183687D01*
X100002758Y-94135024D01*
X99854924Y-94056005D01*
X99854922Y-94056004D01*
X99725341Y-93949659D01*
X99618996Y-93820078D01*
X99610886Y-93804906D01*
X99539976Y-93672242D01*
X99491313Y-93511823D01*
X99474883Y-93345000D01*
X99491313Y-93178177D01*
X99539976Y-93017758D01*
X99618995Y-92869924D01*
X99618996Y-92869922D01*
X99725341Y-92740341D01*
X99854922Y-92633996D01*
X99870094Y-92625886D01*
X100002758Y-92554976D01*
X100163177Y-92506313D01*
X100288196Y-92494000D01*
X100371804Y-92494000D01*
X100496823Y-92506313D01*
X100496823Y-92506313D01*
G37*
G36*
X100186442Y-86100518D02*
G01*
X100252627Y-86107037D01*
X100422466Y-86158557D01*
X100578991Y-86242222D01*
X100614729Y-86271552D01*
X100716186Y-86354814D01*
X100799448Y-86456271D01*
X100828778Y-86492009D01*
X100912443Y-86648534D01*
X100963963Y-86818373D01*
X100981359Y-86995000D01*
X100963963Y-87171627D01*
X100912443Y-87341466D01*
X100828778Y-87497991D01*
X100799448Y-87533729D01*
X100716186Y-87635186D01*
X100614729Y-87718448D01*
X100578991Y-87747778D01*
X100422466Y-87831443D01*
X100252627Y-87882963D01*
X100186443Y-87889481D01*
X100120260Y-87896000D01*
X100031740Y-87896000D01*
X99965557Y-87889481D01*
X99899373Y-87882963D01*
X99729534Y-87831443D01*
X99573009Y-87747778D01*
X99537271Y-87718448D01*
X99435814Y-87635186D01*
X99352552Y-87533729D01*
X99323222Y-87497991D01*
X99239557Y-87341466D01*
X99188037Y-87171627D01*
X99170641Y-86995000D01*
X99188037Y-86818373D01*
X99239557Y-86648534D01*
X99323222Y-86492009D01*
X99352552Y-86456271D01*
X99435814Y-86354814D01*
X99537271Y-86271552D01*
X99573009Y-86242222D01*
X99729534Y-86158557D01*
X99899373Y-86107037D01*
X99965558Y-86100518D01*
X100031740Y-86094000D01*
X100120260Y-86094000D01*
X100186442Y-86100518D01*
X100186442Y-86100518D01*
G37*
G36*
X97646442Y-86100518D02*
G01*
X97712627Y-86107037D01*
X97882466Y-86158557D01*
X98038991Y-86242222D01*
X98074729Y-86271552D01*
X98176186Y-86354814D01*
X98259448Y-86456271D01*
X98288778Y-86492009D01*
X98372443Y-86648534D01*
X98423963Y-86818373D01*
X98441359Y-86995000D01*
X98423963Y-87171627D01*
X98372443Y-87341466D01*
X98288778Y-87497991D01*
X98259448Y-87533729D01*
X98176186Y-87635186D01*
X98074729Y-87718448D01*
X98038991Y-87747778D01*
X97882466Y-87831443D01*
X97712627Y-87882963D01*
X97646443Y-87889481D01*
X97580260Y-87896000D01*
X97491740Y-87896000D01*
X97425557Y-87889481D01*
X97359373Y-87882963D01*
X97189534Y-87831443D01*
X97033009Y-87747778D01*
X96997271Y-87718448D01*
X96895814Y-87635186D01*
X96812552Y-87533729D01*
X96783222Y-87497991D01*
X96699557Y-87341466D01*
X96648037Y-87171627D01*
X96630641Y-86995000D01*
X96648037Y-86818373D01*
X96699557Y-86648534D01*
X96783222Y-86492009D01*
X96812552Y-86456271D01*
X96895814Y-86354814D01*
X96997271Y-86271552D01*
X97033009Y-86242222D01*
X97189534Y-86158557D01*
X97359373Y-86107037D01*
X97425558Y-86100518D01*
X97491740Y-86094000D01*
X97580260Y-86094000D01*
X97646442Y-86100518D01*
X97646442Y-86100518D01*
G37*
G36*
X95106442Y-86100518D02*
G01*
X95172627Y-86107037D01*
X95342466Y-86158557D01*
X95498991Y-86242222D01*
X95534729Y-86271552D01*
X95636186Y-86354814D01*
X95719448Y-86456271D01*
X95748778Y-86492009D01*
X95832443Y-86648534D01*
X95883963Y-86818373D01*
X95901359Y-86995000D01*
X95883963Y-87171627D01*
X95832443Y-87341466D01*
X95748778Y-87497991D01*
X95719448Y-87533729D01*
X95636186Y-87635186D01*
X95534729Y-87718448D01*
X95498991Y-87747778D01*
X95342466Y-87831443D01*
X95172627Y-87882963D01*
X95106443Y-87889481D01*
X95040260Y-87896000D01*
X94951740Y-87896000D01*
X94885557Y-87889481D01*
X94819373Y-87882963D01*
X94649534Y-87831443D01*
X94493009Y-87747778D01*
X94457271Y-87718448D01*
X94355814Y-87635186D01*
X94272552Y-87533729D01*
X94243222Y-87497991D01*
X94159557Y-87341466D01*
X94108037Y-87171627D01*
X94090641Y-86995000D01*
X94108037Y-86818373D01*
X94159557Y-86648534D01*
X94243222Y-86492009D01*
X94272552Y-86456271D01*
X94355814Y-86354814D01*
X94457271Y-86271552D01*
X94493009Y-86242222D01*
X94649534Y-86158557D01*
X94819373Y-86107037D01*
X94885558Y-86100518D01*
X94951740Y-86094000D01*
X95040260Y-86094000D01*
X95106442Y-86100518D01*
X95106442Y-86100518D01*
G37*
G36*
X92566442Y-86100518D02*
G01*
X92632627Y-86107037D01*
X92802466Y-86158557D01*
X92958991Y-86242222D01*
X92994729Y-86271552D01*
X93096186Y-86354814D01*
X93179448Y-86456271D01*
X93208778Y-86492009D01*
X93292443Y-86648534D01*
X93343963Y-86818373D01*
X93361359Y-86995000D01*
X93343963Y-87171627D01*
X93292443Y-87341466D01*
X93208778Y-87497991D01*
X93179448Y-87533729D01*
X93096186Y-87635186D01*
X92994729Y-87718448D01*
X92958991Y-87747778D01*
X92802466Y-87831443D01*
X92632627Y-87882963D01*
X92566443Y-87889481D01*
X92500260Y-87896000D01*
X92411740Y-87896000D01*
X92345557Y-87889481D01*
X92279373Y-87882963D01*
X92109534Y-87831443D01*
X91953009Y-87747778D01*
X91917271Y-87718448D01*
X91815814Y-87635186D01*
X91732552Y-87533729D01*
X91703222Y-87497991D01*
X91619557Y-87341466D01*
X91568037Y-87171627D01*
X91550641Y-86995000D01*
X91568037Y-86818373D01*
X91619557Y-86648534D01*
X91703222Y-86492009D01*
X91732552Y-86456271D01*
X91815814Y-86354814D01*
X91917271Y-86271552D01*
X91953009Y-86242222D01*
X92109534Y-86158557D01*
X92279373Y-86107037D01*
X92345558Y-86100518D01*
X92411740Y-86094000D01*
X92500260Y-86094000D01*
X92566442Y-86100518D01*
X92566442Y-86100518D01*
G37*
G36*
X90817000Y-87896000D02*
G01*
X89015000Y-87896000D01*
X89015000Y-86094000D01*
X90817000Y-86094000D01*
X90817000Y-87896000D01*
X90817000Y-87896000D01*
G37*
G36*
X100186443Y-81147519D02*
G01*
X100252627Y-81154037D01*
X100422466Y-81205557D01*
X100578991Y-81289222D01*
X100614729Y-81318552D01*
X100716186Y-81401814D01*
X100799448Y-81503271D01*
X100828778Y-81539009D01*
X100912443Y-81695534D01*
X100963963Y-81865373D01*
X100981359Y-82042000D01*
X100963963Y-82218627D01*
X100912443Y-82388466D01*
X100828778Y-82544991D01*
X100799448Y-82580729D01*
X100716186Y-82682186D01*
X100614729Y-82765448D01*
X100578991Y-82794778D01*
X100422466Y-82878443D01*
X100252627Y-82929963D01*
X100186443Y-82936481D01*
X100120260Y-82943000D01*
X100031740Y-82943000D01*
X99965557Y-82936481D01*
X99899373Y-82929963D01*
X99729534Y-82878443D01*
X99573009Y-82794778D01*
X99537271Y-82765448D01*
X99435814Y-82682186D01*
X99352552Y-82580729D01*
X99323222Y-82544991D01*
X99239557Y-82388466D01*
X99188037Y-82218627D01*
X99170641Y-82042000D01*
X99188037Y-81865373D01*
X99239557Y-81695534D01*
X99323222Y-81539009D01*
X99352552Y-81503271D01*
X99435814Y-81401814D01*
X99537271Y-81318552D01*
X99573009Y-81289222D01*
X99729534Y-81205557D01*
X99899373Y-81154037D01*
X99965557Y-81147519D01*
X100031740Y-81141000D01*
X100120260Y-81141000D01*
X100186443Y-81147519D01*
X100186443Y-81147519D01*
G37*
G36*
X69481000Y-82943000D02*
G01*
X67679000Y-82943000D01*
X67679000Y-81141000D01*
X69481000Y-81141000D01*
X69481000Y-82943000D01*
X69481000Y-82943000D01*
G37*
G36*
X71230443Y-81147519D02*
G01*
X71296627Y-81154037D01*
X71466466Y-81205557D01*
X71622991Y-81289222D01*
X71658729Y-81318552D01*
X71760186Y-81401814D01*
X71843448Y-81503271D01*
X71872778Y-81539009D01*
X71956443Y-81695534D01*
X72007963Y-81865373D01*
X72025359Y-82042000D01*
X72007963Y-82218627D01*
X71956443Y-82388466D01*
X71872778Y-82544991D01*
X71843448Y-82580729D01*
X71760186Y-82682186D01*
X71658729Y-82765448D01*
X71622991Y-82794778D01*
X71466466Y-82878443D01*
X71296627Y-82929963D01*
X71230443Y-82936481D01*
X71164260Y-82943000D01*
X71075740Y-82943000D01*
X71009557Y-82936481D01*
X70943373Y-82929963D01*
X70773534Y-82878443D01*
X70617009Y-82794778D01*
X70581271Y-82765448D01*
X70479814Y-82682186D01*
X70396552Y-82580729D01*
X70367222Y-82544991D01*
X70283557Y-82388466D01*
X70232037Y-82218627D01*
X70214641Y-82042000D01*
X70232037Y-81865373D01*
X70283557Y-81695534D01*
X70367222Y-81539009D01*
X70396552Y-81503271D01*
X70479814Y-81401814D01*
X70581271Y-81318552D01*
X70617009Y-81289222D01*
X70773534Y-81205557D01*
X70943373Y-81154037D01*
X71009557Y-81147519D01*
X71075740Y-81141000D01*
X71164260Y-81141000D01*
X71230443Y-81147519D01*
X71230443Y-81147519D01*
G37*
G36*
X98437000Y-82943000D02*
G01*
X96635000Y-82943000D01*
X96635000Y-81141000D01*
X98437000Y-81141000D01*
X98437000Y-82943000D01*
X98437000Y-82943000D01*
G37*
G36*
X87740443Y-65907519D02*
G01*
X87806627Y-65914037D01*
X87976466Y-65965557D01*
X88132991Y-66049222D01*
X88168729Y-66078552D01*
X88270186Y-66161814D01*
X88353448Y-66263271D01*
X88382778Y-66299009D01*
X88466443Y-66455534D01*
X88517963Y-66625373D01*
X88535359Y-66802000D01*
X88517963Y-66978627D01*
X88466443Y-67148466D01*
X88382778Y-67304991D01*
X88353448Y-67340729D01*
X88270186Y-67442186D01*
X88168729Y-67525448D01*
X88132991Y-67554778D01*
X87976466Y-67638443D01*
X87806627Y-67689963D01*
X87740442Y-67696482D01*
X87674260Y-67703000D01*
X87585740Y-67703000D01*
X87519558Y-67696482D01*
X87453373Y-67689963D01*
X87283534Y-67638443D01*
X87127009Y-67554778D01*
X87091271Y-67525448D01*
X86989814Y-67442186D01*
X86906552Y-67340729D01*
X86877222Y-67304991D01*
X86793557Y-67148466D01*
X86742037Y-66978627D01*
X86724641Y-66802000D01*
X86742037Y-66625373D01*
X86793557Y-66455534D01*
X86877222Y-66299009D01*
X86906552Y-66263271D01*
X86989814Y-66161814D01*
X87091271Y-66078552D01*
X87127009Y-66049222D01*
X87283534Y-65965557D01*
X87453373Y-65914037D01*
X87519557Y-65907519D01*
X87585740Y-65901000D01*
X87674260Y-65901000D01*
X87740443Y-65907519D01*
X87740443Y-65907519D01*
G37*
G36*
X90280443Y-65907519D02*
G01*
X90346627Y-65914037D01*
X90516466Y-65965557D01*
X90672991Y-66049222D01*
X90708729Y-66078552D01*
X90810186Y-66161814D01*
X90893448Y-66263271D01*
X90922778Y-66299009D01*
X91006443Y-66455534D01*
X91057963Y-66625373D01*
X91075359Y-66802000D01*
X91057963Y-66978627D01*
X91006443Y-67148466D01*
X90922778Y-67304991D01*
X90893448Y-67340729D01*
X90810186Y-67442186D01*
X90708729Y-67525448D01*
X90672991Y-67554778D01*
X90516466Y-67638443D01*
X90346627Y-67689963D01*
X90280442Y-67696482D01*
X90214260Y-67703000D01*
X90125740Y-67703000D01*
X90059558Y-67696482D01*
X89993373Y-67689963D01*
X89823534Y-67638443D01*
X89667009Y-67554778D01*
X89631271Y-67525448D01*
X89529814Y-67442186D01*
X89446552Y-67340729D01*
X89417222Y-67304991D01*
X89333557Y-67148466D01*
X89282037Y-66978627D01*
X89264641Y-66802000D01*
X89282037Y-66625373D01*
X89333557Y-66455534D01*
X89417222Y-66299009D01*
X89446552Y-66263271D01*
X89529814Y-66161814D01*
X89631271Y-66078552D01*
X89667009Y-66049222D01*
X89823534Y-65965557D01*
X89993373Y-65914037D01*
X90059557Y-65907519D01*
X90125740Y-65901000D01*
X90214260Y-65901000D01*
X90280443Y-65907519D01*
X90280443Y-65907519D01*
G37*
G36*
X92820443Y-65907519D02*
G01*
X92886627Y-65914037D01*
X93056466Y-65965557D01*
X93212991Y-66049222D01*
X93248729Y-66078552D01*
X93350186Y-66161814D01*
X93433448Y-66263271D01*
X93462778Y-66299009D01*
X93546443Y-66455534D01*
X93597963Y-66625373D01*
X93615359Y-66802000D01*
X93597963Y-66978627D01*
X93546443Y-67148466D01*
X93462778Y-67304991D01*
X93433448Y-67340729D01*
X93350186Y-67442186D01*
X93248729Y-67525448D01*
X93212991Y-67554778D01*
X93056466Y-67638443D01*
X92886627Y-67689963D01*
X92820442Y-67696482D01*
X92754260Y-67703000D01*
X92665740Y-67703000D01*
X92599558Y-67696482D01*
X92533373Y-67689963D01*
X92363534Y-67638443D01*
X92207009Y-67554778D01*
X92171271Y-67525448D01*
X92069814Y-67442186D01*
X91986552Y-67340729D01*
X91957222Y-67304991D01*
X91873557Y-67148466D01*
X91822037Y-66978627D01*
X91804641Y-66802000D01*
X91822037Y-66625373D01*
X91873557Y-66455534D01*
X91957222Y-66299009D01*
X91986552Y-66263271D01*
X92069814Y-66161814D01*
X92171271Y-66078552D01*
X92207009Y-66049222D01*
X92363534Y-65965557D01*
X92533373Y-65914037D01*
X92599557Y-65907519D01*
X92665740Y-65901000D01*
X92754260Y-65901000D01*
X92820443Y-65907519D01*
X92820443Y-65907519D01*
G37*
G36*
X97900443Y-65907519D02*
G01*
X97966627Y-65914037D01*
X98136466Y-65965557D01*
X98292991Y-66049222D01*
X98328729Y-66078552D01*
X98430186Y-66161814D01*
X98513448Y-66263271D01*
X98542778Y-66299009D01*
X98626443Y-66455534D01*
X98677963Y-66625373D01*
X98695359Y-66802000D01*
X98677963Y-66978627D01*
X98626443Y-67148466D01*
X98542778Y-67304991D01*
X98513448Y-67340729D01*
X98430186Y-67442186D01*
X98328729Y-67525448D01*
X98292991Y-67554778D01*
X98136466Y-67638443D01*
X97966627Y-67689963D01*
X97900442Y-67696482D01*
X97834260Y-67703000D01*
X97745740Y-67703000D01*
X97679558Y-67696482D01*
X97613373Y-67689963D01*
X97443534Y-67638443D01*
X97287009Y-67554778D01*
X97251271Y-67525448D01*
X97149814Y-67442186D01*
X97066552Y-67340729D01*
X97037222Y-67304991D01*
X96953557Y-67148466D01*
X96902037Y-66978627D01*
X96884641Y-66802000D01*
X96902037Y-66625373D01*
X96953557Y-66455534D01*
X97037222Y-66299009D01*
X97066552Y-66263271D01*
X97149814Y-66161814D01*
X97251271Y-66078552D01*
X97287009Y-66049222D01*
X97443534Y-65965557D01*
X97613373Y-65914037D01*
X97679557Y-65907519D01*
X97745740Y-65901000D01*
X97834260Y-65901000D01*
X97900443Y-65907519D01*
X97900443Y-65907519D01*
G37*
G36*
X100440443Y-65907519D02*
G01*
X100506627Y-65914037D01*
X100676466Y-65965557D01*
X100832991Y-66049222D01*
X100868729Y-66078552D01*
X100970186Y-66161814D01*
X101053448Y-66263271D01*
X101082778Y-66299009D01*
X101166443Y-66455534D01*
X101217963Y-66625373D01*
X101235359Y-66802000D01*
X101217963Y-66978627D01*
X101166443Y-67148466D01*
X101082778Y-67304991D01*
X101053448Y-67340729D01*
X100970186Y-67442186D01*
X100868729Y-67525448D01*
X100832991Y-67554778D01*
X100676466Y-67638443D01*
X100506627Y-67689963D01*
X100440442Y-67696482D01*
X100374260Y-67703000D01*
X100285740Y-67703000D01*
X100219558Y-67696482D01*
X100153373Y-67689963D01*
X99983534Y-67638443D01*
X99827009Y-67554778D01*
X99791271Y-67525448D01*
X99689814Y-67442186D01*
X99606552Y-67340729D01*
X99577222Y-67304991D01*
X99493557Y-67148466D01*
X99442037Y-66978627D01*
X99424641Y-66802000D01*
X99442037Y-66625373D01*
X99493557Y-66455534D01*
X99577222Y-66299009D01*
X99606552Y-66263271D01*
X99689814Y-66161814D01*
X99791271Y-66078552D01*
X99827009Y-66049222D01*
X99983534Y-65965557D01*
X100153373Y-65914037D01*
X100219557Y-65907519D01*
X100285740Y-65901000D01*
X100374260Y-65901000D01*
X100440443Y-65907519D01*
X100440443Y-65907519D01*
G37*
G36*
X71230443Y-65907519D02*
G01*
X71296627Y-65914037D01*
X71466466Y-65965557D01*
X71622991Y-66049222D01*
X71658729Y-66078552D01*
X71760186Y-66161814D01*
X71843448Y-66263271D01*
X71872778Y-66299009D01*
X71956443Y-66455534D01*
X72007963Y-66625373D01*
X72025359Y-66802000D01*
X72007963Y-66978627D01*
X71956443Y-67148466D01*
X71872778Y-67304991D01*
X71843448Y-67340729D01*
X71760186Y-67442186D01*
X71658729Y-67525448D01*
X71622991Y-67554778D01*
X71466466Y-67638443D01*
X71296627Y-67689963D01*
X71230442Y-67696482D01*
X71164260Y-67703000D01*
X71075740Y-67703000D01*
X71009558Y-67696482D01*
X70943373Y-67689963D01*
X70773534Y-67638443D01*
X70617009Y-67554778D01*
X70581271Y-67525448D01*
X70479814Y-67442186D01*
X70396552Y-67340729D01*
X70367222Y-67304991D01*
X70283557Y-67148466D01*
X70232037Y-66978627D01*
X70214641Y-66802000D01*
X70232037Y-66625373D01*
X70283557Y-66455534D01*
X70367222Y-66299009D01*
X70396552Y-66263271D01*
X70479814Y-66161814D01*
X70581271Y-66078552D01*
X70617009Y-66049222D01*
X70773534Y-65965557D01*
X70943373Y-65914037D01*
X71009557Y-65907519D01*
X71075740Y-65901000D01*
X71164260Y-65901000D01*
X71230443Y-65907519D01*
X71230443Y-65907519D01*
G37*
G36*
X73770443Y-65907519D02*
G01*
X73836627Y-65914037D01*
X74006466Y-65965557D01*
X74162991Y-66049222D01*
X74198729Y-66078552D01*
X74300186Y-66161814D01*
X74383448Y-66263271D01*
X74412778Y-66299009D01*
X74496443Y-66455534D01*
X74547963Y-66625373D01*
X74565359Y-66802000D01*
X74547963Y-66978627D01*
X74496443Y-67148466D01*
X74412778Y-67304991D01*
X74383448Y-67340729D01*
X74300186Y-67442186D01*
X74198729Y-67525448D01*
X74162991Y-67554778D01*
X74006466Y-67638443D01*
X73836627Y-67689963D01*
X73770442Y-67696482D01*
X73704260Y-67703000D01*
X73615740Y-67703000D01*
X73549558Y-67696482D01*
X73483373Y-67689963D01*
X73313534Y-67638443D01*
X73157009Y-67554778D01*
X73121271Y-67525448D01*
X73019814Y-67442186D01*
X72936552Y-67340729D01*
X72907222Y-67304991D01*
X72823557Y-67148466D01*
X72772037Y-66978627D01*
X72754641Y-66802000D01*
X72772037Y-66625373D01*
X72823557Y-66455534D01*
X72907222Y-66299009D01*
X72936552Y-66263271D01*
X73019814Y-66161814D01*
X73121271Y-66078552D01*
X73157009Y-66049222D01*
X73313534Y-65965557D01*
X73483373Y-65914037D01*
X73549557Y-65907519D01*
X73615740Y-65901000D01*
X73704260Y-65901000D01*
X73770443Y-65907519D01*
X73770443Y-65907519D01*
G37*
G36*
X76310443Y-65907519D02*
G01*
X76376627Y-65914037D01*
X76546466Y-65965557D01*
X76702991Y-66049222D01*
X76738729Y-66078552D01*
X76840186Y-66161814D01*
X76923448Y-66263271D01*
X76952778Y-66299009D01*
X77036443Y-66455534D01*
X77087963Y-66625373D01*
X77105359Y-66802000D01*
X77087963Y-66978627D01*
X77036443Y-67148466D01*
X76952778Y-67304991D01*
X76923448Y-67340729D01*
X76840186Y-67442186D01*
X76738729Y-67525448D01*
X76702991Y-67554778D01*
X76546466Y-67638443D01*
X76376627Y-67689963D01*
X76310442Y-67696482D01*
X76244260Y-67703000D01*
X76155740Y-67703000D01*
X76089558Y-67696482D01*
X76023373Y-67689963D01*
X75853534Y-67638443D01*
X75697009Y-67554778D01*
X75661271Y-67525448D01*
X75559814Y-67442186D01*
X75476552Y-67340729D01*
X75447222Y-67304991D01*
X75363557Y-67148466D01*
X75312037Y-66978627D01*
X75294641Y-66802000D01*
X75312037Y-66625373D01*
X75363557Y-66455534D01*
X75447222Y-66299009D01*
X75476552Y-66263271D01*
X75559814Y-66161814D01*
X75661271Y-66078552D01*
X75697009Y-66049222D01*
X75853534Y-65965557D01*
X76023373Y-65914037D01*
X76089557Y-65907519D01*
X76155740Y-65901000D01*
X76244260Y-65901000D01*
X76310443Y-65907519D01*
X76310443Y-65907519D01*
G37*
G36*
X78850443Y-65907519D02*
G01*
X78916627Y-65914037D01*
X79086466Y-65965557D01*
X79242991Y-66049222D01*
X79278729Y-66078552D01*
X79380186Y-66161814D01*
X79463448Y-66263271D01*
X79492778Y-66299009D01*
X79576443Y-66455534D01*
X79627963Y-66625373D01*
X79645359Y-66802000D01*
X79627963Y-66978627D01*
X79576443Y-67148466D01*
X79492778Y-67304991D01*
X79463448Y-67340729D01*
X79380186Y-67442186D01*
X79278729Y-67525448D01*
X79242991Y-67554778D01*
X79086466Y-67638443D01*
X78916627Y-67689963D01*
X78850442Y-67696482D01*
X78784260Y-67703000D01*
X78695740Y-67703000D01*
X78629558Y-67696482D01*
X78563373Y-67689963D01*
X78393534Y-67638443D01*
X78237009Y-67554778D01*
X78201271Y-67525448D01*
X78099814Y-67442186D01*
X78016552Y-67340729D01*
X77987222Y-67304991D01*
X77903557Y-67148466D01*
X77852037Y-66978627D01*
X77834641Y-66802000D01*
X77852037Y-66625373D01*
X77903557Y-66455534D01*
X77987222Y-66299009D01*
X78016552Y-66263271D01*
X78099814Y-66161814D01*
X78201271Y-66078552D01*
X78237009Y-66049222D01*
X78393534Y-65965557D01*
X78563373Y-65914037D01*
X78629557Y-65907519D01*
X78695740Y-65901000D01*
X78784260Y-65901000D01*
X78850443Y-65907519D01*
X78850443Y-65907519D01*
G37*
G36*
X81390443Y-65907519D02*
G01*
X81456627Y-65914037D01*
X81626466Y-65965557D01*
X81782991Y-66049222D01*
X81818729Y-66078552D01*
X81920186Y-66161814D01*
X82003448Y-66263271D01*
X82032778Y-66299009D01*
X82116443Y-66455534D01*
X82167963Y-66625373D01*
X82185359Y-66802000D01*
X82167963Y-66978627D01*
X82116443Y-67148466D01*
X82032778Y-67304991D01*
X82003448Y-67340729D01*
X81920186Y-67442186D01*
X81818729Y-67525448D01*
X81782991Y-67554778D01*
X81626466Y-67638443D01*
X81456627Y-67689963D01*
X81390442Y-67696482D01*
X81324260Y-67703000D01*
X81235740Y-67703000D01*
X81169558Y-67696482D01*
X81103373Y-67689963D01*
X80933534Y-67638443D01*
X80777009Y-67554778D01*
X80741271Y-67525448D01*
X80639814Y-67442186D01*
X80556552Y-67340729D01*
X80527222Y-67304991D01*
X80443557Y-67148466D01*
X80392037Y-66978627D01*
X80374641Y-66802000D01*
X80392037Y-66625373D01*
X80443557Y-66455534D01*
X80527222Y-66299009D01*
X80556552Y-66263271D01*
X80639814Y-66161814D01*
X80741271Y-66078552D01*
X80777009Y-66049222D01*
X80933534Y-65965557D01*
X81103373Y-65914037D01*
X81169557Y-65907519D01*
X81235740Y-65901000D01*
X81324260Y-65901000D01*
X81390443Y-65907519D01*
X81390443Y-65907519D01*
G37*
G36*
X95360443Y-65907519D02*
G01*
X95426627Y-65914037D01*
X95596466Y-65965557D01*
X95752991Y-66049222D01*
X95788729Y-66078552D01*
X95890186Y-66161814D01*
X95973448Y-66263271D01*
X96002778Y-66299009D01*
X96086443Y-66455534D01*
X96137963Y-66625373D01*
X96155359Y-66802000D01*
X96137963Y-66978627D01*
X96086443Y-67148466D01*
X96002778Y-67304991D01*
X95973448Y-67340729D01*
X95890186Y-67442186D01*
X95788729Y-67525448D01*
X95752991Y-67554778D01*
X95596466Y-67638443D01*
X95426627Y-67689963D01*
X95360442Y-67696482D01*
X95294260Y-67703000D01*
X95205740Y-67703000D01*
X95139558Y-67696482D01*
X95073373Y-67689963D01*
X94903534Y-67638443D01*
X94747009Y-67554778D01*
X94711271Y-67525448D01*
X94609814Y-67442186D01*
X94526552Y-67340729D01*
X94497222Y-67304991D01*
X94413557Y-67148466D01*
X94362037Y-66978627D01*
X94344641Y-66802000D01*
X94362037Y-66625373D01*
X94413557Y-66455534D01*
X94497222Y-66299009D01*
X94526552Y-66263271D01*
X94609814Y-66161814D01*
X94711271Y-66078552D01*
X94747009Y-66049222D01*
X94903534Y-65965557D01*
X95073373Y-65914037D01*
X95139557Y-65907519D01*
X95205740Y-65901000D01*
X95294260Y-65901000D01*
X95360443Y-65907519D01*
X95360443Y-65907519D01*
G37*
G36*
X68690443Y-65907519D02*
G01*
X68756627Y-65914037D01*
X68926466Y-65965557D01*
X69082991Y-66049222D01*
X69118729Y-66078552D01*
X69220186Y-66161814D01*
X69303448Y-66263271D01*
X69332778Y-66299009D01*
X69416443Y-66455534D01*
X69467963Y-66625373D01*
X69485359Y-66802000D01*
X69467963Y-66978627D01*
X69416443Y-67148466D01*
X69332778Y-67304991D01*
X69303448Y-67340729D01*
X69220186Y-67442186D01*
X69118729Y-67525448D01*
X69082991Y-67554778D01*
X68926466Y-67638443D01*
X68756627Y-67689963D01*
X68690442Y-67696482D01*
X68624260Y-67703000D01*
X68535740Y-67703000D01*
X68469558Y-67696482D01*
X68403373Y-67689963D01*
X68233534Y-67638443D01*
X68077009Y-67554778D01*
X68041271Y-67525448D01*
X67939814Y-67442186D01*
X67856552Y-67340729D01*
X67827222Y-67304991D01*
X67743557Y-67148466D01*
X67692037Y-66978627D01*
X67674641Y-66802000D01*
X67692037Y-66625373D01*
X67743557Y-66455534D01*
X67827222Y-66299009D01*
X67856552Y-66263271D01*
X67939814Y-66161814D01*
X68041271Y-66078552D01*
X68077009Y-66049222D01*
X68233534Y-65965557D01*
X68403373Y-65914037D01*
X68469557Y-65907519D01*
X68535740Y-65901000D01*
X68624260Y-65901000D01*
X68690443Y-65907519D01*
X68690443Y-65907519D01*
G37*
G36*
X82181000Y-65163000D02*
G01*
X80379000Y-65163000D01*
X80379000Y-63361000D01*
X82181000Y-63361000D01*
X82181000Y-65163000D01*
X82181000Y-65163000D01*
G37*
G36*
X78850442Y-63367518D02*
G01*
X78916627Y-63374037D01*
X79086466Y-63425557D01*
X79242991Y-63509222D01*
X79278729Y-63538552D01*
X79380186Y-63621814D01*
X79463448Y-63723271D01*
X79492778Y-63759009D01*
X79576443Y-63915534D01*
X79627963Y-64085373D01*
X79645359Y-64262000D01*
X79627963Y-64438627D01*
X79576443Y-64608466D01*
X79492778Y-64764991D01*
X79463448Y-64800729D01*
X79380186Y-64902186D01*
X79278729Y-64985448D01*
X79242991Y-65014778D01*
X79086466Y-65098443D01*
X78916627Y-65149963D01*
X78850443Y-65156481D01*
X78784260Y-65163000D01*
X78695740Y-65163000D01*
X78629557Y-65156481D01*
X78563373Y-65149963D01*
X78393534Y-65098443D01*
X78237009Y-65014778D01*
X78201271Y-64985448D01*
X78099814Y-64902186D01*
X78016552Y-64800729D01*
X77987222Y-64764991D01*
X77903557Y-64608466D01*
X77852037Y-64438627D01*
X77834641Y-64262000D01*
X77852037Y-64085373D01*
X77903557Y-63915534D01*
X77987222Y-63759009D01*
X78016552Y-63723271D01*
X78099814Y-63621814D01*
X78201271Y-63538552D01*
X78237009Y-63509222D01*
X78393534Y-63425557D01*
X78563373Y-63374037D01*
X78629558Y-63367518D01*
X78695740Y-63361000D01*
X78784260Y-63361000D01*
X78850442Y-63367518D01*
X78850442Y-63367518D01*
G37*
G36*
X76310442Y-63367518D02*
G01*
X76376627Y-63374037D01*
X76546466Y-63425557D01*
X76702991Y-63509222D01*
X76738729Y-63538552D01*
X76840186Y-63621814D01*
X76923448Y-63723271D01*
X76952778Y-63759009D01*
X77036443Y-63915534D01*
X77087963Y-64085373D01*
X77105359Y-64262000D01*
X77087963Y-64438627D01*
X77036443Y-64608466D01*
X76952778Y-64764991D01*
X76923448Y-64800729D01*
X76840186Y-64902186D01*
X76738729Y-64985448D01*
X76702991Y-65014778D01*
X76546466Y-65098443D01*
X76376627Y-65149963D01*
X76310443Y-65156481D01*
X76244260Y-65163000D01*
X76155740Y-65163000D01*
X76089557Y-65156481D01*
X76023373Y-65149963D01*
X75853534Y-65098443D01*
X75697009Y-65014778D01*
X75661271Y-64985448D01*
X75559814Y-64902186D01*
X75476552Y-64800729D01*
X75447222Y-64764991D01*
X75363557Y-64608466D01*
X75312037Y-64438627D01*
X75294641Y-64262000D01*
X75312037Y-64085373D01*
X75363557Y-63915534D01*
X75447222Y-63759009D01*
X75476552Y-63723271D01*
X75559814Y-63621814D01*
X75661271Y-63538552D01*
X75697009Y-63509222D01*
X75853534Y-63425557D01*
X76023373Y-63374037D01*
X76089558Y-63367518D01*
X76155740Y-63361000D01*
X76244260Y-63361000D01*
X76310442Y-63367518D01*
X76310442Y-63367518D01*
G37*
G36*
X97900442Y-63367518D02*
G01*
X97966627Y-63374037D01*
X98136466Y-63425557D01*
X98292991Y-63509222D01*
X98328729Y-63538552D01*
X98430186Y-63621814D01*
X98513448Y-63723271D01*
X98542778Y-63759009D01*
X98626443Y-63915534D01*
X98677963Y-64085373D01*
X98695359Y-64262000D01*
X98677963Y-64438627D01*
X98626443Y-64608466D01*
X98542778Y-64764991D01*
X98513448Y-64800729D01*
X98430186Y-64902186D01*
X98328729Y-64985448D01*
X98292991Y-65014778D01*
X98136466Y-65098443D01*
X97966627Y-65149963D01*
X97900443Y-65156481D01*
X97834260Y-65163000D01*
X97745740Y-65163000D01*
X97679557Y-65156481D01*
X97613373Y-65149963D01*
X97443534Y-65098443D01*
X97287009Y-65014778D01*
X97251271Y-64985448D01*
X97149814Y-64902186D01*
X97066552Y-64800729D01*
X97037222Y-64764991D01*
X96953557Y-64608466D01*
X96902037Y-64438627D01*
X96884641Y-64262000D01*
X96902037Y-64085373D01*
X96953557Y-63915534D01*
X97037222Y-63759009D01*
X97066552Y-63723271D01*
X97149814Y-63621814D01*
X97251271Y-63538552D01*
X97287009Y-63509222D01*
X97443534Y-63425557D01*
X97613373Y-63374037D01*
X97679558Y-63367518D01*
X97745740Y-63361000D01*
X97834260Y-63361000D01*
X97900442Y-63367518D01*
X97900442Y-63367518D01*
G37*
G36*
X73770442Y-63367518D02*
G01*
X73836627Y-63374037D01*
X74006466Y-63425557D01*
X74162991Y-63509222D01*
X74198729Y-63538552D01*
X74300186Y-63621814D01*
X74383448Y-63723271D01*
X74412778Y-63759009D01*
X74496443Y-63915534D01*
X74547963Y-64085373D01*
X74565359Y-64262000D01*
X74547963Y-64438627D01*
X74496443Y-64608466D01*
X74412778Y-64764991D01*
X74383448Y-64800729D01*
X74300186Y-64902186D01*
X74198729Y-64985448D01*
X74162991Y-65014778D01*
X74006466Y-65098443D01*
X73836627Y-65149963D01*
X73770443Y-65156481D01*
X73704260Y-65163000D01*
X73615740Y-65163000D01*
X73549557Y-65156481D01*
X73483373Y-65149963D01*
X73313534Y-65098443D01*
X73157009Y-65014778D01*
X73121271Y-64985448D01*
X73019814Y-64902186D01*
X72936552Y-64800729D01*
X72907222Y-64764991D01*
X72823557Y-64608466D01*
X72772037Y-64438627D01*
X72754641Y-64262000D01*
X72772037Y-64085373D01*
X72823557Y-63915534D01*
X72907222Y-63759009D01*
X72936552Y-63723271D01*
X73019814Y-63621814D01*
X73121271Y-63538552D01*
X73157009Y-63509222D01*
X73313534Y-63425557D01*
X73483373Y-63374037D01*
X73549558Y-63367518D01*
X73615740Y-63361000D01*
X73704260Y-63361000D01*
X73770442Y-63367518D01*
X73770442Y-63367518D01*
G37*
G36*
X95360442Y-63367518D02*
G01*
X95426627Y-63374037D01*
X95596466Y-63425557D01*
X95752991Y-63509222D01*
X95788729Y-63538552D01*
X95890186Y-63621814D01*
X95973448Y-63723271D01*
X96002778Y-63759009D01*
X96086443Y-63915534D01*
X96137963Y-64085373D01*
X96155359Y-64262000D01*
X96137963Y-64438627D01*
X96086443Y-64608466D01*
X96002778Y-64764991D01*
X95973448Y-64800729D01*
X95890186Y-64902186D01*
X95788729Y-64985448D01*
X95752991Y-65014778D01*
X95596466Y-65098443D01*
X95426627Y-65149963D01*
X95360443Y-65156481D01*
X95294260Y-65163000D01*
X95205740Y-65163000D01*
X95139557Y-65156481D01*
X95073373Y-65149963D01*
X94903534Y-65098443D01*
X94747009Y-65014778D01*
X94711271Y-64985448D01*
X94609814Y-64902186D01*
X94526552Y-64800729D01*
X94497222Y-64764991D01*
X94413557Y-64608466D01*
X94362037Y-64438627D01*
X94344641Y-64262000D01*
X94362037Y-64085373D01*
X94413557Y-63915534D01*
X94497222Y-63759009D01*
X94526552Y-63723271D01*
X94609814Y-63621814D01*
X94711271Y-63538552D01*
X94747009Y-63509222D01*
X94903534Y-63425557D01*
X95073373Y-63374037D01*
X95139558Y-63367518D01*
X95205740Y-63361000D01*
X95294260Y-63361000D01*
X95360442Y-63367518D01*
X95360442Y-63367518D01*
G37*
G36*
X71230442Y-63367518D02*
G01*
X71296627Y-63374037D01*
X71466466Y-63425557D01*
X71622991Y-63509222D01*
X71658729Y-63538552D01*
X71760186Y-63621814D01*
X71843448Y-63723271D01*
X71872778Y-63759009D01*
X71956443Y-63915534D01*
X72007963Y-64085373D01*
X72025359Y-64262000D01*
X72007963Y-64438627D01*
X71956443Y-64608466D01*
X71872778Y-64764991D01*
X71843448Y-64800729D01*
X71760186Y-64902186D01*
X71658729Y-64985448D01*
X71622991Y-65014778D01*
X71466466Y-65098443D01*
X71296627Y-65149963D01*
X71230443Y-65156481D01*
X71164260Y-65163000D01*
X71075740Y-65163000D01*
X71009557Y-65156481D01*
X70943373Y-65149963D01*
X70773534Y-65098443D01*
X70617009Y-65014778D01*
X70581271Y-64985448D01*
X70479814Y-64902186D01*
X70396552Y-64800729D01*
X70367222Y-64764991D01*
X70283557Y-64608466D01*
X70232037Y-64438627D01*
X70214641Y-64262000D01*
X70232037Y-64085373D01*
X70283557Y-63915534D01*
X70367222Y-63759009D01*
X70396552Y-63723271D01*
X70479814Y-63621814D01*
X70581271Y-63538552D01*
X70617009Y-63509222D01*
X70773534Y-63425557D01*
X70943373Y-63374037D01*
X71009558Y-63367518D01*
X71075740Y-63361000D01*
X71164260Y-63361000D01*
X71230442Y-63367518D01*
X71230442Y-63367518D01*
G37*
G36*
X92820442Y-63367518D02*
G01*
X92886627Y-63374037D01*
X93056466Y-63425557D01*
X93212991Y-63509222D01*
X93248729Y-63538552D01*
X93350186Y-63621814D01*
X93433448Y-63723271D01*
X93462778Y-63759009D01*
X93546443Y-63915534D01*
X93597963Y-64085373D01*
X93615359Y-64262000D01*
X93597963Y-64438627D01*
X93546443Y-64608466D01*
X93462778Y-64764991D01*
X93433448Y-64800729D01*
X93350186Y-64902186D01*
X93248729Y-64985448D01*
X93212991Y-65014778D01*
X93056466Y-65098443D01*
X92886627Y-65149963D01*
X92820443Y-65156481D01*
X92754260Y-65163000D01*
X92665740Y-65163000D01*
X92599557Y-65156481D01*
X92533373Y-65149963D01*
X92363534Y-65098443D01*
X92207009Y-65014778D01*
X92171271Y-64985448D01*
X92069814Y-64902186D01*
X91986552Y-64800729D01*
X91957222Y-64764991D01*
X91873557Y-64608466D01*
X91822037Y-64438627D01*
X91804641Y-64262000D01*
X91822037Y-64085373D01*
X91873557Y-63915534D01*
X91957222Y-63759009D01*
X91986552Y-63723271D01*
X92069814Y-63621814D01*
X92171271Y-63538552D01*
X92207009Y-63509222D01*
X92363534Y-63425557D01*
X92533373Y-63374037D01*
X92599558Y-63367518D01*
X92665740Y-63361000D01*
X92754260Y-63361000D01*
X92820442Y-63367518D01*
X92820442Y-63367518D01*
G37*
G36*
X68690442Y-63367518D02*
G01*
X68756627Y-63374037D01*
X68926466Y-63425557D01*
X69082991Y-63509222D01*
X69118729Y-63538552D01*
X69220186Y-63621814D01*
X69303448Y-63723271D01*
X69332778Y-63759009D01*
X69416443Y-63915534D01*
X69467963Y-64085373D01*
X69485359Y-64262000D01*
X69467963Y-64438627D01*
X69416443Y-64608466D01*
X69332778Y-64764991D01*
X69303448Y-64800729D01*
X69220186Y-64902186D01*
X69118729Y-64985448D01*
X69082991Y-65014778D01*
X68926466Y-65098443D01*
X68756627Y-65149963D01*
X68690443Y-65156481D01*
X68624260Y-65163000D01*
X68535740Y-65163000D01*
X68469557Y-65156481D01*
X68403373Y-65149963D01*
X68233534Y-65098443D01*
X68077009Y-65014778D01*
X68041271Y-64985448D01*
X67939814Y-64902186D01*
X67856552Y-64800729D01*
X67827222Y-64764991D01*
X67743557Y-64608466D01*
X67692037Y-64438627D01*
X67674641Y-64262000D01*
X67692037Y-64085373D01*
X67743557Y-63915534D01*
X67827222Y-63759009D01*
X67856552Y-63723271D01*
X67939814Y-63621814D01*
X68041271Y-63538552D01*
X68077009Y-63509222D01*
X68233534Y-63425557D01*
X68403373Y-63374037D01*
X68469558Y-63367518D01*
X68535740Y-63361000D01*
X68624260Y-63361000D01*
X68690442Y-63367518D01*
X68690442Y-63367518D01*
G37*
G36*
X90280442Y-63367518D02*
G01*
X90346627Y-63374037D01*
X90516466Y-63425557D01*
X90672991Y-63509222D01*
X90708729Y-63538552D01*
X90810186Y-63621814D01*
X90893448Y-63723271D01*
X90922778Y-63759009D01*
X91006443Y-63915534D01*
X91057963Y-64085373D01*
X91075359Y-64262000D01*
X91057963Y-64438627D01*
X91006443Y-64608466D01*
X90922778Y-64764991D01*
X90893448Y-64800729D01*
X90810186Y-64902186D01*
X90708729Y-64985448D01*
X90672991Y-65014778D01*
X90516466Y-65098443D01*
X90346627Y-65149963D01*
X90280443Y-65156481D01*
X90214260Y-65163000D01*
X90125740Y-65163000D01*
X90059557Y-65156481D01*
X89993373Y-65149963D01*
X89823534Y-65098443D01*
X89667009Y-65014778D01*
X89631271Y-64985448D01*
X89529814Y-64902186D01*
X89446552Y-64800729D01*
X89417222Y-64764991D01*
X89333557Y-64608466D01*
X89282037Y-64438627D01*
X89264641Y-64262000D01*
X89282037Y-64085373D01*
X89333557Y-63915534D01*
X89417222Y-63759009D01*
X89446552Y-63723271D01*
X89529814Y-63621814D01*
X89631271Y-63538552D01*
X89667009Y-63509222D01*
X89823534Y-63425557D01*
X89993373Y-63374037D01*
X90059558Y-63367518D01*
X90125740Y-63361000D01*
X90214260Y-63361000D01*
X90280442Y-63367518D01*
X90280442Y-63367518D01*
G37*
G36*
X87740442Y-63367518D02*
G01*
X87806627Y-63374037D01*
X87976466Y-63425557D01*
X88132991Y-63509222D01*
X88168729Y-63538552D01*
X88270186Y-63621814D01*
X88353448Y-63723271D01*
X88382778Y-63759009D01*
X88466443Y-63915534D01*
X88517963Y-64085373D01*
X88535359Y-64262000D01*
X88517963Y-64438627D01*
X88466443Y-64608466D01*
X88382778Y-64764991D01*
X88353448Y-64800729D01*
X88270186Y-64902186D01*
X88168729Y-64985448D01*
X88132991Y-65014778D01*
X87976466Y-65098443D01*
X87806627Y-65149963D01*
X87740443Y-65156481D01*
X87674260Y-65163000D01*
X87585740Y-65163000D01*
X87519557Y-65156481D01*
X87453373Y-65149963D01*
X87283534Y-65098443D01*
X87127009Y-65014778D01*
X87091271Y-64985448D01*
X86989814Y-64902186D01*
X86906552Y-64800729D01*
X86877222Y-64764991D01*
X86793557Y-64608466D01*
X86742037Y-64438627D01*
X86724641Y-64262000D01*
X86742037Y-64085373D01*
X86793557Y-63915534D01*
X86877222Y-63759009D01*
X86906552Y-63723271D01*
X86989814Y-63621814D01*
X87091271Y-63538552D01*
X87127009Y-63509222D01*
X87283534Y-63425557D01*
X87453373Y-63374037D01*
X87519558Y-63367518D01*
X87585740Y-63361000D01*
X87674260Y-63361000D01*
X87740442Y-63367518D01*
X87740442Y-63367518D01*
G37*
G36*
X101231000Y-65163000D02*
G01*
X99429000Y-65163000D01*
X99429000Y-63361000D01*
X101231000Y-63361000D01*
X101231000Y-65163000D01*
X101231000Y-65163000D01*
G37*
M02*
