M48
; DRILL file {KiCad 5.1.4-e60b266~84~ubuntu19.04.1} date Sun 26 Jan 2020 15:48:06 AEDT
; FORMAT={-:-/ absolute / inch / decimal}
; #@! TF.CreationDate,2020-01-26T15:48:06+11:00
; #@! TF.GenerationSoftware,Kicad,Pcbnew,5.1.4-e60b266~84~ubuntu19.04.1
FMAT,2
INCH
T1C0.0157
T2C0.0315
T3C0.0394
%
G90
G05
T1
X2.625Y-3.02
X2.8071Y-2.7071
X2.8071Y-2.7571
X2.8696Y-3.5867
X2.875Y-3.02
X2.95Y-2.925
X2.96Y-3.32
X2.96Y-3.36
X2.975Y-3.525
X3.09Y-3.485
X3.135Y-3.485
X3.225Y-2.825
X3.225Y-3.605
X3.375Y-3.375
X3.45Y-3.05
X3.525Y-3.0
X3.6Y-2.825
X3.7598Y-3.0221
X3.7761Y-2.7239
X3.8725Y-2.7525
X4.0198Y-3.0221
T2
X3.65Y-3.675
X3.65Y-3.775
X3.95Y-3.675
X3.95Y-3.775
T3
X3.84Y-3.23
X3.94Y-3.23
X3.54Y-3.425
X3.64Y-3.425
X3.74Y-3.425
X3.84Y-3.425
X3.94Y-3.425
X3.45Y-2.53
X3.45Y-2.63
X3.55Y-2.53
X3.55Y-2.63
X3.65Y-2.53
X3.65Y-2.63
X3.75Y-2.53
X3.75Y-2.63
X3.85Y-2.53
X3.85Y-2.63
X3.95Y-2.53
X3.95Y-2.63
X2.7Y-2.53
X2.7Y-2.63
X2.8Y-2.53
X2.8Y-2.63
X2.9Y-2.53
X2.9Y-2.63
X3.0Y-2.53
X3.0Y-2.63
X3.1Y-2.53
X3.1Y-2.63
X3.2Y-2.53
X3.2Y-2.63
X2.7Y-3.23
X2.8Y-3.23
T0
M30
