G04 #@! TF.GenerationSoftware,KiCad,Pcbnew,5.1.5+dfsg1-2build2*
G04 #@! TF.CreationDate,2020-08-12T21:27:30+10:00*
G04 #@! TF.ProjectId,sid-board-v3_blocklayout,7369642d-626f-4617-9264-2d76335f626c,rev?*
G04 #@! TF.SameCoordinates,Original*
G04 #@! TF.FileFunction,Legend,Top*
G04 #@! TF.FilePolarity,Positive*
%FSLAX46Y46*%
G04 Gerber Fmt 4.6, Leading zero omitted, Abs format (unit mm)*
G04 Created by KiCad (PCBNEW 5.1.5+dfsg1-2build2) date 2020-08-12 21:27:30*
%MOMM*%
%LPD*%
G04 APERTURE LIST*
%ADD10C,0.120000*%
%ADD11C,0.100000*%
%ADD12C,0.150000*%
%ADD13C,0.200000*%
%ADD14C,0.125000*%
G04 APERTURE END LIST*
D10*
X126880252Y-103684000D02*
X126357748Y-103684000D01*
X126880252Y-105104000D02*
X126357748Y-105104000D01*
D11*
G36*
X138430000Y-75438000D02*
G01*
X137541000Y-75438000D01*
X137541000Y-74549000D01*
X138430000Y-74549000D01*
X138430000Y-75438000D01*
G37*
X138430000Y-75438000D02*
X137541000Y-75438000D01*
X137541000Y-74549000D01*
X138430000Y-74549000D01*
X138430000Y-75438000D01*
G36*
X139700000Y-75438000D02*
G01*
X138811000Y-75438000D01*
X138811000Y-74549000D01*
X139700000Y-74549000D01*
X139700000Y-75438000D01*
G37*
X139700000Y-75438000D02*
X138811000Y-75438000D01*
X138811000Y-74549000D01*
X139700000Y-74549000D01*
X139700000Y-75438000D01*
G36*
X139700000Y-74168000D02*
G01*
X138811000Y-74168000D01*
X138811000Y-73279000D01*
X139700000Y-73279000D01*
X139700000Y-74168000D01*
G37*
X139700000Y-74168000D02*
X138811000Y-74168000D01*
X138811000Y-73279000D01*
X139700000Y-73279000D01*
X139700000Y-74168000D01*
G36*
X135890000Y-74168000D02*
G01*
X135001000Y-74168000D01*
X135001000Y-73279000D01*
X135890000Y-73279000D01*
X135890000Y-74168000D01*
G37*
X135890000Y-74168000D02*
X135001000Y-74168000D01*
X135001000Y-73279000D01*
X135890000Y-73279000D01*
X135890000Y-74168000D01*
G36*
X134620000Y-75438000D02*
G01*
X133731000Y-75438000D01*
X133731000Y-74549000D01*
X134620000Y-74549000D01*
X134620000Y-75438000D01*
G37*
X134620000Y-75438000D02*
X133731000Y-75438000D01*
X133731000Y-74549000D01*
X134620000Y-74549000D01*
X134620000Y-75438000D01*
G36*
X133350000Y-75438000D02*
G01*
X132461000Y-75438000D01*
X132461000Y-74549000D01*
X133350000Y-74549000D01*
X133350000Y-75438000D01*
G37*
X133350000Y-75438000D02*
X132461000Y-75438000D01*
X132461000Y-74549000D01*
X133350000Y-74549000D01*
X133350000Y-75438000D01*
D10*
X138620500Y-75628500D02*
X138620500Y-74358500D01*
X138620500Y-74358500D02*
X138620500Y-73088500D01*
X137350500Y-74358500D02*
X137350500Y-75628500D01*
X137350500Y-73088500D02*
X137350500Y-74358500D01*
X136080500Y-74358500D02*
X136080500Y-75628500D01*
X136080500Y-73088500D02*
X136080500Y-74358500D01*
X134810500Y-73088500D02*
X134810500Y-74358500D01*
X134810500Y-74358500D02*
X134810500Y-75628500D01*
X133540500Y-75628500D02*
X133540500Y-73088500D01*
X132270500Y-74358500D02*
X139890500Y-74358500D01*
X132270500Y-73088500D02*
X139890500Y-73088500D01*
X132270500Y-75628500D02*
X132270500Y-73088500D01*
X139890500Y-75628500D02*
X132270500Y-75628500D01*
X139890500Y-73088500D02*
X139890500Y-75628500D01*
X148082000Y-73088500D02*
X148082000Y-72771000D01*
X147634000Y-73088500D02*
X148082000Y-73088500D01*
X148082000Y-66294000D02*
X148082000Y-72771000D01*
X147634000Y-66294000D02*
X148082000Y-66294000D01*
X147634000Y-67885000D02*
X147634000Y-66294000D01*
X147634000Y-67885000D02*
X147634000Y-69215000D01*
X146304000Y-67885000D02*
X147634000Y-67885000D01*
X147634000Y-70485000D02*
X147634000Y-73085000D01*
X145034000Y-70485000D02*
X147634000Y-70485000D01*
X145034000Y-67885000D02*
X145034000Y-70485000D01*
X147634000Y-73085000D02*
X132274000Y-73085000D01*
X145034000Y-67885000D02*
X132274000Y-67885000D01*
X132274000Y-67885000D02*
X132274000Y-73085000D01*
D11*
G36*
X157226000Y-75438000D02*
G01*
X156337000Y-75438000D01*
X156337000Y-74549000D01*
X157226000Y-74549000D01*
X157226000Y-75438000D01*
G37*
X157226000Y-75438000D02*
X156337000Y-75438000D01*
X156337000Y-74549000D01*
X157226000Y-74549000D01*
X157226000Y-75438000D01*
G36*
X158496000Y-75438000D02*
G01*
X157607000Y-75438000D01*
X157607000Y-74549000D01*
X158496000Y-74549000D01*
X158496000Y-75438000D01*
G37*
X158496000Y-75438000D02*
X157607000Y-75438000D01*
X157607000Y-74549000D01*
X158496000Y-74549000D01*
X158496000Y-75438000D01*
G36*
X158496000Y-74168000D02*
G01*
X157607000Y-74168000D01*
X157607000Y-73279000D01*
X158496000Y-73279000D01*
X158496000Y-74168000D01*
G37*
X158496000Y-74168000D02*
X157607000Y-74168000D01*
X157607000Y-73279000D01*
X158496000Y-73279000D01*
X158496000Y-74168000D01*
G36*
X154686000Y-74168000D02*
G01*
X153797000Y-74168000D01*
X153797000Y-73279000D01*
X154686000Y-73279000D01*
X154686000Y-74168000D01*
G37*
X154686000Y-74168000D02*
X153797000Y-74168000D01*
X153797000Y-73279000D01*
X154686000Y-73279000D01*
X154686000Y-74168000D01*
G36*
X153416000Y-75438000D02*
G01*
X152527000Y-75438000D01*
X152527000Y-74549000D01*
X153416000Y-74549000D01*
X153416000Y-75438000D01*
G37*
X153416000Y-75438000D02*
X152527000Y-75438000D01*
X152527000Y-74549000D01*
X153416000Y-74549000D01*
X153416000Y-75438000D01*
G36*
X152146000Y-75438000D02*
G01*
X151257000Y-75438000D01*
X151257000Y-74549000D01*
X152146000Y-74549000D01*
X152146000Y-75438000D01*
G37*
X152146000Y-75438000D02*
X151257000Y-75438000D01*
X151257000Y-74549000D01*
X152146000Y-74549000D01*
X152146000Y-75438000D01*
D10*
X157416500Y-75628500D02*
X157416500Y-74358500D01*
X157416500Y-74358500D02*
X157416500Y-73088500D01*
X156146500Y-74358500D02*
X156146500Y-75628500D01*
X156146500Y-73088500D02*
X156146500Y-74358500D01*
X154876500Y-74358500D02*
X154876500Y-75628500D01*
X154876500Y-73088500D02*
X154876500Y-74358500D01*
X153606500Y-73088500D02*
X153606500Y-74358500D01*
X153606500Y-74358500D02*
X153606500Y-75628500D01*
X152336500Y-75628500D02*
X152336500Y-73088500D01*
X151066500Y-74358500D02*
X158686500Y-74358500D01*
X151066500Y-73088500D02*
X158686500Y-73088500D01*
X151066500Y-75628500D02*
X151066500Y-73088500D01*
X158686500Y-75628500D02*
X151066500Y-75628500D01*
X158686500Y-73088500D02*
X158686500Y-75628500D01*
X166878000Y-73088500D02*
X166878000Y-72771000D01*
X166430000Y-73088500D02*
X166878000Y-73088500D01*
X166878000Y-66294000D02*
X166878000Y-72771000D01*
X166430000Y-66294000D02*
X166878000Y-66294000D01*
X166430000Y-67885000D02*
X166430000Y-66294000D01*
X166430000Y-67885000D02*
X166430000Y-69215000D01*
X165100000Y-67885000D02*
X166430000Y-67885000D01*
X166430000Y-70485000D02*
X166430000Y-73085000D01*
X163830000Y-70485000D02*
X166430000Y-70485000D01*
X163830000Y-67885000D02*
X163830000Y-70485000D01*
X166430000Y-73085000D02*
X151070000Y-73085000D01*
X163830000Y-67885000D02*
X151070000Y-67885000D01*
X151070000Y-67885000D02*
X151070000Y-73085000D01*
X154230000Y-79001252D02*
X154230000Y-78478748D01*
X155650000Y-79001252D02*
X155650000Y-78478748D01*
X126357748Y-101294000D02*
X126880252Y-101294000D01*
X126357748Y-99874000D02*
X126880252Y-99874000D01*
X148392000Y-80944000D02*
X148392000Y-83804000D01*
X150312000Y-80944000D02*
X148392000Y-80944000D01*
X150312000Y-83804000D02*
X150312000Y-80944000D01*
X122285000Y-100640000D02*
X119425000Y-100640000D01*
X119425000Y-100640000D02*
X119425000Y-102560000D01*
X119425000Y-102560000D02*
X122285000Y-102560000D01*
X134168000Y-80944000D02*
X134168000Y-83804000D01*
X136088000Y-80944000D02*
X134168000Y-80944000D01*
X136088000Y-83804000D02*
X136088000Y-80944000D01*
X167867500Y-94918000D02*
X168317500Y-94918000D01*
X167867500Y-94918000D02*
X167867500Y-94468000D01*
X168417500Y-89318000D02*
X168417500Y-89768000D01*
X170267500Y-89318000D02*
X168417500Y-89318000D01*
X172817500Y-97118000D02*
X172567500Y-97118000D01*
X172817500Y-89318000D02*
X172567500Y-89318000D01*
X170267500Y-97118000D02*
X168417500Y-97118000D01*
X168417500Y-97118000D02*
X168417500Y-96668000D01*
X138120000Y-83804000D02*
X138120000Y-80944000D01*
X138120000Y-80944000D02*
X136200000Y-80944000D01*
X136200000Y-80944000D02*
X136200000Y-83804000D01*
X129078000Y-67744000D02*
X128578000Y-67744000D01*
X129078000Y-68484000D02*
X129078000Y-67744000D01*
X122385000Y-71621000D02*
X122432000Y-71575000D01*
X120088000Y-73919000D02*
X120123000Y-73883000D01*
X122192000Y-71405000D02*
X122227000Y-71370000D01*
X119883000Y-73713000D02*
X119930000Y-73667000D01*
X118558000Y-77905000D02*
X118558000Y-67984000D01*
X128838000Y-77905000D02*
X128838000Y-67984000D01*
X128838000Y-67984000D02*
X118558000Y-67984000D01*
X128838000Y-77905000D02*
X118558000Y-77905000D01*
X128838000Y-74945000D02*
X118558000Y-74945000D01*
X128838000Y-70044000D02*
X118558000Y-70044000D01*
X128838000Y-68544000D02*
X118558000Y-68544000D01*
X122838000Y-72644000D02*
G75*
G03X122838000Y-72644000I-1680000J0D01*
G01*
X126209195Y-70963747D02*
G75*
G02X126922000Y-71109000I28805J-1680253D01*
G01*
X127773426Y-71960958D02*
G75*
G02X127773000Y-73328000I-1535426J-683042D01*
G01*
X126921042Y-74179426D02*
G75*
G02X125554000Y-74179000I-683042J1535426D01*
G01*
X124702574Y-73327042D02*
G75*
G02X124703000Y-71960000I1535426J683042D01*
G01*
X125554682Y-71109244D02*
G75*
G02X126238000Y-70964000I683318J-1534756D01*
G01*
X151128000Y-98354000D02*
X149668000Y-98354000D01*
X151128000Y-95194000D02*
X148968000Y-95194000D01*
X151128000Y-95194000D02*
X151128000Y-96124000D01*
X151128000Y-98354000D02*
X151128000Y-97424000D01*
X146052000Y-95194000D02*
X146052000Y-96124000D01*
X146052000Y-98354000D02*
X146052000Y-97424000D01*
X146052000Y-98354000D02*
X148212000Y-98354000D01*
X146052000Y-95194000D02*
X147512000Y-95194000D01*
X126880252Y-108914000D02*
X126357748Y-108914000D01*
X126880252Y-107494000D02*
X126357748Y-107494000D01*
X158832000Y-103434000D02*
X155972000Y-103434000D01*
X158832000Y-105354000D02*
X158832000Y-103434000D01*
X155972000Y-105354000D02*
X158832000Y-105354000D01*
X156710748Y-105970000D02*
X157233252Y-105970000D01*
X156710748Y-107390000D02*
X157233252Y-107390000D01*
X161437000Y-77363000D02*
G75*
G03X161437000Y-77363000I-127000J0D01*
G01*
X161538600Y-77109000D02*
X161538600Y-80334800D01*
X156522100Y-77109000D02*
X161538600Y-77109000D01*
X156522100Y-80322100D02*
X156522100Y-77109000D01*
X161538600Y-80322100D02*
X156522100Y-80322100D01*
X126880252Y-103199000D02*
X126357748Y-103199000D01*
X126880252Y-101779000D02*
X126357748Y-101779000D01*
X129892000Y-118467000D02*
X129892000Y-118847000D01*
X129472000Y-118467000D02*
X129892000Y-118467000D01*
X129472000Y-100227000D02*
X129892000Y-100227000D01*
X129472000Y-118467000D02*
X129472000Y-100227000D01*
X148912000Y-100227000D02*
X148912000Y-101227000D01*
X148292000Y-100227000D02*
X148912000Y-100227000D01*
X148912000Y-118467000D02*
X148912000Y-117467000D01*
X148292000Y-118467000D02*
X148912000Y-118467000D01*
X159782000Y-105354000D02*
X162642000Y-105354000D01*
X162642000Y-105354000D02*
X162642000Y-103434000D01*
X162642000Y-103434000D02*
X159782000Y-103434000D01*
X160730000Y-93987252D02*
X160730000Y-93464748D01*
X159310000Y-93987252D02*
X159310000Y-93464748D01*
X164390000Y-117609252D02*
X164390000Y-117086748D01*
X165810000Y-117609252D02*
X165810000Y-117086748D01*
X118961000Y-107869000D02*
X118961000Y-107569000D01*
X123101000Y-104729000D02*
X123101000Y-105029000D01*
X123101000Y-107569000D02*
X123101000Y-107869000D01*
X118961000Y-104729000D02*
X123101000Y-104729000D01*
X118961000Y-105029000D02*
X118961000Y-104729000D01*
X123101000Y-107869000D02*
X118961000Y-107869000D01*
X126880252Y-105589000D02*
X126357748Y-105589000D01*
X126880252Y-107009000D02*
X126357748Y-107009000D01*
X151690000Y-79010252D02*
X151690000Y-78487748D01*
X153110000Y-79010252D02*
X153110000Y-78487748D01*
X160520748Y-107390000D02*
X161043252Y-107390000D01*
X160520748Y-105970000D02*
X161043252Y-105970000D01*
X126357748Y-110819000D02*
X126880252Y-110819000D01*
X126357748Y-109399000D02*
X126880252Y-109399000D01*
D12*
X161329000Y-91364000D02*
X162404000Y-91364000D01*
X161329000Y-81639000D02*
X156679000Y-81639000D01*
X161329000Y-91589000D02*
X156679000Y-91589000D01*
X161329000Y-81639000D02*
X161329000Y-81964000D01*
X156679000Y-81639000D02*
X156679000Y-81964000D01*
X156679000Y-91589000D02*
X156679000Y-91264000D01*
X161329000Y-91589000D02*
X161329000Y-91364000D01*
D10*
X128329000Y-118997000D02*
X128329000Y-112062000D01*
X124909000Y-118997000D02*
X128329000Y-118997000D01*
X124909000Y-112062000D02*
X124909000Y-118997000D01*
X123101000Y-112949000D02*
X118961000Y-112949000D01*
X118961000Y-110109000D02*
X118961000Y-109809000D01*
X118961000Y-109809000D02*
X123101000Y-109809000D01*
X123101000Y-112649000D02*
X123101000Y-112949000D01*
X123101000Y-109809000D02*
X123101000Y-110109000D01*
X118961000Y-112949000D02*
X118961000Y-112649000D01*
D12*
X156129000Y-109042000D02*
X154529000Y-109042000D01*
X156129000Y-119117000D02*
X161879000Y-119117000D01*
X156129000Y-108467000D02*
X161879000Y-108467000D01*
X156129000Y-119117000D02*
X156129000Y-118467000D01*
X161879000Y-119117000D02*
X161879000Y-118467000D01*
X161879000Y-108467000D02*
X161879000Y-109117000D01*
X156129000Y-108467000D02*
X156129000Y-109042000D01*
D10*
X138232000Y-80944000D02*
X138232000Y-83804000D01*
X140152000Y-80944000D02*
X138232000Y-80944000D01*
X140152000Y-83804000D02*
X140152000Y-80944000D01*
X142184000Y-83804000D02*
X142184000Y-80944000D01*
X142184000Y-80944000D02*
X140264000Y-80944000D01*
X140264000Y-80944000D02*
X140264000Y-83804000D01*
X144216000Y-83804000D02*
X144216000Y-80944000D01*
X144216000Y-80944000D02*
X142296000Y-80944000D01*
X142296000Y-80944000D02*
X142296000Y-83804000D01*
X144328000Y-80944000D02*
X144328000Y-83804000D01*
X146248000Y-80944000D02*
X144328000Y-80944000D01*
X146248000Y-83804000D02*
X146248000Y-80944000D01*
X146360000Y-80944000D02*
X146360000Y-83804000D01*
X148280000Y-80944000D02*
X146360000Y-80944000D01*
X148280000Y-83804000D02*
X148280000Y-80944000D01*
X166826000Y-75958000D02*
X166510493Y-75958000D01*
X164721507Y-75958000D02*
X164406000Y-75958000D01*
X165721507Y-75958000D02*
X165510493Y-75958000D01*
X166826000Y-79833000D02*
X166826000Y-75958000D01*
X164406000Y-81078000D02*
X164406000Y-75958000D01*
X166826000Y-79833000D02*
X166724276Y-79833000D01*
X164721507Y-81078000D02*
X164406000Y-81078000D01*
X166826000Y-80518000D02*
X166826000Y-81203000D01*
X166826000Y-81203000D02*
X166116000Y-81203000D01*
D12*
X126452333Y-104846380D02*
X126119000Y-104370190D01*
X125880904Y-104846380D02*
X125880904Y-103846380D01*
X126261857Y-103846380D01*
X126357095Y-103894000D01*
X126404714Y-103941619D01*
X126452333Y-104036857D01*
X126452333Y-104179714D01*
X126404714Y-104274952D01*
X126357095Y-104322571D01*
X126261857Y-104370190D01*
X125880904Y-104370190D01*
X126785666Y-103846380D02*
X127404714Y-103846380D01*
X127071380Y-104227333D01*
X127214238Y-104227333D01*
X127309476Y-104274952D01*
X127357095Y-104322571D01*
X127404714Y-104417809D01*
X127404714Y-104655904D01*
X127357095Y-104751142D01*
X127309476Y-104798761D01*
X127214238Y-104846380D01*
X126928523Y-104846380D01*
X126833285Y-104798761D01*
X126785666Y-104751142D01*
D13*
X143856666Y-67508380D02*
X143856666Y-66508380D01*
X144904285Y-67413142D02*
X144856666Y-67460761D01*
X144713809Y-67508380D01*
X144618571Y-67508380D01*
X144475714Y-67460761D01*
X144380476Y-67365523D01*
X144332857Y-67270285D01*
X144285238Y-67079809D01*
X144285238Y-66936952D01*
X144332857Y-66746476D01*
X144380476Y-66651238D01*
X144475714Y-66556000D01*
X144618571Y-66508380D01*
X144713809Y-66508380D01*
X144856666Y-66556000D01*
X144904285Y-66603619D01*
X145332857Y-67508380D02*
X145332857Y-66508380D01*
X145666190Y-67222666D01*
X145999523Y-66508380D01*
X145999523Y-67508380D01*
X146999523Y-67508380D02*
X146428095Y-67508380D01*
X146713809Y-67508380D02*
X146713809Y-66508380D01*
X146618571Y-66651238D01*
X146523333Y-66746476D01*
X146428095Y-66794095D01*
D14*
X136544071Y-75264928D02*
X136544071Y-74664928D01*
X136544071Y-74950642D02*
X136886928Y-74950642D01*
X136886928Y-75264928D02*
X136886928Y-74664928D01*
X135631214Y-75264928D02*
X135345500Y-75264928D01*
X135345500Y-74664928D01*
X132948357Y-73680642D02*
X133034071Y-73709214D01*
X133062642Y-73737785D01*
X133091214Y-73794928D01*
X133091214Y-73880642D01*
X133062642Y-73937785D01*
X133034071Y-73966357D01*
X132976928Y-73994928D01*
X132748357Y-73994928D01*
X132748357Y-73394928D01*
X132948357Y-73394928D01*
X133005500Y-73423500D01*
X133034071Y-73452071D01*
X133062642Y-73509214D01*
X133062642Y-73566357D01*
X133034071Y-73623500D01*
X133005500Y-73652071D01*
X132948357Y-73680642D01*
X132748357Y-73680642D01*
X133946928Y-73766357D02*
X134404071Y-73766357D01*
X134175500Y-73994928D02*
X134175500Y-73537785D01*
X136458357Y-73394928D02*
X136601214Y-73994928D01*
X136715500Y-73566357D01*
X136829785Y-73994928D01*
X136972642Y-73394928D01*
X137756928Y-73766357D02*
X138214071Y-73766357D01*
D13*
X162795523Y-67460761D02*
X162938380Y-67508380D01*
X163176476Y-67508380D01*
X163271714Y-67460761D01*
X163319333Y-67413142D01*
X163366952Y-67317904D01*
X163366952Y-67222666D01*
X163319333Y-67127428D01*
X163271714Y-67079809D01*
X163176476Y-67032190D01*
X162986000Y-66984571D01*
X162890761Y-66936952D01*
X162843142Y-66889333D01*
X162795523Y-66794095D01*
X162795523Y-66698857D01*
X162843142Y-66603619D01*
X162890761Y-66556000D01*
X162986000Y-66508380D01*
X163224095Y-66508380D01*
X163366952Y-66556000D01*
X163795523Y-67508380D02*
X163795523Y-66508380D01*
X164271714Y-67508380D02*
X164271714Y-66508380D01*
X164509809Y-66508380D01*
X164652666Y-66556000D01*
X164747904Y-66651238D01*
X164795523Y-66746476D01*
X164843142Y-66936952D01*
X164843142Y-67079809D01*
X164795523Y-67270285D01*
X164747904Y-67365523D01*
X164652666Y-67460761D01*
X164509809Y-67508380D01*
X164271714Y-67508380D01*
X165795523Y-67508380D02*
X165224095Y-67508380D01*
X165509809Y-67508380D02*
X165509809Y-66508380D01*
X165414571Y-66651238D01*
X165319333Y-66746476D01*
X165224095Y-66794095D01*
D14*
X155340071Y-75264928D02*
X155340071Y-74664928D01*
X155340071Y-74950642D02*
X155682928Y-74950642D01*
X155682928Y-75264928D02*
X155682928Y-74664928D01*
X154427214Y-75264928D02*
X154141500Y-75264928D01*
X154141500Y-74664928D01*
X151744357Y-73680642D02*
X151830071Y-73709214D01*
X151858642Y-73737785D01*
X151887214Y-73794928D01*
X151887214Y-73880642D01*
X151858642Y-73937785D01*
X151830071Y-73966357D01*
X151772928Y-73994928D01*
X151544357Y-73994928D01*
X151544357Y-73394928D01*
X151744357Y-73394928D01*
X151801500Y-73423500D01*
X151830071Y-73452071D01*
X151858642Y-73509214D01*
X151858642Y-73566357D01*
X151830071Y-73623500D01*
X151801500Y-73652071D01*
X151744357Y-73680642D01*
X151544357Y-73680642D01*
X152742928Y-73766357D02*
X153200071Y-73766357D01*
X152971500Y-73994928D02*
X152971500Y-73537785D01*
X155254357Y-73394928D02*
X155397214Y-73994928D01*
X155511500Y-73566357D01*
X155625785Y-73994928D01*
X155768642Y-73394928D01*
X156552928Y-73766357D02*
X157010071Y-73766357D01*
D12*
X155392380Y-78906666D02*
X154916190Y-79240000D01*
X155392380Y-79478095D02*
X154392380Y-79478095D01*
X154392380Y-79097142D01*
X154440000Y-79001904D01*
X154487619Y-78954285D01*
X154582857Y-78906666D01*
X154725714Y-78906666D01*
X154820952Y-78954285D01*
X154868571Y-79001904D01*
X154916190Y-79097142D01*
X154916190Y-79478095D01*
X155392380Y-77954285D02*
X155392380Y-78525714D01*
X155392380Y-78240000D02*
X154392380Y-78240000D01*
X154535238Y-78335238D01*
X154630476Y-78430476D01*
X154678095Y-78525714D01*
X126461333Y-101036380D02*
X126128000Y-100560190D01*
X125889904Y-101036380D02*
X125889904Y-100036380D01*
X126270857Y-100036380D01*
X126366095Y-100084000D01*
X126413714Y-100131619D01*
X126461333Y-100226857D01*
X126461333Y-100369714D01*
X126413714Y-100464952D01*
X126366095Y-100512571D01*
X126270857Y-100560190D01*
X125889904Y-100560190D01*
X127318476Y-100036380D02*
X127128000Y-100036380D01*
X127032761Y-100084000D01*
X126985142Y-100131619D01*
X126889904Y-100274476D01*
X126842285Y-100464952D01*
X126842285Y-100845904D01*
X126889904Y-100941142D01*
X126937523Y-100988761D01*
X127032761Y-101036380D01*
X127223238Y-101036380D01*
X127318476Y-100988761D01*
X127366095Y-100941142D01*
X127413714Y-100845904D01*
X127413714Y-100607809D01*
X127366095Y-100512571D01*
X127318476Y-100464952D01*
X127223238Y-100417333D01*
X127032761Y-100417333D01*
X126937523Y-100464952D01*
X126889904Y-100512571D01*
X126842285Y-100607809D01*
X149930380Y-83542095D02*
X148930380Y-83542095D01*
X148930380Y-83304000D01*
X148978000Y-83161142D01*
X149073238Y-83065904D01*
X149168476Y-83018285D01*
X149358952Y-82970666D01*
X149501809Y-82970666D01*
X149692285Y-83018285D01*
X149787523Y-83065904D01*
X149882761Y-83161142D01*
X149930380Y-83304000D01*
X149930380Y-83542095D01*
X149358952Y-82399238D02*
X149311333Y-82494476D01*
X149263714Y-82542095D01*
X149168476Y-82589714D01*
X149120857Y-82589714D01*
X149025619Y-82542095D01*
X148978000Y-82494476D01*
X148930380Y-82399238D01*
X148930380Y-82208761D01*
X148978000Y-82113523D01*
X149025619Y-82065904D01*
X149120857Y-82018285D01*
X149168476Y-82018285D01*
X149263714Y-82065904D01*
X149311333Y-82113523D01*
X149358952Y-82208761D01*
X149358952Y-82399238D01*
X149406571Y-82494476D01*
X149454190Y-82542095D01*
X149549428Y-82589714D01*
X149739904Y-82589714D01*
X149835142Y-82542095D01*
X149882761Y-82494476D01*
X149930380Y-82399238D01*
X149930380Y-82208761D01*
X149882761Y-82113523D01*
X149835142Y-82065904D01*
X149739904Y-82018285D01*
X149549428Y-82018285D01*
X149454190Y-82065904D01*
X149406571Y-82113523D01*
X149358952Y-82208761D01*
X120546904Y-102052380D02*
X120546904Y-101052380D01*
X120785000Y-101052380D01*
X120927857Y-101100000D01*
X121023095Y-101195238D01*
X121070714Y-101290476D01*
X121118333Y-101480952D01*
X121118333Y-101623809D01*
X121070714Y-101814285D01*
X121023095Y-101909523D01*
X120927857Y-102004761D01*
X120785000Y-102052380D01*
X120546904Y-102052380D01*
X121594523Y-102052380D02*
X121785000Y-102052380D01*
X121880238Y-102004761D01*
X121927857Y-101957142D01*
X122023095Y-101814285D01*
X122070714Y-101623809D01*
X122070714Y-101242857D01*
X122023095Y-101147619D01*
X121975476Y-101100000D01*
X121880238Y-101052380D01*
X121689761Y-101052380D01*
X121594523Y-101100000D01*
X121546904Y-101147619D01*
X121499285Y-101242857D01*
X121499285Y-101480952D01*
X121546904Y-101576190D01*
X121594523Y-101623809D01*
X121689761Y-101671428D01*
X121880238Y-101671428D01*
X121975476Y-101623809D01*
X122023095Y-101576190D01*
X122070714Y-101480952D01*
X135706380Y-83542095D02*
X134706380Y-83542095D01*
X134706380Y-83304000D01*
X134754000Y-83161142D01*
X134849238Y-83065904D01*
X134944476Y-83018285D01*
X135134952Y-82970666D01*
X135277809Y-82970666D01*
X135468285Y-83018285D01*
X135563523Y-83065904D01*
X135658761Y-83161142D01*
X135706380Y-83304000D01*
X135706380Y-83542095D01*
X135706380Y-82018285D02*
X135706380Y-82589714D01*
X135706380Y-82304000D02*
X134706380Y-82304000D01*
X134849238Y-82399238D01*
X134944476Y-82494476D01*
X134992095Y-82589714D01*
X166519880Y-93551333D02*
X167234166Y-93551333D01*
X167377023Y-93598952D01*
X167472261Y-93694190D01*
X167519880Y-93837047D01*
X167519880Y-93932285D01*
X166615119Y-93122761D02*
X166567500Y-93075142D01*
X166519880Y-92979904D01*
X166519880Y-92741809D01*
X166567500Y-92646571D01*
X166615119Y-92598952D01*
X166710357Y-92551333D01*
X166805595Y-92551333D01*
X166948452Y-92598952D01*
X167519880Y-93170380D01*
X167519880Y-92551333D01*
X137738380Y-83542095D02*
X136738380Y-83542095D01*
X136738380Y-83304000D01*
X136786000Y-83161142D01*
X136881238Y-83065904D01*
X136976476Y-83018285D01*
X137166952Y-82970666D01*
X137309809Y-82970666D01*
X137500285Y-83018285D01*
X137595523Y-83065904D01*
X137690761Y-83161142D01*
X137738380Y-83304000D01*
X137738380Y-83542095D01*
X136833619Y-82589714D02*
X136786000Y-82542095D01*
X136738380Y-82446857D01*
X136738380Y-82208761D01*
X136786000Y-82113523D01*
X136833619Y-82065904D01*
X136928857Y-82018285D01*
X137024095Y-82018285D01*
X137166952Y-82065904D01*
X137738380Y-82637333D01*
X137738380Y-82018285D01*
X121102761Y-76906380D02*
X121102761Y-75906380D01*
X121578952Y-76525428D02*
X122340857Y-76525428D01*
X123150380Y-76382571D02*
X123293238Y-76430190D01*
X123340857Y-76477809D01*
X123388476Y-76573047D01*
X123388476Y-76715904D01*
X123340857Y-76811142D01*
X123293238Y-76858761D01*
X123198000Y-76906380D01*
X122817047Y-76906380D01*
X122817047Y-75906380D01*
X123150380Y-75906380D01*
X123245619Y-75954000D01*
X123293238Y-76001619D01*
X123340857Y-76096857D01*
X123340857Y-76192095D01*
X123293238Y-76287333D01*
X123245619Y-76334952D01*
X123150380Y-76382571D01*
X122817047Y-76382571D01*
X123817047Y-75906380D02*
X123817047Y-76715904D01*
X123864666Y-76811142D01*
X123912285Y-76858761D01*
X124007523Y-76906380D01*
X124198000Y-76906380D01*
X124293238Y-76858761D01*
X124340857Y-76811142D01*
X124388476Y-76715904D01*
X124388476Y-75906380D01*
X124817047Y-76858761D02*
X124959904Y-76906380D01*
X125198000Y-76906380D01*
X125293238Y-76858761D01*
X125340857Y-76811142D01*
X125388476Y-76715904D01*
X125388476Y-76620666D01*
X125340857Y-76525428D01*
X125293238Y-76477809D01*
X125198000Y-76430190D01*
X125007523Y-76382571D01*
X124912285Y-76334952D01*
X124864666Y-76287333D01*
X124817047Y-76192095D01*
X124817047Y-76096857D01*
X124864666Y-76001619D01*
X124912285Y-75954000D01*
X125007523Y-75906380D01*
X125245619Y-75906380D01*
X125388476Y-75954000D01*
X126340857Y-76906380D02*
X125769428Y-76906380D01*
X126055142Y-76906380D02*
X126055142Y-75906380D01*
X125959904Y-76049238D01*
X125864666Y-76144476D01*
X125769428Y-76192095D01*
X150018761Y-97194619D02*
X149923523Y-97147000D01*
X149828285Y-97051761D01*
X149685428Y-96908904D01*
X149590190Y-96861285D01*
X149494952Y-96861285D01*
X149542571Y-97099380D02*
X149447333Y-97051761D01*
X149352095Y-96956523D01*
X149304476Y-96766047D01*
X149304476Y-96432714D01*
X149352095Y-96242238D01*
X149447333Y-96147000D01*
X149542571Y-96099380D01*
X149733047Y-96099380D01*
X149828285Y-96147000D01*
X149923523Y-96242238D01*
X149971142Y-96432714D01*
X149971142Y-96766047D01*
X149923523Y-96956523D01*
X149828285Y-97051761D01*
X149733047Y-97099380D01*
X149542571Y-97099380D01*
X150352095Y-96194619D02*
X150399714Y-96147000D01*
X150494952Y-96099380D01*
X150733047Y-96099380D01*
X150828285Y-96147000D01*
X150875904Y-96194619D01*
X150923523Y-96289857D01*
X150923523Y-96385095D01*
X150875904Y-96527952D01*
X150304476Y-97099380D01*
X150923523Y-97099380D01*
X146970761Y-97448619D02*
X146875523Y-97401000D01*
X146780285Y-97305761D01*
X146637428Y-97162904D01*
X146542190Y-97115285D01*
X146446952Y-97115285D01*
X146494571Y-97353380D02*
X146399333Y-97305761D01*
X146304095Y-97210523D01*
X146256476Y-97020047D01*
X146256476Y-96686714D01*
X146304095Y-96496238D01*
X146399333Y-96401000D01*
X146494571Y-96353380D01*
X146685047Y-96353380D01*
X146780285Y-96401000D01*
X146875523Y-96496238D01*
X146923142Y-96686714D01*
X146923142Y-97020047D01*
X146875523Y-97210523D01*
X146780285Y-97305761D01*
X146685047Y-97353380D01*
X146494571Y-97353380D01*
X147875523Y-97353380D02*
X147304095Y-97353380D01*
X147589809Y-97353380D02*
X147589809Y-96353380D01*
X147494571Y-96496238D01*
X147399333Y-96591476D01*
X147304095Y-96639095D01*
X126452333Y-108656380D02*
X126119000Y-108180190D01*
X125880904Y-108656380D02*
X125880904Y-107656380D01*
X126261857Y-107656380D01*
X126357095Y-107704000D01*
X126404714Y-107751619D01*
X126452333Y-107846857D01*
X126452333Y-107989714D01*
X126404714Y-108084952D01*
X126357095Y-108132571D01*
X126261857Y-108180190D01*
X125880904Y-108180190D01*
X127309476Y-107989714D02*
X127309476Y-108656380D01*
X127071380Y-107608761D02*
X126833285Y-108323047D01*
X127452333Y-108323047D01*
X155757714Y-104846380D02*
X155757714Y-103846380D01*
X155995809Y-103846380D01*
X156138666Y-103894000D01*
X156233904Y-103989238D01*
X156281523Y-104084476D01*
X156329142Y-104274952D01*
X156329142Y-104417809D01*
X156281523Y-104608285D01*
X156233904Y-104703523D01*
X156138666Y-104798761D01*
X155995809Y-104846380D01*
X155757714Y-104846380D01*
X157281523Y-104846380D02*
X156710095Y-104846380D01*
X156995809Y-104846380D02*
X156995809Y-103846380D01*
X156900571Y-103989238D01*
X156805333Y-104084476D01*
X156710095Y-104132095D01*
X157662476Y-103941619D02*
X157710095Y-103894000D01*
X157805333Y-103846380D01*
X158043428Y-103846380D01*
X158138666Y-103894000D01*
X158186285Y-103941619D01*
X158233904Y-104036857D01*
X158233904Y-104132095D01*
X158186285Y-104274952D01*
X157614857Y-104846380D01*
X158233904Y-104846380D01*
X156796333Y-107132380D02*
X156463000Y-106656190D01*
X156224904Y-107132380D02*
X156224904Y-106132380D01*
X156605857Y-106132380D01*
X156701095Y-106180000D01*
X156748714Y-106227619D01*
X156796333Y-106322857D01*
X156796333Y-106465714D01*
X156748714Y-106560952D01*
X156701095Y-106608571D01*
X156605857Y-106656190D01*
X156224904Y-106656190D01*
X157129666Y-106132380D02*
X157796333Y-106132380D01*
X157367761Y-107132380D01*
X158214476Y-78212380D02*
X158881142Y-79212380D01*
X158881142Y-78212380D02*
X158214476Y-79212380D01*
X159785904Y-79212380D02*
X159214476Y-79212380D01*
X159500190Y-79212380D02*
X159500190Y-78212380D01*
X159404952Y-78355238D01*
X159309714Y-78450476D01*
X159214476Y-78498095D01*
X126452333Y-102941380D02*
X126119000Y-102465190D01*
X125880904Y-102941380D02*
X125880904Y-101941380D01*
X126261857Y-101941380D01*
X126357095Y-101989000D01*
X126404714Y-102036619D01*
X126452333Y-102131857D01*
X126452333Y-102274714D01*
X126404714Y-102369952D01*
X126357095Y-102417571D01*
X126261857Y-102465190D01*
X125880904Y-102465190D01*
X127357095Y-101941380D02*
X126880904Y-101941380D01*
X126833285Y-102417571D01*
X126880904Y-102369952D01*
X126976142Y-102322333D01*
X127214238Y-102322333D01*
X127309476Y-102369952D01*
X127357095Y-102417571D01*
X127404714Y-102512809D01*
X127404714Y-102750904D01*
X127357095Y-102846142D01*
X127309476Y-102893761D01*
X127214238Y-102941380D01*
X126976142Y-102941380D01*
X126880904Y-102893761D01*
X126833285Y-102846142D01*
X130008380Y-110108904D02*
X130817904Y-110108904D01*
X130913142Y-110061285D01*
X130960761Y-110013666D01*
X131008380Y-109918428D01*
X131008380Y-109727952D01*
X130960761Y-109632714D01*
X130913142Y-109585095D01*
X130817904Y-109537476D01*
X130008380Y-109537476D01*
X130008380Y-108632714D02*
X130008380Y-108823190D01*
X130056000Y-108918428D01*
X130103619Y-108966047D01*
X130246476Y-109061285D01*
X130436952Y-109108904D01*
X130817904Y-109108904D01*
X130913142Y-109061285D01*
X130960761Y-109013666D01*
X131008380Y-108918428D01*
X131008380Y-108727952D01*
X130960761Y-108632714D01*
X130913142Y-108585095D01*
X130817904Y-108537476D01*
X130579809Y-108537476D01*
X130484571Y-108585095D01*
X130436952Y-108632714D01*
X130389333Y-108727952D01*
X130389333Y-108918428D01*
X130436952Y-109013666D01*
X130484571Y-109061285D01*
X130579809Y-109108904D01*
X159567714Y-104846380D02*
X159567714Y-103846380D01*
X159805809Y-103846380D01*
X159948666Y-103894000D01*
X160043904Y-103989238D01*
X160091523Y-104084476D01*
X160139142Y-104274952D01*
X160139142Y-104417809D01*
X160091523Y-104608285D01*
X160043904Y-104703523D01*
X159948666Y-104798761D01*
X159805809Y-104846380D01*
X159567714Y-104846380D01*
X161091523Y-104846380D02*
X160520095Y-104846380D01*
X160805809Y-104846380D02*
X160805809Y-103846380D01*
X160710571Y-103989238D01*
X160615333Y-104084476D01*
X160520095Y-104132095D01*
X161424857Y-103846380D02*
X162043904Y-103846380D01*
X161710571Y-104227333D01*
X161853428Y-104227333D01*
X161948666Y-104274952D01*
X161996285Y-104322571D01*
X162043904Y-104417809D01*
X162043904Y-104655904D01*
X161996285Y-104751142D01*
X161948666Y-104798761D01*
X161853428Y-104846380D01*
X161567714Y-104846380D01*
X161472476Y-104798761D01*
X161424857Y-104751142D01*
X160377142Y-93892666D02*
X160424761Y-93940285D01*
X160472380Y-94083142D01*
X160472380Y-94178380D01*
X160424761Y-94321238D01*
X160329523Y-94416476D01*
X160234285Y-94464095D01*
X160043809Y-94511714D01*
X159900952Y-94511714D01*
X159710476Y-94464095D01*
X159615238Y-94416476D01*
X159520000Y-94321238D01*
X159472380Y-94178380D01*
X159472380Y-94083142D01*
X159520000Y-93940285D01*
X159567619Y-93892666D01*
X160472380Y-92940285D02*
X160472380Y-93511714D01*
X160472380Y-93226000D02*
X159472380Y-93226000D01*
X159615238Y-93321238D01*
X159710476Y-93416476D01*
X159758095Y-93511714D01*
X165330142Y-117768666D02*
X165377761Y-117816285D01*
X165425380Y-117959142D01*
X165425380Y-118054380D01*
X165377761Y-118197238D01*
X165282523Y-118292476D01*
X165187285Y-118340095D01*
X164996809Y-118387714D01*
X164853952Y-118387714D01*
X164663476Y-118340095D01*
X164568238Y-118292476D01*
X164473000Y-118197238D01*
X164425380Y-118054380D01*
X164425380Y-117959142D01*
X164473000Y-117816285D01*
X164520619Y-117768666D01*
X164758714Y-116911523D02*
X165425380Y-116911523D01*
X164377761Y-117149619D02*
X165092047Y-117387714D01*
X165092047Y-116768666D01*
X119697666Y-106703761D02*
X119840523Y-106751380D01*
X120078619Y-106751380D01*
X120173857Y-106703761D01*
X120221476Y-106656142D01*
X120269095Y-106560904D01*
X120269095Y-106465666D01*
X120221476Y-106370428D01*
X120173857Y-106322809D01*
X120078619Y-106275190D01*
X119888142Y-106227571D01*
X119792904Y-106179952D01*
X119745285Y-106132333D01*
X119697666Y-106037095D01*
X119697666Y-105941857D01*
X119745285Y-105846619D01*
X119792904Y-105799000D01*
X119888142Y-105751380D01*
X120126238Y-105751380D01*
X120269095Y-105799000D01*
X120602428Y-105751380D02*
X120840523Y-106751380D01*
X121031000Y-106037095D01*
X121221476Y-106751380D01*
X121459571Y-105751380D01*
X121792904Y-105846619D02*
X121840523Y-105799000D01*
X121935761Y-105751380D01*
X122173857Y-105751380D01*
X122269095Y-105799000D01*
X122316714Y-105846619D01*
X122364333Y-105941857D01*
X122364333Y-106037095D01*
X122316714Y-106179952D01*
X121745285Y-106751380D01*
X122364333Y-106751380D01*
X126461333Y-106751380D02*
X126128000Y-106275190D01*
X125889904Y-106751380D02*
X125889904Y-105751380D01*
X126270857Y-105751380D01*
X126366095Y-105799000D01*
X126413714Y-105846619D01*
X126461333Y-105941857D01*
X126461333Y-106084714D01*
X126413714Y-106179952D01*
X126366095Y-106227571D01*
X126270857Y-106275190D01*
X125889904Y-106275190D01*
X126842285Y-105846619D02*
X126889904Y-105799000D01*
X126985142Y-105751380D01*
X127223238Y-105751380D01*
X127318476Y-105799000D01*
X127366095Y-105846619D01*
X127413714Y-105941857D01*
X127413714Y-106037095D01*
X127366095Y-106179952D01*
X126794666Y-106751380D01*
X127413714Y-106751380D01*
X152852380Y-79391857D02*
X152376190Y-79725190D01*
X152852380Y-79963285D02*
X151852380Y-79963285D01*
X151852380Y-79582333D01*
X151900000Y-79487095D01*
X151947619Y-79439476D01*
X152042857Y-79391857D01*
X152185714Y-79391857D01*
X152280952Y-79439476D01*
X152328571Y-79487095D01*
X152376190Y-79582333D01*
X152376190Y-79963285D01*
X152852380Y-78439476D02*
X152852380Y-79010904D01*
X152852380Y-78725190D02*
X151852380Y-78725190D01*
X151995238Y-78820428D01*
X152090476Y-78915666D01*
X152138095Y-79010904D01*
X152280952Y-77868047D02*
X152233333Y-77963285D01*
X152185714Y-78010904D01*
X152090476Y-78058523D01*
X152042857Y-78058523D01*
X151947619Y-78010904D01*
X151900000Y-77963285D01*
X151852380Y-77868047D01*
X151852380Y-77677571D01*
X151900000Y-77582333D01*
X151947619Y-77534714D01*
X152042857Y-77487095D01*
X152090476Y-77487095D01*
X152185714Y-77534714D01*
X152233333Y-77582333D01*
X152280952Y-77677571D01*
X152280952Y-77868047D01*
X152328571Y-77963285D01*
X152376190Y-78010904D01*
X152471428Y-78058523D01*
X152661904Y-78058523D01*
X152757142Y-78010904D01*
X152804761Y-77963285D01*
X152852380Y-77868047D01*
X152852380Y-77677571D01*
X152804761Y-77582333D01*
X152757142Y-77534714D01*
X152661904Y-77487095D01*
X152471428Y-77487095D01*
X152376190Y-77534714D01*
X152328571Y-77582333D01*
X152280952Y-77677571D01*
X160615333Y-107132380D02*
X160282000Y-106656190D01*
X160043904Y-107132380D02*
X160043904Y-106132380D01*
X160424857Y-106132380D01*
X160520095Y-106180000D01*
X160567714Y-106227619D01*
X160615333Y-106322857D01*
X160615333Y-106465714D01*
X160567714Y-106560952D01*
X160520095Y-106608571D01*
X160424857Y-106656190D01*
X160043904Y-106656190D01*
X161186761Y-106560952D02*
X161091523Y-106513333D01*
X161043904Y-106465714D01*
X160996285Y-106370476D01*
X160996285Y-106322857D01*
X161043904Y-106227619D01*
X161091523Y-106180000D01*
X161186761Y-106132380D01*
X161377238Y-106132380D01*
X161472476Y-106180000D01*
X161520095Y-106227619D01*
X161567714Y-106322857D01*
X161567714Y-106370476D01*
X161520095Y-106465714D01*
X161472476Y-106513333D01*
X161377238Y-106560952D01*
X161186761Y-106560952D01*
X161091523Y-106608571D01*
X161043904Y-106656190D01*
X160996285Y-106751428D01*
X160996285Y-106941904D01*
X161043904Y-107037142D01*
X161091523Y-107084761D01*
X161186761Y-107132380D01*
X161377238Y-107132380D01*
X161472476Y-107084761D01*
X161520095Y-107037142D01*
X161567714Y-106941904D01*
X161567714Y-106751428D01*
X161520095Y-106656190D01*
X161472476Y-106608571D01*
X161377238Y-106560952D01*
X126452333Y-110466142D02*
X126404714Y-110513761D01*
X126261857Y-110561380D01*
X126166619Y-110561380D01*
X126023761Y-110513761D01*
X125928523Y-110418523D01*
X125880904Y-110323285D01*
X125833285Y-110132809D01*
X125833285Y-109989952D01*
X125880904Y-109799476D01*
X125928523Y-109704238D01*
X126023761Y-109609000D01*
X126166619Y-109561380D01*
X126261857Y-109561380D01*
X126404714Y-109609000D01*
X126452333Y-109656619D01*
X127309476Y-109561380D02*
X127119000Y-109561380D01*
X127023761Y-109609000D01*
X126976142Y-109656619D01*
X126880904Y-109799476D01*
X126833285Y-109989952D01*
X126833285Y-110370904D01*
X126880904Y-110466142D01*
X126928523Y-110513761D01*
X127023761Y-110561380D01*
X127214238Y-110561380D01*
X127309476Y-110513761D01*
X127357095Y-110466142D01*
X127404714Y-110370904D01*
X127404714Y-110132809D01*
X127357095Y-110037571D01*
X127309476Y-109989952D01*
X127214238Y-109942333D01*
X127023761Y-109942333D01*
X126928523Y-109989952D01*
X126880904Y-110037571D01*
X126833285Y-110132809D01*
X158242095Y-89876380D02*
X158242095Y-90685904D01*
X158289714Y-90781142D01*
X158337333Y-90828761D01*
X158432571Y-90876380D01*
X158623047Y-90876380D01*
X158718285Y-90828761D01*
X158765904Y-90781142D01*
X158813523Y-90685904D01*
X158813523Y-89876380D01*
X159813523Y-90876380D02*
X159242095Y-90876380D01*
X159527809Y-90876380D02*
X159527809Y-89876380D01*
X159432571Y-90019238D01*
X159337333Y-90114476D01*
X159242095Y-90162095D01*
X126976142Y-115228666D02*
X127023761Y-115276285D01*
X127071380Y-115419142D01*
X127071380Y-115514380D01*
X127023761Y-115657238D01*
X126928523Y-115752476D01*
X126833285Y-115800095D01*
X126642809Y-115847714D01*
X126499952Y-115847714D01*
X126309476Y-115800095D01*
X126214238Y-115752476D01*
X126119000Y-115657238D01*
X126071380Y-115514380D01*
X126071380Y-115419142D01*
X126119000Y-115276285D01*
X126166619Y-115228666D01*
X126071380Y-114895333D02*
X126071380Y-114228666D01*
X127071380Y-114657238D01*
X119697666Y-111783761D02*
X119840523Y-111831380D01*
X120078619Y-111831380D01*
X120173857Y-111783761D01*
X120221476Y-111736142D01*
X120269095Y-111640904D01*
X120269095Y-111545666D01*
X120221476Y-111450428D01*
X120173857Y-111402809D01*
X120078619Y-111355190D01*
X119888142Y-111307571D01*
X119792904Y-111259952D01*
X119745285Y-111212333D01*
X119697666Y-111117095D01*
X119697666Y-111021857D01*
X119745285Y-110926619D01*
X119792904Y-110879000D01*
X119888142Y-110831380D01*
X120126238Y-110831380D01*
X120269095Y-110879000D01*
X120602428Y-110831380D02*
X120840523Y-111831380D01*
X121031000Y-111117095D01*
X121221476Y-111831380D01*
X121459571Y-110831380D01*
X122364333Y-111831380D02*
X121792904Y-111831380D01*
X122078619Y-111831380D02*
X122078619Y-110831380D01*
X121983380Y-110974238D01*
X121888142Y-111069476D01*
X121792904Y-111117095D01*
X158242095Y-108799380D02*
X158242095Y-109608904D01*
X158289714Y-109704142D01*
X158337333Y-109751761D01*
X158432571Y-109799380D01*
X158623047Y-109799380D01*
X158718285Y-109751761D01*
X158765904Y-109704142D01*
X158813523Y-109608904D01*
X158813523Y-108799380D01*
X159765904Y-108799380D02*
X159289714Y-108799380D01*
X159242095Y-109275571D01*
X159289714Y-109227952D01*
X159384952Y-109180333D01*
X159623047Y-109180333D01*
X159718285Y-109227952D01*
X159765904Y-109275571D01*
X159813523Y-109370809D01*
X159813523Y-109608904D01*
X159765904Y-109704142D01*
X159718285Y-109751761D01*
X159623047Y-109799380D01*
X159384952Y-109799380D01*
X159289714Y-109751761D01*
X159242095Y-109704142D01*
X139770380Y-83542095D02*
X138770380Y-83542095D01*
X138770380Y-83304000D01*
X138818000Y-83161142D01*
X138913238Y-83065904D01*
X139008476Y-83018285D01*
X139198952Y-82970666D01*
X139341809Y-82970666D01*
X139532285Y-83018285D01*
X139627523Y-83065904D01*
X139722761Y-83161142D01*
X139770380Y-83304000D01*
X139770380Y-83542095D01*
X138770380Y-82637333D02*
X138770380Y-82018285D01*
X139151333Y-82351619D01*
X139151333Y-82208761D01*
X139198952Y-82113523D01*
X139246571Y-82065904D01*
X139341809Y-82018285D01*
X139579904Y-82018285D01*
X139675142Y-82065904D01*
X139722761Y-82113523D01*
X139770380Y-82208761D01*
X139770380Y-82494476D01*
X139722761Y-82589714D01*
X139675142Y-82637333D01*
X141802380Y-83542095D02*
X140802380Y-83542095D01*
X140802380Y-83304000D01*
X140850000Y-83161142D01*
X140945238Y-83065904D01*
X141040476Y-83018285D01*
X141230952Y-82970666D01*
X141373809Y-82970666D01*
X141564285Y-83018285D01*
X141659523Y-83065904D01*
X141754761Y-83161142D01*
X141802380Y-83304000D01*
X141802380Y-83542095D01*
X141135714Y-82113523D02*
X141802380Y-82113523D01*
X140754761Y-82351619D02*
X141469047Y-82589714D01*
X141469047Y-81970666D01*
X143454380Y-83579180D02*
X142454380Y-83579180D01*
X142454380Y-83341085D01*
X142502000Y-83198227D01*
X142597238Y-83102989D01*
X142692476Y-83055370D01*
X142882952Y-83007751D01*
X143025809Y-83007751D01*
X143216285Y-83055370D01*
X143311523Y-83102989D01*
X143406761Y-83198227D01*
X143454380Y-83341085D01*
X143454380Y-83579180D01*
X142454380Y-82102989D02*
X142454380Y-82579180D01*
X142930571Y-82626799D01*
X142882952Y-82579180D01*
X142835333Y-82483942D01*
X142835333Y-82245846D01*
X142882952Y-82150608D01*
X142930571Y-82102989D01*
X143025809Y-82055370D01*
X143263904Y-82055370D01*
X143359142Y-82102989D01*
X143406761Y-82150608D01*
X143454380Y-82245846D01*
X143454380Y-82483942D01*
X143406761Y-82579180D01*
X143359142Y-82626799D01*
X145866380Y-83542095D02*
X144866380Y-83542095D01*
X144866380Y-83304000D01*
X144914000Y-83161142D01*
X145009238Y-83065904D01*
X145104476Y-83018285D01*
X145294952Y-82970666D01*
X145437809Y-82970666D01*
X145628285Y-83018285D01*
X145723523Y-83065904D01*
X145818761Y-83161142D01*
X145866380Y-83304000D01*
X145866380Y-83542095D01*
X144866380Y-82113523D02*
X144866380Y-82304000D01*
X144914000Y-82399238D01*
X144961619Y-82446857D01*
X145104476Y-82542095D01*
X145294952Y-82589714D01*
X145675904Y-82589714D01*
X145771142Y-82542095D01*
X145818761Y-82494476D01*
X145866380Y-82399238D01*
X145866380Y-82208761D01*
X145818761Y-82113523D01*
X145771142Y-82065904D01*
X145675904Y-82018285D01*
X145437809Y-82018285D01*
X145342571Y-82065904D01*
X145294952Y-82113523D01*
X145247333Y-82208761D01*
X145247333Y-82399238D01*
X145294952Y-82494476D01*
X145342571Y-82542095D01*
X145437809Y-82589714D01*
X147898380Y-83542095D02*
X146898380Y-83542095D01*
X146898380Y-83304000D01*
X146946000Y-83161142D01*
X147041238Y-83065904D01*
X147136476Y-83018285D01*
X147326952Y-82970666D01*
X147469809Y-82970666D01*
X147660285Y-83018285D01*
X147755523Y-83065904D01*
X147850761Y-83161142D01*
X147898380Y-83304000D01*
X147898380Y-83542095D01*
X146898380Y-82637333D02*
X146898380Y-81970666D01*
X147898380Y-82399238D01*
X165282666Y-81530380D02*
X165282666Y-82244666D01*
X165235047Y-82387523D01*
X165139809Y-82482761D01*
X164996952Y-82530380D01*
X164901714Y-82530380D01*
X166282666Y-82530380D02*
X165711238Y-82530380D01*
X165996952Y-82530380D02*
X165996952Y-81530380D01*
X165901714Y-81673238D01*
X165806476Y-81768476D01*
X165711238Y-81816095D01*
M02*
