G04 #@! TF.GenerationSoftware,KiCad,Pcbnew,5.1.5+dfsg1-2build2*
G04 #@! TF.CreationDate,2020-08-14T19:18:21+10:00*
G04 #@! TF.ProjectId,sid-board-v3_blocklayout,7369642d-626f-4617-9264-2d76335f626c,rev?*
G04 #@! TF.SameCoordinates,Original*
G04 #@! TF.FileFunction,Legend,Top*
G04 #@! TF.FilePolarity,Positive*
%FSLAX46Y46*%
G04 Gerber Fmt 4.6, Leading zero omitted, Abs format (unit mm)*
G04 Created by KiCad (PCBNEW 5.1.5+dfsg1-2build2) date 2020-08-14 19:18:21*
%MOMM*%
%LPD*%
G04 APERTURE LIST*
%ADD10C,0.120000*%
%ADD11C,0.100000*%
%ADD12C,0.150000*%
%ADD13C,0.200000*%
%ADD14C,0.125000*%
G04 APERTURE END LIST*
D10*
X151066500Y-73088500D02*
X158686500Y-73088500D01*
X166878000Y-73088500D02*
X166878000Y-72771000D01*
X166430000Y-73088500D02*
X166878000Y-73088500D01*
X166878000Y-66294000D02*
X166878000Y-72771000D01*
X166430000Y-66294000D02*
X166878000Y-66294000D01*
X166430000Y-67885000D02*
X166430000Y-66294000D01*
X166430000Y-67885000D02*
X166430000Y-69215000D01*
X165100000Y-67885000D02*
X166430000Y-67885000D01*
X166430000Y-70485000D02*
X166430000Y-73085000D01*
X163830000Y-70485000D02*
X166430000Y-70485000D01*
X163830000Y-67885000D02*
X163830000Y-70485000D01*
X166430000Y-73085000D02*
X151070000Y-73085000D01*
X163830000Y-67885000D02*
X151070000Y-67885000D01*
X151070000Y-67885000D02*
X151070000Y-73085000D01*
X126880252Y-103684000D02*
X126357748Y-103684000D01*
X126880252Y-105104000D02*
X126357748Y-105104000D01*
D11*
G36*
X138430000Y-75438000D02*
G01*
X137541000Y-75438000D01*
X137541000Y-74549000D01*
X138430000Y-74549000D01*
X138430000Y-75438000D01*
G37*
X138430000Y-75438000D02*
X137541000Y-75438000D01*
X137541000Y-74549000D01*
X138430000Y-74549000D01*
X138430000Y-75438000D01*
G36*
X139700000Y-75438000D02*
G01*
X138811000Y-75438000D01*
X138811000Y-74549000D01*
X139700000Y-74549000D01*
X139700000Y-75438000D01*
G37*
X139700000Y-75438000D02*
X138811000Y-75438000D01*
X138811000Y-74549000D01*
X139700000Y-74549000D01*
X139700000Y-75438000D01*
G36*
X139700000Y-74168000D02*
G01*
X138811000Y-74168000D01*
X138811000Y-73279000D01*
X139700000Y-73279000D01*
X139700000Y-74168000D01*
G37*
X139700000Y-74168000D02*
X138811000Y-74168000D01*
X138811000Y-73279000D01*
X139700000Y-73279000D01*
X139700000Y-74168000D01*
G36*
X135890000Y-74168000D02*
G01*
X135001000Y-74168000D01*
X135001000Y-73279000D01*
X135890000Y-73279000D01*
X135890000Y-74168000D01*
G37*
X135890000Y-74168000D02*
X135001000Y-74168000D01*
X135001000Y-73279000D01*
X135890000Y-73279000D01*
X135890000Y-74168000D01*
G36*
X134620000Y-75438000D02*
G01*
X133731000Y-75438000D01*
X133731000Y-74549000D01*
X134620000Y-74549000D01*
X134620000Y-75438000D01*
G37*
X134620000Y-75438000D02*
X133731000Y-75438000D01*
X133731000Y-74549000D01*
X134620000Y-74549000D01*
X134620000Y-75438000D01*
G36*
X133350000Y-75438000D02*
G01*
X132461000Y-75438000D01*
X132461000Y-74549000D01*
X133350000Y-74549000D01*
X133350000Y-75438000D01*
G37*
X133350000Y-75438000D02*
X132461000Y-75438000D01*
X132461000Y-74549000D01*
X133350000Y-74549000D01*
X133350000Y-75438000D01*
D10*
X138620500Y-75628500D02*
X138620500Y-74358500D01*
X138620500Y-74358500D02*
X138620500Y-73088500D01*
X137350500Y-74358500D02*
X137350500Y-75628500D01*
X137350500Y-73088500D02*
X137350500Y-74358500D01*
X136080500Y-74358500D02*
X136080500Y-75628500D01*
X136080500Y-73088500D02*
X136080500Y-74358500D01*
X134810500Y-73088500D02*
X134810500Y-74358500D01*
X134810500Y-74358500D02*
X134810500Y-75628500D01*
X133540500Y-75628500D02*
X133540500Y-73088500D01*
X132270500Y-74358500D02*
X139890500Y-74358500D01*
X132270500Y-73088500D02*
X139890500Y-73088500D01*
X132270500Y-75628500D02*
X132270500Y-73088500D01*
X139890500Y-75628500D02*
X132270500Y-75628500D01*
X139890500Y-73088500D02*
X139890500Y-75628500D01*
X148082000Y-73088500D02*
X148082000Y-72771000D01*
X147634000Y-73088500D02*
X148082000Y-73088500D01*
X148082000Y-66294000D02*
X148082000Y-72771000D01*
X147634000Y-66294000D02*
X148082000Y-66294000D01*
X147634000Y-67885000D02*
X147634000Y-66294000D01*
X147634000Y-67885000D02*
X147634000Y-69215000D01*
X146304000Y-67885000D02*
X147634000Y-67885000D01*
X147634000Y-70485000D02*
X147634000Y-73085000D01*
X145034000Y-70485000D02*
X147634000Y-70485000D01*
X145034000Y-67885000D02*
X145034000Y-70485000D01*
X147634000Y-73085000D02*
X132274000Y-73085000D01*
X145034000Y-67885000D02*
X132274000Y-67885000D01*
X132274000Y-67885000D02*
X132274000Y-73085000D01*
X154230000Y-79001252D02*
X154230000Y-78478748D01*
X155650000Y-79001252D02*
X155650000Y-78478748D01*
X126357748Y-101294000D02*
X126880252Y-101294000D01*
X126357748Y-99874000D02*
X126880252Y-99874000D01*
X148392000Y-80944000D02*
X148392000Y-83804000D01*
X150312000Y-80944000D02*
X148392000Y-80944000D01*
X150312000Y-83804000D02*
X150312000Y-80944000D01*
X122285000Y-100640000D02*
X119425000Y-100640000D01*
X119425000Y-100640000D02*
X119425000Y-102560000D01*
X119425000Y-102560000D02*
X122285000Y-102560000D01*
X134168000Y-80944000D02*
X134168000Y-83804000D01*
X136088000Y-80944000D02*
X134168000Y-80944000D01*
X136088000Y-83804000D02*
X136088000Y-80944000D01*
X167867500Y-94918000D02*
X168317500Y-94918000D01*
X167867500Y-94918000D02*
X167867500Y-94468000D01*
X168417500Y-89318000D02*
X168417500Y-89768000D01*
X170267500Y-89318000D02*
X168417500Y-89318000D01*
X172817500Y-97118000D02*
X172567500Y-97118000D01*
X172817500Y-89318000D02*
X172567500Y-89318000D01*
X170267500Y-97118000D02*
X168417500Y-97118000D01*
X168417500Y-97118000D02*
X168417500Y-96668000D01*
X138120000Y-83804000D02*
X138120000Y-80944000D01*
X138120000Y-80944000D02*
X136200000Y-80944000D01*
X136200000Y-80944000D02*
X136200000Y-83804000D01*
X129078000Y-67744000D02*
X128578000Y-67744000D01*
X129078000Y-68484000D02*
X129078000Y-67744000D01*
X122385000Y-71621000D02*
X122432000Y-71575000D01*
X120088000Y-73919000D02*
X120123000Y-73883000D01*
X122192000Y-71405000D02*
X122227000Y-71370000D01*
X119883000Y-73713000D02*
X119930000Y-73667000D01*
X118558000Y-77905000D02*
X118558000Y-67984000D01*
X128838000Y-77905000D02*
X128838000Y-67984000D01*
X128838000Y-67984000D02*
X118558000Y-67984000D01*
X128838000Y-77905000D02*
X118558000Y-77905000D01*
X128838000Y-74945000D02*
X118558000Y-74945000D01*
X128838000Y-70044000D02*
X118558000Y-70044000D01*
X128838000Y-68544000D02*
X118558000Y-68544000D01*
X122838000Y-72644000D02*
G75*
G03X122838000Y-72644000I-1680000J0D01*
G01*
X126209195Y-70963747D02*
G75*
G02X126922000Y-71109000I28805J-1680253D01*
G01*
X127773426Y-71960958D02*
G75*
G02X127773000Y-73328000I-1535426J-683042D01*
G01*
X126921042Y-74179426D02*
G75*
G02X125554000Y-74179000I-683042J1535426D01*
G01*
X124702574Y-73327042D02*
G75*
G02X124703000Y-71960000I1535426J683042D01*
G01*
X125554682Y-71109244D02*
G75*
G02X126238000Y-70964000I683318J-1534756D01*
G01*
X151128000Y-98354000D02*
X149668000Y-98354000D01*
X151128000Y-95194000D02*
X148968000Y-95194000D01*
X151128000Y-95194000D02*
X151128000Y-96124000D01*
X151128000Y-98354000D02*
X151128000Y-97424000D01*
X146052000Y-95194000D02*
X146052000Y-96124000D01*
X146052000Y-98354000D02*
X146052000Y-97424000D01*
X146052000Y-98354000D02*
X148212000Y-98354000D01*
X146052000Y-95194000D02*
X147512000Y-95194000D01*
X126880252Y-108914000D02*
X126357748Y-108914000D01*
X126880252Y-107494000D02*
X126357748Y-107494000D01*
X158832000Y-103434000D02*
X155972000Y-103434000D01*
X158832000Y-105354000D02*
X158832000Y-103434000D01*
X155972000Y-105354000D02*
X158832000Y-105354000D01*
X156710748Y-105970000D02*
X157233252Y-105970000D01*
X156710748Y-107390000D02*
X157233252Y-107390000D01*
X126880252Y-103199000D02*
X126357748Y-103199000D01*
X126880252Y-101779000D02*
X126357748Y-101779000D01*
X129892000Y-118467000D02*
X129892000Y-118847000D01*
X129472000Y-118467000D02*
X129892000Y-118467000D01*
X129472000Y-100227000D02*
X129892000Y-100227000D01*
X129472000Y-118467000D02*
X129472000Y-100227000D01*
X148912000Y-100227000D02*
X148912000Y-101227000D01*
X148292000Y-100227000D02*
X148912000Y-100227000D01*
X148912000Y-118467000D02*
X148912000Y-117467000D01*
X148292000Y-118467000D02*
X148912000Y-118467000D01*
X159782000Y-105354000D02*
X162642000Y-105354000D01*
X162642000Y-105354000D02*
X162642000Y-103434000D01*
X162642000Y-103434000D02*
X159782000Y-103434000D01*
X160730000Y-93987252D02*
X160730000Y-93464748D01*
X159310000Y-93987252D02*
X159310000Y-93464748D01*
X164390000Y-117609252D02*
X164390000Y-117086748D01*
X165810000Y-117609252D02*
X165810000Y-117086748D01*
X118961000Y-107869000D02*
X118961000Y-107569000D01*
X123101000Y-104729000D02*
X123101000Y-105029000D01*
X123101000Y-107569000D02*
X123101000Y-107869000D01*
X118961000Y-104729000D02*
X123101000Y-104729000D01*
X118961000Y-105029000D02*
X118961000Y-104729000D01*
X123101000Y-107869000D02*
X118961000Y-107869000D01*
X126880252Y-105589000D02*
X126357748Y-105589000D01*
X126880252Y-107009000D02*
X126357748Y-107009000D01*
X151690000Y-79010252D02*
X151690000Y-78487748D01*
X153110000Y-79010252D02*
X153110000Y-78487748D01*
X160520748Y-107390000D02*
X161043252Y-107390000D01*
X160520748Y-105970000D02*
X161043252Y-105970000D01*
X126357748Y-110819000D02*
X126880252Y-110819000D01*
X126357748Y-109399000D02*
X126880252Y-109399000D01*
D12*
X161329000Y-91364000D02*
X162404000Y-91364000D01*
X161329000Y-81639000D02*
X156679000Y-81639000D01*
X161329000Y-91589000D02*
X156679000Y-91589000D01*
X161329000Y-81639000D02*
X161329000Y-81964000D01*
X156679000Y-81639000D02*
X156679000Y-81964000D01*
X156679000Y-91589000D02*
X156679000Y-91264000D01*
X161329000Y-91589000D02*
X161329000Y-91364000D01*
D10*
X128329000Y-118997000D02*
X128329000Y-112062000D01*
X124909000Y-118997000D02*
X128329000Y-118997000D01*
X124909000Y-112062000D02*
X124909000Y-118997000D01*
X123101000Y-112949000D02*
X118961000Y-112949000D01*
X118961000Y-110109000D02*
X118961000Y-109809000D01*
X118961000Y-109809000D02*
X123101000Y-109809000D01*
X123101000Y-112649000D02*
X123101000Y-112949000D01*
X123101000Y-109809000D02*
X123101000Y-110109000D01*
X118961000Y-112949000D02*
X118961000Y-112649000D01*
D12*
X156129000Y-109042000D02*
X154529000Y-109042000D01*
X156129000Y-119117000D02*
X161879000Y-119117000D01*
X156129000Y-108467000D02*
X161879000Y-108467000D01*
X156129000Y-119117000D02*
X156129000Y-118467000D01*
X161879000Y-119117000D02*
X161879000Y-118467000D01*
X161879000Y-108467000D02*
X161879000Y-109117000D01*
X156129000Y-108467000D02*
X156129000Y-109042000D01*
D10*
X138232000Y-80944000D02*
X138232000Y-83804000D01*
X140152000Y-80944000D02*
X138232000Y-80944000D01*
X140152000Y-83804000D02*
X140152000Y-80944000D01*
X142184000Y-83804000D02*
X142184000Y-80944000D01*
X142184000Y-80944000D02*
X140264000Y-80944000D01*
X140264000Y-80944000D02*
X140264000Y-83804000D01*
X144216000Y-83804000D02*
X144216000Y-80944000D01*
X144216000Y-80944000D02*
X142296000Y-80944000D01*
X142296000Y-80944000D02*
X142296000Y-83804000D01*
X144328000Y-80944000D02*
X144328000Y-83804000D01*
X146248000Y-80944000D02*
X144328000Y-80944000D01*
X146248000Y-83804000D02*
X146248000Y-80944000D01*
X146360000Y-80944000D02*
X146360000Y-83804000D01*
X148280000Y-80944000D02*
X146360000Y-80944000D01*
X148280000Y-83804000D02*
X148280000Y-80944000D01*
X166826000Y-75958000D02*
X166510493Y-75958000D01*
X164721507Y-75958000D02*
X164406000Y-75958000D01*
X165721507Y-75958000D02*
X165510493Y-75958000D01*
X166826000Y-79833000D02*
X166826000Y-75958000D01*
X164406000Y-81078000D02*
X164406000Y-75958000D01*
X166826000Y-79833000D02*
X166724276Y-79833000D01*
X164721507Y-81078000D02*
X164406000Y-81078000D01*
X166826000Y-80518000D02*
X166826000Y-81203000D01*
X166826000Y-81203000D02*
X166116000Y-81203000D01*
X156694000Y-80540000D02*
X156304000Y-80540000D01*
X156304000Y-80540000D02*
X156304000Y-76940000D01*
X156304000Y-76940000D02*
X156694000Y-76940000D01*
X159374000Y-80540000D02*
X158634000Y-80540000D01*
X161314000Y-76240000D02*
X161314000Y-76940000D01*
X161314000Y-76940000D02*
X161704000Y-76940000D01*
X161704000Y-76940000D02*
X161704000Y-80540000D01*
X161704000Y-80540000D02*
X161314000Y-80540000D01*
X158634000Y-76940000D02*
X159374000Y-76940000D01*
X159374000Y-76940000D02*
X159374000Y-76240000D01*
D13*
X162795523Y-67460761D02*
X162938380Y-67508380D01*
X163176476Y-67508380D01*
X163271714Y-67460761D01*
X163319333Y-67413142D01*
X163366952Y-67317904D01*
X163366952Y-67222666D01*
X163319333Y-67127428D01*
X163271714Y-67079809D01*
X163176476Y-67032190D01*
X162986000Y-66984571D01*
X162890761Y-66936952D01*
X162843142Y-66889333D01*
X162795523Y-66794095D01*
X162795523Y-66698857D01*
X162843142Y-66603619D01*
X162890761Y-66556000D01*
X162986000Y-66508380D01*
X163224095Y-66508380D01*
X163366952Y-66556000D01*
X163795523Y-67508380D02*
X163795523Y-66508380D01*
X164271714Y-67508380D02*
X164271714Y-66508380D01*
X164509809Y-66508380D01*
X164652666Y-66556000D01*
X164747904Y-66651238D01*
X164795523Y-66746476D01*
X164843142Y-66936952D01*
X164843142Y-67079809D01*
X164795523Y-67270285D01*
X164747904Y-67365523D01*
X164652666Y-67460761D01*
X164509809Y-67508380D01*
X164271714Y-67508380D01*
X165795523Y-67508380D02*
X165224095Y-67508380D01*
X165509809Y-67508380D02*
X165509809Y-66508380D01*
X165414571Y-66651238D01*
X165319333Y-66746476D01*
X165224095Y-66794095D01*
D12*
X122172023Y-116498714D02*
X122172023Y-117165380D01*
X121933928Y-116117761D02*
X121695833Y-116832047D01*
X122314880Y-116832047D01*
X122600595Y-116165380D02*
X123267261Y-116165380D01*
X122838690Y-117165380D01*
X123838690Y-116165380D02*
X123933928Y-116165380D01*
X124029166Y-116213000D01*
X124076785Y-116260619D01*
X124124404Y-116355857D01*
X124172023Y-116546333D01*
X124172023Y-116784428D01*
X124124404Y-116974904D01*
X124076785Y-117070142D01*
X124029166Y-117117761D01*
X123933928Y-117165380D01*
X123838690Y-117165380D01*
X123743452Y-117117761D01*
X123695833Y-117070142D01*
X123648214Y-116974904D01*
X123600595Y-116784428D01*
X123600595Y-116546333D01*
X123648214Y-116355857D01*
X123695833Y-116260619D01*
X123743452Y-116213000D01*
X123838690Y-116165380D01*
D13*
X143856666Y-67508380D02*
X143856666Y-66508380D01*
X144904285Y-67413142D02*
X144856666Y-67460761D01*
X144713809Y-67508380D01*
X144618571Y-67508380D01*
X144475714Y-67460761D01*
X144380476Y-67365523D01*
X144332857Y-67270285D01*
X144285238Y-67079809D01*
X144285238Y-66936952D01*
X144332857Y-66746476D01*
X144380476Y-66651238D01*
X144475714Y-66556000D01*
X144618571Y-66508380D01*
X144713809Y-66508380D01*
X144856666Y-66556000D01*
X144904285Y-66603619D01*
X145332857Y-67508380D02*
X145332857Y-66508380D01*
X145666190Y-67222666D01*
X145999523Y-66508380D01*
X145999523Y-67508380D01*
X146999523Y-67508380D02*
X146428095Y-67508380D01*
X146713809Y-67508380D02*
X146713809Y-66508380D01*
X146618571Y-66651238D01*
X146523333Y-66746476D01*
X146428095Y-66794095D01*
D14*
X136544071Y-75264928D02*
X136544071Y-74664928D01*
X136544071Y-74950642D02*
X136886928Y-74950642D01*
X136886928Y-75264928D02*
X136886928Y-74664928D01*
X135631214Y-75264928D02*
X135345500Y-75264928D01*
X135345500Y-74664928D01*
X132948357Y-73680642D02*
X133034071Y-73709214D01*
X133062642Y-73737785D01*
X133091214Y-73794928D01*
X133091214Y-73880642D01*
X133062642Y-73937785D01*
X133034071Y-73966357D01*
X132976928Y-73994928D01*
X132748357Y-73994928D01*
X132748357Y-73394928D01*
X132948357Y-73394928D01*
X133005500Y-73423500D01*
X133034071Y-73452071D01*
X133062642Y-73509214D01*
X133062642Y-73566357D01*
X133034071Y-73623500D01*
X133005500Y-73652071D01*
X132948357Y-73680642D01*
X132748357Y-73680642D01*
X133946928Y-73766357D02*
X134404071Y-73766357D01*
X134175500Y-73994928D02*
X134175500Y-73537785D01*
X136458357Y-73394928D02*
X136601214Y-73994928D01*
X136715500Y-73566357D01*
X136829785Y-73994928D01*
X136972642Y-73394928D01*
X137756928Y-73766357D02*
X138214071Y-73766357D01*
D12*
X155011380Y-82002285D02*
X155011380Y-82573714D01*
X155011380Y-82288000D02*
X154011380Y-82288000D01*
X154154238Y-82383238D01*
X154249476Y-82478476D01*
X154297095Y-82573714D01*
X155011380Y-81573714D02*
X154011380Y-81573714D01*
X155011380Y-81002285D02*
X154439952Y-81430857D01*
X154011380Y-81002285D02*
X154582809Y-81573714D01*
X122181023Y-113958714D02*
X122181023Y-114625380D01*
X121942928Y-113577761D02*
X121704833Y-114292047D01*
X122323880Y-114292047D01*
X122609595Y-113625380D02*
X123276261Y-113625380D01*
X122847690Y-114625380D01*
X123847690Y-113625380D02*
X123942928Y-113625380D01*
X124038166Y-113673000D01*
X124085785Y-113720619D01*
X124133404Y-113815857D01*
X124181023Y-114006333D01*
X124181023Y-114244428D01*
X124133404Y-114434904D01*
X124085785Y-114530142D01*
X124038166Y-114577761D01*
X123942928Y-114625380D01*
X123847690Y-114625380D01*
X123752452Y-114577761D01*
X123704833Y-114530142D01*
X123657214Y-114434904D01*
X123609595Y-114244428D01*
X123609595Y-114006333D01*
X123657214Y-113815857D01*
X123704833Y-113720619D01*
X123752452Y-113673000D01*
X123847690Y-113625380D01*
X149804380Y-86590095D02*
X148804380Y-86590095D01*
X148804380Y-86352000D01*
X148852000Y-86209142D01*
X148947238Y-86113904D01*
X149042476Y-86066285D01*
X149232952Y-86018666D01*
X149375809Y-86018666D01*
X149566285Y-86066285D01*
X149661523Y-86113904D01*
X149756761Y-86209142D01*
X149804380Y-86352000D01*
X149804380Y-86590095D01*
X149232952Y-85447238D02*
X149185333Y-85542476D01*
X149137714Y-85590095D01*
X149042476Y-85637714D01*
X148994857Y-85637714D01*
X148899619Y-85590095D01*
X148852000Y-85542476D01*
X148804380Y-85447238D01*
X148804380Y-85256761D01*
X148852000Y-85161523D01*
X148899619Y-85113904D01*
X148994857Y-85066285D01*
X149042476Y-85066285D01*
X149137714Y-85113904D01*
X149185333Y-85161523D01*
X149232952Y-85256761D01*
X149232952Y-85447238D01*
X149280571Y-85542476D01*
X149328190Y-85590095D01*
X149423428Y-85637714D01*
X149613904Y-85637714D01*
X149709142Y-85590095D01*
X149756761Y-85542476D01*
X149804380Y-85447238D01*
X149804380Y-85256761D01*
X149756761Y-85161523D01*
X149709142Y-85113904D01*
X149613904Y-85066285D01*
X149423428Y-85066285D01*
X149328190Y-85113904D01*
X149280571Y-85161523D01*
X149232952Y-85256761D01*
X117498904Y-102052380D02*
X117498904Y-101052380D01*
X117737000Y-101052380D01*
X117879857Y-101100000D01*
X117975095Y-101195238D01*
X118022714Y-101290476D01*
X118070333Y-101480952D01*
X118070333Y-101623809D01*
X118022714Y-101814285D01*
X117975095Y-101909523D01*
X117879857Y-102004761D01*
X117737000Y-102052380D01*
X117498904Y-102052380D01*
X118546523Y-102052380D02*
X118737000Y-102052380D01*
X118832238Y-102004761D01*
X118879857Y-101957142D01*
X118975095Y-101814285D01*
X119022714Y-101623809D01*
X119022714Y-101242857D01*
X118975095Y-101147619D01*
X118927476Y-101100000D01*
X118832238Y-101052380D01*
X118641761Y-101052380D01*
X118546523Y-101100000D01*
X118498904Y-101147619D01*
X118451285Y-101242857D01*
X118451285Y-101480952D01*
X118498904Y-101576190D01*
X118546523Y-101623809D01*
X118641761Y-101671428D01*
X118832238Y-101671428D01*
X118927476Y-101623809D01*
X118975095Y-101576190D01*
X119022714Y-101480952D01*
X135580380Y-86590095D02*
X134580380Y-86590095D01*
X134580380Y-86352000D01*
X134628000Y-86209142D01*
X134723238Y-86113904D01*
X134818476Y-86066285D01*
X135008952Y-86018666D01*
X135151809Y-86018666D01*
X135342285Y-86066285D01*
X135437523Y-86113904D01*
X135532761Y-86209142D01*
X135580380Y-86352000D01*
X135580380Y-86590095D01*
X135580380Y-85066285D02*
X135580380Y-85637714D01*
X135580380Y-85352000D02*
X134580380Y-85352000D01*
X134723238Y-85447238D01*
X134818476Y-85542476D01*
X134866095Y-85637714D01*
X166933571Y-97575142D02*
X166933571Y-97241809D01*
X167457380Y-97098952D02*
X167457380Y-97575142D01*
X166457380Y-97575142D01*
X166457380Y-97098952D01*
X167409761Y-96718000D02*
X167457380Y-96575142D01*
X167457380Y-96337047D01*
X167409761Y-96241809D01*
X167362142Y-96194190D01*
X167266904Y-96146571D01*
X167171666Y-96146571D01*
X167076428Y-96194190D01*
X167028809Y-96241809D01*
X166981190Y-96337047D01*
X166933571Y-96527523D01*
X166885952Y-96622761D01*
X166838333Y-96670380D01*
X166743095Y-96718000D01*
X166647857Y-96718000D01*
X166552619Y-96670380D01*
X166505000Y-96622761D01*
X166457380Y-96527523D01*
X166457380Y-96289428D01*
X166505000Y-96146571D01*
X167457380Y-95718000D02*
X166457380Y-95718000D01*
X166457380Y-95337047D01*
X166505000Y-95241809D01*
X166552619Y-95194190D01*
X166647857Y-95146571D01*
X166790714Y-95146571D01*
X166885952Y-95194190D01*
X166933571Y-95241809D01*
X166981190Y-95337047D01*
X166981190Y-95718000D01*
X166457380Y-94813238D02*
X166457380Y-94194190D01*
X166838333Y-94527523D01*
X166838333Y-94384666D01*
X166885952Y-94289428D01*
X166933571Y-94241809D01*
X167028809Y-94194190D01*
X167266904Y-94194190D01*
X167362142Y-94241809D01*
X167409761Y-94289428D01*
X167457380Y-94384666D01*
X167457380Y-94670380D01*
X167409761Y-94765619D01*
X167362142Y-94813238D01*
X166552619Y-93813238D02*
X166505000Y-93765619D01*
X166457380Y-93670380D01*
X166457380Y-93432285D01*
X166505000Y-93337047D01*
X166552619Y-93289428D01*
X166647857Y-93241809D01*
X166743095Y-93241809D01*
X166885952Y-93289428D01*
X167457380Y-93860857D01*
X167457380Y-93241809D01*
X166457380Y-92051333D02*
X167266904Y-92051333D01*
X167362142Y-92003714D01*
X167409761Y-91956095D01*
X167457380Y-91860857D01*
X167457380Y-91670380D01*
X167409761Y-91575142D01*
X167362142Y-91527523D01*
X167266904Y-91479904D01*
X166457380Y-91479904D01*
X167171666Y-91051333D02*
X167171666Y-90575142D01*
X167457380Y-91146571D02*
X166457380Y-90813238D01*
X167457380Y-90479904D01*
X167457380Y-89575142D02*
X166981190Y-89908476D01*
X167457380Y-90146571D02*
X166457380Y-90146571D01*
X166457380Y-89765619D01*
X166505000Y-89670380D01*
X166552619Y-89622761D01*
X166647857Y-89575142D01*
X166790714Y-89575142D01*
X166885952Y-89622761D01*
X166933571Y-89670380D01*
X166981190Y-89765619D01*
X166981190Y-90146571D01*
X166457380Y-89289428D02*
X166457380Y-88718000D01*
X167457380Y-89003714D02*
X166457380Y-89003714D01*
X137612380Y-86590095D02*
X136612380Y-86590095D01*
X136612380Y-86352000D01*
X136660000Y-86209142D01*
X136755238Y-86113904D01*
X136850476Y-86066285D01*
X137040952Y-86018666D01*
X137183809Y-86018666D01*
X137374285Y-86066285D01*
X137469523Y-86113904D01*
X137564761Y-86209142D01*
X137612380Y-86352000D01*
X137612380Y-86590095D01*
X136707619Y-85637714D02*
X136660000Y-85590095D01*
X136612380Y-85494857D01*
X136612380Y-85256761D01*
X136660000Y-85161523D01*
X136707619Y-85113904D01*
X136802857Y-85066285D01*
X136898095Y-85066285D01*
X137040952Y-85113904D01*
X137612380Y-85685333D01*
X137612380Y-85066285D01*
X121102761Y-67000380D02*
X121102761Y-66000380D01*
X121578952Y-66619428D02*
X122340857Y-66619428D01*
X123150380Y-66476571D02*
X123293238Y-66524190D01*
X123340857Y-66571809D01*
X123388476Y-66667047D01*
X123388476Y-66809904D01*
X123340857Y-66905142D01*
X123293238Y-66952761D01*
X123198000Y-67000380D01*
X122817047Y-67000380D01*
X122817047Y-66000380D01*
X123150380Y-66000380D01*
X123245619Y-66048000D01*
X123293238Y-66095619D01*
X123340857Y-66190857D01*
X123340857Y-66286095D01*
X123293238Y-66381333D01*
X123245619Y-66428952D01*
X123150380Y-66476571D01*
X122817047Y-66476571D01*
X123817047Y-66000380D02*
X123817047Y-66809904D01*
X123864666Y-66905142D01*
X123912285Y-66952761D01*
X124007523Y-67000380D01*
X124198000Y-67000380D01*
X124293238Y-66952761D01*
X124340857Y-66905142D01*
X124388476Y-66809904D01*
X124388476Y-66000380D01*
X124817047Y-66952761D02*
X124959904Y-67000380D01*
X125198000Y-67000380D01*
X125293238Y-66952761D01*
X125340857Y-66905142D01*
X125388476Y-66809904D01*
X125388476Y-66714666D01*
X125340857Y-66619428D01*
X125293238Y-66571809D01*
X125198000Y-66524190D01*
X125007523Y-66476571D01*
X124912285Y-66428952D01*
X124864666Y-66381333D01*
X124817047Y-66286095D01*
X124817047Y-66190857D01*
X124864666Y-66095619D01*
X124912285Y-66048000D01*
X125007523Y-66000380D01*
X125245619Y-66000380D01*
X125388476Y-66048000D01*
X126340857Y-67000380D02*
X125769428Y-67000380D01*
X126055142Y-67000380D02*
X126055142Y-66000380D01*
X125959904Y-66143238D01*
X125864666Y-66238476D01*
X125769428Y-66286095D01*
X146678880Y-94367357D02*
X146793166Y-94405452D01*
X146831261Y-94443547D01*
X146869357Y-94519738D01*
X146869357Y-94634023D01*
X146831261Y-94710214D01*
X146793166Y-94748309D01*
X146716976Y-94786404D01*
X146412214Y-94786404D01*
X146412214Y-93986404D01*
X146678880Y-93986404D01*
X146755071Y-94024500D01*
X146793166Y-94062595D01*
X146831261Y-94138785D01*
X146831261Y-94214976D01*
X146793166Y-94291166D01*
X146755071Y-94329261D01*
X146678880Y-94367357D01*
X146412214Y-94367357D01*
X147174119Y-94748309D02*
X147288404Y-94786404D01*
X147478880Y-94786404D01*
X147555071Y-94748309D01*
X147593166Y-94710214D01*
X147631261Y-94634023D01*
X147631261Y-94557833D01*
X147593166Y-94481642D01*
X147555071Y-94443547D01*
X147478880Y-94405452D01*
X147326500Y-94367357D01*
X147250309Y-94329261D01*
X147212214Y-94291166D01*
X147174119Y-94214976D01*
X147174119Y-94138785D01*
X147212214Y-94062595D01*
X147250309Y-94024500D01*
X147326500Y-93986404D01*
X147516976Y-93986404D01*
X147631261Y-94024500D01*
X147936023Y-94748309D02*
X148050309Y-94786404D01*
X148240785Y-94786404D01*
X148316976Y-94748309D01*
X148355071Y-94710214D01*
X148393166Y-94634023D01*
X148393166Y-94557833D01*
X148355071Y-94481642D01*
X148316976Y-94443547D01*
X148240785Y-94405452D01*
X148088404Y-94367357D01*
X148012214Y-94329261D01*
X147974119Y-94291166D01*
X147936023Y-94214976D01*
X147936023Y-94138785D01*
X147974119Y-94062595D01*
X148012214Y-94024500D01*
X148088404Y-93986404D01*
X148278880Y-93986404D01*
X148393166Y-94024500D01*
X149155071Y-94786404D02*
X148697928Y-94786404D01*
X148926500Y-94786404D02*
X148926500Y-93986404D01*
X148850309Y-94100690D01*
X148774119Y-94176880D01*
X148697928Y-94214976D01*
X149421738Y-93986404D02*
X149916976Y-93986404D01*
X149650309Y-94291166D01*
X149764595Y-94291166D01*
X149840785Y-94329261D01*
X149878880Y-94367357D01*
X149916976Y-94443547D01*
X149916976Y-94634023D01*
X149878880Y-94710214D01*
X149840785Y-94748309D01*
X149764595Y-94786404D01*
X149536023Y-94786404D01*
X149459833Y-94748309D01*
X149421738Y-94710214D01*
X150374119Y-94329261D02*
X150297928Y-94291166D01*
X150259833Y-94253071D01*
X150221738Y-94176880D01*
X150221738Y-94138785D01*
X150259833Y-94062595D01*
X150297928Y-94024500D01*
X150374119Y-93986404D01*
X150526500Y-93986404D01*
X150602690Y-94024500D01*
X150640785Y-94062595D01*
X150678880Y-94138785D01*
X150678880Y-94176880D01*
X150640785Y-94253071D01*
X150602690Y-94291166D01*
X150526500Y-94329261D01*
X150374119Y-94329261D01*
X150297928Y-94367357D01*
X150259833Y-94405452D01*
X150221738Y-94481642D01*
X150221738Y-94634023D01*
X150259833Y-94710214D01*
X150297928Y-94748309D01*
X150374119Y-94786404D01*
X150526500Y-94786404D01*
X150602690Y-94748309D01*
X150640785Y-94710214D01*
X150678880Y-94634023D01*
X150678880Y-94481642D01*
X150640785Y-94405452D01*
X150602690Y-94367357D01*
X150526500Y-94329261D01*
X123172023Y-119705380D02*
X122600595Y-119705380D01*
X122886309Y-119705380D02*
X122886309Y-118705380D01*
X122791071Y-118848238D01*
X122695833Y-118943476D01*
X122600595Y-118991095D01*
X123600595Y-119705380D02*
X123600595Y-118705380D01*
X124172023Y-119705380D02*
X123743452Y-119133952D01*
X124172023Y-118705380D02*
X123600595Y-119276809D01*
X152239333Y-104846380D02*
X152239333Y-103846380D01*
X152477428Y-103846380D01*
X152620285Y-103894000D01*
X152715523Y-103989238D01*
X152763142Y-104084476D01*
X152810761Y-104274952D01*
X152810761Y-104417809D01*
X152763142Y-104608285D01*
X152715523Y-104703523D01*
X152620285Y-104798761D01*
X152477428Y-104846380D01*
X152239333Y-104846380D01*
X153763142Y-104846380D02*
X153191714Y-104846380D01*
X153477428Y-104846380D02*
X153477428Y-103846380D01*
X153382190Y-103989238D01*
X153286952Y-104084476D01*
X153191714Y-104132095D01*
X154144095Y-103941619D02*
X154191714Y-103894000D01*
X154286952Y-103846380D01*
X154525047Y-103846380D01*
X154620285Y-103894000D01*
X154667904Y-103941619D01*
X154715523Y-104036857D01*
X154715523Y-104132095D01*
X154667904Y-104274952D01*
X154096476Y-104846380D01*
X154715523Y-104846380D01*
X153715523Y-107132380D02*
X153144095Y-107132380D01*
X153429809Y-107132380D02*
X153429809Y-106132380D01*
X153334571Y-106275238D01*
X153239333Y-106370476D01*
X153144095Y-106418095D01*
X154144095Y-107132380D02*
X154144095Y-106132380D01*
X154715523Y-107132380D02*
X154286952Y-106560952D01*
X154715523Y-106132380D02*
X154144095Y-106703809D01*
X123172023Y-115895380D02*
X122600595Y-115895380D01*
X122886309Y-115895380D02*
X122886309Y-114895380D01*
X122791071Y-115038238D01*
X122695833Y-115133476D01*
X122600595Y-115181095D01*
X123600595Y-115895380D02*
X123600595Y-114895380D01*
X124172023Y-115895380D02*
X123743452Y-115323952D01*
X124172023Y-114895380D02*
X123600595Y-115466809D01*
X142510142Y-115498571D02*
X142843476Y-115498571D01*
X142986333Y-116022380D02*
X142510142Y-116022380D01*
X142510142Y-115022380D01*
X142986333Y-115022380D01*
X143367285Y-115974761D02*
X143510142Y-116022380D01*
X143748238Y-116022380D01*
X143843476Y-115974761D01*
X143891095Y-115927142D01*
X143938714Y-115831904D01*
X143938714Y-115736666D01*
X143891095Y-115641428D01*
X143843476Y-115593809D01*
X143748238Y-115546190D01*
X143557761Y-115498571D01*
X143462523Y-115450952D01*
X143414904Y-115403333D01*
X143367285Y-115308095D01*
X143367285Y-115212857D01*
X143414904Y-115117619D01*
X143462523Y-115070000D01*
X143557761Y-115022380D01*
X143795857Y-115022380D01*
X143938714Y-115070000D01*
X144367285Y-116022380D02*
X144367285Y-115022380D01*
X144748238Y-115022380D01*
X144843476Y-115070000D01*
X144891095Y-115117619D01*
X144938714Y-115212857D01*
X144938714Y-115355714D01*
X144891095Y-115450952D01*
X144843476Y-115498571D01*
X144748238Y-115546190D01*
X144367285Y-115546190D01*
X145272047Y-115022380D02*
X145891095Y-115022380D01*
X145557761Y-115403333D01*
X145700619Y-115403333D01*
X145795857Y-115450952D01*
X145843476Y-115498571D01*
X145891095Y-115593809D01*
X145891095Y-115831904D01*
X145843476Y-115927142D01*
X145795857Y-115974761D01*
X145700619Y-116022380D01*
X145414904Y-116022380D01*
X145319666Y-115974761D01*
X145272047Y-115927142D01*
X146272047Y-115117619D02*
X146319666Y-115070000D01*
X146414904Y-115022380D01*
X146653000Y-115022380D01*
X146748238Y-115070000D01*
X146795857Y-115117619D01*
X146843476Y-115212857D01*
X146843476Y-115308095D01*
X146795857Y-115450952D01*
X146224428Y-116022380D01*
X146843476Y-116022380D01*
X163086095Y-104909880D02*
X163086095Y-103909880D01*
X163324190Y-103909880D01*
X163467047Y-103957500D01*
X163562285Y-104052738D01*
X163609904Y-104147976D01*
X163657523Y-104338452D01*
X163657523Y-104481309D01*
X163609904Y-104671785D01*
X163562285Y-104767023D01*
X163467047Y-104862261D01*
X163324190Y-104909880D01*
X163086095Y-104909880D01*
X164609904Y-104909880D02*
X164038476Y-104909880D01*
X164324190Y-104909880D02*
X164324190Y-103909880D01*
X164228952Y-104052738D01*
X164133714Y-104147976D01*
X164038476Y-104195595D01*
X164943238Y-103909880D02*
X165562285Y-103909880D01*
X165228952Y-104290833D01*
X165371809Y-104290833D01*
X165467047Y-104338452D01*
X165514666Y-104386071D01*
X165562285Y-104481309D01*
X165562285Y-104719404D01*
X165514666Y-104814642D01*
X165467047Y-104862261D01*
X165371809Y-104909880D01*
X165086095Y-104909880D01*
X164990857Y-104862261D01*
X164943238Y-104814642D01*
X162377380Y-94321238D02*
X162377380Y-94892666D01*
X162377380Y-94606952D02*
X161377380Y-94606952D01*
X161520238Y-94702190D01*
X161615476Y-94797428D01*
X161663095Y-94892666D01*
X161710714Y-93464095D02*
X162377380Y-93464095D01*
X161710714Y-93892666D02*
X162234523Y-93892666D01*
X162329761Y-93845047D01*
X162377380Y-93749809D01*
X162377380Y-93606952D01*
X162329761Y-93511714D01*
X162282142Y-93464095D01*
X161853571Y-92654571D02*
X161853571Y-92987904D01*
X162377380Y-92987904D02*
X161377380Y-92987904D01*
X161377380Y-92511714D01*
X167330380Y-117943238D02*
X167330380Y-118514666D01*
X167330380Y-118228952D02*
X166330380Y-118228952D01*
X166473238Y-118324190D01*
X166568476Y-118419428D01*
X166616095Y-118514666D01*
X166663714Y-117086095D02*
X167330380Y-117086095D01*
X166663714Y-117514666D02*
X167187523Y-117514666D01*
X167282761Y-117467047D01*
X167330380Y-117371809D01*
X167330380Y-117228952D01*
X167282761Y-117133714D01*
X167235142Y-117086095D01*
X166806571Y-116276571D02*
X166806571Y-116609904D01*
X167330380Y-116609904D02*
X166330380Y-116609904D01*
X166330380Y-116133714D01*
X114060119Y-106227571D02*
X113726785Y-106227571D01*
X113726785Y-106751380D02*
X113726785Y-105751380D01*
X114202976Y-105751380D01*
X115060119Y-106751380D02*
X114583928Y-106751380D01*
X114583928Y-105751380D01*
X115345833Y-106465666D02*
X115822023Y-106465666D01*
X115250595Y-106751380D02*
X115583928Y-105751380D01*
X115917261Y-106751380D01*
X116202976Y-106703761D02*
X116345833Y-106751380D01*
X116583928Y-106751380D01*
X116679166Y-106703761D01*
X116726785Y-106656142D01*
X116774404Y-106560904D01*
X116774404Y-106465666D01*
X116726785Y-106370428D01*
X116679166Y-106322809D01*
X116583928Y-106275190D01*
X116393452Y-106227571D01*
X116298214Y-106179952D01*
X116250595Y-106132333D01*
X116202976Y-106037095D01*
X116202976Y-105941857D01*
X116250595Y-105846619D01*
X116298214Y-105799000D01*
X116393452Y-105751380D01*
X116631547Y-105751380D01*
X116774404Y-105799000D01*
X117202976Y-106751380D02*
X117202976Y-105751380D01*
X117202976Y-106227571D02*
X117774404Y-106227571D01*
X117774404Y-106751380D02*
X117774404Y-105751380D01*
X122181023Y-117768714D02*
X122181023Y-118435380D01*
X121942928Y-117387761D02*
X121704833Y-118102047D01*
X122323880Y-118102047D01*
X122609595Y-117435380D02*
X123276261Y-117435380D01*
X122847690Y-118435380D01*
X123847690Y-117435380D02*
X123942928Y-117435380D01*
X124038166Y-117483000D01*
X124085785Y-117530619D01*
X124133404Y-117625857D01*
X124181023Y-117816333D01*
X124181023Y-118054428D01*
X124133404Y-118244904D01*
X124085785Y-118340142D01*
X124038166Y-118387761D01*
X123942928Y-118435380D01*
X123847690Y-118435380D01*
X123752452Y-118387761D01*
X123704833Y-118340142D01*
X123657214Y-118244904D01*
X123609595Y-118054428D01*
X123609595Y-117816333D01*
X123657214Y-117625857D01*
X123704833Y-117530619D01*
X123752452Y-117483000D01*
X123847690Y-117435380D01*
X153487380Y-82002285D02*
X153487380Y-82573714D01*
X153487380Y-82288000D02*
X152487380Y-82288000D01*
X152630238Y-82383238D01*
X152725476Y-82478476D01*
X152773095Y-82573714D01*
X153487380Y-81573714D02*
X152487380Y-81573714D01*
X153487380Y-81002285D02*
X152915952Y-81430857D01*
X152487380Y-81002285D02*
X153058809Y-81573714D01*
X163609904Y-107132380D02*
X163038476Y-107132380D01*
X163324190Y-107132380D02*
X163324190Y-106132380D01*
X163228952Y-106275238D01*
X163133714Y-106370476D01*
X163038476Y-106418095D01*
X164038476Y-107132380D02*
X164038476Y-106132380D01*
X164609904Y-107132380D02*
X164181333Y-106560952D01*
X164609904Y-106132380D02*
X164038476Y-106703809D01*
X122410119Y-120975380D02*
X121838690Y-120975380D01*
X122124404Y-120975380D02*
X122124404Y-119975380D01*
X122029166Y-120118238D01*
X121933928Y-120213476D01*
X121838690Y-120261095D01*
X123267261Y-120308714D02*
X123267261Y-120975380D01*
X122838690Y-120308714D02*
X122838690Y-120832523D01*
X122886309Y-120927761D01*
X122981547Y-120975380D01*
X123124404Y-120975380D01*
X123219642Y-120927761D01*
X123267261Y-120880142D01*
X124076785Y-120451571D02*
X123743452Y-120451571D01*
X123743452Y-120975380D02*
X123743452Y-119975380D01*
X124219642Y-119975380D01*
X159408761Y-90494952D02*
X159456380Y-90352095D01*
X159456380Y-90114000D01*
X159408761Y-90018761D01*
X159361142Y-89971142D01*
X159265904Y-89923523D01*
X159170666Y-89923523D01*
X159075428Y-89971142D01*
X159027809Y-90018761D01*
X158980190Y-90114000D01*
X158932571Y-90304476D01*
X158884952Y-90399714D01*
X158837333Y-90447333D01*
X158742095Y-90494952D01*
X158646857Y-90494952D01*
X158551619Y-90447333D01*
X158504000Y-90399714D01*
X158456380Y-90304476D01*
X158456380Y-90066380D01*
X158504000Y-89923523D01*
X159361142Y-88923523D02*
X159408761Y-88971142D01*
X159456380Y-89114000D01*
X159456380Y-89209238D01*
X159408761Y-89352095D01*
X159313523Y-89447333D01*
X159218285Y-89494952D01*
X159027809Y-89542571D01*
X158884952Y-89542571D01*
X158694476Y-89494952D01*
X158599238Y-89447333D01*
X158504000Y-89352095D01*
X158456380Y-89209238D01*
X158456380Y-89114000D01*
X158504000Y-88971142D01*
X158551619Y-88923523D01*
X159456380Y-87971142D02*
X159456380Y-88542571D01*
X159456380Y-88256857D02*
X158456380Y-88256857D01*
X158599238Y-88352095D01*
X158694476Y-88447333D01*
X158742095Y-88542571D01*
X158456380Y-87114000D02*
X158456380Y-87304476D01*
X158504000Y-87399714D01*
X158551619Y-87447333D01*
X158694476Y-87542571D01*
X158884952Y-87590190D01*
X159265904Y-87590190D01*
X159361142Y-87542571D01*
X159408761Y-87494952D01*
X159456380Y-87399714D01*
X159456380Y-87209238D01*
X159408761Y-87114000D01*
X159361142Y-87066380D01*
X159265904Y-87018761D01*
X159027809Y-87018761D01*
X158932571Y-87066380D01*
X158884952Y-87114000D01*
X158837333Y-87209238D01*
X158837333Y-87399714D01*
X158884952Y-87494952D01*
X158932571Y-87542571D01*
X159027809Y-87590190D01*
X159456380Y-86590190D02*
X158456380Y-86590190D01*
X159408761Y-86161619D02*
X159456380Y-86018761D01*
X159456380Y-85780666D01*
X159408761Y-85685428D01*
X159361142Y-85637809D01*
X159265904Y-85590190D01*
X159170666Y-85590190D01*
X159075428Y-85637809D01*
X159027809Y-85685428D01*
X158980190Y-85780666D01*
X158932571Y-85971142D01*
X158884952Y-86066380D01*
X158837333Y-86114000D01*
X158742095Y-86161619D01*
X158646857Y-86161619D01*
X158551619Y-86114000D01*
X158504000Y-86066380D01*
X158456380Y-85971142D01*
X158456380Y-85733047D01*
X158504000Y-85590190D01*
X158456380Y-85256857D02*
X158456380Y-84590190D01*
X159456380Y-85018761D01*
X158456380Y-83733047D02*
X158456380Y-84209238D01*
X158932571Y-84256857D01*
X158884952Y-84209238D01*
X158837333Y-84114000D01*
X158837333Y-83875904D01*
X158884952Y-83780666D01*
X158932571Y-83733047D01*
X159027809Y-83685428D01*
X159265904Y-83685428D01*
X159361142Y-83733047D01*
X159408761Y-83780666D01*
X159456380Y-83875904D01*
X159456380Y-84114000D01*
X159408761Y-84209238D01*
X159361142Y-84256857D01*
X158551619Y-83304476D02*
X158504000Y-83256857D01*
X158456380Y-83161619D01*
X158456380Y-82923523D01*
X158504000Y-82828285D01*
X158551619Y-82780666D01*
X158646857Y-82733047D01*
X158742095Y-82733047D01*
X158884952Y-82780666D01*
X159456380Y-83352095D01*
X159456380Y-82733047D01*
X121457738Y-122245380D02*
X120886309Y-122245380D01*
X121172023Y-122245380D02*
X121172023Y-121245380D01*
X121076785Y-121388238D01*
X120981547Y-121483476D01*
X120886309Y-121531095D01*
X122076785Y-121245380D02*
X122172023Y-121245380D01*
X122267261Y-121293000D01*
X122314880Y-121340619D01*
X122362500Y-121435857D01*
X122410119Y-121626333D01*
X122410119Y-121864428D01*
X122362500Y-122054904D01*
X122314880Y-122150142D01*
X122267261Y-122197761D01*
X122172023Y-122245380D01*
X122076785Y-122245380D01*
X121981547Y-122197761D01*
X121933928Y-122150142D01*
X121886309Y-122054904D01*
X121838690Y-121864428D01*
X121838690Y-121626333D01*
X121886309Y-121435857D01*
X121933928Y-121340619D01*
X121981547Y-121293000D01*
X122076785Y-121245380D01*
X123267261Y-121578714D02*
X123267261Y-122245380D01*
X122838690Y-121578714D02*
X122838690Y-122102523D01*
X122886309Y-122197761D01*
X122981547Y-122245380D01*
X123124404Y-122245380D01*
X123219642Y-122197761D01*
X123267261Y-122150142D01*
X124076785Y-121721571D02*
X123743452Y-121721571D01*
X123743452Y-122245380D02*
X123743452Y-121245380D01*
X124219642Y-121245380D01*
X114726785Y-111307571D02*
X114869642Y-111355190D01*
X114917261Y-111402809D01*
X114964880Y-111498047D01*
X114964880Y-111640904D01*
X114917261Y-111736142D01*
X114869642Y-111783761D01*
X114774404Y-111831380D01*
X114393452Y-111831380D01*
X114393452Y-110831380D01*
X114726785Y-110831380D01*
X114822023Y-110879000D01*
X114869642Y-110926619D01*
X114917261Y-111021857D01*
X114917261Y-111117095D01*
X114869642Y-111212333D01*
X114822023Y-111259952D01*
X114726785Y-111307571D01*
X114393452Y-111307571D01*
X115583928Y-110831380D02*
X115774404Y-110831380D01*
X115869642Y-110879000D01*
X115964880Y-110974238D01*
X116012500Y-111164714D01*
X116012500Y-111498047D01*
X115964880Y-111688523D01*
X115869642Y-111783761D01*
X115774404Y-111831380D01*
X115583928Y-111831380D01*
X115488690Y-111783761D01*
X115393452Y-111688523D01*
X115345833Y-111498047D01*
X115345833Y-111164714D01*
X115393452Y-110974238D01*
X115488690Y-110879000D01*
X115583928Y-110831380D01*
X116631547Y-110831380D02*
X116822023Y-110831380D01*
X116917261Y-110879000D01*
X117012500Y-110974238D01*
X117060119Y-111164714D01*
X117060119Y-111498047D01*
X117012500Y-111688523D01*
X116917261Y-111783761D01*
X116822023Y-111831380D01*
X116631547Y-111831380D01*
X116536309Y-111783761D01*
X116441071Y-111688523D01*
X116393452Y-111498047D01*
X116393452Y-111164714D01*
X116441071Y-110974238D01*
X116536309Y-110879000D01*
X116631547Y-110831380D01*
X117345833Y-110831380D02*
X117917261Y-110831380D01*
X117631547Y-111831380D02*
X117631547Y-110831380D01*
X159361142Y-117268190D02*
X159408761Y-117315809D01*
X159456380Y-117458666D01*
X159456380Y-117553904D01*
X159408761Y-117696761D01*
X159313523Y-117792000D01*
X159218285Y-117839619D01*
X159027809Y-117887238D01*
X158884952Y-117887238D01*
X158694476Y-117839619D01*
X158599238Y-117792000D01*
X158504000Y-117696761D01*
X158456380Y-117553904D01*
X158456380Y-117458666D01*
X158504000Y-117315809D01*
X158551619Y-117268190D01*
X158980190Y-116649142D02*
X159456380Y-116649142D01*
X158456380Y-116982476D02*
X158980190Y-116649142D01*
X158456380Y-116315809D01*
X158456380Y-116077714D02*
X158456380Y-115411047D01*
X159456380Y-115839619D01*
X159361142Y-114458666D02*
X159408761Y-114506285D01*
X159456380Y-114649142D01*
X159456380Y-114744380D01*
X159408761Y-114887238D01*
X159313523Y-114982476D01*
X159218285Y-115030095D01*
X159027809Y-115077714D01*
X158884952Y-115077714D01*
X158694476Y-115030095D01*
X158599238Y-114982476D01*
X158504000Y-114887238D01*
X158456380Y-114744380D01*
X158456380Y-114649142D01*
X158504000Y-114506285D01*
X158551619Y-114458666D01*
X158456380Y-113601523D02*
X158456380Y-113792000D01*
X158504000Y-113887238D01*
X158551619Y-113934857D01*
X158694476Y-114030095D01*
X158884952Y-114077714D01*
X159265904Y-114077714D01*
X159361142Y-114030095D01*
X159408761Y-113982476D01*
X159456380Y-113887238D01*
X159456380Y-113696761D01*
X159408761Y-113601523D01*
X159361142Y-113553904D01*
X159265904Y-113506285D01*
X159027809Y-113506285D01*
X158932571Y-113553904D01*
X158884952Y-113601523D01*
X158837333Y-113696761D01*
X158837333Y-113887238D01*
X158884952Y-113982476D01*
X158932571Y-114030095D01*
X159027809Y-114077714D01*
X158456380Y-112601523D02*
X158456380Y-113077714D01*
X158932571Y-113125333D01*
X158884952Y-113077714D01*
X158837333Y-112982476D01*
X158837333Y-112744380D01*
X158884952Y-112649142D01*
X158932571Y-112601523D01*
X159027809Y-112553904D01*
X159265904Y-112553904D01*
X159361142Y-112601523D01*
X159408761Y-112649142D01*
X159456380Y-112744380D01*
X159456380Y-112982476D01*
X159408761Y-113077714D01*
X159361142Y-113125333D01*
X158551619Y-112172952D02*
X158504000Y-112125333D01*
X158456380Y-112030095D01*
X158456380Y-111792000D01*
X158504000Y-111696761D01*
X158551619Y-111649142D01*
X158646857Y-111601523D01*
X158742095Y-111601523D01*
X158884952Y-111649142D01*
X159456380Y-112220571D01*
X159456380Y-111601523D01*
X159456380Y-110649142D02*
X159456380Y-111220571D01*
X159456380Y-110934857D02*
X158456380Y-110934857D01*
X158599238Y-111030095D01*
X158694476Y-111125333D01*
X158742095Y-111220571D01*
X158456380Y-110315809D02*
X158456380Y-109696761D01*
X158837333Y-110030095D01*
X158837333Y-109887238D01*
X158884952Y-109792000D01*
X158932571Y-109744380D01*
X159027809Y-109696761D01*
X159265904Y-109696761D01*
X159361142Y-109744380D01*
X159408761Y-109792000D01*
X159456380Y-109887238D01*
X159456380Y-110172952D01*
X159408761Y-110268190D01*
X159361142Y-110315809D01*
X139644380Y-86590095D02*
X138644380Y-86590095D01*
X138644380Y-86352000D01*
X138692000Y-86209142D01*
X138787238Y-86113904D01*
X138882476Y-86066285D01*
X139072952Y-86018666D01*
X139215809Y-86018666D01*
X139406285Y-86066285D01*
X139501523Y-86113904D01*
X139596761Y-86209142D01*
X139644380Y-86352000D01*
X139644380Y-86590095D01*
X138644380Y-85685333D02*
X138644380Y-85066285D01*
X139025333Y-85399619D01*
X139025333Y-85256761D01*
X139072952Y-85161523D01*
X139120571Y-85113904D01*
X139215809Y-85066285D01*
X139453904Y-85066285D01*
X139549142Y-85113904D01*
X139596761Y-85161523D01*
X139644380Y-85256761D01*
X139644380Y-85542476D01*
X139596761Y-85637714D01*
X139549142Y-85685333D01*
X141676380Y-86590095D02*
X140676380Y-86590095D01*
X140676380Y-86352000D01*
X140724000Y-86209142D01*
X140819238Y-86113904D01*
X140914476Y-86066285D01*
X141104952Y-86018666D01*
X141247809Y-86018666D01*
X141438285Y-86066285D01*
X141533523Y-86113904D01*
X141628761Y-86209142D01*
X141676380Y-86352000D01*
X141676380Y-86590095D01*
X141009714Y-85161523D02*
X141676380Y-85161523D01*
X140628761Y-85399619D02*
X141343047Y-85637714D01*
X141343047Y-85018666D01*
X143708380Y-86627180D02*
X142708380Y-86627180D01*
X142708380Y-86389085D01*
X142756000Y-86246227D01*
X142851238Y-86150989D01*
X142946476Y-86103370D01*
X143136952Y-86055751D01*
X143279809Y-86055751D01*
X143470285Y-86103370D01*
X143565523Y-86150989D01*
X143660761Y-86246227D01*
X143708380Y-86389085D01*
X143708380Y-86627180D01*
X142708380Y-85150989D02*
X142708380Y-85627180D01*
X143184571Y-85674799D01*
X143136952Y-85627180D01*
X143089333Y-85531942D01*
X143089333Y-85293846D01*
X143136952Y-85198608D01*
X143184571Y-85150989D01*
X143279809Y-85103370D01*
X143517904Y-85103370D01*
X143613142Y-85150989D01*
X143660761Y-85198608D01*
X143708380Y-85293846D01*
X143708380Y-85531942D01*
X143660761Y-85627180D01*
X143613142Y-85674799D01*
X145740380Y-86590095D02*
X144740380Y-86590095D01*
X144740380Y-86352000D01*
X144788000Y-86209142D01*
X144883238Y-86113904D01*
X144978476Y-86066285D01*
X145168952Y-86018666D01*
X145311809Y-86018666D01*
X145502285Y-86066285D01*
X145597523Y-86113904D01*
X145692761Y-86209142D01*
X145740380Y-86352000D01*
X145740380Y-86590095D01*
X144740380Y-85161523D02*
X144740380Y-85352000D01*
X144788000Y-85447238D01*
X144835619Y-85494857D01*
X144978476Y-85590095D01*
X145168952Y-85637714D01*
X145549904Y-85637714D01*
X145645142Y-85590095D01*
X145692761Y-85542476D01*
X145740380Y-85447238D01*
X145740380Y-85256761D01*
X145692761Y-85161523D01*
X145645142Y-85113904D01*
X145549904Y-85066285D01*
X145311809Y-85066285D01*
X145216571Y-85113904D01*
X145168952Y-85161523D01*
X145121333Y-85256761D01*
X145121333Y-85447238D01*
X145168952Y-85542476D01*
X145216571Y-85590095D01*
X145311809Y-85637714D01*
X147772380Y-86590095D02*
X146772380Y-86590095D01*
X146772380Y-86352000D01*
X146820000Y-86209142D01*
X146915238Y-86113904D01*
X147010476Y-86066285D01*
X147200952Y-86018666D01*
X147343809Y-86018666D01*
X147534285Y-86066285D01*
X147629523Y-86113904D01*
X147724761Y-86209142D01*
X147772380Y-86352000D01*
X147772380Y-86590095D01*
X146772380Y-85685333D02*
X146772380Y-85018666D01*
X147772380Y-85447238D01*
X164584190Y-82573761D02*
X164727047Y-82621380D01*
X164965142Y-82621380D01*
X165060380Y-82573761D01*
X165108000Y-82526142D01*
X165155619Y-82430904D01*
X165155619Y-82335666D01*
X165108000Y-82240428D01*
X165060380Y-82192809D01*
X164965142Y-82145190D01*
X164774666Y-82097571D01*
X164679428Y-82049952D01*
X164631809Y-82002333D01*
X164584190Y-81907095D01*
X164584190Y-81811857D01*
X164631809Y-81716619D01*
X164679428Y-81669000D01*
X164774666Y-81621380D01*
X165012761Y-81621380D01*
X165155619Y-81669000D01*
X165584190Y-82621380D02*
X165584190Y-81621380D01*
X165965142Y-81621380D01*
X166060380Y-81669000D01*
X166108000Y-81716619D01*
X166155619Y-81811857D01*
X166155619Y-81954714D01*
X166108000Y-82049952D01*
X166060380Y-82097571D01*
X165965142Y-82145190D01*
X165584190Y-82145190D01*
X166584190Y-82621380D02*
X166584190Y-81621380D01*
X162198095Y-80606666D02*
X162160000Y-80568571D01*
X162121904Y-80492380D01*
X162121904Y-80301904D01*
X162160000Y-80225714D01*
X162198095Y-80187619D01*
X162274285Y-80149523D01*
X162350476Y-80149523D01*
X162464761Y-80187619D01*
X162921904Y-80644761D01*
X162921904Y-80149523D01*
X162388571Y-79463809D02*
X162921904Y-79463809D01*
X162083809Y-79654285D02*
X162655238Y-79844761D01*
X162655238Y-79349523D01*
X162921904Y-79044761D02*
X162121904Y-79044761D01*
X162693333Y-78778095D01*
X162121904Y-78511428D01*
X162921904Y-78511428D01*
X162921904Y-78130476D02*
X162121904Y-78130476D01*
X162502857Y-78130476D02*
X162502857Y-77673333D01*
X162921904Y-77673333D02*
X162121904Y-77673333D01*
X162121904Y-77368571D02*
X162121904Y-76835238D01*
X162921904Y-77368571D01*
X162921904Y-76835238D01*
M02*
