G04 #@! TF.GenerationSoftware,KiCad,Pcbnew,5.1.5+dfsg1-2build2*
G04 #@! TF.CreationDate,2020-08-18T22:28:12+10:00*
G04 #@! TF.ProjectId,sid-board-v3,7369642d-626f-4617-9264-2d76332e6b69,rev?*
G04 #@! TF.SameCoordinates,Original*
G04 #@! TF.FileFunction,Legend,Top*
G04 #@! TF.FilePolarity,Positive*
%FSLAX46Y46*%
G04 Gerber Fmt 4.6, Leading zero omitted, Abs format (unit mm)*
G04 Created by KiCad (PCBNEW 5.1.5+dfsg1-2build2) date 2020-08-18 22:28:12*
%MOMM*%
%LPD*%
G04 APERTURE LIST*
%ADD10C,0.250000*%
%ADD11C,0.375000*%
%ADD12C,0.300000*%
%ADD13C,0.150000*%
%ADD14C,0.120000*%
%ADD15C,0.225000*%
%ADD16C,0.275000*%
G04 APERTURE END LIST*
D10*
X118986785Y-95702380D02*
X118510595Y-95702380D01*
X118510595Y-94702380D01*
X119320119Y-95178571D02*
X119653452Y-95178571D01*
X119796309Y-95702380D02*
X119320119Y-95702380D01*
X119320119Y-94702380D01*
X119796309Y-94702380D01*
X120224880Y-95702380D02*
X120224880Y-94702380D01*
X121224880Y-94750000D02*
X121129642Y-94702380D01*
X120986785Y-94702380D01*
X120843928Y-94750000D01*
X120748690Y-94845238D01*
X120701071Y-94940476D01*
X120653452Y-95130952D01*
X120653452Y-95273809D01*
X120701071Y-95464285D01*
X120748690Y-95559523D01*
X120843928Y-95654761D01*
X120986785Y-95702380D01*
X121082023Y-95702380D01*
X121224880Y-95654761D01*
X121272500Y-95607142D01*
X121272500Y-95273809D01*
X121082023Y-95273809D01*
X121701071Y-95702380D02*
X121701071Y-94702380D01*
X121701071Y-95178571D02*
X122272500Y-95178571D01*
X122272500Y-95702380D02*
X122272500Y-94702380D01*
X123701071Y-94702380D02*
X123891547Y-94702380D01*
X123986785Y-94750000D01*
X124082023Y-94845238D01*
X124129642Y-95035714D01*
X124129642Y-95369047D01*
X124082023Y-95559523D01*
X123986785Y-95654761D01*
X123891547Y-95702380D01*
X123701071Y-95702380D01*
X123605833Y-95654761D01*
X123510595Y-95559523D01*
X123462976Y-95369047D01*
X123462976Y-95035714D01*
X123510595Y-94845238D01*
X123605833Y-94750000D01*
X123701071Y-94702380D01*
X125034404Y-95702380D02*
X124558214Y-95702380D01*
X124558214Y-94702380D01*
X125367738Y-95702380D02*
X125367738Y-94702380D01*
X125701071Y-94702380D02*
X126034404Y-95702380D01*
X126367738Y-94702380D01*
X126701071Y-95178571D02*
X127034404Y-95178571D01*
X127177261Y-95702380D02*
X126701071Y-95702380D01*
X126701071Y-94702380D01*
X127177261Y-94702380D01*
X128177261Y-95702380D02*
X127843928Y-95226190D01*
X127605833Y-95702380D02*
X127605833Y-94702380D01*
X127986785Y-94702380D01*
X128082023Y-94750000D01*
X128129642Y-94797619D01*
X128177261Y-94892857D01*
X128177261Y-95035714D01*
X128129642Y-95130952D01*
X128082023Y-95178571D01*
X127986785Y-95226190D01*
X127605833Y-95226190D01*
X129320119Y-94797619D02*
X129367738Y-94750000D01*
X129462976Y-94702380D01*
X129701071Y-94702380D01*
X129796309Y-94750000D01*
X129843928Y-94797619D01*
X129891547Y-94892857D01*
X129891547Y-94988095D01*
X129843928Y-95130952D01*
X129272500Y-95702380D01*
X129891547Y-95702380D01*
X130510595Y-94702380D02*
X130605833Y-94702380D01*
X130701071Y-94750000D01*
X130748690Y-94797619D01*
X130796309Y-94892857D01*
X130843928Y-95083333D01*
X130843928Y-95321428D01*
X130796309Y-95511904D01*
X130748690Y-95607142D01*
X130701071Y-95654761D01*
X130605833Y-95702380D01*
X130510595Y-95702380D01*
X130415357Y-95654761D01*
X130367738Y-95607142D01*
X130320119Y-95511904D01*
X130272500Y-95321428D01*
X130272500Y-95083333D01*
X130320119Y-94892857D01*
X130367738Y-94797619D01*
X130415357Y-94750000D01*
X130510595Y-94702380D01*
X131224880Y-94797619D02*
X131272500Y-94750000D01*
X131367738Y-94702380D01*
X131605833Y-94702380D01*
X131701071Y-94750000D01*
X131748690Y-94797619D01*
X131796309Y-94892857D01*
X131796309Y-94988095D01*
X131748690Y-95130952D01*
X131177261Y-95702380D01*
X131796309Y-95702380D01*
X132415357Y-94702380D02*
X132510595Y-94702380D01*
X132605833Y-94750000D01*
X132653452Y-94797619D01*
X132701071Y-94892857D01*
X132748690Y-95083333D01*
X132748690Y-95321428D01*
X132701071Y-95511904D01*
X132653452Y-95607142D01*
X132605833Y-95654761D01*
X132510595Y-95702380D01*
X132415357Y-95702380D01*
X132320119Y-95654761D01*
X132272500Y-95607142D01*
X132224880Y-95511904D01*
X132177261Y-95321428D01*
X132177261Y-95083333D01*
X132224880Y-94892857D01*
X132272500Y-94797619D01*
X132320119Y-94750000D01*
X132415357Y-94702380D01*
D11*
X118639464Y-90734642D02*
X118853750Y-90806071D01*
X119210892Y-90806071D01*
X119353750Y-90734642D01*
X119425178Y-90663214D01*
X119496607Y-90520357D01*
X119496607Y-90377500D01*
X119425178Y-90234642D01*
X119353750Y-90163214D01*
X119210892Y-90091785D01*
X118925178Y-90020357D01*
X118782321Y-89948928D01*
X118710892Y-89877500D01*
X118639464Y-89734642D01*
X118639464Y-89591785D01*
X118710892Y-89448928D01*
X118782321Y-89377500D01*
X118925178Y-89306071D01*
X119282321Y-89306071D01*
X119496607Y-89377500D01*
X120068035Y-90377500D02*
X120782321Y-90377500D01*
X119925178Y-90806071D02*
X120425178Y-89306071D01*
X120925178Y-90806071D01*
X121353750Y-90377500D02*
X122068035Y-90377500D01*
X121210892Y-90806071D02*
X121710892Y-89306071D01*
X122210892Y-90806071D01*
X123210892Y-90020357D02*
X123425178Y-90091785D01*
X123496607Y-90163214D01*
X123568035Y-90306071D01*
X123568035Y-90520357D01*
X123496607Y-90663214D01*
X123425178Y-90734642D01*
X123282321Y-90806071D01*
X122710892Y-90806071D01*
X122710892Y-89306071D01*
X123210892Y-89306071D01*
X123353750Y-89377500D01*
X123425178Y-89448928D01*
X123496607Y-89591785D01*
X123496607Y-89734642D01*
X123425178Y-89877500D01*
X123353750Y-89948928D01*
X123210892Y-90020357D01*
X122710892Y-90020357D01*
X125353750Y-90806071D02*
X125353750Y-89306071D01*
X125353750Y-90020357D02*
X126210892Y-90020357D01*
X126210892Y-90806071D02*
X126210892Y-89306071D01*
X126925178Y-90806071D02*
X126925178Y-89306071D01*
X127496607Y-89306071D01*
X127639464Y-89377500D01*
X127710892Y-89448928D01*
X127782321Y-89591785D01*
X127782321Y-89806071D01*
X127710892Y-89948928D01*
X127639464Y-90020357D01*
X127496607Y-90091785D01*
X126925178Y-90091785D01*
X128425178Y-90806071D02*
X128425178Y-89306071D01*
X128782321Y-89306071D01*
X128996607Y-89377500D01*
X129139464Y-89520357D01*
X129210892Y-89663214D01*
X129282321Y-89948928D01*
X129282321Y-90163214D01*
X129210892Y-90448928D01*
X129139464Y-90591785D01*
X128996607Y-90734642D01*
X128782321Y-90806071D01*
X128425178Y-90806071D01*
X118710892Y-93431071D02*
X118710892Y-91931071D01*
X119425178Y-93431071D02*
X119425178Y-91931071D01*
X120282321Y-93431071D01*
X120282321Y-91931071D01*
X120782321Y-91931071D02*
X121639464Y-91931071D01*
X121210892Y-93431071D02*
X121210892Y-91931071D01*
X122139464Y-92645357D02*
X122639464Y-92645357D01*
X122853750Y-93431071D02*
X122139464Y-93431071D01*
X122139464Y-91931071D01*
X122853750Y-91931071D01*
X124353750Y-93431071D02*
X123853750Y-92716785D01*
X123496607Y-93431071D02*
X123496607Y-91931071D01*
X124068035Y-91931071D01*
X124210892Y-92002500D01*
X124282321Y-92073928D01*
X124353750Y-92216785D01*
X124353750Y-92431071D01*
X124282321Y-92573928D01*
X124210892Y-92645357D01*
X124068035Y-92716785D01*
X123496607Y-92716785D01*
X125496607Y-92645357D02*
X124996607Y-92645357D01*
X124996607Y-93431071D02*
X124996607Y-91931071D01*
X125710892Y-91931071D01*
X126210892Y-93002500D02*
X126925178Y-93002500D01*
X126068035Y-93431071D02*
X126568035Y-91931071D01*
X127068035Y-93431071D01*
X128425178Y-93288214D02*
X128353750Y-93359642D01*
X128139464Y-93431071D01*
X127996607Y-93431071D01*
X127782321Y-93359642D01*
X127639464Y-93216785D01*
X127568035Y-93073928D01*
X127496607Y-92788214D01*
X127496607Y-92573928D01*
X127568035Y-92288214D01*
X127639464Y-92145357D01*
X127782321Y-92002500D01*
X127996607Y-91931071D01*
X128139464Y-91931071D01*
X128353750Y-92002500D01*
X128425178Y-92073928D01*
X129068035Y-92645357D02*
X129568035Y-92645357D01*
X129782321Y-93431071D02*
X129068035Y-93431071D01*
X129068035Y-91931071D01*
X129782321Y-91931071D01*
X131425178Y-92431071D02*
X131782321Y-93431071D01*
X132139464Y-92431071D01*
X132568035Y-91931071D02*
X133496607Y-91931071D01*
X132996607Y-92502500D01*
X133210892Y-92502500D01*
X133353750Y-92573928D01*
X133425178Y-92645357D01*
X133496607Y-92788214D01*
X133496607Y-93145357D01*
X133425178Y-93288214D01*
X133353750Y-93359642D01*
X133210892Y-93431071D01*
X132782321Y-93431071D01*
X132639464Y-93359642D01*
X132568035Y-93288214D01*
D12*
X122339142Y-80171857D02*
X122339142Y-78971857D01*
X122339142Y-79543285D02*
X123024857Y-79543285D01*
X123024857Y-80171857D02*
X123024857Y-78971857D01*
X120513428Y-80171857D02*
X119942000Y-80171857D01*
X119942000Y-78971857D01*
D13*
X123952000Y-80899000D02*
X121412000Y-80899000D01*
X123952000Y-78359000D02*
X123952000Y-80899000D01*
X121412000Y-78359000D02*
X123952000Y-78359000D01*
X121412000Y-78359000D02*
X118872000Y-78359000D01*
X121412000Y-80899000D02*
X121412000Y-78359000D01*
X118872000Y-80899000D02*
X121412000Y-80899000D01*
X118872000Y-78359000D02*
X118872000Y-80899000D01*
X167219285Y-85190000D02*
X167247857Y-85218571D01*
X167276428Y-85304285D01*
X167276428Y-85361428D01*
X167247857Y-85447142D01*
X167190714Y-85504285D01*
X167133571Y-85532857D01*
X167019285Y-85561428D01*
X166933571Y-85561428D01*
X166819285Y-85532857D01*
X166762142Y-85504285D01*
X166705000Y-85447142D01*
X166676428Y-85361428D01*
X166676428Y-85304285D01*
X166705000Y-85218571D01*
X166733571Y-85190000D01*
X167247857Y-84961428D02*
X167276428Y-84875714D01*
X167276428Y-84732857D01*
X167247857Y-84675714D01*
X167219285Y-84647142D01*
X167162142Y-84618571D01*
X167105000Y-84618571D01*
X167047857Y-84647142D01*
X167019285Y-84675714D01*
X166990714Y-84732857D01*
X166962142Y-84847142D01*
X166933571Y-84904285D01*
X166905000Y-84932857D01*
X166847857Y-84961428D01*
X166790714Y-84961428D01*
X166733571Y-84932857D01*
X166705000Y-84904285D01*
X166676428Y-84847142D01*
X166676428Y-84704285D01*
X166705000Y-84618571D01*
X165977857Y-85404285D02*
X166006428Y-85318571D01*
X166006428Y-85175714D01*
X165977857Y-85118571D01*
X165949285Y-85090000D01*
X165892142Y-85061428D01*
X165835000Y-85061428D01*
X165777857Y-85090000D01*
X165749285Y-85118571D01*
X165720714Y-85175714D01*
X165692142Y-85290000D01*
X165663571Y-85347142D01*
X165635000Y-85375714D01*
X165577857Y-85404285D01*
X165520714Y-85404285D01*
X165463571Y-85375714D01*
X165435000Y-85347142D01*
X165406428Y-85290000D01*
X165406428Y-85147142D01*
X165435000Y-85061428D01*
X166006428Y-84804285D02*
X165406428Y-84804285D01*
X165949285Y-83877142D02*
X165977857Y-83905714D01*
X166006428Y-83991428D01*
X166006428Y-84048571D01*
X165977857Y-84134285D01*
X165920714Y-84191428D01*
X165863571Y-84220000D01*
X165749285Y-84248571D01*
X165663571Y-84248571D01*
X165549285Y-84220000D01*
X165492142Y-84191428D01*
X165435000Y-84134285D01*
X165406428Y-84048571D01*
X165406428Y-83991428D01*
X165435000Y-83905714D01*
X165463571Y-83877142D01*
X166006428Y-83334285D02*
X166006428Y-83620000D01*
X165406428Y-83620000D01*
X167247857Y-84277142D02*
X167276428Y-84191428D01*
X167276428Y-84048571D01*
X167247857Y-83991428D01*
X167219285Y-83962857D01*
X167162142Y-83934285D01*
X167105000Y-83934285D01*
X167047857Y-83962857D01*
X167019285Y-83991428D01*
X166990714Y-84048571D01*
X166962142Y-84162857D01*
X166933571Y-84220000D01*
X166905000Y-84248571D01*
X166847857Y-84277142D01*
X166790714Y-84277142D01*
X166733571Y-84248571D01*
X166705000Y-84220000D01*
X166676428Y-84162857D01*
X166676428Y-84020000D01*
X166705000Y-83934285D01*
X166676428Y-83562857D02*
X166676428Y-83505714D01*
X166705000Y-83448571D01*
X166733571Y-83420000D01*
X166790714Y-83391428D01*
X166905000Y-83362857D01*
X167047857Y-83362857D01*
X167162142Y-83391428D01*
X167219285Y-83420000D01*
X167247857Y-83448571D01*
X167276428Y-83505714D01*
X167276428Y-83562857D01*
X167247857Y-83620000D01*
X167219285Y-83648571D01*
X167162142Y-83677142D01*
X167047857Y-83705714D01*
X166905000Y-83705714D01*
X166790714Y-83677142D01*
X166733571Y-83648571D01*
X166705000Y-83620000D01*
X166676428Y-83562857D01*
X166738333Y-80060000D02*
X167271666Y-80060000D01*
X167005000Y-80326666D02*
X167005000Y-79793333D01*
X166738333Y-81330000D02*
X167271666Y-81330000D01*
X167005000Y-81596666D02*
X167005000Y-81063333D01*
X166738333Y-82600000D02*
X167271666Y-82600000D01*
X167005000Y-82866666D02*
X167005000Y-82333333D01*
X165468333Y-82600000D02*
X166001666Y-82600000D01*
X165468333Y-81330000D02*
X166001666Y-81330000D01*
X165468333Y-80060000D02*
X166001666Y-80060000D01*
X165100000Y-79375000D02*
X166370000Y-79375000D01*
X165100000Y-80645000D02*
X165100000Y-79375000D01*
X167640000Y-79375000D02*
X167640000Y-80645000D01*
X166370000Y-79375000D02*
X167640000Y-79375000D01*
X166370000Y-80645000D02*
X166370000Y-79375000D01*
X167640000Y-80645000D02*
X166370000Y-80645000D01*
X167640000Y-81915000D02*
X167640000Y-80645000D01*
X166370000Y-80645000D02*
X166370000Y-81915000D01*
X165100000Y-80645000D02*
X166370000Y-80645000D01*
X165100000Y-81915000D02*
X165100000Y-80645000D01*
X167640000Y-81915000D02*
X166370000Y-81915000D01*
X167640000Y-83185000D02*
X167640000Y-81915000D01*
X166370000Y-81915000D02*
X166370000Y-83185000D01*
X165100000Y-81915000D02*
X166370000Y-81915000D01*
X165100000Y-83185000D02*
X165100000Y-81915000D01*
X167640000Y-83185000D02*
X166370000Y-83185000D01*
X167640000Y-84455000D02*
X167640000Y-83185000D01*
X166370000Y-83185000D02*
X166370000Y-84455000D01*
X165100000Y-83185000D02*
X166370000Y-83185000D01*
X165100000Y-84455000D02*
X165100000Y-83185000D01*
X167640000Y-84455000D02*
X167640000Y-85725000D01*
X166370000Y-84455000D02*
X167640000Y-84455000D01*
X166370000Y-84455000D02*
X166370000Y-85725000D01*
X165100000Y-84455000D02*
X166370000Y-84455000D01*
X165100000Y-85725000D02*
X165100000Y-84455000D01*
X167640000Y-85725000D02*
X165100000Y-85725000D01*
D12*
X163109428Y-67033714D02*
X163280857Y-67090857D01*
X163566571Y-67090857D01*
X163680857Y-67033714D01*
X163738000Y-66976571D01*
X163795142Y-66862285D01*
X163795142Y-66748000D01*
X163738000Y-66633714D01*
X163680857Y-66576571D01*
X163566571Y-66519428D01*
X163338000Y-66462285D01*
X163223714Y-66405142D01*
X163166571Y-66348000D01*
X163109428Y-66233714D01*
X163109428Y-66119428D01*
X163166571Y-66005142D01*
X163223714Y-65948000D01*
X163338000Y-65890857D01*
X163623714Y-65890857D01*
X163795142Y-65948000D01*
X164309428Y-67090857D02*
X164309428Y-65890857D01*
X164880857Y-67090857D02*
X164880857Y-65890857D01*
X165166571Y-65890857D01*
X165338000Y-65948000D01*
X165452285Y-66062285D01*
X165509428Y-66176571D01*
X165566571Y-66405142D01*
X165566571Y-66576571D01*
X165509428Y-66805142D01*
X165452285Y-66919428D01*
X165338000Y-67033714D01*
X165166571Y-67090857D01*
X164880857Y-67090857D01*
X144256285Y-67090857D02*
X144256285Y-65890857D01*
X145513428Y-66976571D02*
X145456285Y-67033714D01*
X145284857Y-67090857D01*
X145170571Y-67090857D01*
X144999142Y-67033714D01*
X144884857Y-66919428D01*
X144827714Y-66805142D01*
X144770571Y-66576571D01*
X144770571Y-66405142D01*
X144827714Y-66176571D01*
X144884857Y-66062285D01*
X144999142Y-65948000D01*
X145170571Y-65890857D01*
X145284857Y-65890857D01*
X145456285Y-65948000D01*
X145513428Y-66005142D01*
X146027714Y-67090857D02*
X146027714Y-65890857D01*
X146427714Y-66748000D01*
X146827714Y-65890857D01*
X146827714Y-67090857D01*
X121898000Y-67090857D02*
X121898000Y-65890857D01*
X122869428Y-66462285D02*
X123040857Y-66519428D01*
X123098000Y-66576571D01*
X123155142Y-66690857D01*
X123155142Y-66862285D01*
X123098000Y-66976571D01*
X123040857Y-67033714D01*
X122926571Y-67090857D01*
X122469428Y-67090857D01*
X122469428Y-65890857D01*
X122869428Y-65890857D01*
X122983714Y-65948000D01*
X123040857Y-66005142D01*
X123098000Y-66119428D01*
X123098000Y-66233714D01*
X123040857Y-66348000D01*
X122983714Y-66405142D01*
X122869428Y-66462285D01*
X122469428Y-66462285D01*
X123669428Y-65890857D02*
X123669428Y-66862285D01*
X123726571Y-66976571D01*
X123783714Y-67033714D01*
X123898000Y-67090857D01*
X124126571Y-67090857D01*
X124240857Y-67033714D01*
X124298000Y-66976571D01*
X124355142Y-66862285D01*
X124355142Y-65890857D01*
X124869428Y-67033714D02*
X125040857Y-67090857D01*
X125326571Y-67090857D01*
X125440857Y-67033714D01*
X125498000Y-66976571D01*
X125555142Y-66862285D01*
X125555142Y-66748000D01*
X125498000Y-66633714D01*
X125440857Y-66576571D01*
X125326571Y-66519428D01*
X125098000Y-66462285D01*
X124983714Y-66405142D01*
X124926571Y-66348000D01*
X124869428Y-66233714D01*
X124869428Y-66119428D01*
X124926571Y-66005142D01*
X124983714Y-65948000D01*
X125098000Y-65890857D01*
X125383714Y-65890857D01*
X125555142Y-65948000D01*
D13*
X157226000Y-109220000D02*
G75*
G03X157226000Y-109220000I-254000J0D01*
G01*
X160655000Y-75565000D02*
G75*
G03X160655000Y-75565000I-254000J0D01*
G01*
X160655000Y-90551000D02*
G75*
G03X160655000Y-90551000I-254000J0D01*
G01*
D14*
X140081000Y-75057000D02*
X141605000Y-75057000D01*
X141605000Y-76581000D02*
X140081000Y-76581000D01*
X141605000Y-75057000D02*
X141605000Y-76581000D01*
X141605000Y-73533000D02*
X141605000Y-75057000D01*
X140081000Y-73533000D02*
X141605000Y-73533000D01*
X140081000Y-76581000D02*
X140081000Y-75057000D01*
X138557000Y-76581000D02*
X140081000Y-76581000D01*
X140081000Y-75057000D02*
X138557000Y-75057000D01*
X140081000Y-73533000D02*
X140081000Y-75057000D01*
X138557000Y-73533000D02*
X140081000Y-73533000D01*
X138557000Y-73533000D02*
X138557000Y-75057000D01*
X137033000Y-73533000D02*
X138557000Y-73533000D01*
X137033000Y-73533000D02*
X137033000Y-75057000D01*
X135509000Y-73533000D02*
X137033000Y-73533000D01*
X135509000Y-73533000D02*
X133985000Y-73533000D01*
X135509000Y-75057000D02*
X135509000Y-73533000D01*
X133985000Y-73533000D02*
X133985000Y-75057000D01*
X132461000Y-73533000D02*
X133985000Y-73533000D01*
X133985000Y-75057000D02*
X132461000Y-75057000D01*
X133985000Y-75057000D02*
X133985000Y-76581000D01*
X135509000Y-75057000D02*
X133985000Y-75057000D01*
X135509000Y-75057000D02*
X135509000Y-76581000D01*
X137033000Y-75057000D02*
X135509000Y-75057000D01*
X137033000Y-75057000D02*
X137033000Y-76581000D01*
X138557000Y-75057000D02*
X137033000Y-75057000D01*
X138557000Y-76581000D02*
X138557000Y-75057000D01*
X137033000Y-76581000D02*
X138557000Y-76581000D01*
X135509000Y-76581000D02*
X137033000Y-76581000D01*
X133985000Y-76581000D02*
X135509000Y-76581000D01*
X132461000Y-76581000D02*
X133985000Y-76581000D01*
X132461000Y-73533000D02*
X132461000Y-76581000D01*
X148082000Y-73088500D02*
X148082000Y-72771000D01*
X147634000Y-73088500D02*
X148082000Y-73088500D01*
X148082000Y-66294000D02*
X148082000Y-72771000D01*
X147634000Y-66294000D02*
X148082000Y-66294000D01*
X147634000Y-67885000D02*
X147634000Y-66294000D01*
X147634000Y-67885000D02*
X147634000Y-69215000D01*
X146304000Y-67885000D02*
X147634000Y-67885000D01*
X147634000Y-70485000D02*
X147634000Y-73085000D01*
X145034000Y-70485000D02*
X147634000Y-70485000D01*
X145034000Y-67885000D02*
X145034000Y-70485000D01*
X147634000Y-73085000D02*
X132274000Y-73085000D01*
X145034000Y-67885000D02*
X132274000Y-67885000D01*
X132274000Y-67885000D02*
X132274000Y-73085000D01*
X172383000Y-86150000D02*
X171323000Y-86150000D01*
X172383000Y-85090000D02*
X172383000Y-86150000D01*
X170323000Y-86150000D02*
X168263000Y-86150000D01*
X170323000Y-84090000D02*
X170323000Y-86150000D01*
X172383000Y-84090000D02*
X170323000Y-84090000D01*
X168263000Y-86150000D02*
X168263000Y-76030000D01*
X172383000Y-84090000D02*
X172383000Y-76030000D01*
X172383000Y-76030000D02*
X168263000Y-76030000D01*
X151066500Y-73088500D02*
X158686500Y-73088500D01*
X166878000Y-73088500D02*
X166878000Y-72771000D01*
X166430000Y-73088500D02*
X166878000Y-73088500D01*
X166878000Y-66294000D02*
X166878000Y-72771000D01*
X166430000Y-66294000D02*
X166878000Y-66294000D01*
X166430000Y-67885000D02*
X166430000Y-66294000D01*
X166430000Y-67885000D02*
X166430000Y-69215000D01*
X165100000Y-67885000D02*
X166430000Y-67885000D01*
X166430000Y-70485000D02*
X166430000Y-73085000D01*
X163830000Y-70485000D02*
X166430000Y-70485000D01*
X163830000Y-67885000D02*
X163830000Y-70485000D01*
X166430000Y-73085000D02*
X151070000Y-73085000D01*
X163830000Y-67885000D02*
X151070000Y-67885000D01*
X151070000Y-67885000D02*
X151070000Y-73085000D01*
X126880252Y-103684000D02*
X126357748Y-103684000D01*
X126880252Y-105104000D02*
X126357748Y-105104000D01*
X154230000Y-79001252D02*
X154230000Y-78478748D01*
X155650000Y-79001252D02*
X155650000Y-78478748D01*
X126357748Y-101294000D02*
X126880252Y-101294000D01*
X126357748Y-99874000D02*
X126880252Y-99874000D01*
X148392000Y-80944000D02*
X148392000Y-83804000D01*
X150312000Y-80944000D02*
X148392000Y-80944000D01*
X150312000Y-83804000D02*
X150312000Y-80944000D01*
X118856000Y-100640000D02*
X115996000Y-100640000D01*
X115996000Y-100640000D02*
X115996000Y-102560000D01*
X115996000Y-102560000D02*
X118856000Y-102560000D01*
X134168000Y-80944000D02*
X134168000Y-83804000D01*
X136088000Y-80944000D02*
X134168000Y-80944000D01*
X136088000Y-83804000D02*
X136088000Y-80944000D01*
X167867500Y-94918000D02*
X168317500Y-94918000D01*
X167867500Y-94918000D02*
X167867500Y-94468000D01*
X168417500Y-89318000D02*
X168417500Y-89768000D01*
X170267500Y-89318000D02*
X168417500Y-89318000D01*
X172817500Y-97118000D02*
X172567500Y-97118000D01*
X172817500Y-89318000D02*
X172567500Y-89318000D01*
X170267500Y-97118000D02*
X168417500Y-97118000D01*
X168417500Y-97118000D02*
X168417500Y-96668000D01*
X138120000Y-83804000D02*
X138120000Y-80944000D01*
X138120000Y-80944000D02*
X136200000Y-80944000D01*
X136200000Y-80944000D02*
X136200000Y-83804000D01*
X129078000Y-67744000D02*
X128578000Y-67744000D01*
X129078000Y-68484000D02*
X129078000Y-67744000D01*
X122385000Y-71621000D02*
X122432000Y-71575000D01*
X120088000Y-73919000D02*
X120123000Y-73883000D01*
X122192000Y-71405000D02*
X122227000Y-71370000D01*
X119883000Y-73713000D02*
X119930000Y-73667000D01*
X118558000Y-77905000D02*
X118558000Y-67984000D01*
X128838000Y-77905000D02*
X128838000Y-67984000D01*
X128838000Y-67984000D02*
X118558000Y-67984000D01*
X128838000Y-77905000D02*
X118558000Y-77905000D01*
X128838000Y-74945000D02*
X118558000Y-74945000D01*
X128838000Y-70044000D02*
X118558000Y-70044000D01*
X128838000Y-68544000D02*
X118558000Y-68544000D01*
X122838000Y-72644000D02*
G75*
G03X122838000Y-72644000I-1680000J0D01*
G01*
X126209195Y-70963747D02*
G75*
G02X126922000Y-71109000I28805J-1680253D01*
G01*
X127773426Y-71960958D02*
G75*
G02X127773000Y-73328000I-1535426J-683042D01*
G01*
X126921042Y-74179426D02*
G75*
G02X125554000Y-74179000I-683042J1535426D01*
G01*
X124702574Y-73327042D02*
G75*
G02X124703000Y-71960000I1535426J683042D01*
G01*
X125554682Y-71109244D02*
G75*
G02X126238000Y-70964000I683318J-1534756D01*
G01*
X151128000Y-98354000D02*
X149668000Y-98354000D01*
X151128000Y-95194000D02*
X148968000Y-95194000D01*
X151128000Y-95194000D02*
X151128000Y-96124000D01*
X151128000Y-98354000D02*
X151128000Y-97424000D01*
X146052000Y-95194000D02*
X146052000Y-96124000D01*
X146052000Y-98354000D02*
X146052000Y-97424000D01*
X146052000Y-98354000D02*
X148212000Y-98354000D01*
X146052000Y-95194000D02*
X147512000Y-95194000D01*
X126880252Y-108914000D02*
X126357748Y-108914000D01*
X126880252Y-107494000D02*
X126357748Y-107494000D01*
X158832000Y-103434000D02*
X155972000Y-103434000D01*
X158832000Y-105354000D02*
X158832000Y-103434000D01*
X155972000Y-105354000D02*
X158832000Y-105354000D01*
X156710748Y-105970000D02*
X157233252Y-105970000D01*
X156710748Y-107390000D02*
X157233252Y-107390000D01*
X126880252Y-103199000D02*
X126357748Y-103199000D01*
X126880252Y-101779000D02*
X126357748Y-101779000D01*
X129892000Y-118467000D02*
X129892000Y-118847000D01*
X129472000Y-118467000D02*
X129892000Y-118467000D01*
X129472000Y-100227000D02*
X129892000Y-100227000D01*
X129472000Y-118467000D02*
X129472000Y-100227000D01*
X148912000Y-100227000D02*
X148912000Y-101227000D01*
X148292000Y-100227000D02*
X148912000Y-100227000D01*
X148912000Y-118467000D02*
X148912000Y-117467000D01*
X148292000Y-118467000D02*
X148912000Y-118467000D01*
X159782000Y-105354000D02*
X162642000Y-105354000D01*
X162642000Y-105354000D02*
X162642000Y-103434000D01*
X162642000Y-103434000D02*
X159782000Y-103434000D01*
X160730000Y-93987252D02*
X160730000Y-93464748D01*
X159310000Y-93987252D02*
X159310000Y-93464748D01*
X164390000Y-117609252D02*
X164390000Y-117086748D01*
X165810000Y-117609252D02*
X165810000Y-117086748D01*
X115786000Y-107869000D02*
X115786000Y-107569000D01*
X119926000Y-104729000D02*
X119926000Y-105029000D01*
X119926000Y-107569000D02*
X119926000Y-107869000D01*
X115786000Y-104729000D02*
X119926000Y-104729000D01*
X115786000Y-105029000D02*
X115786000Y-104729000D01*
X119926000Y-107869000D02*
X115786000Y-107869000D01*
X126880252Y-105589000D02*
X126357748Y-105589000D01*
X126880252Y-107009000D02*
X126357748Y-107009000D01*
X151690000Y-79010252D02*
X151690000Y-78487748D01*
X153110000Y-79010252D02*
X153110000Y-78487748D01*
X160520748Y-107390000D02*
X161043252Y-107390000D01*
X160520748Y-105970000D02*
X161043252Y-105970000D01*
X126357748Y-110819000D02*
X126880252Y-110819000D01*
X126357748Y-109399000D02*
X126880252Y-109399000D01*
D13*
X161329000Y-91364000D02*
X162404000Y-91364000D01*
X161329000Y-81639000D02*
X156679000Y-81639000D01*
X161329000Y-91589000D02*
X156679000Y-91589000D01*
X161329000Y-81639000D02*
X161329000Y-81964000D01*
X156679000Y-81639000D02*
X156679000Y-81964000D01*
X156679000Y-91589000D02*
X156679000Y-91264000D01*
X161329000Y-91589000D02*
X161329000Y-91364000D01*
D14*
X128329000Y-118997000D02*
X128329000Y-112062000D01*
X124909000Y-118997000D02*
X128329000Y-118997000D01*
X124909000Y-112062000D02*
X124909000Y-118997000D01*
X119926000Y-112949000D02*
X115786000Y-112949000D01*
X115786000Y-110109000D02*
X115786000Y-109809000D01*
X115786000Y-109809000D02*
X119926000Y-109809000D01*
X119926000Y-112649000D02*
X119926000Y-112949000D01*
X119926000Y-109809000D02*
X119926000Y-110109000D01*
X115786000Y-112949000D02*
X115786000Y-112649000D01*
D13*
X156129000Y-109042000D02*
X154529000Y-109042000D01*
X156129000Y-119117000D02*
X161879000Y-119117000D01*
X156129000Y-108467000D02*
X161879000Y-108467000D01*
X156129000Y-119117000D02*
X156129000Y-118467000D01*
X161879000Y-119117000D02*
X161879000Y-118467000D01*
X161879000Y-108467000D02*
X161879000Y-109117000D01*
X156129000Y-108467000D02*
X156129000Y-109042000D01*
D14*
X138232000Y-80944000D02*
X138232000Y-83804000D01*
X140152000Y-80944000D02*
X138232000Y-80944000D01*
X140152000Y-83804000D02*
X140152000Y-80944000D01*
X142184000Y-83804000D02*
X142184000Y-80944000D01*
X142184000Y-80944000D02*
X140264000Y-80944000D01*
X140264000Y-80944000D02*
X140264000Y-83804000D01*
X144216000Y-83804000D02*
X144216000Y-80944000D01*
X144216000Y-80944000D02*
X142296000Y-80944000D01*
X142296000Y-80944000D02*
X142296000Y-83804000D01*
X144328000Y-80944000D02*
X144328000Y-83804000D01*
X146248000Y-80944000D02*
X144328000Y-80944000D01*
X146248000Y-83804000D02*
X146248000Y-80944000D01*
X146360000Y-80944000D02*
X146360000Y-83804000D01*
X148280000Y-80944000D02*
X146360000Y-80944000D01*
X148280000Y-83804000D02*
X148280000Y-80944000D01*
X156694000Y-80540000D02*
X156304000Y-80540000D01*
X156304000Y-80540000D02*
X156304000Y-76940000D01*
X156304000Y-76940000D02*
X156694000Y-76940000D01*
X159374000Y-80540000D02*
X158634000Y-80540000D01*
X161314000Y-76240000D02*
X161314000Y-76940000D01*
X161314000Y-76940000D02*
X161704000Y-76940000D01*
X161704000Y-76940000D02*
X161704000Y-80540000D01*
X161704000Y-80540000D02*
X161314000Y-80540000D01*
X158634000Y-76940000D02*
X159374000Y-76940000D01*
X159374000Y-76940000D02*
X159374000Y-76240000D01*
X148904000Y-122869000D02*
X148904000Y-120209000D01*
X131064000Y-122869000D02*
X148904000Y-122869000D01*
X131064000Y-120209000D02*
X148904000Y-120209000D01*
X131064000Y-122869000D02*
X131064000Y-120209000D01*
X129794000Y-122869000D02*
X128464000Y-122869000D01*
X128464000Y-122869000D02*
X128464000Y-121539000D01*
D15*
X136486071Y-76226142D02*
X136057500Y-76226142D01*
X136057500Y-75326142D01*
X137537857Y-76226142D02*
X137537857Y-75326142D01*
X137537857Y-75754714D02*
X138052142Y-75754714D01*
X138052142Y-76226142D02*
X138052142Y-75326142D01*
X138976142Y-74295785D02*
X139661857Y-74295785D01*
X137409285Y-73865642D02*
X137623571Y-74765642D01*
X137795000Y-74122785D01*
X137966428Y-74765642D01*
X138180714Y-73865642D01*
X134404142Y-74295785D02*
X135089857Y-74295785D01*
X134747000Y-74638642D02*
X134747000Y-73952928D01*
X133287285Y-74294214D02*
X133415857Y-74337071D01*
X133458714Y-74379928D01*
X133501571Y-74465642D01*
X133501571Y-74594214D01*
X133458714Y-74679928D01*
X133415857Y-74722785D01*
X133330142Y-74765642D01*
X132987285Y-74765642D01*
X132987285Y-73865642D01*
X133287285Y-73865642D01*
X133373000Y-73908500D01*
X133415857Y-73951357D01*
X133458714Y-74037071D01*
X133458714Y-74122785D01*
X133415857Y-74208500D01*
X133373000Y-74251357D01*
X133287285Y-74294214D01*
X132987285Y-74294214D01*
D12*
X169078428Y-88115714D02*
X169249857Y-88172857D01*
X169535571Y-88172857D01*
X169649857Y-88115714D01*
X169707000Y-88058571D01*
X169764142Y-87944285D01*
X169764142Y-87830000D01*
X169707000Y-87715714D01*
X169649857Y-87658571D01*
X169535571Y-87601428D01*
X169307000Y-87544285D01*
X169192714Y-87487142D01*
X169135571Y-87430000D01*
X169078428Y-87315714D01*
X169078428Y-87201428D01*
X169135571Y-87087142D01*
X169192714Y-87030000D01*
X169307000Y-86972857D01*
X169592714Y-86972857D01*
X169764142Y-87030000D01*
X170278428Y-88172857D02*
X170278428Y-86972857D01*
X170735571Y-86972857D01*
X170849857Y-87030000D01*
X170907000Y-87087142D01*
X170964142Y-87201428D01*
X170964142Y-87372857D01*
X170907000Y-87487142D01*
X170849857Y-87544285D01*
X170735571Y-87601428D01*
X170278428Y-87601428D01*
X171478428Y-88172857D02*
X171478428Y-86972857D01*
D13*
X122864119Y-104222571D02*
X122864119Y-104755904D01*
X122673642Y-103917809D02*
X122483166Y-104489238D01*
X122978404Y-104489238D01*
X123206976Y-103955904D02*
X123740309Y-103955904D01*
X123397452Y-104755904D01*
X124197452Y-103955904D02*
X124273642Y-103955904D01*
X124349833Y-103994000D01*
X124387928Y-104032095D01*
X124426023Y-104108285D01*
X124464119Y-104260666D01*
X124464119Y-104451142D01*
X124426023Y-104603523D01*
X124387928Y-104679714D01*
X124349833Y-104717809D01*
X124273642Y-104755904D01*
X124197452Y-104755904D01*
X124121261Y-104717809D01*
X124083166Y-104679714D01*
X124045071Y-104603523D01*
X124006976Y-104451142D01*
X124006976Y-104260666D01*
X124045071Y-104108285D01*
X124083166Y-104032095D01*
X124121261Y-103994000D01*
X124197452Y-103955904D01*
X154884380Y-82002285D02*
X154884380Y-82573714D01*
X154884380Y-82288000D02*
X153884380Y-82288000D01*
X154027238Y-82383238D01*
X154122476Y-82478476D01*
X154170095Y-82573714D01*
X154884380Y-81573714D02*
X153884380Y-81573714D01*
X154884380Y-81002285D02*
X154312952Y-81430857D01*
X153884380Y-81002285D02*
X154455809Y-81573714D01*
X122864119Y-100412571D02*
X122864119Y-100945904D01*
X122673642Y-100107809D02*
X122483166Y-100679238D01*
X122978404Y-100679238D01*
X123206976Y-100145904D02*
X123740309Y-100145904D01*
X123397452Y-100945904D01*
X124197452Y-100145904D02*
X124273642Y-100145904D01*
X124349833Y-100184000D01*
X124387928Y-100222095D01*
X124426023Y-100298285D01*
X124464119Y-100450666D01*
X124464119Y-100641142D01*
X124426023Y-100793523D01*
X124387928Y-100869714D01*
X124349833Y-100907809D01*
X124273642Y-100945904D01*
X124197452Y-100945904D01*
X124121261Y-100907809D01*
X124083166Y-100869714D01*
X124045071Y-100793523D01*
X124006976Y-100641142D01*
X124006976Y-100450666D01*
X124045071Y-100298285D01*
X124083166Y-100222095D01*
X124121261Y-100184000D01*
X124197452Y-100145904D01*
X149804380Y-87733047D02*
X149804380Y-88209238D01*
X148804380Y-88209238D01*
X149280571Y-87399714D02*
X149280571Y-87066380D01*
X149804380Y-86923523D02*
X149804380Y-87399714D01*
X148804380Y-87399714D01*
X148804380Y-86923523D01*
X149804380Y-86494952D02*
X148804380Y-86494952D01*
X148804380Y-86256857D01*
X148852000Y-86114000D01*
X148947238Y-86018761D01*
X149042476Y-85971142D01*
X149232952Y-85923523D01*
X149375809Y-85923523D01*
X149566285Y-85971142D01*
X149661523Y-86018761D01*
X149756761Y-86114000D01*
X149804380Y-86256857D01*
X149804380Y-86494952D01*
X148804380Y-85304476D02*
X148804380Y-85209238D01*
X148852000Y-85114000D01*
X148899619Y-85066380D01*
X148994857Y-85018761D01*
X149185333Y-84971142D01*
X149423428Y-84971142D01*
X149613904Y-85018761D01*
X149709142Y-85066380D01*
X149756761Y-85114000D01*
X149804380Y-85209238D01*
X149804380Y-85304476D01*
X149756761Y-85399714D01*
X149709142Y-85447333D01*
X149613904Y-85494952D01*
X149423428Y-85542571D01*
X149185333Y-85542571D01*
X148994857Y-85494952D01*
X148899619Y-85447333D01*
X148852000Y-85399714D01*
X148804380Y-85304476D01*
X116260761Y-100274380D02*
X115784571Y-100274380D01*
X115784571Y-99274380D01*
X116594095Y-99750571D02*
X116927428Y-99750571D01*
X117070285Y-100274380D02*
X116594095Y-100274380D01*
X116594095Y-99274380D01*
X117070285Y-99274380D01*
X117498857Y-100274380D02*
X117498857Y-99274380D01*
X117736952Y-99274380D01*
X117879809Y-99322000D01*
X117975047Y-99417238D01*
X118022666Y-99512476D01*
X118070285Y-99702952D01*
X118070285Y-99845809D01*
X118022666Y-100036285D01*
X117975047Y-100131523D01*
X117879809Y-100226761D01*
X117736952Y-100274380D01*
X117498857Y-100274380D01*
X119022666Y-100274380D02*
X118451238Y-100274380D01*
X118736952Y-100274380D02*
X118736952Y-99274380D01*
X118641714Y-99417238D01*
X118546476Y-99512476D01*
X118451238Y-99560095D01*
X119641714Y-99274380D02*
X119736952Y-99274380D01*
X119832190Y-99322000D01*
X119879809Y-99369619D01*
X119927428Y-99464857D01*
X119975047Y-99655333D01*
X119975047Y-99893428D01*
X119927428Y-100083904D01*
X119879809Y-100179142D01*
X119832190Y-100226761D01*
X119736952Y-100274380D01*
X119641714Y-100274380D01*
X119546476Y-100226761D01*
X119498857Y-100179142D01*
X119451238Y-100083904D01*
X119403619Y-99893428D01*
X119403619Y-99655333D01*
X119451238Y-99464857D01*
X119498857Y-99369619D01*
X119546476Y-99322000D01*
X119641714Y-99274380D01*
X135580380Y-87733047D02*
X135580380Y-88209238D01*
X134580380Y-88209238D01*
X135056571Y-87399714D02*
X135056571Y-87066380D01*
X135580380Y-86923523D02*
X135580380Y-87399714D01*
X134580380Y-87399714D01*
X134580380Y-86923523D01*
X135580380Y-86494952D02*
X134580380Y-86494952D01*
X134580380Y-86256857D01*
X134628000Y-86114000D01*
X134723238Y-86018761D01*
X134818476Y-85971142D01*
X135008952Y-85923523D01*
X135151809Y-85923523D01*
X135342285Y-85971142D01*
X135437523Y-86018761D01*
X135532761Y-86114000D01*
X135580380Y-86256857D01*
X135580380Y-86494952D01*
X134580380Y-85590190D02*
X134580380Y-84923523D01*
X135580380Y-85352095D01*
D12*
X168265714Y-98148857D02*
X168265714Y-99120285D01*
X168322857Y-99234571D01*
X168380000Y-99291714D01*
X168494285Y-99348857D01*
X168722857Y-99348857D01*
X168837142Y-99291714D01*
X168894285Y-99234571D01*
X168951428Y-99120285D01*
X168951428Y-98148857D01*
X169465714Y-99006000D02*
X170037142Y-99006000D01*
X169351428Y-99348857D02*
X169751428Y-98148857D01*
X170151428Y-99348857D01*
X171237142Y-99348857D02*
X170837142Y-98777428D01*
X170551428Y-99348857D02*
X170551428Y-98148857D01*
X171008571Y-98148857D01*
X171122857Y-98206000D01*
X171180000Y-98263142D01*
X171237142Y-98377428D01*
X171237142Y-98548857D01*
X171180000Y-98663142D01*
X171122857Y-98720285D01*
X171008571Y-98777428D01*
X170551428Y-98777428D01*
X171580000Y-98148857D02*
X172265714Y-98148857D01*
X171922857Y-99348857D02*
X171922857Y-98148857D01*
D13*
X137612380Y-87733047D02*
X137612380Y-88209238D01*
X136612380Y-88209238D01*
X137088571Y-87399714D02*
X137088571Y-87066380D01*
X137612380Y-86923523D02*
X137612380Y-87399714D01*
X136612380Y-87399714D01*
X136612380Y-86923523D01*
X137612380Y-86494952D02*
X136612380Y-86494952D01*
X136612380Y-86256857D01*
X136660000Y-86114000D01*
X136755238Y-86018761D01*
X136850476Y-85971142D01*
X137040952Y-85923523D01*
X137183809Y-85923523D01*
X137374285Y-85971142D01*
X137469523Y-86018761D01*
X137564761Y-86114000D01*
X137612380Y-86256857D01*
X137612380Y-86494952D01*
X136612380Y-85066380D02*
X136612380Y-85256857D01*
X136660000Y-85352095D01*
X136707619Y-85399714D01*
X136850476Y-85494952D01*
X137040952Y-85542571D01*
X137421904Y-85542571D01*
X137517142Y-85494952D01*
X137564761Y-85447333D01*
X137612380Y-85352095D01*
X137612380Y-85161619D01*
X137564761Y-85066380D01*
X137517142Y-85018761D01*
X137421904Y-84971142D01*
X137183809Y-84971142D01*
X137088571Y-85018761D01*
X137040952Y-85066380D01*
X136993333Y-85161619D01*
X136993333Y-85352095D01*
X137040952Y-85447333D01*
X137088571Y-85494952D01*
X137183809Y-85542571D01*
X145018571Y-94162571D02*
X145161428Y-94210190D01*
X145209047Y-94257809D01*
X145256666Y-94353047D01*
X145256666Y-94495904D01*
X145209047Y-94591142D01*
X145161428Y-94638761D01*
X145066190Y-94686380D01*
X144685238Y-94686380D01*
X144685238Y-93686380D01*
X145018571Y-93686380D01*
X145113809Y-93734000D01*
X145161428Y-93781619D01*
X145209047Y-93876857D01*
X145209047Y-93972095D01*
X145161428Y-94067333D01*
X145113809Y-94114952D01*
X145018571Y-94162571D01*
X144685238Y-94162571D01*
X145637619Y-94638761D02*
X145780476Y-94686380D01*
X146018571Y-94686380D01*
X146113809Y-94638761D01*
X146161428Y-94591142D01*
X146209047Y-94495904D01*
X146209047Y-94400666D01*
X146161428Y-94305428D01*
X146113809Y-94257809D01*
X146018571Y-94210190D01*
X145828095Y-94162571D01*
X145732857Y-94114952D01*
X145685238Y-94067333D01*
X145637619Y-93972095D01*
X145637619Y-93876857D01*
X145685238Y-93781619D01*
X145732857Y-93734000D01*
X145828095Y-93686380D01*
X146066190Y-93686380D01*
X146209047Y-93734000D01*
X146590000Y-94638761D02*
X146732857Y-94686380D01*
X146970952Y-94686380D01*
X147066190Y-94638761D01*
X147113809Y-94591142D01*
X147161428Y-94495904D01*
X147161428Y-94400666D01*
X147113809Y-94305428D01*
X147066190Y-94257809D01*
X146970952Y-94210190D01*
X146780476Y-94162571D01*
X146685238Y-94114952D01*
X146637619Y-94067333D01*
X146590000Y-93972095D01*
X146590000Y-93876857D01*
X146637619Y-93781619D01*
X146685238Y-93734000D01*
X146780476Y-93686380D01*
X147018571Y-93686380D01*
X147161428Y-93734000D01*
X148113809Y-94686380D02*
X147542380Y-94686380D01*
X147828095Y-94686380D02*
X147828095Y-93686380D01*
X147732857Y-93829238D01*
X147637619Y-93924476D01*
X147542380Y-93972095D01*
X148447142Y-93686380D02*
X149066190Y-93686380D01*
X148732857Y-94067333D01*
X148875714Y-94067333D01*
X148970952Y-94114952D01*
X149018571Y-94162571D01*
X149066190Y-94257809D01*
X149066190Y-94495904D01*
X149018571Y-94591142D01*
X148970952Y-94638761D01*
X148875714Y-94686380D01*
X148590000Y-94686380D01*
X148494761Y-94638761D01*
X148447142Y-94591142D01*
X149637619Y-94114952D02*
X149542380Y-94067333D01*
X149494761Y-94019714D01*
X149447142Y-93924476D01*
X149447142Y-93876857D01*
X149494761Y-93781619D01*
X149542380Y-93734000D01*
X149637619Y-93686380D01*
X149828095Y-93686380D01*
X149923333Y-93734000D01*
X149970952Y-93781619D01*
X150018571Y-93876857D01*
X150018571Y-93924476D01*
X149970952Y-94019714D01*
X149923333Y-94067333D01*
X149828095Y-94114952D01*
X149637619Y-94114952D01*
X149542380Y-94162571D01*
X149494761Y-94210190D01*
X149447142Y-94305428D01*
X149447142Y-94495904D01*
X149494761Y-94591142D01*
X149542380Y-94638761D01*
X149637619Y-94686380D01*
X149828095Y-94686380D01*
X149923333Y-94638761D01*
X149970952Y-94591142D01*
X150018571Y-94495904D01*
X150018571Y-94305428D01*
X149970952Y-94210190D01*
X149923333Y-94162571D01*
X149828095Y-94114952D01*
X151113809Y-94686380D02*
X151637619Y-94019714D01*
X151113809Y-94019714D02*
X151637619Y-94686380D01*
X151970952Y-93781619D02*
X152018571Y-93734000D01*
X152113809Y-93686380D01*
X152351904Y-93686380D01*
X152447142Y-93734000D01*
X152494761Y-93781619D01*
X152542380Y-93876857D01*
X152542380Y-93972095D01*
X152494761Y-94114952D01*
X151923333Y-94686380D01*
X152542380Y-94686380D01*
X123816500Y-108565904D02*
X123359357Y-108565904D01*
X123587928Y-108565904D02*
X123587928Y-107765904D01*
X123511738Y-107880190D01*
X123435547Y-107956380D01*
X123359357Y-107994476D01*
X124159357Y-108565904D02*
X124159357Y-107765904D01*
X124235547Y-108261142D02*
X124464119Y-108565904D01*
X124464119Y-108032571D02*
X124159357Y-108337333D01*
X155852952Y-102942380D02*
X155376761Y-102942380D01*
X155376761Y-101942380D01*
X156186285Y-102418571D02*
X156519619Y-102418571D01*
X156662476Y-102942380D02*
X156186285Y-102942380D01*
X156186285Y-101942380D01*
X156662476Y-101942380D01*
X157091047Y-102942380D02*
X157091047Y-101942380D01*
X157329142Y-101942380D01*
X157472000Y-101990000D01*
X157567238Y-102085238D01*
X157614857Y-102180476D01*
X157662476Y-102370952D01*
X157662476Y-102513809D01*
X157614857Y-102704285D01*
X157567238Y-102799523D01*
X157472000Y-102894761D01*
X157329142Y-102942380D01*
X157091047Y-102942380D01*
X158138666Y-102942380D02*
X158329142Y-102942380D01*
X158424380Y-102894761D01*
X158472000Y-102847142D01*
X158567238Y-102704285D01*
X158614857Y-102513809D01*
X158614857Y-102132857D01*
X158567238Y-102037619D01*
X158519619Y-101990000D01*
X158424380Y-101942380D01*
X158233904Y-101942380D01*
X158138666Y-101990000D01*
X158091047Y-102037619D01*
X158043428Y-102132857D01*
X158043428Y-102370952D01*
X158091047Y-102466190D01*
X158138666Y-102513809D01*
X158233904Y-102561428D01*
X158424380Y-102561428D01*
X158519619Y-102513809D01*
X158567238Y-102466190D01*
X158614857Y-102370952D01*
X154757380Y-106799047D02*
X154757380Y-107370476D01*
X154757380Y-107084761D02*
X153757380Y-107084761D01*
X153900238Y-107180000D01*
X153995476Y-107275238D01*
X154043095Y-107370476D01*
X154757380Y-106370476D02*
X153757380Y-106370476D01*
X154376428Y-106275238D02*
X154757380Y-105989523D01*
X154090714Y-105989523D02*
X154471666Y-106370476D01*
X123816500Y-102850904D02*
X123359357Y-102850904D01*
X123587928Y-102850904D02*
X123587928Y-102050904D01*
X123511738Y-102165190D01*
X123435547Y-102241380D01*
X123359357Y-102279476D01*
X124159357Y-102850904D02*
X124159357Y-102050904D01*
X124235547Y-102546142D02*
X124464119Y-102850904D01*
X124464119Y-102317571D02*
X124159357Y-102622333D01*
X150620571Y-116894619D02*
X150620571Y-116561285D01*
X151144380Y-116418428D02*
X151144380Y-116894619D01*
X150144380Y-116894619D01*
X150144380Y-116418428D01*
X151096761Y-116037476D02*
X151144380Y-115894619D01*
X151144380Y-115656523D01*
X151096761Y-115561285D01*
X151049142Y-115513666D01*
X150953904Y-115466047D01*
X150858666Y-115466047D01*
X150763428Y-115513666D01*
X150715809Y-115561285D01*
X150668190Y-115656523D01*
X150620571Y-115847000D01*
X150572952Y-115942238D01*
X150525333Y-115989857D01*
X150430095Y-116037476D01*
X150334857Y-116037476D01*
X150239619Y-115989857D01*
X150192000Y-115942238D01*
X150144380Y-115847000D01*
X150144380Y-115608904D01*
X150192000Y-115466047D01*
X151144380Y-115037476D02*
X150144380Y-115037476D01*
X150144380Y-114656523D01*
X150192000Y-114561285D01*
X150239619Y-114513666D01*
X150334857Y-114466047D01*
X150477714Y-114466047D01*
X150572952Y-114513666D01*
X150620571Y-114561285D01*
X150668190Y-114656523D01*
X150668190Y-115037476D01*
X150144380Y-114132714D02*
X150144380Y-113513666D01*
X150525333Y-113847000D01*
X150525333Y-113704142D01*
X150572952Y-113608904D01*
X150620571Y-113561285D01*
X150715809Y-113513666D01*
X150953904Y-113513666D01*
X151049142Y-113561285D01*
X151096761Y-113608904D01*
X151144380Y-113704142D01*
X151144380Y-113989857D01*
X151096761Y-114085095D01*
X151049142Y-114132714D01*
X150239619Y-113132714D02*
X150192000Y-113085095D01*
X150144380Y-112989857D01*
X150144380Y-112751761D01*
X150192000Y-112656523D01*
X150239619Y-112608904D01*
X150334857Y-112561285D01*
X150430095Y-112561285D01*
X150572952Y-112608904D01*
X151144380Y-113180333D01*
X151144380Y-112561285D01*
X150763428Y-112132714D02*
X150763428Y-111370809D01*
X150144380Y-110989857D02*
X151144380Y-110751761D01*
X150430095Y-110561285D01*
X151144380Y-110370809D01*
X150144380Y-110132714D01*
X151144380Y-109180333D02*
X150668190Y-109513666D01*
X151144380Y-109751761D02*
X150144380Y-109751761D01*
X150144380Y-109370809D01*
X150192000Y-109275571D01*
X150239619Y-109227952D01*
X150334857Y-109180333D01*
X150477714Y-109180333D01*
X150572952Y-109227952D01*
X150620571Y-109275571D01*
X150668190Y-109370809D01*
X150668190Y-109751761D01*
X150144380Y-108561285D02*
X150144380Y-108370809D01*
X150192000Y-108275571D01*
X150287238Y-108180333D01*
X150477714Y-108132714D01*
X150811047Y-108132714D01*
X151001523Y-108180333D01*
X151096761Y-108275571D01*
X151144380Y-108370809D01*
X151144380Y-108561285D01*
X151096761Y-108656523D01*
X151001523Y-108751761D01*
X150811047Y-108799380D01*
X150477714Y-108799380D01*
X150287238Y-108751761D01*
X150192000Y-108656523D01*
X150144380Y-108561285D01*
X150144380Y-107513666D02*
X150144380Y-107323190D01*
X150192000Y-107227952D01*
X150287238Y-107132714D01*
X150477714Y-107085095D01*
X150811047Y-107085095D01*
X151001523Y-107132714D01*
X151096761Y-107227952D01*
X151144380Y-107323190D01*
X151144380Y-107513666D01*
X151096761Y-107608904D01*
X151001523Y-107704142D01*
X150811047Y-107751761D01*
X150477714Y-107751761D01*
X150287238Y-107704142D01*
X150192000Y-107608904D01*
X150144380Y-107513666D01*
X151144380Y-106656523D02*
X150144380Y-106656523D01*
X150858666Y-106323190D01*
X150144380Y-105989857D01*
X151144380Y-105989857D01*
X150763428Y-105513666D02*
X150763428Y-104751761D01*
X150144380Y-104370809D02*
X150144380Y-103751761D01*
X150525333Y-104085095D01*
X150525333Y-103942238D01*
X150572952Y-103847000D01*
X150620571Y-103799380D01*
X150715809Y-103751761D01*
X150953904Y-103751761D01*
X151049142Y-103799380D01*
X151096761Y-103847000D01*
X151144380Y-103942238D01*
X151144380Y-104227952D01*
X151096761Y-104323190D01*
X151049142Y-104370809D01*
X150239619Y-103370809D02*
X150192000Y-103323190D01*
X150144380Y-103227952D01*
X150144380Y-102989857D01*
X150192000Y-102894619D01*
X150239619Y-102847000D01*
X150334857Y-102799380D01*
X150430095Y-102799380D01*
X150572952Y-102847000D01*
X151144380Y-103418428D01*
X151144380Y-102799380D01*
X150144380Y-102370809D02*
X150953904Y-102370809D01*
X151049142Y-102323190D01*
X151096761Y-102275571D01*
X151144380Y-102180333D01*
X151144380Y-101989857D01*
X151096761Y-101894619D01*
X151049142Y-101847000D01*
X150953904Y-101799380D01*
X150144380Y-101799380D01*
X159662952Y-102942380D02*
X159186761Y-102942380D01*
X159186761Y-101942380D01*
X159996285Y-102418571D02*
X160329619Y-102418571D01*
X160472476Y-102942380D02*
X159996285Y-102942380D01*
X159996285Y-101942380D01*
X160472476Y-101942380D01*
X160901047Y-102942380D02*
X160901047Y-101942380D01*
X161139142Y-101942380D01*
X161282000Y-101990000D01*
X161377238Y-102085238D01*
X161424857Y-102180476D01*
X161472476Y-102370952D01*
X161472476Y-102513809D01*
X161424857Y-102704285D01*
X161377238Y-102799523D01*
X161282000Y-102894761D01*
X161139142Y-102942380D01*
X160901047Y-102942380D01*
X162043904Y-102370952D02*
X161948666Y-102323333D01*
X161901047Y-102275714D01*
X161853428Y-102180476D01*
X161853428Y-102132857D01*
X161901047Y-102037619D01*
X161948666Y-101990000D01*
X162043904Y-101942380D01*
X162234380Y-101942380D01*
X162329619Y-101990000D01*
X162377238Y-102037619D01*
X162424857Y-102132857D01*
X162424857Y-102180476D01*
X162377238Y-102275714D01*
X162329619Y-102323333D01*
X162234380Y-102370952D01*
X162043904Y-102370952D01*
X161948666Y-102418571D01*
X161901047Y-102466190D01*
X161853428Y-102561428D01*
X161853428Y-102751904D01*
X161901047Y-102847142D01*
X161948666Y-102894761D01*
X162043904Y-102942380D01*
X162234380Y-102942380D01*
X162329619Y-102894761D01*
X162377238Y-102847142D01*
X162424857Y-102751904D01*
X162424857Y-102561428D01*
X162377238Y-102466190D01*
X162329619Y-102418571D01*
X162234380Y-102370952D01*
X162122380Y-94321238D02*
X162122380Y-94892666D01*
X162122380Y-94606952D02*
X161122380Y-94606952D01*
X161265238Y-94702190D01*
X161360476Y-94797428D01*
X161408095Y-94892666D01*
X161455714Y-93464095D02*
X162122380Y-93464095D01*
X161455714Y-93892666D02*
X161979523Y-93892666D01*
X162074761Y-93845047D01*
X162122380Y-93749809D01*
X162122380Y-93606952D01*
X162074761Y-93511714D01*
X162027142Y-93464095D01*
X161598571Y-92654571D02*
X161598571Y-92987904D01*
X162122380Y-92987904D02*
X161122380Y-92987904D01*
X161122380Y-92511714D01*
X165552380Y-114641238D02*
X165552380Y-115212666D01*
X165552380Y-114926952D02*
X164552380Y-114926952D01*
X164695238Y-115022190D01*
X164790476Y-115117428D01*
X164838095Y-115212666D01*
X164885714Y-113784095D02*
X165552380Y-113784095D01*
X164885714Y-114212666D02*
X165409523Y-114212666D01*
X165504761Y-114165047D01*
X165552380Y-114069809D01*
X165552380Y-113926952D01*
X165504761Y-113831714D01*
X165457142Y-113784095D01*
X165028571Y-112974571D02*
X165028571Y-113307904D01*
X165552380Y-113307904D02*
X164552380Y-113307904D01*
X164552380Y-112831714D01*
D16*
X115996476Y-108760428D02*
X115629809Y-108760428D01*
X115629809Y-109336619D02*
X115629809Y-108236619D01*
X116153619Y-108236619D01*
X117096476Y-109336619D02*
X116572666Y-109336619D01*
X116572666Y-108236619D01*
X117410761Y-109022333D02*
X117934571Y-109022333D01*
X117306000Y-109336619D02*
X117672666Y-108236619D01*
X118039333Y-109336619D01*
X118353619Y-109284238D02*
X118510761Y-109336619D01*
X118772666Y-109336619D01*
X118877428Y-109284238D01*
X118929809Y-109231857D01*
X118982190Y-109127095D01*
X118982190Y-109022333D01*
X118929809Y-108917571D01*
X118877428Y-108865190D01*
X118772666Y-108812809D01*
X118563142Y-108760428D01*
X118458380Y-108708047D01*
X118406000Y-108655666D01*
X118353619Y-108550904D01*
X118353619Y-108446142D01*
X118406000Y-108341380D01*
X118458380Y-108289000D01*
X118563142Y-108236619D01*
X118825047Y-108236619D01*
X118982190Y-108289000D01*
X119453619Y-109336619D02*
X119453619Y-108236619D01*
X119453619Y-108760428D02*
X120082190Y-108760428D01*
X120082190Y-109336619D02*
X120082190Y-108236619D01*
D13*
X122864119Y-106127571D02*
X122864119Y-106660904D01*
X122673642Y-105822809D02*
X122483166Y-106394238D01*
X122978404Y-106394238D01*
X123206976Y-105860904D02*
X123740309Y-105860904D01*
X123397452Y-106660904D01*
X124197452Y-105860904D02*
X124273642Y-105860904D01*
X124349833Y-105899000D01*
X124387928Y-105937095D01*
X124426023Y-106013285D01*
X124464119Y-106165666D01*
X124464119Y-106356142D01*
X124426023Y-106508523D01*
X124387928Y-106584714D01*
X124349833Y-106622809D01*
X124273642Y-106660904D01*
X124197452Y-106660904D01*
X124121261Y-106622809D01*
X124083166Y-106584714D01*
X124045071Y-106508523D01*
X124006976Y-106356142D01*
X124006976Y-106165666D01*
X124045071Y-106013285D01*
X124083166Y-105937095D01*
X124121261Y-105899000D01*
X124197452Y-105860904D01*
X152852380Y-82002285D02*
X152852380Y-82573714D01*
X152852380Y-82288000D02*
X151852380Y-82288000D01*
X151995238Y-82383238D01*
X152090476Y-82478476D01*
X152138095Y-82573714D01*
X152852380Y-81573714D02*
X151852380Y-81573714D01*
X152852380Y-81002285D02*
X152280952Y-81430857D01*
X151852380Y-81002285D02*
X152423809Y-81573714D01*
X163901380Y-106799047D02*
X163901380Y-107370476D01*
X163901380Y-107084761D02*
X162901380Y-107084761D01*
X163044238Y-107180000D01*
X163139476Y-107275238D01*
X163187095Y-107370476D01*
X163901380Y-106370476D02*
X162901380Y-106370476D01*
X163520428Y-106275238D02*
X163901380Y-105989523D01*
X163234714Y-105989523D02*
X163615666Y-106370476D01*
X123054595Y-110470904D02*
X122597452Y-110470904D01*
X122826023Y-110470904D02*
X122826023Y-109670904D01*
X122749833Y-109785190D01*
X122673642Y-109861380D01*
X122597452Y-109899476D01*
X123740309Y-109937571D02*
X123740309Y-110470904D01*
X123397452Y-109937571D02*
X123397452Y-110356619D01*
X123435547Y-110432809D01*
X123511738Y-110470904D01*
X123626023Y-110470904D01*
X123702214Y-110432809D01*
X123740309Y-110394714D01*
X124387928Y-110051857D02*
X124121261Y-110051857D01*
X124121261Y-110470904D02*
X124121261Y-109670904D01*
X124502214Y-109670904D01*
X159408761Y-90494952D02*
X159456380Y-90352095D01*
X159456380Y-90114000D01*
X159408761Y-90018761D01*
X159361142Y-89971142D01*
X159265904Y-89923523D01*
X159170666Y-89923523D01*
X159075428Y-89971142D01*
X159027809Y-90018761D01*
X158980190Y-90114000D01*
X158932571Y-90304476D01*
X158884952Y-90399714D01*
X158837333Y-90447333D01*
X158742095Y-90494952D01*
X158646857Y-90494952D01*
X158551619Y-90447333D01*
X158504000Y-90399714D01*
X158456380Y-90304476D01*
X158456380Y-90066380D01*
X158504000Y-89923523D01*
X159361142Y-88923523D02*
X159408761Y-88971142D01*
X159456380Y-89114000D01*
X159456380Y-89209238D01*
X159408761Y-89352095D01*
X159313523Y-89447333D01*
X159218285Y-89494952D01*
X159027809Y-89542571D01*
X158884952Y-89542571D01*
X158694476Y-89494952D01*
X158599238Y-89447333D01*
X158504000Y-89352095D01*
X158456380Y-89209238D01*
X158456380Y-89114000D01*
X158504000Y-88971142D01*
X158551619Y-88923523D01*
X159456380Y-87971142D02*
X159456380Y-88542571D01*
X159456380Y-88256857D02*
X158456380Y-88256857D01*
X158599238Y-88352095D01*
X158694476Y-88447333D01*
X158742095Y-88542571D01*
X158456380Y-87114000D02*
X158456380Y-87304476D01*
X158504000Y-87399714D01*
X158551619Y-87447333D01*
X158694476Y-87542571D01*
X158884952Y-87590190D01*
X159265904Y-87590190D01*
X159361142Y-87542571D01*
X159408761Y-87494952D01*
X159456380Y-87399714D01*
X159456380Y-87209238D01*
X159408761Y-87114000D01*
X159361142Y-87066380D01*
X159265904Y-87018761D01*
X159027809Y-87018761D01*
X158932571Y-87066380D01*
X158884952Y-87114000D01*
X158837333Y-87209238D01*
X158837333Y-87399714D01*
X158884952Y-87494952D01*
X158932571Y-87542571D01*
X159027809Y-87590190D01*
X159456380Y-86590190D02*
X158456380Y-86590190D01*
X159408761Y-86161619D02*
X159456380Y-86018761D01*
X159456380Y-85780666D01*
X159408761Y-85685428D01*
X159361142Y-85637809D01*
X159265904Y-85590190D01*
X159170666Y-85590190D01*
X159075428Y-85637809D01*
X159027809Y-85685428D01*
X158980190Y-85780666D01*
X158932571Y-85971142D01*
X158884952Y-86066380D01*
X158837333Y-86114000D01*
X158742095Y-86161619D01*
X158646857Y-86161619D01*
X158551619Y-86114000D01*
X158504000Y-86066380D01*
X158456380Y-85971142D01*
X158456380Y-85733047D01*
X158504000Y-85590190D01*
X158456380Y-85256857D02*
X158456380Y-84590190D01*
X159456380Y-85018761D01*
X158456380Y-83733047D02*
X158456380Y-84209238D01*
X158932571Y-84256857D01*
X158884952Y-84209238D01*
X158837333Y-84114000D01*
X158837333Y-83875904D01*
X158884952Y-83780666D01*
X158932571Y-83733047D01*
X159027809Y-83685428D01*
X159265904Y-83685428D01*
X159361142Y-83733047D01*
X159408761Y-83780666D01*
X159456380Y-83875904D01*
X159456380Y-84114000D01*
X159408761Y-84209238D01*
X159361142Y-84256857D01*
X158551619Y-83304476D02*
X158504000Y-83256857D01*
X158456380Y-83161619D01*
X158456380Y-82923523D01*
X158504000Y-82828285D01*
X158551619Y-82780666D01*
X158646857Y-82733047D01*
X158742095Y-82733047D01*
X158884952Y-82780666D01*
X159456380Y-83352095D01*
X159456380Y-82733047D01*
X125761857Y-115423904D02*
X125304714Y-115423904D01*
X125533285Y-115423904D02*
X125533285Y-114623904D01*
X125457095Y-114738190D01*
X125380904Y-114814380D01*
X125304714Y-114852476D01*
X126257095Y-114623904D02*
X126333285Y-114623904D01*
X126409476Y-114662000D01*
X126447571Y-114700095D01*
X126485666Y-114776285D01*
X126523761Y-114928666D01*
X126523761Y-115119142D01*
X126485666Y-115271523D01*
X126447571Y-115347714D01*
X126409476Y-115385809D01*
X126333285Y-115423904D01*
X126257095Y-115423904D01*
X126180904Y-115385809D01*
X126142809Y-115347714D01*
X126104714Y-115271523D01*
X126066619Y-115119142D01*
X126066619Y-114928666D01*
X126104714Y-114776285D01*
X126142809Y-114700095D01*
X126180904Y-114662000D01*
X126257095Y-114623904D01*
X127209476Y-114890571D02*
X127209476Y-115423904D01*
X126866619Y-114890571D02*
X126866619Y-115309619D01*
X126904714Y-115385809D01*
X126980904Y-115423904D01*
X127095190Y-115423904D01*
X127171380Y-115385809D01*
X127209476Y-115347714D01*
X127857095Y-115004857D02*
X127590428Y-115004857D01*
X127590428Y-115423904D02*
X127590428Y-114623904D01*
X127971380Y-114623904D01*
D16*
X116363142Y-113840428D02*
X116520285Y-113892809D01*
X116572666Y-113945190D01*
X116625047Y-114049952D01*
X116625047Y-114207095D01*
X116572666Y-114311857D01*
X116520285Y-114364238D01*
X116415523Y-114416619D01*
X115996476Y-114416619D01*
X115996476Y-113316619D01*
X116363142Y-113316619D01*
X116467904Y-113369000D01*
X116520285Y-113421380D01*
X116572666Y-113526142D01*
X116572666Y-113630904D01*
X116520285Y-113735666D01*
X116467904Y-113788047D01*
X116363142Y-113840428D01*
X115996476Y-113840428D01*
X117306000Y-113316619D02*
X117515523Y-113316619D01*
X117620285Y-113369000D01*
X117725047Y-113473761D01*
X117777428Y-113683285D01*
X117777428Y-114049952D01*
X117725047Y-114259476D01*
X117620285Y-114364238D01*
X117515523Y-114416619D01*
X117306000Y-114416619D01*
X117201238Y-114364238D01*
X117096476Y-114259476D01*
X117044095Y-114049952D01*
X117044095Y-113683285D01*
X117096476Y-113473761D01*
X117201238Y-113369000D01*
X117306000Y-113316619D01*
X118458380Y-113316619D02*
X118667904Y-113316619D01*
X118772666Y-113369000D01*
X118877428Y-113473761D01*
X118929809Y-113683285D01*
X118929809Y-114049952D01*
X118877428Y-114259476D01*
X118772666Y-114364238D01*
X118667904Y-114416619D01*
X118458380Y-114416619D01*
X118353619Y-114364238D01*
X118248857Y-114259476D01*
X118196476Y-114049952D01*
X118196476Y-113683285D01*
X118248857Y-113473761D01*
X118353619Y-113369000D01*
X118458380Y-113316619D01*
X119244095Y-113316619D02*
X119872666Y-113316619D01*
X119558380Y-114416619D02*
X119558380Y-113316619D01*
D13*
X159488142Y-117014190D02*
X159535761Y-117061809D01*
X159583380Y-117204666D01*
X159583380Y-117299904D01*
X159535761Y-117442761D01*
X159440523Y-117538000D01*
X159345285Y-117585619D01*
X159154809Y-117633238D01*
X159011952Y-117633238D01*
X158821476Y-117585619D01*
X158726238Y-117538000D01*
X158631000Y-117442761D01*
X158583380Y-117299904D01*
X158583380Y-117204666D01*
X158631000Y-117061809D01*
X158678619Y-117014190D01*
X159107190Y-116395142D02*
X159583380Y-116395142D01*
X158583380Y-116728476D02*
X159107190Y-116395142D01*
X158583380Y-116061809D01*
X158583380Y-115823714D02*
X158583380Y-115157047D01*
X159583380Y-115585619D01*
X159488142Y-114204666D02*
X159535761Y-114252285D01*
X159583380Y-114395142D01*
X159583380Y-114490380D01*
X159535761Y-114633238D01*
X159440523Y-114728476D01*
X159345285Y-114776095D01*
X159154809Y-114823714D01*
X159011952Y-114823714D01*
X158821476Y-114776095D01*
X158726238Y-114728476D01*
X158631000Y-114633238D01*
X158583380Y-114490380D01*
X158583380Y-114395142D01*
X158631000Y-114252285D01*
X158678619Y-114204666D01*
X158583380Y-113347523D02*
X158583380Y-113538000D01*
X158631000Y-113633238D01*
X158678619Y-113680857D01*
X158821476Y-113776095D01*
X159011952Y-113823714D01*
X159392904Y-113823714D01*
X159488142Y-113776095D01*
X159535761Y-113728476D01*
X159583380Y-113633238D01*
X159583380Y-113442761D01*
X159535761Y-113347523D01*
X159488142Y-113299904D01*
X159392904Y-113252285D01*
X159154809Y-113252285D01*
X159059571Y-113299904D01*
X159011952Y-113347523D01*
X158964333Y-113442761D01*
X158964333Y-113633238D01*
X159011952Y-113728476D01*
X159059571Y-113776095D01*
X159154809Y-113823714D01*
X158583380Y-112347523D02*
X158583380Y-112823714D01*
X159059571Y-112871333D01*
X159011952Y-112823714D01*
X158964333Y-112728476D01*
X158964333Y-112490380D01*
X159011952Y-112395142D01*
X159059571Y-112347523D01*
X159154809Y-112299904D01*
X159392904Y-112299904D01*
X159488142Y-112347523D01*
X159535761Y-112395142D01*
X159583380Y-112490380D01*
X159583380Y-112728476D01*
X159535761Y-112823714D01*
X159488142Y-112871333D01*
X158678619Y-111918952D02*
X158631000Y-111871333D01*
X158583380Y-111776095D01*
X158583380Y-111538000D01*
X158631000Y-111442761D01*
X158678619Y-111395142D01*
X158773857Y-111347523D01*
X158869095Y-111347523D01*
X159011952Y-111395142D01*
X159583380Y-111966571D01*
X159583380Y-111347523D01*
X159583380Y-110395142D02*
X159583380Y-110966571D01*
X159583380Y-110680857D02*
X158583380Y-110680857D01*
X158726238Y-110776095D01*
X158821476Y-110871333D01*
X158869095Y-110966571D01*
X158583380Y-110061809D02*
X158583380Y-109442761D01*
X158964333Y-109776095D01*
X158964333Y-109633238D01*
X159011952Y-109538000D01*
X159059571Y-109490380D01*
X159154809Y-109442761D01*
X159392904Y-109442761D01*
X159488142Y-109490380D01*
X159535761Y-109538000D01*
X159583380Y-109633238D01*
X159583380Y-109918952D01*
X159535761Y-110014190D01*
X159488142Y-110061809D01*
X139644380Y-87733047D02*
X139644380Y-88209238D01*
X138644380Y-88209238D01*
X139120571Y-87399714D02*
X139120571Y-87066380D01*
X139644380Y-86923523D02*
X139644380Y-87399714D01*
X138644380Y-87399714D01*
X138644380Y-86923523D01*
X139644380Y-86494952D02*
X138644380Y-86494952D01*
X138644380Y-86256857D01*
X138692000Y-86114000D01*
X138787238Y-86018761D01*
X138882476Y-85971142D01*
X139072952Y-85923523D01*
X139215809Y-85923523D01*
X139406285Y-85971142D01*
X139501523Y-86018761D01*
X139596761Y-86114000D01*
X139644380Y-86256857D01*
X139644380Y-86494952D01*
X138644380Y-85018761D02*
X138644380Y-85494952D01*
X139120571Y-85542571D01*
X139072952Y-85494952D01*
X139025333Y-85399714D01*
X139025333Y-85161619D01*
X139072952Y-85066380D01*
X139120571Y-85018761D01*
X139215809Y-84971142D01*
X139453904Y-84971142D01*
X139549142Y-85018761D01*
X139596761Y-85066380D01*
X139644380Y-85161619D01*
X139644380Y-85399714D01*
X139596761Y-85494952D01*
X139549142Y-85542571D01*
X141676380Y-87733047D02*
X141676380Y-88209238D01*
X140676380Y-88209238D01*
X141152571Y-87399714D02*
X141152571Y-87066380D01*
X141676380Y-86923523D02*
X141676380Y-87399714D01*
X140676380Y-87399714D01*
X140676380Y-86923523D01*
X141676380Y-86494952D02*
X140676380Y-86494952D01*
X140676380Y-86256857D01*
X140724000Y-86114000D01*
X140819238Y-86018761D01*
X140914476Y-85971142D01*
X141104952Y-85923523D01*
X141247809Y-85923523D01*
X141438285Y-85971142D01*
X141533523Y-86018761D01*
X141628761Y-86114000D01*
X141676380Y-86256857D01*
X141676380Y-86494952D01*
X141009714Y-85066380D02*
X141676380Y-85066380D01*
X140628761Y-85304476D02*
X141343047Y-85542571D01*
X141343047Y-84923523D01*
X143708380Y-87733047D02*
X143708380Y-88209238D01*
X142708380Y-88209238D01*
X143184571Y-87399714D02*
X143184571Y-87066380D01*
X143708380Y-86923523D02*
X143708380Y-87399714D01*
X142708380Y-87399714D01*
X142708380Y-86923523D01*
X143708380Y-86494952D02*
X142708380Y-86494952D01*
X142708380Y-86256857D01*
X142756000Y-86114000D01*
X142851238Y-86018761D01*
X142946476Y-85971142D01*
X143136952Y-85923523D01*
X143279809Y-85923523D01*
X143470285Y-85971142D01*
X143565523Y-86018761D01*
X143660761Y-86114000D01*
X143708380Y-86256857D01*
X143708380Y-86494952D01*
X142708380Y-85590190D02*
X142708380Y-84971142D01*
X143089333Y-85304476D01*
X143089333Y-85161619D01*
X143136952Y-85066380D01*
X143184571Y-85018761D01*
X143279809Y-84971142D01*
X143517904Y-84971142D01*
X143613142Y-85018761D01*
X143660761Y-85066380D01*
X143708380Y-85161619D01*
X143708380Y-85447333D01*
X143660761Y-85542571D01*
X143613142Y-85590190D01*
X145740380Y-87733047D02*
X145740380Y-88209238D01*
X144740380Y-88209238D01*
X145216571Y-87399714D02*
X145216571Y-87066380D01*
X145740380Y-86923523D02*
X145740380Y-87399714D01*
X144740380Y-87399714D01*
X144740380Y-86923523D01*
X145740380Y-86494952D02*
X144740380Y-86494952D01*
X144740380Y-86256857D01*
X144788000Y-86114000D01*
X144883238Y-86018761D01*
X144978476Y-85971142D01*
X145168952Y-85923523D01*
X145311809Y-85923523D01*
X145502285Y-85971142D01*
X145597523Y-86018761D01*
X145692761Y-86114000D01*
X145740380Y-86256857D01*
X145740380Y-86494952D01*
X144835619Y-85542571D02*
X144788000Y-85494952D01*
X144740380Y-85399714D01*
X144740380Y-85161619D01*
X144788000Y-85066380D01*
X144835619Y-85018761D01*
X144930857Y-84971142D01*
X145026095Y-84971142D01*
X145168952Y-85018761D01*
X145740380Y-85590190D01*
X145740380Y-84971142D01*
X147772380Y-87733047D02*
X147772380Y-88209238D01*
X146772380Y-88209238D01*
X147248571Y-87399714D02*
X147248571Y-87066380D01*
X147772380Y-86923523D02*
X147772380Y-87399714D01*
X146772380Y-87399714D01*
X146772380Y-86923523D01*
X147772380Y-86494952D02*
X146772380Y-86494952D01*
X146772380Y-86256857D01*
X146820000Y-86114000D01*
X146915238Y-86018761D01*
X147010476Y-85971142D01*
X147200952Y-85923523D01*
X147343809Y-85923523D01*
X147534285Y-85971142D01*
X147629523Y-86018761D01*
X147724761Y-86114000D01*
X147772380Y-86256857D01*
X147772380Y-86494952D01*
X147772380Y-84971142D02*
X147772380Y-85542571D01*
X147772380Y-85256857D02*
X146772380Y-85256857D01*
X146915238Y-85352095D01*
X147010476Y-85447333D01*
X147058095Y-85542571D01*
X162234619Y-80747904D02*
X162187000Y-80700285D01*
X162139380Y-80605047D01*
X162139380Y-80366952D01*
X162187000Y-80271714D01*
X162234619Y-80224095D01*
X162329857Y-80176476D01*
X162425095Y-80176476D01*
X162567952Y-80224095D01*
X163139380Y-80795523D01*
X163139380Y-80176476D01*
X162472714Y-79319333D02*
X163139380Y-79319333D01*
X162091761Y-79557428D02*
X162806047Y-79795523D01*
X162806047Y-79176476D01*
X163139380Y-78795523D02*
X162139380Y-78795523D01*
X162853666Y-78462190D01*
X162139380Y-78128857D01*
X163139380Y-78128857D01*
X163139380Y-77652666D02*
X162139380Y-77652666D01*
X162615571Y-77652666D02*
X162615571Y-77081238D01*
X163139380Y-77081238D02*
X162139380Y-77081238D01*
X162472714Y-76700285D02*
X162472714Y-76176476D01*
X163139380Y-76700285D01*
X163139380Y-76176476D01*
M02*
