G04 #@! TF.GenerationSoftware,KiCad,Pcbnew,5.1.5+dfsg1-2build2*
G04 #@! TF.CreationDate,2020-08-18T22:28:12+10:00*
G04 #@! TF.ProjectId,sid-board-v3,7369642d-626f-4617-9264-2d76332e6b69,rev?*
G04 #@! TF.SameCoordinates,Original*
G04 #@! TF.FileFunction,Legend,Bot*
G04 #@! TF.FilePolarity,Positive*
%FSLAX46Y46*%
G04 Gerber Fmt 4.6, Leading zero omitted, Abs format (unit mm)*
G04 Created by KiCad (PCBNEW 5.1.5+dfsg1-2build2) date 2020-08-18 22:28:12*
%MOMM*%
%LPD*%
G04 APERTURE LIST*
%ADD10C,0.150000*%
%ADD11C,0.200000*%
%ADD12C,0.120000*%
G04 APERTURE END LIST*
D10*
X126238000Y-82042000D02*
X125603000Y-81661000D01*
X126238000Y-81280000D02*
X126238000Y-82042000D01*
X125603000Y-81661000D02*
X126238000Y-81280000D01*
X125603000Y-81026000D02*
X125603000Y-82296000D01*
X120523000Y-84582000D02*
X121158000Y-84201000D01*
X120523000Y-83820000D02*
X120523000Y-84582000D01*
X121158000Y-84201000D02*
X120523000Y-83820000D01*
X121158000Y-83566000D02*
X121158000Y-84836000D01*
X136652000Y-85598000D02*
G75*
G03X136652000Y-85598000I-254000J0D01*
G01*
X144526000Y-85598000D02*
G75*
G03X144526000Y-85598000I-254000J0D01*
G01*
X152146000Y-85598000D02*
G75*
G03X152146000Y-85598000I-254000J0D01*
G01*
D11*
X130294000Y-119250095D02*
X130341619Y-119345333D01*
X130341619Y-119488190D01*
X130294000Y-119631047D01*
X130198761Y-119726285D01*
X130103523Y-119773904D01*
X129913047Y-119821523D01*
X129770190Y-119821523D01*
X129579714Y-119773904D01*
X129484476Y-119726285D01*
X129389238Y-119631047D01*
X129341619Y-119488190D01*
X129341619Y-119392952D01*
X129389238Y-119250095D01*
X129436857Y-119202476D01*
X129770190Y-119202476D01*
X129770190Y-119392952D01*
X129341619Y-118773904D02*
X130341619Y-118773904D01*
X129341619Y-118202476D01*
X130341619Y-118202476D01*
X129341619Y-117726285D02*
X130341619Y-117726285D01*
X130341619Y-117488190D01*
X130294000Y-117345333D01*
X130198761Y-117250095D01*
X130103523Y-117202476D01*
X129913047Y-117154857D01*
X129770190Y-117154857D01*
X129579714Y-117202476D01*
X129484476Y-117250095D01*
X129389238Y-117345333D01*
X129341619Y-117488190D01*
X129341619Y-117726285D01*
X132881619Y-119869142D02*
X132881619Y-119250095D01*
X132500666Y-119583428D01*
X132500666Y-119440571D01*
X132453047Y-119345333D01*
X132405428Y-119297714D01*
X132310190Y-119250095D01*
X132072095Y-119250095D01*
X131976857Y-119297714D01*
X131929238Y-119345333D01*
X131881619Y-119440571D01*
X131881619Y-119726285D01*
X131929238Y-119821523D01*
X131976857Y-119869142D01*
X131976857Y-118821523D02*
X131929238Y-118773904D01*
X131881619Y-118821523D01*
X131929238Y-118869142D01*
X131976857Y-118821523D01*
X131881619Y-118821523D01*
X132881619Y-118440571D02*
X132881619Y-117821523D01*
X132500666Y-118154857D01*
X132500666Y-118012000D01*
X132453047Y-117916761D01*
X132405428Y-117869142D01*
X132310190Y-117821523D01*
X132072095Y-117821523D01*
X131976857Y-117869142D01*
X131929238Y-117916761D01*
X131881619Y-118012000D01*
X131881619Y-118297714D01*
X131929238Y-118392952D01*
X131976857Y-118440571D01*
X132881619Y-117535809D02*
X131881619Y-117202476D01*
X132881619Y-116869142D01*
X134421619Y-119773904D02*
X135421619Y-119773904D01*
X135421619Y-119107238D02*
X135421619Y-118916761D01*
X135374000Y-118821523D01*
X135278761Y-118726285D01*
X135088285Y-118678666D01*
X134754952Y-118678666D01*
X134564476Y-118726285D01*
X134469238Y-118821523D01*
X134421619Y-118916761D01*
X134421619Y-119107238D01*
X134469238Y-119202476D01*
X134564476Y-119297714D01*
X134754952Y-119345333D01*
X135088285Y-119345333D01*
X135278761Y-119297714D01*
X135374000Y-119202476D01*
X135421619Y-119107238D01*
X135421619Y-118345333D02*
X135421619Y-117726285D01*
X135040666Y-118059619D01*
X135040666Y-117916761D01*
X134993047Y-117821523D01*
X134945428Y-117773904D01*
X134850190Y-117726285D01*
X134612095Y-117726285D01*
X134516857Y-117773904D01*
X134469238Y-117821523D01*
X134421619Y-117916761D01*
X134421619Y-118202476D01*
X134469238Y-118297714D01*
X134516857Y-118345333D01*
X135326380Y-117345333D02*
X135374000Y-117297714D01*
X135421619Y-117202476D01*
X135421619Y-116964380D01*
X135374000Y-116869142D01*
X135326380Y-116821523D01*
X135231142Y-116773904D01*
X135135904Y-116773904D01*
X134993047Y-116821523D01*
X134421619Y-117392952D01*
X134421619Y-116773904D01*
X136961619Y-119773904D02*
X137961619Y-119773904D01*
X137961619Y-119107238D02*
X137961619Y-118916761D01*
X137914000Y-118821523D01*
X137818761Y-118726285D01*
X137628285Y-118678666D01*
X137294952Y-118678666D01*
X137104476Y-118726285D01*
X137009238Y-118821523D01*
X136961619Y-118916761D01*
X136961619Y-119107238D01*
X137009238Y-119202476D01*
X137104476Y-119297714D01*
X137294952Y-119345333D01*
X137628285Y-119345333D01*
X137818761Y-119297714D01*
X137914000Y-119202476D01*
X137961619Y-119107238D01*
X137961619Y-118345333D02*
X137961619Y-117726285D01*
X137580666Y-118059619D01*
X137580666Y-117916761D01*
X137533047Y-117821523D01*
X137485428Y-117773904D01*
X137390190Y-117726285D01*
X137152095Y-117726285D01*
X137056857Y-117773904D01*
X137009238Y-117821523D01*
X136961619Y-117916761D01*
X136961619Y-118202476D01*
X137009238Y-118297714D01*
X137056857Y-118345333D01*
X137961619Y-117392952D02*
X137961619Y-116773904D01*
X137580666Y-117107238D01*
X137580666Y-116964380D01*
X137533047Y-116869142D01*
X137485428Y-116821523D01*
X137390190Y-116773904D01*
X137152095Y-116773904D01*
X137056857Y-116821523D01*
X137009238Y-116869142D01*
X136961619Y-116964380D01*
X136961619Y-117250095D01*
X137009238Y-117345333D01*
X137056857Y-117392952D01*
X139501619Y-119773904D02*
X140501619Y-119773904D01*
X140501619Y-119107238D02*
X140501619Y-118916761D01*
X140454000Y-118821523D01*
X140358761Y-118726285D01*
X140168285Y-118678666D01*
X139834952Y-118678666D01*
X139644476Y-118726285D01*
X139549238Y-118821523D01*
X139501619Y-118916761D01*
X139501619Y-119107238D01*
X139549238Y-119202476D01*
X139644476Y-119297714D01*
X139834952Y-119345333D01*
X140168285Y-119345333D01*
X140358761Y-119297714D01*
X140454000Y-119202476D01*
X140501619Y-119107238D01*
X140406380Y-118297714D02*
X140454000Y-118250095D01*
X140501619Y-118154857D01*
X140501619Y-117916761D01*
X140454000Y-117821523D01*
X140406380Y-117773904D01*
X140311142Y-117726285D01*
X140215904Y-117726285D01*
X140073047Y-117773904D01*
X139501619Y-118345333D01*
X139501619Y-117726285D01*
X140501619Y-117392952D02*
X140501619Y-116726285D01*
X139501619Y-117154857D01*
X142041619Y-119773904D02*
X143041619Y-119773904D01*
X143041619Y-119107238D02*
X143041619Y-118916761D01*
X142994000Y-118821523D01*
X142898761Y-118726285D01*
X142708285Y-118678666D01*
X142374952Y-118678666D01*
X142184476Y-118726285D01*
X142089238Y-118821523D01*
X142041619Y-118916761D01*
X142041619Y-119107238D01*
X142089238Y-119202476D01*
X142184476Y-119297714D01*
X142374952Y-119345333D01*
X142708285Y-119345333D01*
X142898761Y-119297714D01*
X142994000Y-119202476D01*
X143041619Y-119107238D01*
X142946380Y-118297714D02*
X142994000Y-118250095D01*
X143041619Y-118154857D01*
X143041619Y-117916761D01*
X142994000Y-117821523D01*
X142946380Y-117773904D01*
X142851142Y-117726285D01*
X142755904Y-117726285D01*
X142613047Y-117773904D01*
X142041619Y-118345333D01*
X142041619Y-117726285D01*
X142946380Y-117345333D02*
X142994000Y-117297714D01*
X143041619Y-117202476D01*
X143041619Y-116964380D01*
X142994000Y-116869142D01*
X142946380Y-116821523D01*
X142851142Y-116773904D01*
X142755904Y-116773904D01*
X142613047Y-116821523D01*
X142041619Y-117392952D01*
X142041619Y-116773904D01*
X141660666Y-115297714D02*
X141708285Y-115345333D01*
X141851142Y-115440571D01*
X141946380Y-115488190D01*
X142089238Y-115535809D01*
X142327333Y-115583428D01*
X142517809Y-115583428D01*
X142755904Y-115535809D01*
X142898761Y-115488190D01*
X142994000Y-115440571D01*
X143136857Y-115345333D01*
X143184476Y-115297714D01*
X142041619Y-114916761D02*
X143041619Y-114916761D01*
X143041619Y-114678666D01*
X142994000Y-114535809D01*
X142898761Y-114440571D01*
X142803523Y-114392952D01*
X142613047Y-114345333D01*
X142470190Y-114345333D01*
X142279714Y-114392952D01*
X142184476Y-114440571D01*
X142089238Y-114535809D01*
X142041619Y-114678666D01*
X142041619Y-114916761D01*
X142041619Y-113916761D02*
X143041619Y-113916761D01*
X142041619Y-113440571D02*
X143041619Y-113440571D01*
X142041619Y-112869142D01*
X143041619Y-112869142D01*
X141660666Y-112488190D02*
X141708285Y-112440571D01*
X141851142Y-112345333D01*
X141946380Y-112297714D01*
X142089238Y-112250095D01*
X142327333Y-112202476D01*
X142517809Y-112202476D01*
X142755904Y-112250095D01*
X142898761Y-112297714D01*
X142994000Y-112345333D01*
X143136857Y-112440571D01*
X143184476Y-112488190D01*
X144581619Y-119773904D02*
X145581619Y-119773904D01*
X145581619Y-119107238D02*
X145581619Y-118916761D01*
X145534000Y-118821523D01*
X145438761Y-118726285D01*
X145248285Y-118678666D01*
X144914952Y-118678666D01*
X144724476Y-118726285D01*
X144629238Y-118821523D01*
X144581619Y-118916761D01*
X144581619Y-119107238D01*
X144629238Y-119202476D01*
X144724476Y-119297714D01*
X144914952Y-119345333D01*
X145248285Y-119345333D01*
X145438761Y-119297714D01*
X145534000Y-119202476D01*
X145581619Y-119107238D01*
X145486380Y-118297714D02*
X145534000Y-118250095D01*
X145581619Y-118154857D01*
X145581619Y-117916761D01*
X145534000Y-117821523D01*
X145486380Y-117773904D01*
X145391142Y-117726285D01*
X145295904Y-117726285D01*
X145153047Y-117773904D01*
X144581619Y-118345333D01*
X144581619Y-117726285D01*
X145581619Y-116821523D02*
X145581619Y-117297714D01*
X145105428Y-117345333D01*
X145153047Y-117297714D01*
X145200666Y-117202476D01*
X145200666Y-116964380D01*
X145153047Y-116869142D01*
X145105428Y-116821523D01*
X145010190Y-116773904D01*
X144772095Y-116773904D01*
X144676857Y-116821523D01*
X144629238Y-116869142D01*
X144581619Y-116964380D01*
X144581619Y-117202476D01*
X144629238Y-117297714D01*
X144676857Y-117345333D01*
X144200666Y-115297714D02*
X144248285Y-115345333D01*
X144391142Y-115440571D01*
X144486380Y-115488190D01*
X144629238Y-115535809D01*
X144867333Y-115583428D01*
X145057809Y-115583428D01*
X145295904Y-115535809D01*
X145438761Y-115488190D01*
X145534000Y-115440571D01*
X145676857Y-115345333D01*
X145724476Y-115297714D01*
X145581619Y-115012000D02*
X144581619Y-114773904D01*
X145295904Y-114583428D01*
X144581619Y-114392952D01*
X145581619Y-114154857D01*
X144629238Y-113821523D02*
X144581619Y-113678666D01*
X144581619Y-113440571D01*
X144629238Y-113345333D01*
X144676857Y-113297714D01*
X144772095Y-113250095D01*
X144867333Y-113250095D01*
X144962571Y-113297714D01*
X145010190Y-113345333D01*
X145057809Y-113440571D01*
X145105428Y-113631047D01*
X145153047Y-113726285D01*
X145200666Y-113773904D01*
X145295904Y-113821523D01*
X145391142Y-113821523D01*
X145486380Y-113773904D01*
X145534000Y-113726285D01*
X145581619Y-113631047D01*
X145581619Y-113392952D01*
X145534000Y-113250095D01*
X145105428Y-112821523D02*
X145105428Y-112488190D01*
X144581619Y-112345333D02*
X144581619Y-112821523D01*
X145581619Y-112821523D01*
X145581619Y-112345333D01*
X144581619Y-111440571D02*
X144581619Y-111916761D01*
X145581619Y-111916761D01*
X144200666Y-111202476D02*
X144248285Y-111154857D01*
X144391142Y-111059619D01*
X144486380Y-111012000D01*
X144629238Y-110964380D01*
X144867333Y-110916761D01*
X145057809Y-110916761D01*
X145295904Y-110964380D01*
X145438761Y-111012000D01*
X145534000Y-111059619D01*
X145676857Y-111154857D01*
X145724476Y-111202476D01*
X147121619Y-119773904D02*
X148121619Y-119773904D01*
X148121619Y-119107238D02*
X148121619Y-118916761D01*
X148074000Y-118821523D01*
X147978761Y-118726285D01*
X147788285Y-118678666D01*
X147454952Y-118678666D01*
X147264476Y-118726285D01*
X147169238Y-118821523D01*
X147121619Y-118916761D01*
X147121619Y-119107238D01*
X147169238Y-119202476D01*
X147264476Y-119297714D01*
X147454952Y-119345333D01*
X147788285Y-119345333D01*
X147978761Y-119297714D01*
X148074000Y-119202476D01*
X148121619Y-119107238D01*
X148026380Y-118297714D02*
X148074000Y-118250095D01*
X148121619Y-118154857D01*
X148121619Y-117916761D01*
X148074000Y-117821523D01*
X148026380Y-117773904D01*
X147931142Y-117726285D01*
X147835904Y-117726285D01*
X147693047Y-117773904D01*
X147121619Y-118345333D01*
X147121619Y-117726285D01*
X148121619Y-117392952D02*
X148121619Y-116726285D01*
X147121619Y-117154857D01*
X146740666Y-115297714D02*
X146788285Y-115345333D01*
X146931142Y-115440571D01*
X147026380Y-115488190D01*
X147169238Y-115535809D01*
X147407333Y-115583428D01*
X147597809Y-115583428D01*
X147835904Y-115535809D01*
X147978761Y-115488190D01*
X148074000Y-115440571D01*
X148216857Y-115345333D01*
X148264476Y-115297714D01*
X147645428Y-114583428D02*
X147597809Y-114440571D01*
X147550190Y-114392952D01*
X147454952Y-114345333D01*
X147312095Y-114345333D01*
X147216857Y-114392952D01*
X147169238Y-114440571D01*
X147121619Y-114535809D01*
X147121619Y-114916761D01*
X148121619Y-114916761D01*
X148121619Y-114583428D01*
X148074000Y-114488190D01*
X148026380Y-114440571D01*
X147931142Y-114392952D01*
X147835904Y-114392952D01*
X147740666Y-114440571D01*
X147693047Y-114488190D01*
X147645428Y-114583428D01*
X147645428Y-114916761D01*
X147216857Y-113345333D02*
X147169238Y-113392952D01*
X147121619Y-113535809D01*
X147121619Y-113631047D01*
X147169238Y-113773904D01*
X147264476Y-113869142D01*
X147359714Y-113916761D01*
X147550190Y-113964380D01*
X147693047Y-113964380D01*
X147883523Y-113916761D01*
X147978761Y-113869142D01*
X148074000Y-113773904D01*
X148121619Y-113631047D01*
X148121619Y-113535809D01*
X148074000Y-113392952D01*
X148026380Y-113345333D01*
X147121619Y-112440571D02*
X147121619Y-112916761D01*
X148121619Y-112916761D01*
X147121619Y-112107238D02*
X148121619Y-112107238D01*
X147121619Y-111535809D02*
X147693047Y-111964380D01*
X148121619Y-111535809D02*
X147550190Y-112107238D01*
X146740666Y-111202476D02*
X146788285Y-111154857D01*
X146931142Y-111059619D01*
X147026380Y-111012000D01*
X147169238Y-110964380D01*
X147407333Y-110916761D01*
X147597809Y-110916761D01*
X147835904Y-110964380D01*
X147978761Y-111012000D01*
X148074000Y-111059619D01*
X148216857Y-111154857D01*
X148264476Y-111202476D01*
D12*
X123734000Y-82661000D02*
X127634000Y-82661000D01*
X123734000Y-80661000D02*
X127634000Y-80661000D01*
X123734000Y-82661000D02*
X123734000Y-80661000D01*
X147506420Y-84861825D02*
X147506420Y-82911825D01*
X147506420Y-84861825D02*
X147506420Y-86811825D01*
X152626420Y-84861825D02*
X152626420Y-82911825D01*
X152626420Y-84861825D02*
X152626420Y-88311825D01*
X121079000Y-88363252D02*
X121079000Y-94373252D01*
X127899000Y-90613252D02*
X127899000Y-94373252D01*
X121079000Y-94373252D02*
X122339000Y-94373252D01*
X127899000Y-94373252D02*
X126639000Y-94373252D01*
X142105748Y-91642000D02*
X142628252Y-91642000D01*
X142105748Y-90222000D02*
X142628252Y-90222000D01*
X149852748Y-90222000D02*
X150375252Y-90222000D01*
X149852748Y-91642000D02*
X150375252Y-91642000D01*
X144911877Y-84907159D02*
X144911877Y-88357159D01*
X144911877Y-84907159D02*
X144911877Y-82957159D01*
X139791877Y-84907159D02*
X139791877Y-86857159D01*
X139791877Y-84907159D02*
X139791877Y-82957159D01*
X123027000Y-83201000D02*
X119127000Y-83201000D01*
X123027000Y-85201000D02*
X119127000Y-85201000D01*
X123027000Y-83201000D02*
X123027000Y-85201000D01*
X134231748Y-91642000D02*
X134754252Y-91642000D01*
X134231748Y-90222000D02*
X134754252Y-90222000D01*
X123055748Y-86031000D02*
X123578252Y-86031000D01*
X123055748Y-87451000D02*
X123578252Y-87451000D01*
X137071485Y-84836000D02*
X137071485Y-88286000D01*
X137071485Y-84836000D02*
X137071485Y-82886000D01*
X131951485Y-84836000D02*
X131951485Y-86786000D01*
X131951485Y-84836000D02*
X131951485Y-82886000D01*
X126626252Y-83491000D02*
X126103748Y-83491000D01*
X126626252Y-84911000D02*
X126103748Y-84911000D01*
D10*
X127698285Y-80244904D02*
X128155428Y-80244904D01*
X127926857Y-80244904D02*
X127926857Y-79444904D01*
X128003047Y-79559190D01*
X128079238Y-79635380D01*
X128155428Y-79673476D01*
X127355428Y-80244904D02*
X127355428Y-79444904D01*
X126898285Y-80244904D01*
X126898285Y-79444904D01*
X126136380Y-79444904D02*
X126517333Y-79444904D01*
X126555428Y-79825857D01*
X126517333Y-79787761D01*
X126441142Y-79749666D01*
X126250666Y-79749666D01*
X126174476Y-79787761D01*
X126136380Y-79825857D01*
X126098285Y-79902047D01*
X126098285Y-80092523D01*
X126136380Y-80168714D01*
X126174476Y-80206809D01*
X126250666Y-80244904D01*
X126441142Y-80244904D01*
X126517333Y-80206809D01*
X126555428Y-80168714D01*
X125641142Y-79787761D02*
X125717333Y-79749666D01*
X125755428Y-79711571D01*
X125793523Y-79635380D01*
X125793523Y-79597285D01*
X125755428Y-79521095D01*
X125717333Y-79483000D01*
X125641142Y-79444904D01*
X125488761Y-79444904D01*
X125412571Y-79483000D01*
X125374476Y-79521095D01*
X125336380Y-79597285D01*
X125336380Y-79635380D01*
X125374476Y-79711571D01*
X125412571Y-79749666D01*
X125488761Y-79787761D01*
X125641142Y-79787761D01*
X125717333Y-79825857D01*
X125755428Y-79863952D01*
X125793523Y-79940142D01*
X125793523Y-80092523D01*
X125755428Y-80168714D01*
X125717333Y-80206809D01*
X125641142Y-80244904D01*
X125488761Y-80244904D01*
X125412571Y-80206809D01*
X125374476Y-80168714D01*
X125336380Y-80092523D01*
X125336380Y-79940142D01*
X125374476Y-79863952D01*
X125412571Y-79825857D01*
X125488761Y-79787761D01*
X124574476Y-80244904D02*
X125031619Y-80244904D01*
X124803047Y-80244904D02*
X124803047Y-79444904D01*
X124879238Y-79559190D01*
X124955428Y-79635380D01*
X125031619Y-79673476D01*
X124193523Y-80244904D02*
X124041142Y-80244904D01*
X123964952Y-80206809D01*
X123926857Y-80168714D01*
X123850666Y-80054428D01*
X123812571Y-79902047D01*
X123812571Y-79597285D01*
X123850666Y-79521095D01*
X123888761Y-79483000D01*
X123964952Y-79444904D01*
X124117333Y-79444904D01*
X124193523Y-79483000D01*
X124231619Y-79521095D01*
X124269714Y-79597285D01*
X124269714Y-79787761D01*
X124231619Y-79863952D01*
X124193523Y-79902047D01*
X124117333Y-79940142D01*
X123964952Y-79940142D01*
X123888761Y-79902047D01*
X123850666Y-79863952D01*
X123812571Y-79787761D01*
X130650476Y-98242380D02*
X130650476Y-97242380D01*
X130317142Y-97956666D01*
X129983809Y-97242380D01*
X129983809Y-98242380D01*
X128936190Y-98147142D02*
X128983809Y-98194761D01*
X129126666Y-98242380D01*
X129221904Y-98242380D01*
X129364761Y-98194761D01*
X129460000Y-98099523D01*
X129507619Y-98004285D01*
X129555238Y-97813809D01*
X129555238Y-97670952D01*
X129507619Y-97480476D01*
X129460000Y-97385238D01*
X129364761Y-97290000D01*
X129221904Y-97242380D01*
X129126666Y-97242380D01*
X128983809Y-97290000D01*
X128936190Y-97337619D01*
X128507619Y-98242380D02*
X128507619Y-97242380D01*
X128126666Y-97242380D01*
X128031428Y-97290000D01*
X127983809Y-97337619D01*
X127936190Y-97432857D01*
X127936190Y-97575714D01*
X127983809Y-97670952D01*
X128031428Y-97718571D01*
X128126666Y-97766190D01*
X128507619Y-97766190D01*
X126983809Y-98242380D02*
X127555238Y-98242380D01*
X127269523Y-98242380D02*
X127269523Y-97242380D01*
X127364761Y-97385238D01*
X127460000Y-97480476D01*
X127555238Y-97528095D01*
X126650476Y-97242380D02*
X125983809Y-97242380D01*
X126412380Y-98242380D01*
X125412380Y-97242380D02*
X125317142Y-97242380D01*
X125221904Y-97290000D01*
X125174285Y-97337619D01*
X125126666Y-97432857D01*
X125079047Y-97623333D01*
X125079047Y-97861428D01*
X125126666Y-98051904D01*
X125174285Y-98147142D01*
X125221904Y-98194761D01*
X125317142Y-98242380D01*
X125412380Y-98242380D01*
X125507619Y-98194761D01*
X125555238Y-98147142D01*
X125602857Y-98051904D01*
X125650476Y-97861428D01*
X125650476Y-97623333D01*
X125602857Y-97432857D01*
X125555238Y-97337619D01*
X125507619Y-97290000D01*
X125412380Y-97242380D01*
X124745714Y-97242380D02*
X124126666Y-97242380D01*
X124460000Y-97623333D01*
X124317142Y-97623333D01*
X124221904Y-97670952D01*
X124174285Y-97718571D01*
X124126666Y-97813809D01*
X124126666Y-98051904D01*
X124174285Y-98147142D01*
X124221904Y-98194761D01*
X124317142Y-98242380D01*
X124602857Y-98242380D01*
X124698095Y-98194761D01*
X124745714Y-98147142D01*
X123745714Y-97956666D02*
X123269523Y-97956666D01*
X123840952Y-98242380D02*
X123507619Y-97242380D01*
X123174285Y-98242380D01*
X122840952Y-97861428D02*
X122079047Y-97861428D01*
X121698095Y-97242380D02*
X121079047Y-97242380D01*
X121412380Y-97623333D01*
X121269523Y-97623333D01*
X121174285Y-97670952D01*
X121126666Y-97718571D01*
X121079047Y-97813809D01*
X121079047Y-98051904D01*
X121126666Y-98147142D01*
X121174285Y-98194761D01*
X121269523Y-98242380D01*
X121555238Y-98242380D01*
X121650476Y-98194761D01*
X121698095Y-98147142D01*
X120745714Y-97242380D02*
X120126666Y-97242380D01*
X120460000Y-97623333D01*
X120317142Y-97623333D01*
X120221904Y-97670952D01*
X120174285Y-97718571D01*
X120126666Y-97813809D01*
X120126666Y-98051904D01*
X120174285Y-98147142D01*
X120221904Y-98194761D01*
X120317142Y-98242380D01*
X120602857Y-98242380D01*
X120698095Y-98194761D01*
X120745714Y-98147142D01*
X119507619Y-97242380D02*
X119412380Y-97242380D01*
X119317142Y-97290000D01*
X119269523Y-97337619D01*
X119221904Y-97432857D01*
X119174285Y-97623333D01*
X119174285Y-97861428D01*
X119221904Y-98051904D01*
X119269523Y-98147142D01*
X119317142Y-98194761D01*
X119412380Y-98242380D01*
X119507619Y-98242380D01*
X119602857Y-98194761D01*
X119650476Y-98147142D01*
X119698095Y-98051904D01*
X119745714Y-97861428D01*
X119745714Y-97623333D01*
X119698095Y-97432857D01*
X119650476Y-97337619D01*
X119602857Y-97290000D01*
X119507619Y-97242380D01*
X118793333Y-97337619D02*
X118745714Y-97290000D01*
X118650476Y-97242380D01*
X118412380Y-97242380D01*
X118317142Y-97290000D01*
X118269523Y-97337619D01*
X118221904Y-97432857D01*
X118221904Y-97528095D01*
X118269523Y-97670952D01*
X118840952Y-98242380D01*
X118221904Y-98242380D01*
X142962238Y-93162380D02*
X143533666Y-93162380D01*
X143247952Y-93162380D02*
X143247952Y-92162380D01*
X143343190Y-92305238D01*
X143438428Y-92400476D01*
X143533666Y-92448095D01*
X142105095Y-92495714D02*
X142105095Y-93162380D01*
X142533666Y-92495714D02*
X142533666Y-93019523D01*
X142486047Y-93114761D01*
X142390809Y-93162380D01*
X142247952Y-93162380D01*
X142152714Y-93114761D01*
X142105095Y-93067142D01*
X141295571Y-92638571D02*
X141628904Y-92638571D01*
X141628904Y-93162380D02*
X141628904Y-92162380D01*
X141152714Y-92162380D01*
X150709238Y-93162380D02*
X151280666Y-93162380D01*
X150994952Y-93162380D02*
X150994952Y-92162380D01*
X151090190Y-92305238D01*
X151185428Y-92400476D01*
X151280666Y-92448095D01*
X149852095Y-92495714D02*
X149852095Y-93162380D01*
X150280666Y-92495714D02*
X150280666Y-93019523D01*
X150233047Y-93114761D01*
X150137809Y-93162380D01*
X149994952Y-93162380D01*
X149899714Y-93114761D01*
X149852095Y-93067142D01*
X149042571Y-92638571D02*
X149375904Y-92638571D01*
X149375904Y-93162380D02*
X149375904Y-92162380D01*
X148899714Y-92162380D01*
X148144761Y-79144761D02*
X148001904Y-79192380D01*
X147763809Y-79192380D01*
X147668571Y-79144761D01*
X147620952Y-79097142D01*
X147573333Y-79001904D01*
X147573333Y-78906666D01*
X147620952Y-78811428D01*
X147668571Y-78763809D01*
X147763809Y-78716190D01*
X147954285Y-78668571D01*
X148049523Y-78620952D01*
X148097142Y-78573333D01*
X148144761Y-78478095D01*
X148144761Y-78382857D01*
X148097142Y-78287619D01*
X148049523Y-78240000D01*
X147954285Y-78192380D01*
X147716190Y-78192380D01*
X147573333Y-78240000D01*
X147144761Y-79192380D02*
X147144761Y-78192380D01*
X146573333Y-79192380D01*
X146573333Y-78192380D01*
X145668571Y-78192380D02*
X145859047Y-78192380D01*
X145954285Y-78240000D01*
X146001904Y-78287619D01*
X146097142Y-78430476D01*
X146144761Y-78620952D01*
X146144761Y-79001904D01*
X146097142Y-79097142D01*
X146049523Y-79144761D01*
X145954285Y-79192380D01*
X145763809Y-79192380D01*
X145668571Y-79144761D01*
X145620952Y-79097142D01*
X145573333Y-79001904D01*
X145573333Y-78763809D01*
X145620952Y-78668571D01*
X145668571Y-78620952D01*
X145763809Y-78573333D01*
X145954285Y-78573333D01*
X146049523Y-78620952D01*
X146097142Y-78668571D01*
X146144761Y-78763809D01*
X144668571Y-78192380D02*
X145144761Y-78192380D01*
X145192380Y-78668571D01*
X145144761Y-78620952D01*
X145049523Y-78573333D01*
X144811428Y-78573333D01*
X144716190Y-78620952D01*
X144668571Y-78668571D01*
X144620952Y-78763809D01*
X144620952Y-79001904D01*
X144668571Y-79097142D01*
X144716190Y-79144761D01*
X144811428Y-79192380D01*
X145049523Y-79192380D01*
X145144761Y-79144761D01*
X145192380Y-79097142D01*
X144192380Y-79192380D02*
X144192380Y-78192380D01*
X144192380Y-78668571D02*
X143620952Y-78668571D01*
X143620952Y-79192380D02*
X143620952Y-78192380D01*
X143287619Y-78192380D02*
X142954285Y-79192380D01*
X142620952Y-78192380D01*
X142287619Y-79192380D02*
X142287619Y-78192380D01*
X142049523Y-78192380D01*
X141906666Y-78240000D01*
X141811428Y-78335238D01*
X141763809Y-78430476D01*
X141716190Y-78620952D01*
X141716190Y-78763809D01*
X141763809Y-78954285D01*
X141811428Y-79049523D01*
X141906666Y-79144761D01*
X142049523Y-79192380D01*
X142287619Y-79192380D01*
X141335238Y-78287619D02*
X141287619Y-78240000D01*
X141192380Y-78192380D01*
X140954285Y-78192380D01*
X140859047Y-78240000D01*
X140811428Y-78287619D01*
X140763809Y-78382857D01*
X140763809Y-78478095D01*
X140811428Y-78620952D01*
X141382857Y-79192380D01*
X140763809Y-79192380D01*
X140430476Y-78192380D02*
X139811428Y-78192380D01*
X140144761Y-78573333D01*
X140001904Y-78573333D01*
X139906666Y-78620952D01*
X139859047Y-78668571D01*
X139811428Y-78763809D01*
X139811428Y-79001904D01*
X139859047Y-79097142D01*
X139906666Y-79144761D01*
X140001904Y-79192380D01*
X140287619Y-79192380D01*
X140382857Y-79144761D01*
X140430476Y-79097142D01*
X139430476Y-78287619D02*
X139382857Y-78240000D01*
X139287619Y-78192380D01*
X139049523Y-78192380D01*
X138954285Y-78240000D01*
X138906666Y-78287619D01*
X138859047Y-78382857D01*
X138859047Y-78478095D01*
X138906666Y-78620952D01*
X139478095Y-79192380D01*
X138859047Y-79192380D01*
X137763809Y-79192380D02*
X137240000Y-78525714D01*
X137763809Y-78525714D02*
X137240000Y-79192380D01*
X136954285Y-78192380D02*
X136335238Y-78192380D01*
X136668571Y-78573333D01*
X136525714Y-78573333D01*
X136430476Y-78620952D01*
X136382857Y-78668571D01*
X136335238Y-78763809D01*
X136335238Y-79001904D01*
X136382857Y-79097142D01*
X136430476Y-79144761D01*
X136525714Y-79192380D01*
X136811428Y-79192380D01*
X136906666Y-79144761D01*
X136954285Y-79097142D01*
X122491285Y-82784904D02*
X122948428Y-82784904D01*
X122719857Y-82784904D02*
X122719857Y-81984904D01*
X122796047Y-82099190D01*
X122872238Y-82175380D01*
X122948428Y-82213476D01*
X122148428Y-82784904D02*
X122148428Y-81984904D01*
X121691285Y-82784904D01*
X121691285Y-81984904D01*
X120929380Y-81984904D02*
X121310333Y-81984904D01*
X121348428Y-82365857D01*
X121310333Y-82327761D01*
X121234142Y-82289666D01*
X121043666Y-82289666D01*
X120967476Y-82327761D01*
X120929380Y-82365857D01*
X120891285Y-82442047D01*
X120891285Y-82632523D01*
X120929380Y-82708714D01*
X120967476Y-82746809D01*
X121043666Y-82784904D01*
X121234142Y-82784904D01*
X121310333Y-82746809D01*
X121348428Y-82708714D01*
X120434142Y-82327761D02*
X120510333Y-82289666D01*
X120548428Y-82251571D01*
X120586523Y-82175380D01*
X120586523Y-82137285D01*
X120548428Y-82061095D01*
X120510333Y-82023000D01*
X120434142Y-81984904D01*
X120281761Y-81984904D01*
X120205571Y-82023000D01*
X120167476Y-82061095D01*
X120129380Y-82137285D01*
X120129380Y-82175380D01*
X120167476Y-82251571D01*
X120205571Y-82289666D01*
X120281761Y-82327761D01*
X120434142Y-82327761D01*
X120510333Y-82365857D01*
X120548428Y-82403952D01*
X120586523Y-82480142D01*
X120586523Y-82632523D01*
X120548428Y-82708714D01*
X120510333Y-82746809D01*
X120434142Y-82784904D01*
X120281761Y-82784904D01*
X120205571Y-82746809D01*
X120167476Y-82708714D01*
X120129380Y-82632523D01*
X120129380Y-82480142D01*
X120167476Y-82403952D01*
X120205571Y-82365857D01*
X120281761Y-82327761D01*
X119367476Y-82784904D02*
X119824619Y-82784904D01*
X119596047Y-82784904D02*
X119596047Y-81984904D01*
X119672238Y-82099190D01*
X119748428Y-82175380D01*
X119824619Y-82213476D01*
X118986523Y-82784904D02*
X118834142Y-82784904D01*
X118757952Y-82746809D01*
X118719857Y-82708714D01*
X118643666Y-82594428D01*
X118605571Y-82442047D01*
X118605571Y-82137285D01*
X118643666Y-82061095D01*
X118681761Y-82023000D01*
X118757952Y-81984904D01*
X118910333Y-81984904D01*
X118986523Y-82023000D01*
X119024619Y-82061095D01*
X119062714Y-82137285D01*
X119062714Y-82327761D01*
X119024619Y-82403952D01*
X118986523Y-82442047D01*
X118910333Y-82480142D01*
X118757952Y-82480142D01*
X118681761Y-82442047D01*
X118643666Y-82403952D01*
X118605571Y-82327761D01*
X135088238Y-93162380D02*
X135659666Y-93162380D01*
X135373952Y-93162380D02*
X135373952Y-92162380D01*
X135469190Y-92305238D01*
X135564428Y-92400476D01*
X135659666Y-92448095D01*
X134231095Y-92495714D02*
X134231095Y-93162380D01*
X134659666Y-92495714D02*
X134659666Y-93019523D01*
X134612047Y-93114761D01*
X134516809Y-93162380D01*
X134373952Y-93162380D01*
X134278714Y-93114761D01*
X134231095Y-93067142D01*
X133421571Y-92638571D02*
X133754904Y-92638571D01*
X133754904Y-93162380D02*
X133754904Y-92162380D01*
X133278714Y-92162380D01*
X127271880Y-87193380D02*
X127843309Y-87193380D01*
X127557595Y-87193380D02*
X127557595Y-86193380D01*
X127652833Y-86336238D01*
X127748071Y-86431476D01*
X127843309Y-86479095D01*
X126414738Y-86526714D02*
X126414738Y-87193380D01*
X126843309Y-86526714D02*
X126843309Y-87050523D01*
X126795690Y-87145761D01*
X126700452Y-87193380D01*
X126557595Y-87193380D01*
X126462357Y-87145761D01*
X126414738Y-87098142D01*
X125605214Y-86669571D02*
X125938547Y-86669571D01*
X125938547Y-87193380D02*
X125938547Y-86193380D01*
X125462357Y-86193380D01*
X130319880Y-84653380D02*
X130891309Y-84653380D01*
X130605595Y-84653380D02*
X130605595Y-83653380D01*
X130700833Y-83796238D01*
X130796071Y-83891476D01*
X130891309Y-83939095D01*
X129462738Y-83986714D02*
X129462738Y-84653380D01*
X129891309Y-83986714D02*
X129891309Y-84510523D01*
X129843690Y-84605761D01*
X129748452Y-84653380D01*
X129605595Y-84653380D01*
X129510357Y-84605761D01*
X129462738Y-84558142D01*
X128653214Y-84129571D02*
X128986547Y-84129571D01*
X128986547Y-84653380D02*
X128986547Y-83653380D01*
X128510357Y-83653380D01*
M02*
