G04 #@! TF.GenerationSoftware,KiCad,Pcbnew,5.1.5+dfsg1-2build2*
G04 #@! TF.CreationDate,2020-08-14T19:18:21+10:00*
G04 #@! TF.ProjectId,sid-board-v3_blocklayout,7369642d-626f-4617-9264-2d76335f626c,rev?*
G04 #@! TF.SameCoordinates,Original*
G04 #@! TF.FileFunction,Legend,Bot*
G04 #@! TF.FilePolarity,Positive*
%FSLAX46Y46*%
G04 Gerber Fmt 4.6, Leading zero omitted, Abs format (unit mm)*
G04 Created by KiCad (PCBNEW 5.1.5+dfsg1-2build2) date 2020-08-14 19:18:21*
%MOMM*%
%LPD*%
G04 APERTURE LIST*
%ADD10C,0.120000*%
%ADD11C,0.150000*%
G04 APERTURE END LIST*
D10*
X123734000Y-82661000D02*
X127634000Y-82661000D01*
X123734000Y-80661000D02*
X127634000Y-80661000D01*
X123734000Y-82661000D02*
X123734000Y-80661000D01*
X147506420Y-84861825D02*
X147506420Y-82911825D01*
X147506420Y-84861825D02*
X147506420Y-86811825D01*
X152626420Y-84861825D02*
X152626420Y-82911825D01*
X152626420Y-84861825D02*
X152626420Y-88311825D01*
X121079000Y-88363252D02*
X121079000Y-94373252D01*
X127899000Y-90613252D02*
X127899000Y-94373252D01*
X121079000Y-94373252D02*
X122339000Y-94373252D01*
X127899000Y-94373252D02*
X126639000Y-94373252D01*
X142105748Y-91642000D02*
X142628252Y-91642000D01*
X142105748Y-90222000D02*
X142628252Y-90222000D01*
X149852748Y-90222000D02*
X150375252Y-90222000D01*
X149852748Y-91642000D02*
X150375252Y-91642000D01*
X144911877Y-84907159D02*
X144911877Y-88357159D01*
X144911877Y-84907159D02*
X144911877Y-82957159D01*
X139791877Y-84907159D02*
X139791877Y-86857159D01*
X139791877Y-84907159D02*
X139791877Y-82957159D01*
X123027000Y-83201000D02*
X119127000Y-83201000D01*
X123027000Y-85201000D02*
X119127000Y-85201000D01*
X123027000Y-83201000D02*
X123027000Y-85201000D01*
X134231748Y-91642000D02*
X134754252Y-91642000D01*
X134231748Y-90222000D02*
X134754252Y-90222000D01*
X123055748Y-86031000D02*
X123578252Y-86031000D01*
X123055748Y-87451000D02*
X123578252Y-87451000D01*
X137071485Y-84836000D02*
X137071485Y-88286000D01*
X137071485Y-84836000D02*
X137071485Y-82886000D01*
X131951485Y-84836000D02*
X131951485Y-86786000D01*
X131951485Y-84836000D02*
X131951485Y-82886000D01*
X126626252Y-83491000D02*
X126103748Y-83491000D01*
X126626252Y-84911000D02*
X126103748Y-84911000D01*
D11*
X245601857Y-164155380D02*
X246173285Y-164155380D01*
X245887571Y-164155380D02*
X245887571Y-163155380D01*
X245982809Y-163298238D01*
X246078047Y-163393476D01*
X246173285Y-163441095D01*
X245173285Y-164155380D02*
X245173285Y-163155380D01*
X244601857Y-164155380D01*
X244601857Y-163155380D01*
X243649476Y-163155380D02*
X244125666Y-163155380D01*
X244173285Y-163631571D01*
X244125666Y-163583952D01*
X244030428Y-163536333D01*
X243792333Y-163536333D01*
X243697095Y-163583952D01*
X243649476Y-163631571D01*
X243601857Y-163726809D01*
X243601857Y-163964904D01*
X243649476Y-164060142D01*
X243697095Y-164107761D01*
X243792333Y-164155380D01*
X244030428Y-164155380D01*
X244125666Y-164107761D01*
X244173285Y-164060142D01*
X243030428Y-163583952D02*
X243125666Y-163536333D01*
X243173285Y-163488714D01*
X243220904Y-163393476D01*
X243220904Y-163345857D01*
X243173285Y-163250619D01*
X243125666Y-163203000D01*
X243030428Y-163155380D01*
X242839952Y-163155380D01*
X242744714Y-163203000D01*
X242697095Y-163250619D01*
X242649476Y-163345857D01*
X242649476Y-163393476D01*
X242697095Y-163488714D01*
X242744714Y-163536333D01*
X242839952Y-163583952D01*
X243030428Y-163583952D01*
X243125666Y-163631571D01*
X243173285Y-163679190D01*
X243220904Y-163774428D01*
X243220904Y-163964904D01*
X243173285Y-164060142D01*
X243125666Y-164107761D01*
X243030428Y-164155380D01*
X242839952Y-164155380D01*
X242744714Y-164107761D01*
X242697095Y-164060142D01*
X242649476Y-163964904D01*
X242649476Y-163774428D01*
X242697095Y-163679190D01*
X242744714Y-163631571D01*
X242839952Y-163583952D01*
X241697095Y-164155380D02*
X242268523Y-164155380D01*
X241982809Y-164155380D02*
X241982809Y-163155380D01*
X242078047Y-163298238D01*
X242173285Y-163393476D01*
X242268523Y-163441095D01*
X241220904Y-164155380D02*
X241030428Y-164155380D01*
X240935190Y-164107761D01*
X240887571Y-164060142D01*
X240792333Y-163917285D01*
X240744714Y-163726809D01*
X240744714Y-163345857D01*
X240792333Y-163250619D01*
X240839952Y-163203000D01*
X240935190Y-163155380D01*
X241125666Y-163155380D01*
X241220904Y-163203000D01*
X241268523Y-163250619D01*
X241316142Y-163345857D01*
X241316142Y-163583952D01*
X241268523Y-163679190D01*
X241220904Y-163726809D01*
X241125666Y-163774428D01*
X240935190Y-163774428D01*
X240839952Y-163726809D01*
X240792333Y-163679190D01*
X240744714Y-163583952D01*
X249665857Y-186634380D02*
X250237285Y-186634380D01*
X249951571Y-186634380D02*
X249951571Y-185634380D01*
X250046809Y-185777238D01*
X250142047Y-185872476D01*
X250237285Y-185920095D01*
X249237285Y-186634380D02*
X249237285Y-185634380D01*
X248665857Y-186634380D01*
X248665857Y-185634380D01*
X247713476Y-185634380D02*
X248189666Y-185634380D01*
X248237285Y-186110571D01*
X248189666Y-186062952D01*
X248094428Y-186015333D01*
X247856333Y-186015333D01*
X247761095Y-186062952D01*
X247713476Y-186110571D01*
X247665857Y-186205809D01*
X247665857Y-186443904D01*
X247713476Y-186539142D01*
X247761095Y-186586761D01*
X247856333Y-186634380D01*
X248094428Y-186634380D01*
X248189666Y-186586761D01*
X248237285Y-186539142D01*
X247094428Y-186062952D02*
X247189666Y-186015333D01*
X247237285Y-185967714D01*
X247284904Y-185872476D01*
X247284904Y-185824857D01*
X247237285Y-185729619D01*
X247189666Y-185682000D01*
X247094428Y-185634380D01*
X246903952Y-185634380D01*
X246808714Y-185682000D01*
X246761095Y-185729619D01*
X246713476Y-185824857D01*
X246713476Y-185872476D01*
X246761095Y-185967714D01*
X246808714Y-186015333D01*
X246903952Y-186062952D01*
X247094428Y-186062952D01*
X247189666Y-186110571D01*
X247237285Y-186158190D01*
X247284904Y-186253428D01*
X247284904Y-186443904D01*
X247237285Y-186539142D01*
X247189666Y-186586761D01*
X247094428Y-186634380D01*
X246903952Y-186634380D01*
X246808714Y-186586761D01*
X246761095Y-186539142D01*
X246713476Y-186443904D01*
X246713476Y-186253428D01*
X246761095Y-186158190D01*
X246808714Y-186110571D01*
X246903952Y-186062952D01*
X245761095Y-186634380D02*
X246332523Y-186634380D01*
X246046809Y-186634380D02*
X246046809Y-185634380D01*
X246142047Y-185777238D01*
X246237285Y-185872476D01*
X246332523Y-185920095D01*
X245284904Y-186634380D02*
X245094428Y-186634380D01*
X244999190Y-186586761D01*
X244951571Y-186539142D01*
X244856333Y-186396285D01*
X244808714Y-186205809D01*
X244808714Y-185824857D01*
X244856333Y-185729619D01*
X244903952Y-185682000D01*
X244999190Y-185634380D01*
X245189666Y-185634380D01*
X245284904Y-185682000D01*
X245332523Y-185729619D01*
X245380142Y-185824857D01*
X245380142Y-186062952D01*
X245332523Y-186158190D01*
X245284904Y-186205809D01*
X245189666Y-186253428D01*
X244999190Y-186253428D01*
X244903952Y-186205809D01*
X244856333Y-186158190D01*
X244808714Y-186062952D01*
X122411857Y-80843380D02*
X122983285Y-80843380D01*
X122697571Y-80843380D02*
X122697571Y-79843380D01*
X122792809Y-79986238D01*
X122888047Y-80081476D01*
X122983285Y-80129095D01*
X121983285Y-80843380D02*
X121983285Y-79843380D01*
X121411857Y-80843380D01*
X121411857Y-79843380D01*
X120459476Y-79843380D02*
X120935666Y-79843380D01*
X120983285Y-80319571D01*
X120935666Y-80271952D01*
X120840428Y-80224333D01*
X120602333Y-80224333D01*
X120507095Y-80271952D01*
X120459476Y-80319571D01*
X120411857Y-80414809D01*
X120411857Y-80652904D01*
X120459476Y-80748142D01*
X120507095Y-80795761D01*
X120602333Y-80843380D01*
X120840428Y-80843380D01*
X120935666Y-80795761D01*
X120983285Y-80748142D01*
X119840428Y-80271952D02*
X119935666Y-80224333D01*
X119983285Y-80176714D01*
X120030904Y-80081476D01*
X120030904Y-80033857D01*
X119983285Y-79938619D01*
X119935666Y-79891000D01*
X119840428Y-79843380D01*
X119649952Y-79843380D01*
X119554714Y-79891000D01*
X119507095Y-79938619D01*
X119459476Y-80033857D01*
X119459476Y-80081476D01*
X119507095Y-80176714D01*
X119554714Y-80224333D01*
X119649952Y-80271952D01*
X119840428Y-80271952D01*
X119935666Y-80319571D01*
X119983285Y-80367190D01*
X120030904Y-80462428D01*
X120030904Y-80652904D01*
X119983285Y-80748142D01*
X119935666Y-80795761D01*
X119840428Y-80843380D01*
X119649952Y-80843380D01*
X119554714Y-80795761D01*
X119507095Y-80748142D01*
X119459476Y-80652904D01*
X119459476Y-80462428D01*
X119507095Y-80367190D01*
X119554714Y-80319571D01*
X119649952Y-80271952D01*
X118507095Y-80843380D02*
X119078523Y-80843380D01*
X118792809Y-80843380D02*
X118792809Y-79843380D01*
X118888047Y-79986238D01*
X118983285Y-80081476D01*
X119078523Y-80129095D01*
X118030904Y-80843380D02*
X117840428Y-80843380D01*
X117745190Y-80795761D01*
X117697571Y-80748142D01*
X117602333Y-80605285D01*
X117554714Y-80414809D01*
X117554714Y-80033857D01*
X117602333Y-79938619D01*
X117649952Y-79891000D01*
X117745190Y-79843380D01*
X117935666Y-79843380D01*
X118030904Y-79891000D01*
X118078523Y-79938619D01*
X118126142Y-80033857D01*
X118126142Y-80271952D01*
X118078523Y-80367190D01*
X118030904Y-80414809D01*
X117935666Y-80462428D01*
X117745190Y-80462428D01*
X117649952Y-80414809D01*
X117602333Y-80367190D01*
X117554714Y-80271952D01*
X129698095Y-98242380D02*
X129698095Y-97242380D01*
X129364761Y-97956666D01*
X129031428Y-97242380D01*
X129031428Y-98242380D01*
X127983809Y-98147142D02*
X128031428Y-98194761D01*
X128174285Y-98242380D01*
X128269523Y-98242380D01*
X128412380Y-98194761D01*
X128507619Y-98099523D01*
X128555238Y-98004285D01*
X128602857Y-97813809D01*
X128602857Y-97670952D01*
X128555238Y-97480476D01*
X128507619Y-97385238D01*
X128412380Y-97290000D01*
X128269523Y-97242380D01*
X128174285Y-97242380D01*
X128031428Y-97290000D01*
X127983809Y-97337619D01*
X127555238Y-98242380D02*
X127555238Y-97242380D01*
X127174285Y-97242380D01*
X127079047Y-97290000D01*
X127031428Y-97337619D01*
X126983809Y-97432857D01*
X126983809Y-97575714D01*
X127031428Y-97670952D01*
X127079047Y-97718571D01*
X127174285Y-97766190D01*
X127555238Y-97766190D01*
X126031428Y-98242380D02*
X126602857Y-98242380D01*
X126317142Y-98242380D02*
X126317142Y-97242380D01*
X126412380Y-97385238D01*
X126507619Y-97480476D01*
X126602857Y-97528095D01*
X125698095Y-97242380D02*
X125031428Y-97242380D01*
X125460000Y-98242380D01*
X124460000Y-97242380D02*
X124364761Y-97242380D01*
X124269523Y-97290000D01*
X124221904Y-97337619D01*
X124174285Y-97432857D01*
X124126666Y-97623333D01*
X124126666Y-97861428D01*
X124174285Y-98051904D01*
X124221904Y-98147142D01*
X124269523Y-98194761D01*
X124364761Y-98242380D01*
X124460000Y-98242380D01*
X124555238Y-98194761D01*
X124602857Y-98147142D01*
X124650476Y-98051904D01*
X124698095Y-97861428D01*
X124698095Y-97623333D01*
X124650476Y-97432857D01*
X124602857Y-97337619D01*
X124555238Y-97290000D01*
X124460000Y-97242380D01*
X123793333Y-97242380D02*
X123174285Y-97242380D01*
X123507619Y-97623333D01*
X123364761Y-97623333D01*
X123269523Y-97670952D01*
X123221904Y-97718571D01*
X123174285Y-97813809D01*
X123174285Y-98051904D01*
X123221904Y-98147142D01*
X123269523Y-98194761D01*
X123364761Y-98242380D01*
X123650476Y-98242380D01*
X123745714Y-98194761D01*
X123793333Y-98147142D01*
X122793333Y-97956666D02*
X122317142Y-97956666D01*
X122888571Y-98242380D02*
X122555238Y-97242380D01*
X122221904Y-98242380D01*
X121888571Y-97861428D02*
X121126666Y-97861428D01*
X120745714Y-97242380D02*
X120126666Y-97242380D01*
X120460000Y-97623333D01*
X120317142Y-97623333D01*
X120221904Y-97670952D01*
X120174285Y-97718571D01*
X120126666Y-97813809D01*
X120126666Y-98051904D01*
X120174285Y-98147142D01*
X120221904Y-98194761D01*
X120317142Y-98242380D01*
X120602857Y-98242380D01*
X120698095Y-98194761D01*
X120745714Y-98147142D01*
X119793333Y-97242380D02*
X119174285Y-97242380D01*
X119507619Y-97623333D01*
X119364761Y-97623333D01*
X119269523Y-97670952D01*
X119221904Y-97718571D01*
X119174285Y-97813809D01*
X119174285Y-98051904D01*
X119221904Y-98147142D01*
X119269523Y-98194761D01*
X119364761Y-98242380D01*
X119650476Y-98242380D01*
X119745714Y-98194761D01*
X119793333Y-98147142D01*
X142962238Y-93035380D02*
X143533666Y-93035380D01*
X143247952Y-93035380D02*
X143247952Y-92035380D01*
X143343190Y-92178238D01*
X143438428Y-92273476D01*
X143533666Y-92321095D01*
X142105095Y-92368714D02*
X142105095Y-93035380D01*
X142533666Y-92368714D02*
X142533666Y-92892523D01*
X142486047Y-92987761D01*
X142390809Y-93035380D01*
X142247952Y-93035380D01*
X142152714Y-92987761D01*
X142105095Y-92940142D01*
X141295571Y-92511571D02*
X141628904Y-92511571D01*
X141628904Y-93035380D02*
X141628904Y-92035380D01*
X141152714Y-92035380D01*
X150709238Y-93035380D02*
X151280666Y-93035380D01*
X150994952Y-93035380D02*
X150994952Y-92035380D01*
X151090190Y-92178238D01*
X151185428Y-92273476D01*
X151280666Y-92321095D01*
X149852095Y-92368714D02*
X149852095Y-93035380D01*
X150280666Y-92368714D02*
X150280666Y-92892523D01*
X150233047Y-92987761D01*
X150137809Y-93035380D01*
X149994952Y-93035380D01*
X149899714Y-92987761D01*
X149852095Y-92940142D01*
X149042571Y-92511571D02*
X149375904Y-92511571D01*
X149375904Y-93035380D02*
X149375904Y-92035380D01*
X148899714Y-92035380D01*
X148144761Y-79144761D02*
X148001904Y-79192380D01*
X147763809Y-79192380D01*
X147668571Y-79144761D01*
X147620952Y-79097142D01*
X147573333Y-79001904D01*
X147573333Y-78906666D01*
X147620952Y-78811428D01*
X147668571Y-78763809D01*
X147763809Y-78716190D01*
X147954285Y-78668571D01*
X148049523Y-78620952D01*
X148097142Y-78573333D01*
X148144761Y-78478095D01*
X148144761Y-78382857D01*
X148097142Y-78287619D01*
X148049523Y-78240000D01*
X147954285Y-78192380D01*
X147716190Y-78192380D01*
X147573333Y-78240000D01*
X147144761Y-79192380D02*
X147144761Y-78192380D01*
X146573333Y-79192380D01*
X146573333Y-78192380D01*
X145668571Y-78192380D02*
X145859047Y-78192380D01*
X145954285Y-78240000D01*
X146001904Y-78287619D01*
X146097142Y-78430476D01*
X146144761Y-78620952D01*
X146144761Y-79001904D01*
X146097142Y-79097142D01*
X146049523Y-79144761D01*
X145954285Y-79192380D01*
X145763809Y-79192380D01*
X145668571Y-79144761D01*
X145620952Y-79097142D01*
X145573333Y-79001904D01*
X145573333Y-78763809D01*
X145620952Y-78668571D01*
X145668571Y-78620952D01*
X145763809Y-78573333D01*
X145954285Y-78573333D01*
X146049523Y-78620952D01*
X146097142Y-78668571D01*
X146144761Y-78763809D01*
X144668571Y-78192380D02*
X145144761Y-78192380D01*
X145192380Y-78668571D01*
X145144761Y-78620952D01*
X145049523Y-78573333D01*
X144811428Y-78573333D01*
X144716190Y-78620952D01*
X144668571Y-78668571D01*
X144620952Y-78763809D01*
X144620952Y-79001904D01*
X144668571Y-79097142D01*
X144716190Y-79144761D01*
X144811428Y-79192380D01*
X145049523Y-79192380D01*
X145144761Y-79144761D01*
X145192380Y-79097142D01*
X144192380Y-79192380D02*
X144192380Y-78192380D01*
X144192380Y-78668571D02*
X143620952Y-78668571D01*
X143620952Y-79192380D02*
X143620952Y-78192380D01*
X143287619Y-78192380D02*
X142954285Y-79192380D01*
X142620952Y-78192380D01*
X142287619Y-79192380D02*
X142287619Y-78192380D01*
X142049523Y-78192380D01*
X141906666Y-78240000D01*
X141811428Y-78335238D01*
X141763809Y-78430476D01*
X141716190Y-78620952D01*
X141716190Y-78763809D01*
X141763809Y-78954285D01*
X141811428Y-79049523D01*
X141906666Y-79144761D01*
X142049523Y-79192380D01*
X142287619Y-79192380D01*
X141335238Y-78287619D02*
X141287619Y-78240000D01*
X141192380Y-78192380D01*
X140954285Y-78192380D01*
X140859047Y-78240000D01*
X140811428Y-78287619D01*
X140763809Y-78382857D01*
X140763809Y-78478095D01*
X140811428Y-78620952D01*
X141382857Y-79192380D01*
X140763809Y-79192380D01*
X140430476Y-78192380D02*
X139811428Y-78192380D01*
X140144761Y-78573333D01*
X140001904Y-78573333D01*
X139906666Y-78620952D01*
X139859047Y-78668571D01*
X139811428Y-78763809D01*
X139811428Y-79001904D01*
X139859047Y-79097142D01*
X139906666Y-79144761D01*
X140001904Y-79192380D01*
X140287619Y-79192380D01*
X140382857Y-79144761D01*
X140430476Y-79097142D01*
X139430476Y-78287619D02*
X139382857Y-78240000D01*
X139287619Y-78192380D01*
X139049523Y-78192380D01*
X138954285Y-78240000D01*
X138906666Y-78287619D01*
X138859047Y-78382857D01*
X138859047Y-78478095D01*
X138906666Y-78620952D01*
X139478095Y-79192380D01*
X138859047Y-79192380D01*
X137763809Y-79192380D02*
X137240000Y-78525714D01*
X137763809Y-78525714D02*
X137240000Y-79192380D01*
X136954285Y-78192380D02*
X136335238Y-78192380D01*
X136668571Y-78573333D01*
X136525714Y-78573333D01*
X136430476Y-78620952D01*
X136382857Y-78668571D01*
X136335238Y-78763809D01*
X136335238Y-79001904D01*
X136382857Y-79097142D01*
X136430476Y-79144761D01*
X136525714Y-79192380D01*
X136811428Y-79192380D01*
X136906666Y-79144761D01*
X136954285Y-79097142D01*
X122411857Y-82240380D02*
X122983285Y-82240380D01*
X122697571Y-82240380D02*
X122697571Y-81240380D01*
X122792809Y-81383238D01*
X122888047Y-81478476D01*
X122983285Y-81526095D01*
X121983285Y-82240380D02*
X121983285Y-81240380D01*
X121411857Y-82240380D01*
X121411857Y-81240380D01*
X120459476Y-81240380D02*
X120935666Y-81240380D01*
X120983285Y-81716571D01*
X120935666Y-81668952D01*
X120840428Y-81621333D01*
X120602333Y-81621333D01*
X120507095Y-81668952D01*
X120459476Y-81716571D01*
X120411857Y-81811809D01*
X120411857Y-82049904D01*
X120459476Y-82145142D01*
X120507095Y-82192761D01*
X120602333Y-82240380D01*
X120840428Y-82240380D01*
X120935666Y-82192761D01*
X120983285Y-82145142D01*
X119840428Y-81668952D02*
X119935666Y-81621333D01*
X119983285Y-81573714D01*
X120030904Y-81478476D01*
X120030904Y-81430857D01*
X119983285Y-81335619D01*
X119935666Y-81288000D01*
X119840428Y-81240380D01*
X119649952Y-81240380D01*
X119554714Y-81288000D01*
X119507095Y-81335619D01*
X119459476Y-81430857D01*
X119459476Y-81478476D01*
X119507095Y-81573714D01*
X119554714Y-81621333D01*
X119649952Y-81668952D01*
X119840428Y-81668952D01*
X119935666Y-81716571D01*
X119983285Y-81764190D01*
X120030904Y-81859428D01*
X120030904Y-82049904D01*
X119983285Y-82145142D01*
X119935666Y-82192761D01*
X119840428Y-82240380D01*
X119649952Y-82240380D01*
X119554714Y-82192761D01*
X119507095Y-82145142D01*
X119459476Y-82049904D01*
X119459476Y-81859428D01*
X119507095Y-81764190D01*
X119554714Y-81716571D01*
X119649952Y-81668952D01*
X118507095Y-82240380D02*
X119078523Y-82240380D01*
X118792809Y-82240380D02*
X118792809Y-81240380D01*
X118888047Y-81383238D01*
X118983285Y-81478476D01*
X119078523Y-81526095D01*
X118030904Y-82240380D02*
X117840428Y-82240380D01*
X117745190Y-82192761D01*
X117697571Y-82145142D01*
X117602333Y-82002285D01*
X117554714Y-81811809D01*
X117554714Y-81430857D01*
X117602333Y-81335619D01*
X117649952Y-81288000D01*
X117745190Y-81240380D01*
X117935666Y-81240380D01*
X118030904Y-81288000D01*
X118078523Y-81335619D01*
X118126142Y-81430857D01*
X118126142Y-81668952D01*
X118078523Y-81764190D01*
X118030904Y-81811809D01*
X117935666Y-81859428D01*
X117745190Y-81859428D01*
X117649952Y-81811809D01*
X117602333Y-81764190D01*
X117554714Y-81668952D01*
X135088238Y-93035380D02*
X135659666Y-93035380D01*
X135373952Y-93035380D02*
X135373952Y-92035380D01*
X135469190Y-92178238D01*
X135564428Y-92273476D01*
X135659666Y-92321095D01*
X134231095Y-92368714D02*
X134231095Y-93035380D01*
X134659666Y-92368714D02*
X134659666Y-92892523D01*
X134612047Y-92987761D01*
X134516809Y-93035380D01*
X134373952Y-93035380D01*
X134278714Y-92987761D01*
X134231095Y-92940142D01*
X133421571Y-92511571D02*
X133754904Y-92511571D01*
X133754904Y-93035380D02*
X133754904Y-92035380D01*
X133278714Y-92035380D01*
X127468238Y-87701380D02*
X128039666Y-87701380D01*
X127753952Y-87701380D02*
X127753952Y-86701380D01*
X127849190Y-86844238D01*
X127944428Y-86939476D01*
X128039666Y-86987095D01*
X126611095Y-87034714D02*
X126611095Y-87701380D01*
X127039666Y-87034714D02*
X127039666Y-87558523D01*
X126992047Y-87653761D01*
X126896809Y-87701380D01*
X126753952Y-87701380D01*
X126658714Y-87653761D01*
X126611095Y-87606142D01*
X125801571Y-87177571D02*
X126134904Y-87177571D01*
X126134904Y-87701380D02*
X126134904Y-86701380D01*
X125658714Y-86701380D01*
X127468238Y-86431380D02*
X128039666Y-86431380D01*
X127753952Y-86431380D02*
X127753952Y-85431380D01*
X127849190Y-85574238D01*
X127944428Y-85669476D01*
X128039666Y-85717095D01*
X126611095Y-85764714D02*
X126611095Y-86431380D01*
X127039666Y-85764714D02*
X127039666Y-86288523D01*
X126992047Y-86383761D01*
X126896809Y-86431380D01*
X126753952Y-86431380D01*
X126658714Y-86383761D01*
X126611095Y-86336142D01*
X125801571Y-85907571D02*
X126134904Y-85907571D01*
X126134904Y-86431380D02*
X126134904Y-85431380D01*
X125658714Y-85431380D01*
M02*
